<svg id="Layer_1" data-name="Layer 1" xmlns="http://www.w3.org/2000/svg" viewBox="0 0 2227.74 4609.41"><defs><style>.cls-1{fill:#21342f;}</style></defs><g id="Сгруппировать_489" data-name="Сгруппировать 489"><path id="Контур_1331" data-name="Контур 1331" class="cls-1" d="M1661.17,4600.66c6.63-121.42,18.73-278.19,9.35-535.43-8.36-230-26.19-322.69-39.19-390.46-10-51.85-14.53-75.54-17.53-157.86s-.72-121.26,4.26-206.6c6.49-111.48,15.38-264.15,7-494.17l-51,114.28c3,82.24.72,121.22-4.26,206.61-6.5,111.48-15.39,264.22-7,494.32S1589,3954.19,1602,4021.9c10,51.91,14.51,75.53,17.51,157.77,5.27,144.83-8.26,204.46-13.3,409.26,7.5-7.78,23.53,85.26,23.53,85.26s21-89.08,31.41-73.52Z"/><path id="Контур_1332" data-name="Контур 1332" class="cls-1" d="M1568,4305.44c-2.74-43.36-6.33-89.86-11-139.85-20.5-218.17-42.9-299-59.26-358.17-12.53-45.22-18.25-65.91-25.58-144s-7.2-116.77-6.91-201.77c.38-110.93.89-262.84-19.62-481.22-20.5-218.15-42.9-299-59.25-358.09-12.54-45.23-18.24-65.91-25.58-143.92s-7.2-116.9-6.92-201.85c.38-111,.9-263-19.62-481.28l-43.73,135.75c7.34,78,7.21,116.85,6.92,201.87-.39,110.9-.9,262.88,19.62,481.11s42.9,299.14,59.26,358.19c12.52,45.29,18.24,65.91,25.58,143.84,7.33,78.1,7.2,116.91,6.9,201.92-.37,110.91-.9,262.82,19.6,481,20.51,218.36,42.91,299.25,59.27,358.31,12.52,45.29,18.25,65.91,25.57,144s7.21,116.76,6.92,201.69c-.26,77.73-.58,179.78,6.88,312,2.15-130.29,24.81-212,24.81-212s7.25-251.7,16.16-297.59Z"/><path id="Контур_1333" data-name="Контур 1333" class="cls-1" d="M2136.81,859.73c-9.58,154.66-26.86,130.91-49.79,303.59-16.17,121.62-27.65,306.82-29.16,470.28-1.48,160.08,5.88,265.56,6.22,347.86.29,64.77-5.1,152.2-12.18,196.38-8.77,54.92-25.36,95.39-41,213.23-16,120.63-27.63,305.16-29.15,470.21-1.48,160,5.88,265.42,6.23,347.71.29,65-5.13,152.36-12.18,196.4-8.77,55-25.37,95.46-41,213.23-16.15,121.56-27.63,306.74-29.14,470.13-1.2,128.85,3.46,225.32,5.43,300.21,9,35.88,22.21,260.59,22.21,260.59s17.46-40.3,23.67,16c17.48-293.47,2.62-470.77,2.12-585.64-.14-32.49.76-63.59,3.38-105.89s5.27-68.33,8.79-90.42c3.22-20.17,7.16-37,12.49-59.63,8.44-35.91,18.69-79.5,28.53-153.6,7.17-54.06,14.14-124.32,20-219.56s8.43-178.14,9.1-250.66c1.48-159.66-5.88-265.63-6.24-347.79-.29-65,5.12-152.19,12.17-196.31,8.78-55,25.38-95.48,41-213.23,16.15-121.63,27.63-306.73,29.15-470.14,1.49-160.08-5.89-265.55-6.23-347.91-.27-65,5.15-152.37,12.19-196.48,12.78-80.08,42.28-129.8,61.06-432.64-16.69-47.56-31-88.4-47.72-135.88Z"/><path id="Контур_1334" data-name="Контур 1334" class="cls-1" d="M1861.63,4554.66c-3.29-234.7-17.59-288.3-11-445.72,1.84-43.9,4-71,7.1-94.07,11.29-83.48,39.83-136.31,52.92-450.64,4.13-98.9,5.1-184.69,4.41-259.83-1.52-165.7-10.86-274.44-12.75-359.63-1.5-67,2.26-157.64,8.49-203.77,11.27-83.49,39.83-136.42,52.92-450.72-17.58-48.31-32.67-89.81-50.23-138.2-3.58,85.86-8.62,108.68-18.46,156.3-20.8,100.7-33.54,195.95-41.56,388.56-13.09,314.55,5.66,498.13,8.34,619.31,1.5,67.1-2.26,157.73-8.49,203.79-11.27,83.48-39.81,136.31-52.92,450.72-11.78,283.08,2.21,456.82,7.22,583.38,5.47-4.39,28.12,76.55,28.12,76.55s13.8-84.52,25.93-76Z"/><path id="Контур_1335" data-name="Контур 1335" class="cls-1" d="M1741.2,0c-1.18,189.46-19.56,171-33,389.41-9.46,153.86-10.87,380.74-3.58,576.13,7.15,191.33,20.11,312.72,24.88,410.46,3.77,76.93,3.13,184-1.49,240.59-5.73,70.29-20,127.82-29.15,276.9-9.39,152.61-10.95,378.75-3.59,576,7.15,191.28,20.11,312.54,24.89,410.28,3.77,77.21,3.11,184.22-1.49,240.6-5.74,70.38-20,127.93-29.16,276.91-9.46,153.78-10.87,380.64-3.58,575.95,5.75,154,15.55,266.18,21.53,354.19,10.8,37.65,36,297.6,36,297.6s15.13-57.83,24.32,5.63c1.51-359.11-22.75-561.72-29.42-698.14-1.88-38.59-2.66-76.09-2.34-127.93s1.53-84.28,3.84-112.56c2.1-25.83,5.11-48.06,9.17-78,6.42-47.5,14.22-105.16,20-198.9,4.2-68.38,7.31-155.94,8-272.62s-1.23-216.75-4.47-303.43c-7.13-190.83-20.11-312.79-24.89-410.38-3.77-77.18-3.11-184,1.5-240.49,5.74-70.39,20-127.95,29.16-276.9,9.45-153.88,10.87-380.65,3.58-576-7.14-191.35-20.11-312.7-24.89-410.52-3.77-77.13-3.1-184.23,1.5-240.69,8.36-102.52,34.9-178.35,37.21-549.36C1776.68,87.58,1760.29,47.09,1741.2,0Z"/><path id="Контур_1336" data-name="Контур 1336" class="cls-1" d="M2045,4569.83c24-259.82,40.84-316.77,49.64-492.58,2.45-49,3.11-79.52,2.61-105.62-1.86-94.6-20.9-158.23-3.32-509.27,5.52-110.45,12.49-205.81,19.88-289.06,16.29-183.58,33.95-302.59,43.27-396.78,7.32-74.07,12.41-175.28,11.39-227.57-1.85-94.6-20.9-158.34-3.32-509.36,19.06-50.52,35.42-93.91,54.49-144.52-4.81,95.9-2.66,122.11,1.23,176.67,8.24,115.37,10.24,223.3-.53,438.39-17.59,351.3-49.91,551.69-63.14,685.67-7.34,74.17-12.42,175.39-11.39,227.59,1.84,94.6,20.89,158.24,3.32,509.37-15.84,316.15-43.28,506.45-58.94,646-4.18-5.83-30.44,80-30.44,80s-3.85-96.22-14.75-88.93Z"/></g><g id="Сгруппировать_490" data-name="Сгруппировать 490"><path id="Контур_1331-2" data-name="Контур 1331-2" class="cls-1" d="M391.88,4715.51c-5.17-80.44-14.6-184.3-7.29-354.72,6.52-152.37,20.43-213.78,30.57-258.68,7.78-34.35,11.33-50,13.67-104.57s.56-80.34-3.32-136.88c-5.06-73.85-12-175-5.48-327.38L459.8,3609c-2.32,54.49-.56,80.31,3.32,136.88,5.07,73.85,12,175,5.48,327.48S448.16,4287.23,438,4332.08c-7.78,34.39-11.32,50-13.66,104.52-4.11,95.95,6.45,135.45,10.37,271.13-5.84-5.15-18.34,56.49-18.34,56.49s-16.38-59-24.5-48.71Z"/><path id="Контур_1332-2" data-name="Контур 1332-2" class="cls-1" d="M440.3,4519.93c2.14-28.72,4.94-59.53,8.6-92.65,16-144.54,33.46-198.11,46.21-237.29,9.78-30,14.24-43.65,20-95.39s5.62-77.36,5.39-133.67c-.29-73.49-.7-174.13,15.3-318.8S569.22,3444,582,3404.89c9.77-30,14.22-43.66,19.94-95.34s5.62-77.45,5.4-133.72c-.3-73.54-.7-174.22,15.3-318.85l34.1,89.94c-5.72,51.69-5.61,77.41-5.39,133.73.3,73.47.7,174.16-15.3,318.74s-33.46,198.17-46.22,237.29c-9.76,30-14.23,43.66-19.94,95.3s-5.62,77.45-5.39,133.76c.29,73.48.7,174.12-15.29,318.67S515.72,4382.66,503,4421.79c-9.76,30-14.23,43.65-19.94,95.38s-5.62,77.36-5.39,133.63c.2,51.49.45,119.1-5.37,206.71-1.67-86.32-19.35-140.42-19.35-140.42s-5.65-166.75-12.6-197.16Z"/><path id="Контур_1333-2" data-name="Контур 1333-2" class="cls-1" d="M70.91,2237.18c7.48,102.46,21,86.72,38.84,201.12,12.61,80.57,21.56,203.26,22.74,311.56,1.15,106-4.59,175.93-4.86,230.45-.22,42.91,4,100.83,9.5,130.1,6.84,36.38,19.78,63.2,32,141.27,12.49,79.91,21.54,202.16,22.73,311.5,1.16,106-4.59,175.84-4.86,230.36-.22,43.07,4,100.94,9.5,130.11,6.84,36.44,19.78,63.24,32,141.27,12.6,80.53,21.55,203.21,22.73,311.45.93,85.37-2.69,149.28-4.24,198.89-7,23.77-17.32,172.65-17.32,172.65s-13.61-26.7-18.46,10.58c-13.62-194.43-2-311.89-1.64-388,.11-21.52-.6-42.12-2.64-70.15s-4.11-45.26-6.86-59.9c-2.51-13.37-5.58-24.5-9.74-39.51a807.28,807.28,0,0,1-22.25-101.75c-5.6-35.82-11-82.37-15.64-145.46s-6.57-118-7.09-166.06c-1.16-105.78,4.58-176,4.86-230.41.22-43.06-4-100.83-9.49-130.05-6.85-36.43-19.79-63.25-32-141.26C96.1,3205.37,87.15,3082.74,86,2974.48c-1.16-106.05,4.59-175.93,4.86-230.49.21-43-4-100.95-9.5-130.17-10-53.05-33-86-47.63-286.62,13-31.51,24.2-58.56,37.22-90Z"/><path id="Контур_1334-2" data-name="Контур 1334-2" class="cls-1" d="M260,4685c2.57-155.49,13.71-191,8.61-295.29-1.43-29.09-3.11-47.06-5.54-62.33-8.8-55.3-31.06-90.3-41.27-298.54-3.21-65.51-4-122.35-3.44-172.13,1.18-109.77,8.46-181.81,9.95-238.25,1.16-44.39-1.77-104.44-6.63-135-8.79-55.31-31.06-90.38-41.27-298.6,13.71-32,25.48-59.5,39.17-91.56,2.79,56.89,6.73,72,14.4,103.55,16.22,66.72,26.16,129.82,32.41,257.42,10.21,208.38-4.41,330-6.5,410.29-1.17,44.45,1.76,104.49,6.62,135,8.79,55.3,31.06,90.3,41.28,298.59,9.18,187.54-1.73,302.65-5.63,386.49-4.27-2.9-21.94,50.72-21.94,50.72s-10.76-56-20.22-50.37Z"/><path id="Контур_1335-2" data-name="Контур 1335-2" class="cls-1" d="M340.47,849.92c.92,159,15.25,143.45,25.73,326.74,7.38,129.1,8.49,319.47,2.79,483.42-5.56,160.54-15.68,262.39-19.4,344.4-2.94,64.55-2.44,154.4,1.17,201.87,4.47,59,15.58,107.26,22.73,232.35,7.32,128,8.54,317.8,2.79,483.34-5.56,160.49-15.68,262.24-19.41,344.25-2.94,64.79-2.42,154.57,1.17,201.88,4.47,59.06,15.6,107.34,22.74,232.35,7.38,129,8.48,319.38,2.79,483.26C379.09,4313,371.44,4407.12,366.78,4481c-8.42,31.59-28.09,249.71-28.09,249.71s-11.8-48.52-19,4.72c-1.19-301.32,17.74-471.32,22.94-585.79,1.47-32.37,2.08-63.85,1.83-107.35s-1.2-70.71-3-94.44c-1.64-21.67-4-40.32-7.15-65.47-5-39.85-11.09-88.23-15.59-166.89-3.28-57.38-5.7-130.84-6.26-228.74s1-181.87,3.48-254.61c5.56-160.11,15.68-262.45,19.41-344.33,2.94-64.76,2.43-154.4-1.16-201.79-4.48-59.06-15.6-107.36-22.74-232.34-7.38-129.11-8.48-319.4-2.8-483.29,5.57-160.56,15.69-262.37,19.41-344.46,2.94-64.72,2.42-154.58-1.17-202-6.51-86-27.21-149.65-29-460.95,14.89-39.6,27.68-73.57,42.56-113.08Z"/><path id="Контур_1336-2" data-name="Контур 1336-2" class="cls-1" d="M142.52,4695.08c-18.75-172.12-31.85-209.85-38.71-326.33-1.91-32.48-2.43-52.67-2-70,1.45-62.67,16.3-104.83,2.59-337.39-4.31-73.17-9.74-136.34-15.5-191.5C76.15,3648.28,62.38,3569.43,55.11,3507c-5.71-49.07-9.68-116.12-8.88-150.76,1.44-62.67,16.3-104.9,2.59-337.45-14.86-33.46-27.63-62.21-42.5-95.74,3.75,63.53,2.08,80.89-1,117-6.42,76.43-8,147.94.42,290.43C19.5,3563.29,44.7,3696,55,3784.8c5.72,49.14,9.68,116.2,8.88,150.78-1.44,62.67-16.29,104.83-2.59,337.45,12.36,209.45,33.76,335.52,46,428,3.26-3.87,23.74,53,23.74,53s3-63.74,11.5-58.91Z"/></g><g id="Сгруппировать_491" data-name="Сгруппировать 491"><path id="Контур_1331-3" data-name="Контур 1331-3" class="cls-1" d="M1125.07,4953.45c-5.17-59-14.6-135.27-7.29-260.34,6.52-111.84,20.43-156.91,30.57-189.86,7.79-25.21,11.33-36.73,13.67-76.76s.56-59-3.32-100.46c-5.06-54.2-12-128.44-5.48-240.28l39.77,55.56c-2.32,40-.56,58.95,3.32,100.47,5.07,54.2,12,128.47,5.48,240.35s-20.44,157-30.59,189.9c-7.77,25.24-11.32,36.73-13.66,76.72-4.1,70.42,6.45,99.41,10.37,199-5.84-3.78-18.34,41.46-18.34,41.46s-16.38-43.31-24.5-35.75Z"/><path id="Контур_1332-3" data-name="Контур 1332-3" class="cls-1" d="M1227,4809.9c2.14-21.08,4.93-43.69,8.6-68,16-106.08,33.46-145.4,46.21-174.16,9.77-22,14.24-32,20-70s5.62-56.78,5.39-98.11c-.29-53.94-.7-127.8,15.3-234s33.46-145.41,46.22-174.12c9.77-22,14.22-32.05,19.94-70s5.62-56.85,5.4-98.15c-.3-54-.7-127.86,15.3-234l34.1,66c-5.72,37.94-5.61,56.82-5.39,98.16.3,53.92.7,127.82-15.3,233.93s-33.46,145.45-46.22,174.17c-9.76,22-14.23,32-19.94,69.94s-5.62,56.85-5.39,98.18c.29,53.93.7,127.79-15.29,233.88s-33.47,145.51-46.23,174.23c-9.76,22-14.23,32-19.94,70s-5.62,56.77-5.39,98.07c.2,37.79.45,87.42-5.37,151.72-1.67-63.36-19.35-103.07-19.35-103.07s-5.65-122.38-12.6-144.7Z"/><path id="Контур_1333-3" data-name="Контур 1333-3" class="cls-1" d="M694,3134.47c7.48,75.2,20.95,63.66,38.84,147.62,12.61,59.13,21.56,149.18,22.74,228.67,1.15,77.83-4.59,129.12-4.86,169.14-.22,31.49,4,74,9.5,95.49,6.84,26.7,19.78,46.38,32,103.68,12.49,58.65,21.54,148.38,22.73,228.63,1.16,77.81-4.59,129.06-4.86,169.07-.22,31.62,4,74.09,9.5,95.5,6.84,26.74,19.78,46.41,32,103.68,12.6,59.11,21.55,149.15,22.73,228.6.93,62.65-2.69,109.55-4.23,146-7,17.44-17.33,126.71-17.33,126.71s-13.61-19.6-18.46,7.77c-13.62-142.7-2-228.91-1.64-284.77a466.19,466.19,0,0,0-2.64-51.49c-2-20.56-4.11-33.22-6.86-44-2.51-9.81-5.58-18-9.74-29a462.8,462.8,0,0,1-22.24-74.69c-5.6-26.29-11-60.45-15.64-106.76s-6.58-86.62-7.1-121.88c-1.15-77.63,4.58-129.16,4.86-169.11.23-31.6-4-74-9.49-95.45-6.84-26.74-19.79-46.42-32-103.68-12.6-59.14-21.55-149.15-22.74-228.61-1.16-77.83,4.6-129.12,4.86-169.16.22-31.58-4-74.09-9.5-95.54-10-38.93-33-63.11-47.62-210.37,13-23.12,24.19-43,37.21-66.06Z"/><path id="Контур_1334-3" data-name="Контур 1334-3" class="cls-1" d="M939.26,4931.09c2.57-114.13,13.72-140.19,8.61-216.73-1.43-21.35-3.11-34.54-5.54-45.74-8.8-40.59-31.06-66.28-41.27-219.12-3.21-48.09-4-89.81-3.44-126.34,1.19-80.57,8.47-133.44,10-174.86,1.16-32.58-1.77-76.65-6.63-99.09-8.79-40.59-31.06-66.33-41.27-219.15,13.71-23.49,25.48-43.67,39.18-67.2,2.78,41.75,6.72,52.85,14.39,76,16.23,49,26.16,95.28,32.41,188.93,10.21,152.94-4.4,242.21-6.5,301.13-1.17,32.63,1.76,76.7,6.62,99.09,8.8,40.59,31.06,66.28,41.28,219.15,9.19,137.65-1.73,222.13-5.63,283.67-4.27-2.14-21.94,37.22-21.94,37.22s-10.76-41.1-20.22-37Z"/><path id="Контур_1335-3" data-name="Контур 1335-3" class="cls-1" d="M1049.43,2716.44c.92,92.12,15.25,83.13,25.73,189.34,7.38,74.81,8.49,185.13,2.79,280.14-5.56,93-15.68,152-19.4,199.58-2.94,37.41-2.44,89.47,1.17,117,4.47,34.18,15.58,62.15,22.73,134.64,7.32,74.2,8.54,184.17,2.79,280.1-5.56,93-15.68,152-19.41,199.49-2.94,37.54-2.42,89.57,1.17,117,4.47,34.22,15.6,62.2,22.74,134.64,7.38,74.77,8.48,185.08,2.79,280.05-4.48,74.88-12.13,129.43-16.79,172.22-8.42,18.31-28.09,144.7-28.09,144.7s-11.8-28.11-19,2.74c-1.19-174.61,17.74-273.13,22.94-339.46,1.47-18.76,2.08-37,1.83-62.21s-1.2-41-3-54.73c-1.64-12.55-4-23.36-7.15-37.94a763.48,763.48,0,0,1-15.59-96.71c-3.28-33.25-5.7-75.82-6.26-132.56s1-105.39,3.48-147.54c5.56-92.79,15.68-152.09,19.41-199.54,2.94-37.53,2.43-89.47-1.16-116.93-4.48-34.23-15.6-62.22-22.74-134.64-7.38-74.82-8.48-185.09-2.8-280.07,5.57-93,15.69-152,19.41-199.61,2.94-37.5,2.42-89.57-1.17-117-6.51-49.85-27.21-86.72-29-267.12,14.89-22.94,27.68-42.63,42.56-65.53Z"/><path id="Контур_1336-3" data-name="Контур 1336-3" class="cls-1" d="M765.59,4938.45c-18.75-126.33-31.84-154-38.71-239.51-1.91-23.84-2.43-38.66-2-51.35,1.45-46,16.3-76.94,2.59-247.63-4.3-53.71-9.74-100.07-15.5-140.55-12.71-89.26-26.48-147.13-33.75-192.93-5.71-36-9.68-85.23-8.88-110.65,1.44-46,16.3-77,2.59-247.67-14.86-24.57-27.63-45.67-42.5-70.27,3.75,46.63,2.08,59.37-1,85.9-6.42,56.1-8,108.57.42,213.16,13.72,170.82,38.92,268.25,49.24,333.4,5.72,36.06,9.68,85.28,8.88,110.66-1.44,46-16.29,76.94-2.59,247.68,12.36,153.72,33.76,246.25,46,314.1,3.26-2.83,23.74,38.9,23.74,38.9S757.09,4934.91,765.59,4938.45Z"/></g></svg>