<svg id="Layer_1" data-name="Layer 1" xmlns="http://www.w3.org/2000/svg" viewBox="0 0 2004.65 2020.46"><defs><style>.cls-1{fill:#446a62;}.cls-2{fill:#fff;}</style></defs><g id="Сгруппировать_330" data-name="Сгруппировать 330"><g id="Сгруппировать_328" data-name="Сгруппировать 328"><path id="Контур_965" data-name="Контур 965" class="cls-1" d="M1820.08,2020.43c-398.91,0-651.11-322.11-651.11-660.42V436.46a61.64,61.64,0,0,1,36.78-56.58c454.44-196.71,791.92,307.35,791.92,738.22V1840c0,99.19-78.6,180.14-175.23,180.44Z"/></g><g id="Сгруппировать_329" data-name="Сгруппировать 329"><path id="Контур_966" data-name="Контур 966" class="cls-1" d="M184.54,2020.45H182.2C85.58,2020.16,7,1939.2,7,1840V1118.12C7,691.25,341.67,182.29,799.58,380a60.37,60.37,0,0,1,36.06,55.39V1360C835.67,1695.86,586.18,2020.45,184.54,2020.45Z"/></g><path id="Контур_967" data-name="Контур 967" class="cls-2" d="M1611.93,1594l-40.1-208h130.38a27.26,27.26,0,0,0,0-54.48H1561.34L1502.22,1025h200a27.24,27.24,0,0,0,0-54.44H1476.33L1028.6,740.29V27.23a26.27,26.27,0,1,0-52.51,0V740.29L528.34,970.55H302.45a27.24,27.24,0,0,0,0,54.45h200l-59.09,306.47H302.45a27.26,27.26,0,0,0,0,54.48H432.83L392.7,1594a27.28,27.28,0,0,0,20.61,32,26.25,26.25,0,0,0,30.79-20.72l.12-.68c3-15.6,35.66-185,64.71-335.59l48.74-252.83,444.7-228.72,444.69,228.72,3,15.9c2.13,11.11,35.81,185.82,65.48,339.54l44.93,233a27.13,27.13,0,0,0,11.21,17.36,25.43,25.43,0,0,0,19.66,4A27.28,27.28,0,0,0,1611.93,1594Z"/></g></svg>