<svg id="Layer_1" data-name="Layer 1" xmlns="http://www.w3.org/2000/svg" viewBox="0 0 2004.65 2020.46"><defs><style>.cls-1{fill:#fff;}.cls-2{fill:#446a62;}</style></defs><g id="Сгруппировать_333" data-name="Сгруппировать 333"><g id="Сгруппировать_324" data-name="Сгруппировать 324"><path id="Контур_943" data-name="Контур 943" class="cls-1" d="M631.41,1423.74c12,0,22.26-14.6,22.26-31.86V953.54c0-74.71-38.36-139.58-95.4-161.42L402.61,732.59a15.42,15.42,0,0,0-5.41-1,15.61,15.61,0,0,0-7.14,1.82,29.67,29.67,0,0,0-13.74,19.5c-4.42,17.22,2.83,36.6,15.52,41.43l155.64,59.54c36.92,14.14,61.73,54.21,61.73,99.69v438.34C609.2,1409.16,619.37,1423.74,631.41,1423.74Z"/><path id="Контур_944" data-name="Контур 944" class="cls-1" d="M1032.6,752.85a29.61,29.61,0,0,0-13.74-19.46,15.55,15.55,0,0,0-7.15-1.82,15.27,15.27,0,0,0-5.43,1L850.62,792.12c-57,21.84-95.4,86.72-95.4,161.43v438.33c0,17.29,10.2,31.87,22.24,31.87s22.23-14.6,22.23-31.87V953.55c0-45.51,24.81-85.55,61.72-99.7l155.66-59.51C1029.76,789.48,1037.05,770.1,1032.6,752.85Z"/><path id="Контур_945" data-name="Контур 945" class="cls-1" d="M1066.31,750.42c4.89-17.17-1.94-36.92-14.59-42.33L877.53,633.77A194.89,194.89,0,0,1,779.86,535l-41.15-88a248.94,248.94,0,0,1-22.77-104.63V33.41C715.94,16.28,706,.69,694.6,0a19.13,19.13,0,0,0-12.88,5.24,37,37,0,0,0-10.26,26.62V342.35A248.86,248.86,0,0,1,648.71,447l-41.12,88a194.89,194.89,0,0,1-97.69,98.74l-173,73.84c-11.64,5-21,23.53-16,42.22,4,14.92,15.54,24.33,26.79,19.51L521.88,695c51.7-22.06,95.31-66.56,122.74-125.3l25.83-55.33a25.48,25.48,0,0,1,46.51,0l25.86,55.37c27.42,58.74,71,103.24,122.71,125.3l174.19,74.33C1050.68,774,1062.16,765,1066.31,750.42Z"/><path id="Контур_946" data-name="Контур 946" class="cls-2" d="M6.91,718.51C6.91,858,37.7,1040,146.53,1172.82c85.13,103.9,223.14,103.9,308.25,0s85.13-272.41,0-376.34a126.26,126.26,0,0,1,0-155.91c85.13-103.89,85.13-272.4,0-376.31s-223.12-103.89-308.25,0C37.7,397.14,6.91,579.07,6.91,718.51Z"/><path id="Контур_947" data-name="Контур 947" class="cls-2" d="M1262.38,264.26c-85.14-103.89-223.14-103.89-308.25,0s-85.15,272.4,0,376.31a126.18,126.18,0,0,1,0,155.91c-85.15,103.9-85.15,272.4,0,376.34s223.11,103.9,308.25,0C1371.22,1040,1402,858,1402,718.51S1371.21,397.14,1262.38,264.26Z"/></g><g id="Сгруппировать_327" data-name="Сгруппировать 327"><path id="Контур_958" data-name="Контур 958" class="cls-1" d="M1320.71,1665.71V1954.4a17.3,17.3,0,1,0,34.57,0V1645.47Q1337.94,1655.9,1320.71,1665.71Z"/><path id="Контур_959" data-name="Контур 959" class="cls-1" d="M1690,1624a157.9,157.9,0,0,1-147.46-100.85q-14.14,11.1-28.24,21.81A193.14,193.14,0,0,0,1690,1659.87h44a17.94,17.94,0,0,0,0-35.85Z"/><path id="Контур_960" data-name="Контур 960" class="cls-1" d="M1418.79,941.85a6,6,0,1,0,11.89-1.34v0A139.24,139.24,0,0,0,1277.59,817a6.27,6.27,0,0,0,1.43,12.44A127,127,0,0,1,1418.79,941.85Z"/><path id="Контур_961" data-name="Контур 961" class="cls-1" d="M1587.25,793.87a5.18,5.18,0,1,0-10.12,0c0,70.36-47.89,127.62-106.75,127.62a6.44,6.44,0,0,0,0,12.58C1534.82,934.1,1587.25,871.15,1587.25,793.87Z"/><path id="Контур_962" data-name="Контур 962" class="cls-1" d="M1465.26,1042.16V814.31a17.3,17.3,0,1,0-34.58,0V1034.8c9,1.76,17.46,3.55,25.28,5.33C1459,1040.82,1462.11,1041.49,1465.26,1042.16Z"/><path id="Контур_963" data-name="Контур 963" class="cls-1" d="M898,966.14a157.36,157.36,0,0,1,118.77,54.72q18.69-4.41,38.81-7.49A192.6,192.6,0,0,0,898,930.28H876a17.94,17.94,0,0,0,0,35.86Z"/><path id="Контур_964" data-name="Контур 964" class="cls-2" d="M1900,970.33c-52.37,28.95-131.64,50.23-204.81,60.73h0c-19.35,2.79-38.35,5-56.23,6.15a656.11,656.11,0,0,1-188.9-14.68,1678,1678,0,0,0-225-31.82h0c-2.73-.17-5.77-.43-8.41-.56-133.48-7.09-287.49,7.51-374.54,123.42A494.65,494.65,0,0,0,773,1252.22q-4.69,13.72-8.81,27.54c-45.84,152.18-43.79,308.51-28.23,466.23,6.43,65.54,26.27,128.28,31.14,193.87,3.54,47.62,24,80.24,42.93,80.55,74.88,1.27,78.62-69.23,88-89.3a264.42,264.42,0,0,1,195.66-151.76A593.54,593.54,0,0,0,1256.14,1722c269-138.89,478-358,548.46-438,20.78-23.58,42.51-46.07,64.62-68.37,69.16-69.66,106-121.86,123.06-160.92a66.11,66.11,0,0,0-92.33-84.3Z"/></g></g></svg>