<svg id="Layer_1" data-name="Layer 1" xmlns="http://www.w3.org/2000/svg" viewBox="0 0 4482.9 1951.64"><defs><style>.cls-1{fill:#5c895a;}.cls-2{fill:#92bcbf;}.cls-3,.cls-4,.cls-5{isolation:isolate;}.cls-4,.cls-5{font-size:153.73px;fill:#fff;}.cls-4{font-family:MADETOMMY, MADE TOMMY;}.cls-5{font-family:MyriadPro-Regular, Myriad Pro;}.cls-6,.cls-7,.cls-8{fill:none;stroke-miterlimit:10;}.cls-6,.cls-8{stroke:#ca151c;}.cls-6,.cls-7{stroke-width:12px;}.cls-7{stroke:#5fa431;}.cls-8{stroke-width:6px;}</style></defs><g id="Сгруппировать_480" data-name="Сгруппировать 480"><g id="Сгруппировать_474" data-name="Сгруппировать 474"><path id="Контур_1316" data-name="Контур 1316" class="cls-1" d="M725.15,849.37H524.41a35.86,35.86,0,0,1-35.75-36V782.08a36.12,36.12,0,0,1,10.47-25.46l33.51-33.72a35.56,35.56,0,0,1,25.27-10.55H691.65a35.6,35.6,0,0,1,25.27,10.55l33.51,33.72a36.17,36.17,0,0,1,10.48,25.46v31.29a35.87,35.87,0,0,1-35.74,36Z"/><path id="Контур_1317" data-name="Контур 1317" class="cls-2" d="M815.37,1949.52H434.21a109.27,109.27,0,0,1-108.9-109.63V1447.5a330.1,330.1,0,0,1,12.58-90.44l41.87-147.47L332,1065.22a130.9,130.9,0,0,1,40-141.34l116.74-98H760.91l116.75,98a130.79,130.79,0,0,1,40,141.24L869.82,1209.6l41.87,147.55a330.43,330.43,0,0,1,12.58,90.44v392.32A109.27,109.27,0,0,1,815.37,1949.52Z"/><path id="Контур_1318" data-name="Контур 1318" class="cls-1" d="M573.92,631.8H675.68a30.93,30.93,0,0,1,30.81,31v47.59a30.92,30.92,0,0,1-30.81,31H573.92a30.9,30.9,0,0,1-30.8-31V662.82A30.91,30.91,0,0,1,573.92,631.8Z"/><rect id="Прямоугольник_37" data-name="Прямоугольник 37" class="cls-1" x="437.83" y="1005.16" width="376.15" height="414.41" rx="100.38"/><g id="PO_" data-name="PO " class="cls-3"><text class="cls-4" transform="translate(467.11 1268.71)">PO</text><text class="cls-5" transform="translate(680.34 1268.71)">₄³</text></g><path id="Контур_1319" data-name="Контур 1319" class="cls-2" d="M1223.74,1025.62c0,47.42-40.46,85.35-89.85,85.35s-89.84-37.93-89.84-85.35,89.84-154.23,89.84-154.23S1223.74,978.69,1223.74,1025.62Z"/><path id="Контур_1320" data-name="Контур 1320" class="cls-2" d="M1463.33,1025.62c0,47.42-40.44,85.35-89.83,85.35s-89.86-37.93-89.86-85.35,89.86-154.23,89.86-154.23S1463.33,978.69,1463.33,1025.62Z"/><path id="Контур_1321" data-name="Контур 1321" class="cls-2" d="M1223.74,1325.09c0,47.42-40.46,85.35-89.85,85.35s-89.84-37.93-89.84-85.35,89.84-154.23,89.84-154.23S1223.74,1278.18,1223.74,1325.09Z"/><path id="Контур_1322" data-name="Контур 1322" class="cls-2" d="M1463.33,1325.09c0,47.42-40.44,85.35-89.83,85.35s-89.86-37.93-89.86-85.35,89.86-154.23,89.86-154.23S1463.33,1278.18,1463.33,1325.09Z"/><path id="Контур_1323" data-name="Контур 1323" class="cls-2" d="M1223.74,1624.58c0,47.41-40.46,85.35-89.85,85.35s-89.84-37.94-89.84-85.35,89.84-154.24,89.84-154.24S1223.74,1577.66,1223.74,1624.58Z"/><path id="Контур_1324" data-name="Контур 1324" class="cls-2" d="M1463.33,1624.58c0,47.41-40.44,85.35-89.83,85.35s-89.86-37.94-89.86-85.35,89.86-154.24,89.86-154.24S1463.33,1577.66,1463.33,1624.58Z"/></g><g id="Сгруппировать_476" data-name="Сгруппировать 476"><path id="Контур_1313-2" data-name="Контур 1313-2" class="cls-6" d="M965.45,0c27.47,72.84,73.61,137.06,122.37,197.75A2245.62,2245.62,0,0,0,1552.1,631.8"/><path id="Контур_1314-2" data-name="Контур 1314-2" class="cls-6" d="M1050.47,593a1493.09,1493.09,0,0,1,508.78-575.4"/></g></g><path id="Контур_1325" data-name="Контур 1325" class="cls-7" d="M3464.06,269.89a1300.84,1300.84,0,0,1,163,302.05,853.11,853.11,0,0,1,573.8-419.53"/><g id="Сгруппировать_479" data-name="Сгруппировать 479"><path id="Контур_1326" data-name="Контур 1326" class="cls-1" d="M3362.65,851.51H3161.92a35.89,35.89,0,0,1-35.76-36h0v-31.3a36.11,36.11,0,0,1,10.47-25.45L3170.14,725a35.68,35.68,0,0,1,25.28-10.55h133.72A35.69,35.69,0,0,1,3354.45,725l33.49,33.72a36,36,0,0,1,10.46,25.45v31.3a35.86,35.86,0,0,1-35.74,36Z"/><path id="Контур_1327" data-name="Контур 1327" class="cls-2" d="M3452.91,1951.64H3071.74A109.26,109.26,0,0,1,2962.84,1842h0V1449.63a330.5,330.5,0,0,1,12.58-90.45l41.88-147.46-47.81-144.37a130.91,130.91,0,0,1,40-141.35l116.75-98h272.25l116.74,98a130.79,130.79,0,0,1,40,141.24l-47.8,144.48,41.88,147.55a330,330,0,0,1,12.56,90.43V1842A109.24,109.24,0,0,1,3452.91,1951.64Z"/><path id="Контур_1328" data-name="Контур 1328" class="cls-1" d="M3211.46,633.93h101.76A30.92,30.92,0,0,1,3344,665v47.58a30.93,30.93,0,0,1-30.81,31H3211.46a30.94,30.94,0,0,1-30.82-31V665A30.93,30.93,0,0,1,3211.46,633.93Z"/><rect id="Прямоугольник_38" data-name="Прямоугольник 38" class="cls-1" x="3073.62" y="1007.29" width="376.15" height="414.41" rx="100.38"/><g id="PO_2" data-name="PO 2" class="cls-3"><text class="cls-4" transform="translate(3102.91 1270.82)">PO</text><text class="cls-5" transform="translate(3316.13 1270.82)">₄³</text></g><path id="Контур_1329" data-name="Контур 1329" class="cls-2" d="M3858.79,1027.74c0,47.42-40.46,85.35-89.85,85.35s-89.84-37.93-89.84-85.35,89.84-154.22,89.84-154.22S3858.79,980.8,3858.79,1027.74Z"/><path id="Контур_1330" data-name="Контур 1330" class="cls-2" d="M4098.36,1027.74c0,47.42-40.45,85.35-89.84,85.35s-89.85-37.93-89.85-85.35,89.85-154.22,89.85-154.22S4098.36,980.8,4098.36,1027.74Z"/><line id="Линия_70" data-name="Линия 70" class="cls-8" x1="3127.56" y1="1350.36" x2="3397.09" y2="1080.82"/></g></svg>