<svg id="Layer_1" data-name="Layer 1" xmlns="http://www.w3.org/2000/svg" viewBox="0 0 2004.65 2020.46"><defs><style>.cls-1{fill:#bbdcb9;}.cls-2{fill:#fff;}.cls-3{fill:none;stroke:#717070;}.cls-4{fill:#446a62;}</style></defs><rect class="cls-1" y="0.01" width="2004.65" height="2020.45"/><g id="Сгруппировать_457" data-name="Сгруппировать 457"><g id="Эллипс_484" data-name="Эллипс 484"><ellipse class="cls-2" cx="982.87" cy="996.02" rx="798.53" ry="832.88"/><ellipse class="cls-3" cx="982.87" cy="996.02" rx="794.24" ry="828.58"/></g><g id="Сгруппировать_325" data-name="Сгруппировать 325"><path id="Контур_950" data-name="Контур 950" class="cls-4" d="M1019.46,217.54C1019.46,97.38,918,0,792.88,0,683,0,591.46,75.07,570.73,174.7a306.48,306.48,0,0,0-147.24-37.37c-164.67,0-298.18,128.18-298.18,286.29A276.88,276.88,0,0,0,176,583.33C73,601.36,1.29,693.52,14.07,794.55a193.45,193.45,0,0,0,135.42,158.7A270.73,270.73,0,0,0,32.4,1174.77c0,143.35,114.42,261,260.34,273.4a264.3,264.3,0,0,0-18.21,96.47c0,151.6,128,274.52,285.93,274.52a296.53,296.53,0,0,0,61.16-6.36c-.48,5.37-.78,10.83-.78,16.31,0,105.69,89.23,191.35,199.32,191.35s199.3-85.66,199.3-191.36l-3.25-788.33ZM677.19,230.26a10.79,10.79,0,0,1,13.63-4.83A305.69,305.69,0,0,1,826.21,332.49a7.71,7.71,0,0,1,1.37,6.08,8.79,8.79,0,0,1-4,5.66,10.91,10.91,0,0,1-6,1.72,10.43,10.43,0,0,1-8.58-4.24A286.08,286.08,0,0,0,682.39,241.45a9.35,9.35,0,0,1-5.29-5.07A7.83,7.83,0,0,1,677.19,230.26ZM511.14,834.86a10.18,10.18,0,0,1-12.35-6.71,7.71,7.71,0,0,1,1-6,9.65,9.65,0,0,1,6.38-4.36A192.11,192.11,0,0,0,607,758.91l15.4-17.25-18.27-14.23a196.2,196.2,0,0,1-71.42-109.49,191.89,191.89,0,0,1-5.37-39.19,8,8,0,0,1,2.3-5.86,10.81,10.81,0,0,1,7.83-3.23h0a9.62,9.62,0,0,1,10,8.59,176.25,176.25,0,0,0,4.92,36.06,181.19,181.19,0,0,0,84.68,113.4,193.1,193.1,0,0,0,99.24,27.36,197.24,197.24,0,0,0,43.3-4.84A10.17,10.17,0,0,1,792,757a7.71,7.71,0,0,1-1,6,9.84,9.84,0,0,1-6.4,4.36A216.59,216.59,0,0,1,654,756.45l-15-6.15-10.19,12.5A211.43,211.43,0,0,1,511.14,834.86Zm331.19,644.7a10.43,10.43,0,0,1-12.74,6.26,297.56,297.56,0,0,1-160.05-106.89l-18.32-24.35-17,25.25a260.73,260.73,0,0,0-44.51,159.28,8,8,0,0,1-2.15,5.89,10.48,10.48,0,0,1-7.33,3.35,9.8,9.8,0,0,1-10.67-8.4,275.29,275.29,0,0,1,65-192.54l8.66-10.3-5.49-12.31a273,273,0,0,1,21.43-261.56,11.2,11.2,0,0,1,14.43-2.89,8.92,8.92,0,0,1,4.2,5.55,7.83,7.83,0,0,1-1.16,6.13,257.37,257.37,0,0,0-12.38,262.19l19.67-9.2-19.41,9.67.26.53A274.59,274.59,0,0,0,835.52,1469a9.73,9.73,0,0,1,6.11,4.61,7.65,7.65,0,0,1,.69,6Z"/><path id="Контур_951" data-name="Контур 951" class="cls-4" d="M2003.17,794.55c12.79-101.06-59-193.19-161.88-211.22A277,277,0,0,0,1892,423.62c0-158.11-133.51-286.29-298.18-286.29a306.47,306.47,0,0,0-147.23,37.37C1425.81,75.11,1334.22,0,1224.38,0,1099.25,0,997.79,97.38,997.79,217.54V1829.1c0,105.69,89.24,191.35,199.32,191.35s199.3-85.66,199.3-191.35c0-5.5-.3-11-.78-16.31a297.22,297.22,0,0,0,61.16,6.36c157.92,0,285.93-122.92,285.93-274.52a264.08,264.08,0,0,0-18.19-96.47c145.9-12.45,260.32-130.05,260.32-273.4a270.77,270.77,0,0,0-117.08-221.52A193.43,193.43,0,0,0,2003.17,794.55Zm-737.66,88.3a8.9,8.9,0,0,1,4.53-5.41,268.64,268.64,0,0,0,111.41-112.19,258.08,258.08,0,0,0,29.48-113.34,260.78,260.78,0,0,0-83.87-196.43,8,8,0,0,1-.18-11.92,11,11,0,0,1,14.87-.15A280,280,0,0,1,1428.91,610l4.09,30.69,27.48-14.36a273.33,273.33,0,0,0,117.88-119.16,11,11,0,0,1,13.88-4.4,9.37,9.37,0,0,1,5,5.25,7.66,7.66,0,0,1-.38,6.13,291.11,291.11,0,0,1-153.46,140L1431.21,659l-1.29,13a273.52,273.52,0,0,1-30.13,100.55,286.94,286.94,0,0,1-119.25,119.93,10.75,10.75,0,0,1-14.22-3.52,7.65,7.65,0,0,1-.8-6.14Zm215.15,690.61a10.41,10.41,0,0,1-6.87,4.13,14.88,14.88,0,0,1-2.21.2,10.09,10.09,0,0,1-10.3-7.33,258.28,258.28,0,0,0-79.22-137.12,305,305,0,0,0-335.2-47.82,11.45,11.45,0,0,1-14.65-3.9,7.45,7.45,0,0,1-.64-6.13,9.33,9.33,0,0,1,5-5.34A333.47,333.47,0,0,1,1179.29,1338a320.91,320.91,0,0,1,218.27,83.45,275,275,0,0,1,84.42,146,7.73,7.73,0,0,1-1.31,6Zm174.74-332.29a8.81,8.81,0,0,1-3.94,5.66,10.88,10.88,0,0,1-6,1.72,10.43,10.43,0,0,1-8.54-4.14,277.26,277.26,0,0,0-147.8-103.89,9.79,9.79,0,0,1-6-4.67,7.81,7.81,0,0,1-.59-6.08,9.84,9.84,0,0,1,7.51-6.31h0a11.67,11.67,0,0,1,5.32.26A297.37,297.37,0,0,1,1654,1235a7.84,7.84,0,0,1,1.46,6.18Z"/></g></g></svg>