<svg id="Layer_1" data-name="Layer 1" xmlns="http://www.w3.org/2000/svg" viewBox="0 0 3208.99 1951.64"><defs><style>.cls-1{fill:#5c895a;}.cls-2{fill:#92bcbf;}.cls-3,.cls-4,.cls-5{isolation:isolate;}.cls-4,.cls-5{font-size:153.73px;fill:#fff;}.cls-4{font-family:MADETOMMY, MADE TOMMY;}.cls-5{font-family:MyriadPro-Regular, Myriad Pro;}.cls-6,.cls-7,.cls-8{fill:none;stroke-miterlimit:10;}.cls-6,.cls-8{stroke:#ca151c;}.cls-6,.cls-7{stroke-width:12px;}.cls-7{stroke:#5fa431;}.cls-8{stroke-width:6px;}</style></defs><g id="Сгруппировать_480" data-name="Сгруппировать 480"><g id="Сгруппировать_474" data-name="Сгруппировать 474"><path id="Контур_1316" data-name="Контур 1316" class="cls-1" d="M399.84,849.37H199.11a35.86,35.86,0,0,1-35.76-36V782.08a36.12,36.12,0,0,1,10.47-25.46l33.51-33.72a35.6,35.6,0,0,1,25.27-10.55H366.34a35.64,35.64,0,0,1,25.28,10.55l33.5,33.72a36.08,36.08,0,0,1,10.48,25.46v31.29a35.87,35.87,0,0,1-35.74,36Z"/><path id="Контур_1317" data-name="Контур 1317" class="cls-2" d="M490.06,1949.52H108.9A109.29,109.29,0,0,1,0,1839.89V1447.5a330.49,330.49,0,0,1,12.58-90.44l41.87-147.47L6.65,1065.22a130.9,130.9,0,0,1,40-141.34l116.74-98H435.61l116.74,98a130.79,130.79,0,0,1,40,141.24L544.51,1209.6l41.88,147.55A330.42,330.42,0,0,1,599,1447.59v392.32A109.26,109.26,0,0,1,490.06,1949.52Z"/><path id="Контур_1318" data-name="Контур 1318" class="cls-1" d="M248.62,631.8H350.37a30.91,30.91,0,0,1,30.81,31v47.59a30.91,30.91,0,0,1-30.81,31H248.62a30.91,30.91,0,0,1-30.81-31V662.82A30.91,30.91,0,0,1,248.62,631.8Z"/><rect id="Прямоугольник_37" data-name="Прямоугольник 37" class="cls-1" x="112.52" y="1005.16" width="376.15" height="414.41" rx="100.38"/><g id="PO_" data-name="PO " class="cls-3"><text class="cls-4" transform="translate(141.81 1268.71)">PO</text><text class="cls-5" transform="translate(355.03 1268.71)">₄³</text></g><path id="Контур_1319" data-name="Контур 1319" class="cls-2" d="M898.44,1025.62c0,47.42-40.47,85.35-89.85,85.35s-89.84-37.93-89.84-85.35,89.84-154.23,89.84-154.23S898.44,978.69,898.44,1025.62Z"/><path id="Контур_1320" data-name="Контур 1320" class="cls-2" d="M1138,1025.62c0,47.42-40.44,85.35-89.83,85.35s-89.86-37.93-89.86-85.35,89.86-154.23,89.86-154.23S1138,978.69,1138,1025.62Z"/><path id="Контур_1321" data-name="Контур 1321" class="cls-2" d="M898.44,1325.09c0,47.42-40.47,85.35-89.85,85.35s-89.84-37.93-89.84-85.35,89.84-154.23,89.84-154.23S898.44,1278.18,898.44,1325.09Z"/><path id="Контур_1322" data-name="Контур 1322" class="cls-2" d="M1138,1325.09c0,47.42-40.44,85.35-89.83,85.35s-89.86-37.93-89.86-85.35,89.86-154.23,89.86-154.23S1138,1278.18,1138,1325.09Z"/><path id="Контур_1323" data-name="Контур 1323" class="cls-2" d="M898.44,1624.58c0,47.41-40.47,85.35-89.85,85.35s-89.84-37.94-89.84-85.35,89.84-154.24,89.84-154.24S898.44,1577.66,898.44,1624.58Z"/><path id="Контур_1324" data-name="Контур 1324" class="cls-2" d="M1138,1624.58c0,47.41-40.44,85.35-89.83,85.35s-89.86-37.94-89.86-85.35,89.86-154.24,89.86-154.24S1138,1577.66,1138,1624.58Z"/></g><g id="Сгруппировать_476" data-name="Сгруппировать 476"><path id="Контур_1313-2" data-name="Контур 1313-2" class="cls-6" d="M640.15,0c27.46,72.84,73.6,137.06,122.36,197.75A2245.87,2245.87,0,0,0,1226.79,631.8"/><path id="Контур_1314-2" data-name="Контур 1314-2" class="cls-6" d="M725.16,593a1493.17,1493.17,0,0,1,508.78-575.4"/></g></g><path id="Контур_1325" data-name="Контур 1325" class="cls-7" d="M2472.2,267.77a1300.47,1300.47,0,0,1,163,302.05A853,853,0,0,1,3209,150.29"/><g id="Сгруппировать_479" data-name="Сгруппировать 479"><path id="Контур_1326" data-name="Контур 1326" class="cls-1" d="M2370.79,849.38H2170.06a35.87,35.87,0,0,1-35.76-36h0v-31.3a36.15,36.15,0,0,1,10.47-25.45l33.51-33.72a35.6,35.6,0,0,1,25.28-10.55h133.73a35.63,35.63,0,0,1,25.3,10.55l33.49,33.72a36.05,36.05,0,0,1,10.47,25.45v31.3a35.87,35.87,0,0,1-35.75,36Z"/><path id="Контур_1327" data-name="Контур 1327" class="cls-2" d="M2461.05,1949.52H2079.88A109.26,109.26,0,0,1,1971,1839.89h0V1447.5a330.11,330.11,0,0,1,12.59-90.44l41.88-147.46-47.82-144.38a130.88,130.88,0,0,1,40-141.34l116.74-98h272.25l116.74,98a130.72,130.72,0,0,1,40,141.24l-47.8,144.48,41.88,147.54a330.48,330.48,0,0,1,12.57,90.44v392.33A109.26,109.26,0,0,1,2461.05,1949.52Z"/><path id="Контур_1328" data-name="Контур 1328" class="cls-1" d="M2219.6,631.8h101.76a30.93,30.93,0,0,1,30.81,31v47.59a30.92,30.92,0,0,1-30.81,31H2219.6a30.92,30.92,0,0,1-30.81-31V662.82A30.93,30.93,0,0,1,2219.6,631.8Z"/><rect id="Прямоугольник_38" data-name="Прямоугольник 38" class="cls-1" x="2081.76" y="1005.16" width="376.15" height="414.41" rx="100.38"/><g id="PO_2" data-name="PO 2" class="cls-3"><text class="cls-4" transform="translate(2111.05 1268.7)">PO</text><text class="cls-5" transform="translate(2324.27 1268.7)">₄³</text></g><path id="Контур_1329" data-name="Контур 1329" class="cls-2" d="M2866.93,1025.62c0,47.42-40.46,85.35-89.85,85.35s-89.84-37.93-89.84-85.35,89.84-154.23,89.84-154.23S2866.93,978.68,2866.93,1025.62Z"/><path id="Контур_1330" data-name="Контур 1330" class="cls-2" d="M3106.5,1025.62c0,47.42-40.45,85.35-89.84,85.35s-89.84-37.93-89.84-85.35,89.84-154.23,89.84-154.23S3106.5,978.68,3106.5,1025.62Z"/><line id="Линия_70" data-name="Линия 70" class="cls-8" x1="2135.7" y1="1348.23" x2="2405.23" y2="1078.7"/></g></svg>