<svg id="Layer_1" data-name="Layer 1" xmlns="http://www.w3.org/2000/svg" viewBox="0 0 2004.65 2020.46"><defs><style>.cls-1{fill:#bbdcb9;}.cls-2{fill:#fff;}.cls-3{fill:#446a62;}</style></defs><rect class="cls-1" width="2004.65" height="2020.46"/><g id="Сгруппировать_326" data-name="Сгруппировать 326"><path id="Контур_952" data-name="Контур 952" class="cls-2" d="M1007.38,1567.82a9.1,9.1,0,0,0-4.53-5.59,11.36,11.36,0,0,0-14.87,3.36c-80.32,129.91-257,173.7-393.83,97.72a276.36,276.36,0,0,1-136.17-178,10.26,10.26,0,0,0-10.27-7.19,13.86,13.86,0,0,0-2.41.23,10.22,10.22,0,0,0-6.7,4.41,7.6,7.6,0,0,0-1.08,5.92,294.47,294.47,0,0,0,145.34,189.58A322.27,322.27,0,0,0,739,1718.45c108.3.82,209.38-53.84,267.46-144.64A7.52,7.52,0,0,0,1007.38,1567.82Z"/><path id="Контур_953" data-name="Контур 953" class="cls-2" d="M1575.61,433.29a8.22,8.22,0,0,0,3.12-5.89,8,8,0,0,0-2.26-5.95h0c-153.72-165-420.56-180.8-594.8-35A387.69,387.69,0,0,0,840.5,659.73a377.2,377.2,0,0,0,77.07,255.33l16.13,21.36-24.38,11.21a274.78,274.78,0,0,0-97.32,74.8L795.12,1043l-16.87-20.61a270.7,270.7,0,0,0-78.51-65.35c-132-73.39-302.22-31.42-379.49,93.5a7.55,7.55,0,0,0-1,6,9.15,9.15,0,0,0,4.5,5.56,11.35,11.35,0,0,0,14.89-3.33C410.05,943.43,566.92,904.53,688.45,972a243.4,243.4,0,0,1,119.21,151.42A232.21,232.21,0,0,1,780,1306a7.5,7.5,0,0,0-1,6,9,9,0,0,0,4.53,5.53,11.66,11.66,0,0,0,14.87-3.33,249.4,249.4,0,0,0,13.28-238.9l-5.13-10.84,6.52-10.07A265.71,265.71,0,0,1,1160,972a243.27,243.27,0,0,1,119.21,151.45A232,232,0,0,1,1251.52,1306a7.54,7.54,0,0,0-1,6,9,9,0,0,0,4.54,5.53,11.65,11.65,0,0,0,14.86-3.33,247.44,247.44,0,0,0,29.53-194.66,261.35,261.35,0,0,0-128.25-162.51,289.68,289.68,0,0,0-202.77-29.19l-13,2.83L947,920.59a366.43,366.43,0,0,1-85.81-259.9A370.84,370.84,0,0,1,996.14,399.1c165.13-138.17,418.1-123.25,563.93,33.39A11.57,11.57,0,0,0,1575.61,433.29Z"/><path id="Контур_954" data-name="Контур 954" class="cls-2" d="M695,692.39a7.67,7.67,0,0,0,1.48-6,9,9,0,0,0-4-5.78,11.43,11.43,0,0,0-15.08,2.31c-80.92,109.59-240.59,136.4-356,60q-9.13-6.07-17.64-12.88v23.49c1.63,1.14,3.29,2.24,5,3.39A286.25,286.25,0,0,0,467.4,804.22,282.6,282.6,0,0,0,695,692.39Z"/><path id="Контур_955" data-name="Контур 955" class="cls-2" d="M1168.3,695.34a269.21,269.21,0,0,1,79.26-200.23,302.27,302.27,0,0,1,459.52,39V501.45A322,322,0,0,0,1461.29,389.3c-3.51,0-7,0-10.49.13a320.41,320.41,0,0,0-219.2,94.25,285.78,285.78,0,0,0-84.12,212.18,9.83,9.83,0,0,0,10.38,8.63,11.11,11.11,0,0,0,8.13-3.34A8,8,0,0,0,1168.3,695.34Z"/><path id="Контур_956" data-name="Контур 956" class="cls-2" d="M1309.46,707.39a246.81,246.81,0,0,0,18.59,198.7,271.69,271.69,0,0,0,162.4,128.8,292.71,292.71,0,0,0,216.62-20.4v-21a265.28,265.28,0,0,1-209.84,24.56,251.84,251.84,0,0,1-150.3-119.43,231.72,231.72,0,0,1-17.4-186.45,7.55,7.55,0,0,0-.52-6,9.87,9.87,0,0,0-6.12-4.76,12.24,12.24,0,0,0-3.46-.53A10.31,10.31,0,0,0,1309.46,707.39Z"/><path id="Контур_957" data-name="Контур 957" class="cls-3" d="M1912.07,555.6a146.2,146.2,0,0,1,92.55,138.34v25.44a155.52,155.52,0,0,1-96.82,142.41c-10.58,4.42-6.32,23.18,4.23,27.62a146.21,146.21,0,0,1,92.56,138.34v25.45a155.49,155.49,0,0,1-96.83,142.38c-10.57,4.45-6.32,23.19,4.24,27.65a146.2,146.2,0,0,1,92.56,138.34V1387c0,73.24-48.55,130.61-119.53,147.13a22.9,22.9,0,0,0-14.61,16.63v41.63c0,85.86-68.3,151.45-157.79,151.45h-26.5a167.84,167.84,0,0,1-50.27-3.57,160.19,160.19,0,0,1-98.11-85.35,13.76,13.76,0,0,0-24.6,0,162.33,162.33,0,0,1-148.35,93h-26.5c-89.49,0-162-69.61-162-155.5a7.85,7.85,0,0,0-8.08-7.6,8,8,0,0,0-2.65.54c-115.71,42.32-198.13,150-198.13,275.76V1977a44.43,44.43,0,0,1-45.29,43.48h-68a44.44,44.44,0,0,1-45.3-43.46V1861.08c0-212.08,154.59-390.15,361.3-435.77a7.58,7.58,0,0,0,6.11-7.31v-13.17c0-85.86,72.54-155.51,162-155.51h26.51a165,165,0,0,1,118.09,49,13.79,13.79,0,0,0,19.4.22,13.33,13.33,0,0,0,2.61-3.5,159.41,159.41,0,0,1,80.78-75.71,12.85,12.85,0,0,0,.45-23.78,155.46,155.46,0,0,1-96.75-142.39v-25.44a155.4,155.4,0,0,1,96.82-142.36,12.74,12.74,0,0,0,0-23.57,155.48,155.48,0,0,1-96.75-142.41V694a155.41,155.41,0,0,1,96.75-142.38,12.85,12.85,0,0,0-.45-23.8,159.53,159.53,0,0,1-80.5-75.17,13.82,13.82,0,0,0-22.07-3.23,164.79,164.79,0,0,1-118.3,49.27h-26.5a162.43,162.43,0,0,1-148-92.14,13.88,13.88,0,0,0-25,0,162.44,162.44,0,0,1-148,92.14h-26.5a162.43,162.43,0,0,1-148.35-92.89,13.74,13.74,0,0,0-18.34-6.18,13.59,13.59,0,0,0-6.22,6.18,162.41,162.41,0,0,1-148.35,92.89H643.17a165,165,0,0,1-117.78-48.7,13.78,13.78,0,0,0-19.39-.18,13.55,13.55,0,0,0-2.54,3.39,156.73,156.73,0,0,1-29.4,40.36,182.16,182.16,0,0,1-55.16,34.23c-10.72,4.62-6.91,23.31,3.8,27.83A146.16,146.16,0,0,1,515.2,693.9v25.44a155.47,155.47,0,0,1-96.77,142.41c-10.55,4.42-6.32,23.19,4.25,27.62a146.22,146.22,0,0,1,92.51,138.35v25.45a155.48,155.48,0,0,1-96.78,142.38c-10.55,4.44-6.32,23.19,4.25,27.65a146.13,146.13,0,0,1,92.51,138.34V1387c0,85.92-68.3,151.49-157.8,151.49a17.82,17.82,0,0,0-13.62,13.06v8c0,136.18-87.44,248.15-214.65,290.06-30.53,10.09-61.79,5.31-82.13-14.45a74,74,0,0,1-22.84-53.46A75.62,75.62,0,0,1,76.8,1710c66.38-20.65,111.85-81.37,112.66-150.45v-8a9.19,9.19,0,0,0-9.37-9H162c-89.49,0-162-69.62-162-155.5v-25.44a155.47,155.47,0,0,1,96.83-142.41,12.74,12.74,0,0,0,0-23.58A155.49,155.49,0,0,1,0,1053.17v-25.44a155.5,155.5,0,0,1,96.83-142.4,12.72,12.72,0,0,0,0-23.55A155.54,155.54,0,0,1,0,719.35V693.94a155.46,155.46,0,0,1,96.83-142.4,12.74,12.74,0,0,0,0-23.58A155.48,155.48,0,0,1,0,385.58V360.14C.9,287.32,52.15,224.7,123.74,209a13.06,13.06,0,0,0,10.38-12.59V155.54C134.12,69.68,206.68,0,296.16,0h26.5A162.48,162.48,0,0,1,470.5,91.7a13.77,13.77,0,0,0,24.82,0A162.48,162.48,0,0,1,643.15,0h26.5A162.42,162.42,0,0,1,818,92.92a13.72,13.72,0,0,0,24.56,0A162.42,162.42,0,0,1,990.91,0h26.49a162.42,162.42,0,0,1,148,92.15,13.81,13.81,0,0,0,25,0A162.4,162.4,0,0,1,1338.35,0h26.49a162.39,162.39,0,0,1,148.35,93,13.75,13.75,0,0,0,24.61,0A160.32,160.32,0,0,1,1636,7.61,167.71,167.71,0,0,1,1686.17,0l26.5,4.06c89.48,0,157.79,65.58,157.79,151.47v40.81A22.91,22.91,0,0,0,1885.07,213c71,16.54,119.52,73.9,119.52,147.13v25.41a155.49,155.49,0,0,1-96.82,142.41c-10.58,4.44-6.32,23.18,4.23,27.62Z"/></g></svg>