<svg id="Layer_1" data-name="Layer 1" xmlns="http://www.w3.org/2000/svg" viewBox="0 0 184 528"><defs><style>.cls-1{fill:#446a62;}.cls-2{fill:#5c895a;opacity:0.75;}.cls-2,.cls-3,.cls-4{isolation:isolate;}.cls-4{font-size:12px;fill:#fff;font-family:MADETOMMY, MADE TOMMY;}.cls-5{letter-spacing:-0.01em;}.cls-6{fill:#21342f;}.cls-7{letter-spacing:-0.02em;}.cls-8{letter-spacing:-0.01em;}</style></defs><g id="Сгруппировать_375" data-name="Сгруппировать 375"><rect id="Прямоугольник_25" data-name="Прямоугольник 25" class="cls-1" width="184" height="528" rx="62"/><g id="Сгруппировать_372" data-name="Сгруппировать 372"><g id="Сгруппировать_371" data-name="Сгруппировать 371"><path id="Контур_924" data-name="Контур 924" class="cls-2" d="M73.94,200a22,22,0,0,0-9.64-6.1c-8.4-2.32-15,3-17.52,5.22-17.86,0-23.28-6.09-24.61-12.19-1.91-8.73,5-15.84,5.33-33.1.2-12.69-5.56-15.88-7.11-35.7-1.32-16.88.92-39.24,3.33-51.7,3.86-19.91,8.7-17.32,31.19-17.69,6.43-.1,12.86.89,19.28,0,6.1-.84,82.06.88,84.28-.73,1.21-.87.87,55.61.87,55.62.14,8.32,5,38.91,5.1,42.8,1,31.16-4.44,26.45-7.8,36.21-3,8.71-61.26-32.63-63.92-23.14-1.67,5.94,3.08,12.17,1,20.47-1,3.87-3.19,6.12-7.61,10.45A69.57,69.57,0,0,1,73.94,200Z"/><g id="Algae_blooming" data-name="Algae blooming" class="cls-3"><text class="cls-4" transform="translate(49 231.5)">Al<tspan class="cls-5" x="10.74" y="0">g</tspan><tspan x="18.02" y="0">ae blooming</tspan></text></g></g><g id="Сгруппировать_366" data-name="Сгруппировать 366"><g id="Сгруппировать_365" data-name="Сгруппировать 365"><path id="Контур_971" data-name="Контур 971" class="cls-6" d="M76.68,389.35a27.68,27.68,0,0,1-2.88-6.66,13.6,13.6,0,0,1-.66-5.41,4.83,4.83,0,0,0-.21-2.2,9.75,9.75,0,0,0-1.13-2.56,26.15,26.15,0,0,1-2.6-6.17l2.14.84a9.82,9.82,0,0,0,1.14,2.56,27,27,0,0,1,2.6,6.17,13.59,13.59,0,0,1,.65,5.41,5,5,0,0,0,.22,2.2c.53,1.89,1.24,2.49,2.39,5-.27,0-.33,1.36-.33,1.36s-1.08-.87-1.33-.55Z"/><path id="Контур_972" data-name="Контур 972" class="cls-6" d="M92.78,411.58c.2-.53.43-1.1.72-1.72a12.13,12.13,0,0,1,3.31-4.48,4.54,4.54,0,0,0,1.42-1.8,6,6,0,0,0,.6-2.46,16.29,16.29,0,0,1,1.6-5.89,12.33,12.33,0,0,1,3.31-4.48,4.41,4.41,0,0,0,1.42-1.8,6.11,6.11,0,0,0,.61-2.46,15.9,15.9,0,0,1,1.6-5.88l1.88,1.55a6,6,0,0,0-.6,2.47,16.29,16.29,0,0,1-1.6,5.88,12.1,12.1,0,0,1-3.31,4.47,4.54,4.54,0,0,0-1.42,1.8,6,6,0,0,0-.6,2.47,16.29,16.29,0,0,1-1.6,5.88,12.13,12.13,0,0,1-3.32,4.48,4.45,4.45,0,0,0-1.41,1.8,6.2,6.2,0,0,0-.61,2.46,16.4,16.4,0,0,1-.75,3.8,3.49,3.49,0,0,0-.89-2.52s0-3-.36-3.57Z"/><path id="Контур_973" data-name="Контур 973" class="cls-6" d="M91.73,354.79c1-2.37,1.66-2.75,2-4.45a3.68,3.68,0,0,0,.12-1,10.27,10.27,0,0,1,0-5.25,18.22,18.22,0,0,1,.84-2.72c.68-1.68,1.39-2.69,1.78-3.54a5.74,5.74,0,0,0,.5-2.2,10.2,10.2,0,0,1,0-5.26c.75-.28,1.39-.52,2.14-.82a3.17,3.17,0,0,0,0,1.83,9.19,9.19,0,0,1-.14,4.48,23.09,23.09,0,0,1-2.62,6.26,5.74,5.74,0,0,0-.5,2.19,10.2,10.2,0,0,1,0,5.26,20.45,20.45,0,0,1-2.44,5.9c-.16-.11-1.2.45-1.2.45s-.12-1-.54-1.08Z"/><path id="Контур_974" data-name="Контур 974" class="cls-6" d="M121.69,399.51a16.77,16.77,0,0,1,.2-1.86,11.9,11.9,0,0,1,1.9-5.23,4.45,4.45,0,0,0,.84-2.13,6,6,0,0,0-.12-2.53,16.26,16.26,0,0,1-.14-6.1,12.11,12.11,0,0,1,1.9-5.23,4.51,4.51,0,0,0,.85-2.13,6.05,6.05,0,0,0-.12-2.54,16,16,0,0,1-.14-6.1l2.25.95a6,6,0,0,0,.12,2.54,16.25,16.25,0,0,1,.14,6.1,12.11,12.11,0,0,1-1.9,5.23,4.57,4.57,0,0,0-.85,2.13,6,6,0,0,0,.12,2.53,16.06,16.06,0,0,1,.14,6.1,12.11,12.11,0,0,1-1.9,5.23,4.49,4.49,0,0,0-.84,2.13,6.21,6.21,0,0,0,.11,2.54,16.62,16.62,0,0,1,.36,3.86,3.45,3.45,0,0,0-1.57-2.16s-.86-2.92-1.35-3.33Z"/><path id="Контур_975" data-name="Контур 975" class="cls-6" d="M52.73,329a24.72,24.72,0,0,1-2.87-1.18,1.89,1.89,0,0,1-.46-.34,4.21,4.21,0,0,0-1.89-1.82,13.37,13.37,0,0,0-1.5-.79c-1-.46-1.83-.69-2.38-.91a3.86,3.86,0,0,1-1.1-.67,4.21,4.21,0,0,0-1.89-1.82l-1.64.1a1.37,1.37,0,0,1,.65.63,4.12,4.12,0,0,0,1.7,1.53,20.3,20.3,0,0,0,3.88,1.7,3.53,3.53,0,0,1,1.1.67,4.21,4.21,0,0,0,1.89,1.82,18,18,0,0,0,3.65,1.61,4,4,0,0,1,.92-.05s-.3-.38,0-.48Z"/><path id="Контур_976" data-name="Контур 976" class="cls-6" d="M37.18,356.11a17.1,17.1,0,0,1-1.24-1.57,1.27,1.27,0,0,1-.13-.32,2.08,2.08,0,0,0-.39-1.51,7.8,7.8,0,0,0-.58-.91c-.42-.58-.82-1-1.05-1.28a2.29,2.29,0,0,1-.39-.7,2.13,2.13,0,0,0-.38-1.51l-1-.55a.71.71,0,0,1,.13.53,2.11,2.11,0,0,0,.39,1.31,12.82,12.82,0,0,0,1.63,2.17,2.34,2.34,0,0,1,.39.71,2.14,2.14,0,0,0,.38,1.51A11.4,11.4,0,0,0,36.45,356a5.12,5.12,0,0,1,.57.3S37,356.07,37.18,356.11Z"/><path id="Контур_977" data-name="Контур 977" class="cls-6" d="M93.25,433.54c-2.53-.89-3.4-.6-4.91-1.52a3,3,0,0,1-.83-.66c-.63-.77-.56-2-3.57-3.86a15.58,15.58,0,0,0-2.63-1.28c-1.77-.65-3.11-.78-4-1.08a4.9,4.9,0,0,1-2-1.18c-.63-.77-.56-2-3.57-3.86l-2.55,1.22a2.6,2.6,0,0,1,1.24,1.35,7.3,7.3,0,0,0,3.16,3.18c3,1.82,5.35,1.93,6.68,2.36a4.66,4.66,0,0,1,2,1.18c.63.77.56,2,3.57,3.86a18.76,18.76,0,0,0,6.28,2.25c.07-.22,1.41-.7,1.41-.7s-.58-.86-.23-1.26Z"/><path id="Контур_978" data-name="Контур 978" class="cls-6" d="M52.41,389.9c-1.27-1.38-1.48-2.09-2.38-2.76a1.83,1.83,0,0,0-.55-.3,3.29,3.29,0,0,1-2.75-.91,11.05,11.05,0,0,1-1.44-1.29c-.9-.94-1.44-1.81-1.9-2.33a3,3,0,0,0-1.16-.87,3.29,3.29,0,0,1-2.75-.91L39,378.31a1.07,1.07,0,0,0,1,.31,3.22,3.22,0,0,1,2.35.9,18.29,18.29,0,0,1,3.34,3.63,3.09,3.09,0,0,0,1.16.86,3.3,3.3,0,0,1,2.74.91,15.65,15.65,0,0,1,3.16,3.39,5.91,5.91,0,0,0,.26,1.25s-.53-.06-.55.34Z"/><path id="Контур_979" data-name="Контур 979" class="cls-6" d="M59.21,325.85c1-2.37,1.66-2.75,2-4.44a3.77,3.77,0,0,0,.12-1.05,10.31,10.31,0,0,1,0-5.26,19,19,0,0,1,.84-2.72c.68-1.68,1.4-2.68,1.78-3.54a5.69,5.69,0,0,0,.5-2.19,10.2,10.2,0,0,1,0-5.26l2.14-.82a3.13,3.13,0,0,0,0,1.82,9.22,9.22,0,0,1-.14,4.49,23.09,23.09,0,0,1-2.62,6.26,5.69,5.69,0,0,0-.5,2.19,10.05,10.05,0,0,1,0,5.25A20.4,20.4,0,0,1,61,326.49c-.16-.11-1.19.45-1.19.45s-.13-1-.55-1.09Z"/><path id="Контур_980" data-name="Контур 980" class="cls-6" d="M144.69,354.79c1-2.37,1.66-2.76,2-4.45a3.4,3.4,0,0,0,.13-1,10.27,10.27,0,0,1,0-5.25,17.15,17.15,0,0,1,.85-2.72c.67-1.69,1.39-2.69,1.77-3.54a5.79,5.79,0,0,0,.5-2.2,10.09,10.09,0,0,1,0-5.26l2.13-.82a3.35,3.35,0,0,0,0,1.83,9.18,9.18,0,0,1-.13,4.48,23.74,23.74,0,0,1-2.62,6.26,5.74,5.74,0,0,0-.5,2.19,10.2,10.2,0,0,1,0,5.26,20.45,20.45,0,0,1-2.44,5.9c-.16-.11-1.2.45-1.2.45s-.12-1-.54-1.09Z"/></g><g id="Blooming_process" data-name="Blooming process" class="cls-3"><text class="cls-4" transform="translate(40 471.5)">Blooming p<tspan class="cls-7" x="62.17" y="0">r</tspan><tspan x="66.25" y="0">o</tspan><tspan class="cls-8" x="73.47" y="0">c</tspan><tspan x="79.91" y="0">ess</tspan></text></g></g></g></g></svg>