<svg id="Layer_1" data-name="Layer 1" xmlns="http://www.w3.org/2000/svg" viewBox="0 0 2004.65 2020.46"><defs><style>.cls-1{fill:#446a62;}</style></defs><g id="Сгруппировать_331" data-name="Сгруппировать 331"><path id="Контур_968" data-name="Контур 968" class="cls-1" d="M789.27,1030.87v-52.1c0-24.66-25.79-44.65-57.62-44.65H543.06c-109.38,6.14-148.24-85.35-153.07-180V676c0-21.18,1-31.92-26.37-31.92H333.9c-27.33,0-49.47-17.16-49.47-38.34a34.27,34.27,0,0,1,13.51-26.33l76.3-88A40,40,0,0,0,390,460.69V415.83c0-149.92,37.81-276,202.38-354.78A686.66,686.66,0,0,1,904-3.48c303.17,6.86,501.41,87.89,503.93,323,1.49,139.27-39.18,452.54-169.19,533.05a42.31,42.31,0,0,0-22.12,35.09l-1.3,143.23c0,19,15.56,36,38.78,42.23l468.78,125.63c168.58,45.2,281.73,168.29,281.73,306.6V1974c0,27.74-29,50.22-64.77,50.22H64.77C29,2024.24,0,2001.77,0,1974V1505.33c0-138.32,113.11-261.41,281.74-306.6L750.5,1073.07c23.22-6.22,38.78-23.16,38.78-42.2Z"/></g></svg>