<svg id="Layer_1" data-name="Layer 1" xmlns="http://www.w3.org/2000/svg" viewBox="0 0 184 528"><defs><style>.cls-1{fill:#446a62;}.cls-2{fill:#a3a2a1;}.cls-3,.cls-4{isolation:isolate;}.cls-4{font-size:12px;fill:#fff;font-family:MADETOMMY, MADE TOMMY;}.cls-5{letter-spacing:0.01em;}.cls-6{letter-spacing:-0.02em;}.cls-7{letter-spacing:-0.01em;}.cls-8{letter-spacing:0em;}</style></defs><g id="Сгруппировать_380" data-name="Сгруппировать 380"><rect id="Прямоугольник_28" data-name="Прямоугольник 28" class="cls-1" width="184" height="528" rx="62"/><g id="Сгруппировать_379" data-name="Сгруппировать 379"><g id="Сгруппировать_319" data-name="Сгруппировать 319"><g id="Сгруппировать_308" data-name="Сгруппировать 308"><path id="Контур_932" data-name="Контур 932" class="cls-2" d="M114.85,105.87c-3-6.92-12.27-10.55-20.72-8.1l-23.2,4.67,13.64,15.35,31.4-9.33Z"/><path id="Контур_933" data-name="Контур 933" class="cls-2" d="M84.57,155.25,70.92,170.59l23.2,4.68c8.46,2.45,17.74-1.18,20.73-8.11l1.11-2.58Z"/><path id="Контур_934" data-name="Контур 934" class="cls-2" d="M116.52,105.08c-26,0-57,18.19-65.34,27.59v7.7c8.34,9.4,39.37,27.58,65.34,27.58,30.31,0,48.05-31.43,48.05-31.43S146.83,105.08,116.52,105.08Z"/><path id="Контур_935" data-name="Контур 935" class="cls-2" d="M164.57,136.52s-12.33-21.84-34-29.11a44.49,44.49,0,0,0,0,58.21C152.24,158.36,164.57,136.52,164.57,136.52Z"/><ellipse id="Эллипс_354" data-name="Эллипс 354" class="cls-2" cx="139.45" cy="128.59" rx="3.93" ry="3.46"/><path id="Контур_936" data-name="Контур 936" class="cls-2" d="M35.14,136.52H32.71c-5,0-9.07-2.4-9.07-5.36L20,118.6h6.38c14.11,0,25.54,6.75,25.54,15.08v5.67c0,8.33-11.43,15.08-25.54,15.08H20l3.64-12.56c0-3,4.06-5.35,9.07-5.35"/></g><g id="Dead_fish" data-name="Dead fish" class="cls-3"><text class="cls-4" transform="translate(62.52 198.94)">Dead f<tspan class="cls-5" x="36.48" y="0">i</tspan><tspan x="39.26" y="0">sh</tspan></text></g></g><g id="Сгруппировать_320" data-name="Сгруппировать 320"><g id="Сгруппировать_309" data-name="Сгруппировать 309"><path id="Контур_937" data-name="Контур 937" class="cls-2" d="M77.17,393.88c1-2.13,2.89-4.89,1.45-9.41-1.29-4-4-5.67-6.05-6.86-1.54-.92-2.24-1.33-2.7-2.78s-.11-2.13.66-3.63c1-2,2.37-4.65,1.08-8.69l-7.86,2c.46,1.45.11,2.13-.66,3.63-1,2-2.38,4.65-1.08,8.69s4,5.68,6,6.87c1.54.91,2.24,1.33,2.71,2.77.81,2.55-1.28,3.6-2.06,7.2,1.16-.14,3.63,1.5,3.63,1.5s3.24-1.57,4.85-1.3Z"/><path id="Контур_938" data-name="Контур 938" class="cls-2" d="M62.8,388.69a16.57,16.57,0,0,0-1.7-2.46,21.17,21.17,0,0,0-9.14-6.3c-1.93-.8-2.81-1.15-3.94-2.53A4.13,4.13,0,0,1,47,373.85c.06-1.94.14-4.62-3-8.45a21.08,21.08,0,0,0-9.14-6.3c-1.93-.8-2.81-1.16-3.94-2.53A4.17,4.17,0,0,1,29.77,353c.06-1.95.14-4.62-3-8.46L20,347a4.15,4.15,0,0,1,1.07,3.54c-.06,1.95-.14,4.63,3,8.46a21,21,0,0,0,9.13,6.3c1.94.8,2.82,1.16,4,2.53a4.14,4.14,0,0,1,1.06,3.55c-.05,1.95-.13,4.62,3,8.46a21.14,21.14,0,0,0,9.14,6.3c1.93.8,2.82,1.16,4,2.53a4.16,4.16,0,0,1,1.06,3.55,10.49,10.49,0,0,0,1.06,5.48c.33-2.29,3.83-3.72,3.83-3.72s1.12-4.43,2.49-5.24Z"/><path id="Контур_939" data-name="Контур 939" class="cls-2" d="M150.54,328.11c-1.48,2.72-4.14,2.31-7.68,5.34a13.09,13.09,0,0,0-4.5,8.27c-.23,2.81.91,4.67,1,6.12a4.63,4.63,0,0,1-1.88,3.45c-1.35,1-3.91,1.67-6.32,3.75a13,13,0,0,0-4.5,8.26c-.23,2.82.91,4.67,1,6.12a4.61,4.61,0,0,1-1.88,3.45c-1.35,1-3.91,1.68-6.32,3.75a13,13,0,0,0-4.5,8.26,15,15,0,0,0,.83,5.28c1.39.63,3.43,4.58,3.43,4.58s2.69-.71,3.65.28c2.7-5.16.4-8.27.33-10.3a3.42,3.42,0,0,1,.52-1.86,4.35,4.35,0,0,1,1.36-1.59,13.72,13.72,0,0,1,1.92-1,19.13,19.13,0,0,0,4.4-2.7,13.29,13.29,0,0,0,3.09-3.86,10.89,10.89,0,0,0,1.41-4.4c.23-2.81-.91-4.67-1-6.12a4.62,4.62,0,0,1,1.87-3.45c1.36-1,3.92-1.68,6.33-3.75a13,13,0,0,0,4.5-8.26c.23-2.82-.91-4.67-1-6.12a4.61,4.61,0,0,1,1.88-3.45c2-1.41,6.52-2.28,9.42-7.61l-7.36-2.39Z"/><path id="Контур_940" data-name="Контур 940" class="cls-2" d="M108.1,393.07c-.51-4.12-2.71-5.06-1.7-7.83a3.63,3.63,0,0,1,1.09-1.66c1.74-1.46,6.15-2.4,8.17-7.92a10.76,10.76,0,0,0,.68-4.57c-.24-2.91-1.68-4.82-2-6.32a4.09,4.09,0,0,1,1.31-3.58c1.74-1.47,6.14-2.4,8.16-7.93-2.71-.84-5-1.57-7.75-2.43-.55,1.51-1.33,1.92-2.84,2.75-3.21,1.77-5.18,3.45-6.41,6.83-2,5.53.87,8.76,1.28,10.89a4.08,4.08,0,0,1-1.31,3.58c-1.74,1.47-6.14,2.4-8.16,7.93-1.82,5,.34,8,1.11,10.25.85-.07,4.34,1.35,4.34,1.35a7.56,7.56,0,0,1,4-1.34Z"/><path id="Контур_941" data-name="Контур 941" class="cls-2" d="M89.52,313c-.18,3.33-3,3-5.09,6.85A13.56,13.56,0,0,0,83.88,330c1.1,3.36,3.1,5.5,3.84,7.21a4.81,4.81,0,0,1-.23,4.23c-.89,1.24-3.09,2.25-4.5,4.87a13.57,13.57,0,0,0-.56,10.13c1.1,3.36,3.1,5.49,3.84,7.21a4.77,4.77,0,0,1-.23,4.23c-.88,1.24-3.08,2.25-4.5,4.87A13.59,13.59,0,0,0,81,382.85a28.66,28.66,0,0,0,3.32,6.23c1.67.66,5.56,5.23,5.56,5.23s2.33-1,3.75.1c.23-6.31-3.51-9.87-4.54-12.27a4.69,4.69,0,0,1-.36-2.25,3.51,3.51,0,0,1,.59-2,8.31,8.31,0,0,1,1.41-1.37,11.91,11.91,0,0,0,3.09-3.5,11.28,11.28,0,0,0,1.24-4.79,14.42,14.42,0,0,0-.69-5.34c-1.1-3.35-3.1-5.5-3.84-7.21a4.81,4.81,0,0,1,.23-4.23c.89-1.24,3.09-2.25,4.5-4.87a13.52,13.52,0,0,0,.55-10.13c-1.1-3.36-3.1-5.5-3.84-7.21a4.86,4.86,0,0,1,.23-4.24c1.29-1.8,5.39-3.13,5.74-9.65L89.52,313Z"/><path id="Контур_942" data-name="Контур 942" class="cls-2" d="M136.38,393.34c3.71-4.57,6.3-5.57,7.66-8.66a3.34,3.34,0,0,0,.4-1.86c-.29-1.66-3.23-2.78-.52-8.95a24.12,24.12,0,0,1,3.07-5.08c2.52-3.23,5.24-5.32,6.67-7,1.13-1.3,1.92-3.08,1.76-4-.28-1.66-3.22-2.78-.51-8.95l8.4-2.54c-.74,1.68-.41,2.14.19,3.1,1.27,2,1.58,3.93-.08,7.71-2.71,6.18-7.7,9.7-9.74,12.06-1.13,1.3-1.91,3.08-1.76,4,.29,1.66,3.23,2.78.52,8.95-2.45,5.56-6.68,8.9-9.09,11.36-.65-.1-4.7,1.4-4.7,1.4a2.34,2.34,0,0,0-2.27-1.56Z"/></g><g id="Dead_blue-green_algae" data-name="Dead blue-green algae" class="cls-3"><text class="cls-4" transform="translate(28.41 423.45)">Dead blue-g<tspan class="cls-6" x="69.1" y="0">r</tspan><tspan x="73.17" y="0">een al</tspan><tspan class="cls-7" x="106.13" y="0">g</tspan><tspan class="cls-8" x="113.41" y="0">ae</tspan></text></g></g></g></g></svg>