<svg id="Layer_1" data-name="Layer 1" xmlns="http://www.w3.org/2000/svg" viewBox="0 0 2621.59 2565.16"><defs><style>.cls-1{fill:#446a62;}.cls-2{fill:#835332;}.cls-3{fill:#a3a2a1;}.cls-4{fill:#8b9a6c;}.cls-5{fill:#9baf78;}.cls-6{fill:#272727;}.cls-7{fill:#21342f;}.cls-8{fill:#e4d95e;}.cls-9{fill:#e9e081;}.cls-10{fill:#5c895a;opacity:0.75;isolation:isolate;}</style></defs><g id="Сгруппировать_454" data-name="Сгруппировать 454"><path id="Прямоугольник_10" data-name="Прямоугольник 10" class="cls-1" d="M77.24,381.44h2469.5a74.81,74.81,0,0,1,74.85,74.78V2490.16a74.82,74.82,0,0,1-74.85,74.79H77.24a74.82,74.82,0,0,1-74.85-74.79V456.22A74.81,74.81,0,0,1,77.24,381.44Z"/><path id="Контур_573" data-name="Контур 573" class="cls-2" d="M2488.48,2564.94h-2370v-46.18c0-45.5,88.26-82.39,197.08-82.39H2291.44c108.83,0,197,36.88,197,82.39Z"/><g id="Сгруппировать_182" data-name="Сгруппировать 182"><path id="Контур_574" data-name="Контур 574" class="cls-3" d="M338.74,2461.63a43.28,43.28,0,0,0-14.38-52.83c-6-4-13-6.28-18.72-10.71a32.73,32.73,0,0,1-12.15-28.1c1.44-17.12,16.14-32.51,12.53-49.27-3-13.84-16.9-21.54-27-31.26-17.18-16.54-22-38.65-18.14-61.53a48.72,48.72,0,0,0-7.69-35.23s10.81,5.47,13.95,7.75c12.14,8.81,25,18.28,31.12,32.68,2.46,5.79,3.77,12,5.93,17.92a41,41,0,0,0,17.39,21.1A109.83,109.83,0,0,0,342,2280a38.67,38.67,0,0,1,24.78,47.2c-4.7,16.46-19.49,30.61-17.22,47.52,1.1,8.23,6.17,15.23,9.41,22.83a53.5,53.5,0,0,1-20.25,64.12Z"/><path id="Контур_575" data-name="Контур 575" class="cls-3" d="M401.38,2449.83a116.91,116.91,0,0,1-29.65-40.28c-6.26-15.2-8.8-35.74-2-51.4,8.58-19.77,18.45-47,4.25-67-8.13-11.42-17.33-19.47-23.12-33.31-13.25-31.69-.83-56.26,12.71-83.32,7.55-15.12,10.86-36.91,5.12-53.65a56.32,56.32,0,0,1,.47-41.26C382,2048,411.9,2033,438.54,2027c-2.61,4-9.56,17-10,17.93a81.37,81.37,0,0,0-6.35,21.29c-3.32,24.41-.37,43.33,14.21,61a62.19,62.19,0,0,1,13.1,48.58c-2.7,17.72-14.64,26-20,41.23-10,28.6,16.7,53,17.16,80.81.45,26.66-16.47,49.28-29.6,68.37-14.65,21.29-21,56.63-15.74,83.67Z"/><path id="Контур_576" data-name="Контур 576" class="cls-3" d="M511.3,2146c8.72,20.91,2.32,48-14.08,59.79-6,4.29-13,6.67-18.71,11.51a38.27,38.27,0,0,0-12,31.63c1.56,19.6,16.38,37.72,12.88,56.72-2.9,15.7-16.83,24-26.88,34.67-17.14,18.25-21.82,43.32-17.81,69.59a60.5,60.5,0,0,1-7.5,39.94,159.46,159.46,0,0,0,13.95-8.33c12.13-9.61,25-19.93,31-36.12,2.43-6.55,3.7-13.59,5.83-20.27a43.3,43.3,0,0,1,17.32-23.44,97.39,97.39,0,0,1,20.45-8.18c18.85-7,30.64-29.09,24.55-52.95-4.82-18.95-19.74-35.65-17.57-54.89,1.06-9.36,6.09-17.14,9.3-25.72A67.85,67.85,0,0,0,511.34,2146Z"/></g><g id="Сгруппировать_183" data-name="Сгруппировать 183"><path id="Контур_577" data-name="Контур 577" class="cls-3" d="M879.06,2455.73c-11.38-25.36-2.73-59,19.07-74.25,8-5.57,17.28-8.81,24.84-15A47.25,47.25,0,0,0,939.09,2327c-1.91-24.06-21.39-45.69-16.62-69.24,3.94-19.44,22.42-30.27,35.81-43.91,22.81-23.25,29.17-54.31,24.07-86.48a71.74,71.74,0,0,1,10.22-49.5s-14.34,7.67-18.52,10.88c-16.11,12.41-33.21,25.7-41.29,45.91-3.26,8.16-5,16.88-7.87,25.19a56.9,56.9,0,0,1-23.08,29.65c-8.38,5.37-18,7.53-27.11,11a55,55,0,0,0-32.87,66.33c6.24,23.11,25.86,43,22.84,66.77-1.46,11.58-8.18,21.39-12.47,32.08a77.67,77.67,0,0,0,26.86,90.09Z"/><path id="Контур_578" data-name="Контур 578" class="cls-3" d="M795.93,2439.16a164.35,164.35,0,0,0,39.34-56.6c8.31-21.37,11.67-50.24,2.66-72.24-11.38-27.8-24.48-66.08-5.64-94.12,10.76-16,23-27.34,30.67-46.79,17.56-44.52,1.09-79-16.87-117.09-10-21.23-14.4-51.84-6.78-75.38a83.48,83.48,0,0,0-.64-58c-17.07-44.48-56.72-65.57-92.06-74,3.47,5.63,12.69,23.88,13.25,25.2a119.19,119.19,0,0,1,8.42,29.9c4.42,34.32.5,60.9-18.84,85.72A91,91,0,0,0,732.05,2054c3.56,24.89,19.42,36.54,26.49,57.91,13.35,40.2-22.15,74.5-22.77,113.57-.59,37.45,21.86,69.24,39.29,96.06,19.44,29.9,27.84,79.57,20.84,117.58Z"/><path id="Контур_579" data-name="Контур 579" class="cls-3" d="M650.1,2012.16c-11.56,29.4-3.08,67.51,18.69,84,8,6,17.29,9.37,24.84,16.18a55.57,55.57,0,0,1,16,44.45c-2.08,27.54-21.74,53-17.1,79.7,3.84,22.06,22.32,33.68,35.67,48.74,22.74,25.64,28.94,60.85,23.63,97.77a89.23,89.23,0,0,0,9.94,56.12,206.85,206.85,0,0,1-18.52-11.7c-16.08-13.5-33.16-28-41.15-50.77-3.22-9.19-4.9-19.1-7.74-28.45a60.67,60.67,0,0,0-23-32.95c-8.38-5.83-18-7.88-27.13-11.49-25-9.87-40.65-40.87-32.58-74.46,6.4-26.62,26.19-50.08,23.31-77.13-1.39-13.14-8.08-24.11-12.32-36.13-12.7-36-.05-81.33,27.48-103.92Z"/></g><g id="Сгруппировать_184" data-name="Сгруппировать 184"><path id="Контур_580" data-name="Контур 580" class="cls-3" d="M2035.58,2455.71c11.24-25.36,2.69-59-18.86-74.24-7.9-5.57-17.1-8.82-24.57-15a47.58,47.58,0,0,1-15.94-39.49c1.9-24.06,21.16-45.69,16.44-69.23-3.89-19.44-22.17-30.28-35.41-43.93-22.55-23.24-28.84-54.3-23.8-86.45a72.42,72.42,0,0,0-10.1-49.51s14.19,7.67,18.32,10.87c15.93,12.41,32.83,25.71,40.83,45.92,3.22,8.14,4.93,16.88,7.77,25.17a56.81,56.81,0,0,0,22.83,29.66c8.28,5.38,17.8,7.52,26.81,11a55.19,55.19,0,0,1,32.5,66.35c-6.18,23.1-25.57,43-22.59,66.77,1.44,11.56,8.09,21.39,12.33,32.07a78.16,78.16,0,0,1-26.55,90.09Z"/><path id="Контур_581" data-name="Контур 581" class="cls-3" d="M2117.77,2439.12a164,164,0,0,1-38.92-56.59c-8.21-21.37-11.54-50.23-2.63-72.24,11.25-27.79,24.2-66.06,5.57-94.1-10.66-16.05-22.73-27.36-30.32-46.8-17.37-44.53-1.09-79,16.67-117.09,9.91-21.24,14.25-51.85,6.71-75.38a84.51,84.51,0,0,1,.62-58c16.88-44.47,56.08-65.57,91.05-74-3.44,5.62-12.55,23.87-13.09,25.2a120.29,120.29,0,0,0-8.34,29.9c-4.36,34.31-.48,60.89,18.64,85.71a91.87,91.87,0,0,1,17.18,68.25c-3.54,24.88-19.21,36.55-26.23,57.92-13.2,40.19,21.9,74.5,22.52,113.57.58,37.44-21.62,69.23-38.85,96.05-19.23,29.9-27.54,79.58-20.62,117.57Z"/><path id="Контур_582" data-name="Контур 582" class="cls-3" d="M2262,2012.16c11.44,29.39,3.06,67.5-18.48,84-7.87,6-17.1,9.38-24.55,16.18-10.89,10-17,27.28-15.76,44.46,2.05,27.54,21.49,53,16.9,79.7-3.79,22-22.07,33.67-35.27,48.72-22.49,25.65-28.62,60.87-23.37,97.79a90.09,90.09,0,0,1-9.84,56.11,206.94,206.94,0,0,0,18.3-11.69c15.91-13.52,32.79-28,40.7-50.78,3.18-9.19,4.85-19.09,7.65-28.45a60.69,60.69,0,0,1,22.73-32.95c8.28-5.83,17.8-7.86,26.82-11.48,24.72-9.87,40.2-40.89,32.22-74.46-6.33-26.62-25.91-50.05-23.06-77.12,1.39-13.15,8-24.11,12.19-36.15,12.55-36,0-81.31-27.18-103.9Z"/></g><g id="Сгруппировать_185" data-name="Сгруппировать 185"><path id="Контур_583" data-name="Контур 583" class="cls-4" d="M635.65,1170.14c-7.37-17.07-30.26-26-51.12-20l-57.22,11.52L561,1199.49l77.43-23Z"/><path id="Контур_584" data-name="Контур 584" class="cls-5" d="M561,1291.81l-33.66,37.8,57.23,11.53c20.86,6,43.74-2.9,51.11-20l2.75-6.36Z"/><path id="Контур_585" data-name="Контур 585" class="cls-5" d="M639.76,1168.2c-64.06,0-140.58,44.8-161.16,68v19c20.59,23.16,97.1,68,161.16,68,74.76,0,118.5-77.46,118.5-77.46S714.53,1168.2,639.76,1168.2Z"/><path id="Контур_586" data-name="Контур 586" class="cls-4" d="M758.26,1245.63s-30.4-53.82-83.83-71.72a109.6,109.6,0,0,0,0,143.45C727.86,1299.47,758.26,1245.63,758.26,1245.63Z"/><ellipse id="Эллипс_193" data-name="Эллипс 193" class="cls-6" cx="696.32" cy="1226.11" rx="9.7" ry="8.53"/><path id="Контур_587" data-name="Контур 587" class="cls-4" d="M439,1245.65h-6c-12.35,0-22.36-5.9-22.36-13.2l-9-31h15.73c34.78,0,63,16.65,63,37.16v14c0,20.53-28.21,37.16-63,37.16H401.72l9-31c0-7.29,10-13.2,22.36-13.2"/></g><g id="Сгруппировать_186" data-name="Сгруппировать 186"><path id="Контур_588" data-name="Контур 588" class="cls-4" d="M1782,1592.11c7.37-17.07,30.25-26,51.12-20l57.22,11.53-33.65,37.8-77.43-23Z"/><path id="Контур_589" data-name="Контур 589" class="cls-5" d="M1856.73,1713.77l33.65,37.81-57.22,11.51c-20.86,6-43.75-2.9-51.12-20l-2.75-6.37Z"/><path id="Контур_590" data-name="Контур 590" class="cls-5" d="M1777.92,1590.17c64.07,0,140.58,44.8,161.17,68v19c-20.59,23.16-97.1,68-161.17,68-74.76,0-118.49-77.45-118.49-77.45S1703.16,1590.17,1777.92,1590.17Z"/><path id="Контур_591" data-name="Контур 591" class="cls-4" d="M1659.43,1667.63s30.4-53.83,83.83-71.73a109.6,109.6,0,0,1,0,143.45C1689.83,1721.45,1659.43,1667.63,1659.43,1667.63Z"/><ellipse id="Эллипс_194" data-name="Эллипс 194" class="cls-6" cx="1721.36" cy="1648.09" rx="9.7" ry="8.53"/><path id="Контур_592" data-name="Контур 592" class="cls-4" d="M1978.64,1667.62h6c12.35,0,22.36-5.9,22.36-13.19l9-31h-15.73c-34.78,0-63,16.63-63,37.16v14c0,20.52,28.21,37.16,63,37.16H2016l-9-30.94c0-7.3-10-13.21-22.36-13.21"/></g><g id="Сгруппировать_187" data-name="Сгруппировать 187"><path id="Контур_593" data-name="Контур 593" class="cls-4" d="M1625.86,817.66c-11-25.45-45.13-38.79-76.26-29.81l-85.38,17.2,50.22,56.4L1630,827.16Z"/><path id="Контур_594" data-name="Контур 594" class="cls-5" d="M1514.44,999.21l-50.22,56.4,85.38,17.21c31.12,9,65.27-4.36,76.26-29.82l4.11-9.49Z"/><path id="Контур_595" data-name="Контур 595" class="cls-5" d="M1632,814.78c-95.58,0-209.75,66.84-240.46,101.4v28.3c30.71,34.56,144.88,101.4,240.46,101.4,111.53,0,176.8-115.55,176.8-115.55S1743.54,814.78,1632,814.78Z"/><path id="Контур_596" data-name="Контур 596" class="cls-4" d="M1808.8,930.33s-45.36-80.3-125.08-107a163.52,163.52,0,0,0,0,214C1763.44,1010.62,1808.8,930.33,1808.8,930.33Z"/><ellipse id="Эллипс_195" data-name="Эллипс 195" class="cls-6" cx="1716.39" cy="901.18" rx="14.47" ry="12.72"/><path id="Контур_597" data-name="Контур 597" class="cls-4" d="M1332.54,930.33h-9c-18.43,0-33.37-8.82-33.37-19.69l-13.39-46.18h23.47c51.92,0,94,24.82,94,55.43v20.85c0,30.61-42.08,55.43-94,55.43h-23.47L1290.22,950c0-10.86,14.94-19.69,33.37-19.69"/></g><g id="Сгруппировать_188" data-name="Сгруппировать 188"><path id="Контур_598" data-name="Контур 598" class="cls-7" d="M1372.74,2430.4a485.08,485.08,0,0,0,2.32-83c-2.07-35.64-6.51-50-9.75-60.49a80.19,80.19,0,0,1-4.35-24.46,173.74,173.74,0,0,1,1-32,460.66,460.66,0,0,0,1.75-76.56l-12.69,17.71a173.74,173.74,0,0,1-1,32,459.81,459.81,0,0,0-1.74,76.58c2.07,35.65,6.51,50,9.75,60.5a80.48,80.48,0,0,1,4.35,24.45c1.31,22.44-2.07,31.68-3.31,63.4,1.87-1.2,5.85,13.21,5.85,13.21S1370.15,2428,1372.74,2430.4Z"/><path id="Контур_599" data-name="Контур 599" class="cls-7" d="M1349.55,2384.65c-.68-6.71-1.57-13.92-2.74-21.66-5.1-33.8-10.67-46.33-14.74-55.49a66.88,66.88,0,0,1-6.36-22.3,166.84,166.84,0,0,1-1.72-31.26,441.74,441.74,0,0,0-4.88-74.55c-5.1-33.79-10.67-46.33-14.74-55.47a67.1,67.1,0,0,1-6.36-22.31,167.65,167.65,0,0,1-1.73-31.26,440.93,440.93,0,0,0-4.87-74.57l-10.88,21a167.76,167.76,0,0,1,1.73,31.27,440.58,440.58,0,0,0,4.87,74.54c5.1,33.8,10.67,46.33,14.74,55.49a66.94,66.94,0,0,1,6.36,22.28,167.12,167.12,0,0,1,1.72,31.29,441.34,441.34,0,0,0,4.88,74.51c5.1,33.83,10.67,46.36,14.74,55.51a67.1,67.1,0,0,1,6.36,22.31,167.48,167.48,0,0,1,1.72,31.24,475.53,475.53,0,0,0,1.71,48.34,94,94,0,0,1,6.17-32.84s1.81-39,4-46.1Z"/><path id="Контур_600" data-name="Контур 600" class="cls-7" d="M1491,1850.84c-2.38,24-6.68,20.27-12.38,47a417.32,417.32,0,0,0-7.26,72.86c-.36,24.82,1.46,41.14,1.55,53.89a145.37,145.37,0,0,1-3,30.43c-2.18,8.5-6.3,14.77-10.19,33a416,416,0,0,0-7.25,72.84c-.37,24.79,1.46,41.13,1.55,53.87a146,146,0,0,1-3,30.43c-2.18,8.51-6.31,14.78-10.2,33a417.93,417.93,0,0,0-7.25,72.83c-.29,20,.86,34.91,1.35,46.5,2.23,5.56,5.52,40.37,5.52,40.37s4.35-6.23,5.89,2.48c4.35-45.47.65-72.94.53-90.73a147.46,147.46,0,0,1,.83-16.41,93.07,93.07,0,0,1,2.18-14,85.7,85.7,0,0,1,3.11-9.24,147.41,147.41,0,0,0,7.1-23.81,314,314,0,0,0,5-34c1.46-14.78,2.09-27.6,2.26-38.83.36-24.74-1.47-41.15-1.56-53.88a145.12,145.12,0,0,1,3-30.41c2.18-8.53,6.31-14.8,10.2-33a417.93,417.93,0,0,0,7.25-72.83c.37-24.82-1.46-41.15-1.55-53.91a146,146,0,0,1,3-30.43c3.18-12.41,10.52-20.11,15.19-67-4.14-7.37-7.72-13.7-11.87-21.06Z"/><path id="Контур_601" data-name="Контур 601" class="cls-7" d="M1422.6,2423.27c-.83-36.36-4.38-44.68-2.75-69.06a100.62,100.62,0,0,1,1.76-14.57c2.81-12.93,9.91-21.12,13.16-69.81,1-15.31,1.27-28.61,1.1-40.26-.37-25.66-2.7-42.51-3.17-55.71a156,156,0,0,1,2.11-31.57c2.81-12.93,9.91-21.13,13.16-69.82l-12.49-21.41a75.24,75.24,0,0,1-4.59,24.21c-5.18,15.6-8.34,30.35-10.35,60.19-3.26,48.74,1.4,77.17,2.07,96a155.91,155.91,0,0,1-2.11,31.56c-2.81,12.93-9.9,21.1-13.16,69.83a561.17,561.17,0,0,0,1.8,90.37c1.35-.68,7,11.86,7,11.86s3.43-13.09,6.45-11.77Z"/><path id="Контур_602" data-name="Контур 602" class="cls-7" d="M1392.64,1717.65c-.29,29.37-4.87,26.48-8.21,60.32a625.86,625.86,0,0,0-.89,89.27c1.78,29.63,5,48.44,6.18,63.58a218.94,218.94,0,0,1-.36,37.28c-1.43,10.88-5,19.79-7.25,42.89a624,624,0,0,0-.9,89.24c1.78,29.64,5,48.4,6.21,63.56a217.91,217.91,0,0,1-.37,37.28c-1.43,10.9-5,19.82-7.25,42.89a626.91,626.91,0,0,0-.89,89.24c1.42,23.86,3.87,41.23,5.35,54.86,2.69,5.83,9,46.11,9,46.11s3.76-9,6,.87c.38-55.63-5.65-87-7.3-108.16-.48-6-.67-11.79-.59-19.82a141,141,0,0,1,1-17.43c.52-4,1.27-7.45,2.27-12.09a241.23,241.23,0,0,0,5-30.82c1-10.58,1.82-24.15,2-42.23s-.31-33.57-1.11-47c-1.78-29.57-5-48.47-6.19-63.58a217.67,217.67,0,0,1,.37-37.26c1.43-10.9,5-19.82,7.25-42.9a625.29,625.29,0,0,0,.89-89.23c-1.77-29.64-5-48.45-6.18-63.59a218.14,218.14,0,0,1,.37-37.3c2.07-15.88,8.69-27.62,9.25-85.1-4.74-7.31-8.82-13.58-13.57-20.88Z"/><path id="Контур_603" data-name="Контур 603" class="cls-7" d="M1468.19,2425.61c6-40.25,10.16-49.08,12.35-76.31a146.61,146.61,0,0,0,.65-16.37c-.46-14.65-5.2-24.51-.83-78.88,1.38-17.12,3.11-31.9,5-44.79,4-28.44,8.44-46.87,10.76-61.48a231.23,231.23,0,0,0,2.83-35.25c-.46-14.66-5.19-24.53-.82-78.91l13.55-22.38a108.54,108.54,0,0,0,.31,27.37c2,17.87,2.54,34.58-.14,67.91-4.38,54.42-12.42,85.46-15.7,106.23a229.86,229.86,0,0,0-2.83,35.25c.46,14.66,5.19,24.52.83,78.91A835.74,835.74,0,0,1,1479.44,2427c-1-.9-7.57,12.39-7.57,12.39s-1-14.89-3.67-13.77Z"/></g><g id="Сгруппировать_189" data-name="Сгруппировать 189"><path id="Контур_604" data-name="Контур 604" class="cls-7" d="M1587,2432.59a295.07,295.07,0,0,1-1.42-50.61,135.9,135.9,0,0,1,5.94-36.9,48.66,48.66,0,0,0,2.66-14.92,106.15,106.15,0,0,0-.64-19.52,281.24,281.24,0,0,1-1.07-46.7l7.73,10.79a107.12,107.12,0,0,0,.65,19.53,281.38,281.38,0,0,1,1.07,46.71,135.92,135.92,0,0,1-6,36.91,48.66,48.66,0,0,0-2.66,14.92c-.8,13.68,1.24,19.31,2,38.68-1.13-.74-3.57,8.05-3.57,8.05s-3.18-8.42-4.76-6.94Z"/><path id="Контур_605" data-name="Контур 605" class="cls-7" d="M1601.16,2404.68c.41-4.1,1-8.49,1.65-13.21a114,114,0,0,1,9-33.86,41.13,41.13,0,0,0,3.88-13.6,102.22,102.22,0,0,0,1-19.07,268.59,268.59,0,0,1,3-45.5,114.2,114.2,0,0,1,9-33.84,41.2,41.2,0,0,0,3.88-13.6,103.19,103.19,0,0,0,1.05-19.08,269.62,269.62,0,0,1,3-45.5l6.63,12.82a103.24,103.24,0,0,0-1,19.08,269.39,269.39,0,0,1-3,45.48,113.84,113.84,0,0,1-9,33.84,41.13,41.13,0,0,0-3.88,13.6,102.32,102.32,0,0,0-1,19.08,269,269,0,0,1-3,45.45,113.57,113.57,0,0,1-9,33.86,41,41,0,0,0-3.88,13.61,101.38,101.38,0,0,0-1,19.07,287.15,287.15,0,0,1-1,29.48,57.21,57.21,0,0,0-3.77-20,270.05,270.05,0,0,0-2.45-28.12Z"/><path id="Контур_606" data-name="Контур 606" class="cls-7" d="M1514.85,2079c1.46,14.61,4.07,12.37,7.55,28.69a255,255,0,0,1,4.43,44.45c.22,15.13-.9,25.1-.95,32.88a88.24,88.24,0,0,0,1.85,18.55,190.66,190.66,0,0,1,6.21,20.15,254,254,0,0,1,4.41,44.44c.23,15.12-.89,25.08-.94,32.87a88.24,88.24,0,0,0,1.85,18.55,189.06,189.06,0,0,1,6.21,20.15,253.83,253.83,0,0,1,4.41,44.43c.19,12.17-.52,21.3-.82,28.37a226.89,226.89,0,0,0-3.37,24.64s-2.66-3.81-3.6,1.5a367.73,367.73,0,0,1-.32-55.34,87.9,87.9,0,0,0-.51-10,57.7,57.7,0,0,0-1.33-8.56,53.38,53.38,0,0,0-1.9-5.64,89.32,89.32,0,0,1-4.33-14.51,190.69,190.69,0,0,1-3-20.75c-.89-9-1.28-16.83-1.38-23.69-.23-15.09.89-25.1,1-32.87a88.91,88.91,0,0,0-1.85-18.55,188.35,188.35,0,0,1-6.21-20.15,254.9,254.9,0,0,1-4.42-44.43c-.22-15.13.9-25.11,1-32.88a89.78,89.78,0,0,0-1.85-18.57c-1.94-7.57-6.41-12.26-9.27-40.88l7.24-12.85Z"/><path id="Контур_607" data-name="Контур 607" class="cls-7" d="M1556.61,2428.24c.49-22.19,2.66-27.25,1.65-42.12a61.65,61.65,0,0,0-1.07-8.89c-1.71-7.9-6-12.89-8-42.61-.62-9.35-.77-17.45-.67-24.56.23-15.66,1.66-25.93,1.93-34a94.79,94.79,0,0,0-1.29-19.25c-1.7-7.9-6-12.89-8-42.61,2.67-4.55,5-8.48,7.62-13.05a45.77,45.77,0,0,0,2.81,14.77,134,134,0,0,1,6.3,36.72,389.06,389.06,0,0,1-1.26,58.53,94.83,94.83,0,0,0,1.28,19.26c1.72,7.88,6,12.88,8,42.6a342.88,342.88,0,0,1-1.09,55.13c-.83-.42-4.27,7.23-4.27,7.23s-2.09-8-3.93-7.18Z"/><path id="Контур_608" data-name="Контур 608" class="cls-7" d="M1574.87,1997.79c.18,17.9,3,16.14,5,36.8a382.07,382.07,0,0,1,.55,54.45c-1.09,18.08-3.06,29.56-3.78,38.79a132.72,132.72,0,0,0,.23,22.73c.86,6.65,3,12.09,4.42,26.17a381.94,381.94,0,0,1,.55,54.44c-1.09,18.08-3.06,29.54-3.78,38.78a132,132,0,0,0,.23,22.75c.86,6.65,3,12.1,4.42,26.17a384.77,384.77,0,0,1,.55,54.43c-.88,14.57-2.37,25.16-3.27,33.48-1.66,3.56-5.47,28.13-5.47,28.13s-2.29-5.47-3.69.52a518.12,518.12,0,0,1,4.46-66c.29-3.65.42-7.19.36-12.08a86,86,0,0,0-.58-10.64c-.32-2.44-.77-4.55-1.4-7.38a149,149,0,0,1-3-18.8c-.63-6.46-1.11-14.73-1.22-25.76s.19-20.48.67-28.68c1.09-18,3.05-29.56,3.78-38.78a133,133,0,0,0-.22-22.75c-.87-6.65-3-12.09-4.43-26.17a381.79,381.79,0,0,1-.53-54.43c1.08-18.09,3-29.55,3.76-38.8a132,132,0,0,0-.22-22.75c-1.27-9.69-5.3-16.86-5.64-51.92l8.28-12.73Z"/><path id="Контур_609" data-name="Контур 609" class="cls-7" d="M1528.79,2429.67c-3.66-24.55-6.21-29.94-7.54-46.55a90,90,0,0,1-.41-10,207.72,207.72,0,0,0,.5-48.13c-.83-10.44-1.89-19.44-3-27.3-2.49-17.37-5.15-28.59-6.57-37.5a142.13,142.13,0,0,1-1.73-21.51,207.81,207.81,0,0,0,.5-48.14c-2.89-4.78-5.38-8.87-8.28-13.65a66.12,66.12,0,0,1-.19,16.69,193.94,193.94,0,0,0,.09,41.44,575.58,575.58,0,0,0,9.58,64.79,140.94,140.94,0,0,1,1.72,21.51,208.93,208.93,0,0,0-.5,48.14,508.87,508.87,0,0,0,8.94,61.05c.64-.55,4.62,7.56,4.62,7.56s.59-9.1,2.24-8.39Z"/></g><g id="Сгруппировать_190" data-name="Сгруппировать 190"><path id="Контур_610" data-name="Контур 610" class="cls-8" d="M1312,89.33,148.45,381.3H2475.53Z"/><path id="Контур_611" data-name="Контур 611" class="cls-9" d="M1312,89.33l-853.57,292H2165.56Z"/><path id="Контур_612" data-name="Контур 612" class="cls-8" d="M1312,89.33l-579.92,292H1891.91Z"/><path id="Контур_613" data-name="Контур 613" class="cls-9" d="M1312,89.33l-379.51,292h759Z"/><path id="Контур_614" data-name="Контур 614" class="cls-8" d="M1312,89.33l-220.57,292h441.14Z"/><path id="Контур_615" data-name="Контур 615" class="cls-9" d="M1312,89.33l-68.53,292h137Z"/><ellipse id="Эллипс_196" data-name="Эллипс 196" class="cls-8" cx="1311.99" cy="56.72" rx="57.64" ry="56.51"/></g><path id="Контур_616" data-name="Контур 616" class="cls-7" d="M1177,1552.34a125.18,125.18,0,0,1-13-30.2,60.75,60.75,0,0,1-3-24.49,22.23,22.23,0,0,0-1-10,44.89,44.89,0,0,0-5.13-11.62,118.28,118.28,0,0,1-11.81-27.94l9.73,3.8a44.63,44.63,0,0,0,5.13,11.58,119.36,119.36,0,0,1,11.81,28,61.17,61.17,0,0,1,3,24.5,22.07,22.07,0,0,0,1,10c2.43,8.58,5.65,11.27,10.85,22.76-1.24,0-1.47,6.15-1.47,6.15s-4.92-4-6.06-2.51Z"/><path id="Контур_617" data-name="Контур 617" class="cls-7" d="M1504.56,1504.29c.86-2.4,1.93-5,3.25-7.8a54.71,54.71,0,0,1,15-20.29,20,20,0,0,0,6.41-8.17,27.42,27.42,0,0,0,2.76-11.17,72.83,72.83,0,0,1,7.24-26.65,54.61,54.61,0,0,1,15-20.27,20.33,20.33,0,0,0,6.4-8.17,27.1,27.1,0,0,0,2.76-11.17,73,73,0,0,1,7.25-26.66l8.57,7a27.38,27.38,0,0,0-2.76,11.17,72.73,72.73,0,0,1-7.24,26.64,54.81,54.81,0,0,1-15,20.28,20.19,20.19,0,0,0-6.42,8.16,27.45,27.45,0,0,0-2.75,11.17,73.17,73.17,0,0,1-7.24,26.65,54.8,54.8,0,0,1-15,20.3,20.28,20.28,0,0,0-6.41,8.17,27.46,27.46,0,0,0-2.76,11.17,74.38,74.38,0,0,1-3.43,17.22,15.68,15.68,0,0,0-4-11.4s0-13.76-1.61-16.2Z"/><path id="Контур_618" data-name="Контур 618" class="cls-7" d="M904,989.8c-4.79-16.22-7.59-19.85-9.7-30.78a40.24,40.24,0,0,1-.86-6.55A88.94,88.94,0,0,0,891.75,921c-1.32-6.86-2.8-12.8-4.29-18-3.27-11.45-6.47-18.94-8.3-24.82a63.59,63.59,0,0,1-2.72-14.14,89.41,89.41,0,0,0-1.73-31.44l-8.91-9.3a28.39,28.39,0,0,1,.59,10.9,84,84,0,0,0,2,27.09A280.08,280.08,0,0,0,881,904.13a64.76,64.76,0,0,1,2.73,14.14,88.94,88.94,0,0,0,1.73,31.44A247.32,247.32,0,0,0,897.21,990c.61-.34,5,5.16,5,5.16s.16-5.92,1.85-5.38Z"/><path id="Контур_619" data-name="Контур 619" class="cls-7" d="M1850,1176.36c4.51-10.76,7.52-12.48,9.27-20.15a17.35,17.35,0,0,0,.59-4.76c-.22-4.49-3.47-8.48,0-23.81a81.32,81.32,0,0,1,3.82-12.32c3.08-7.62,6.31-12.18,8-16a26,26,0,0,0,2.26-9.93c-.2-4.5-3.45-8.49,0-23.82,3.39-1.3,6.31-2.41,9.7-3.73a14.58,14.58,0,0,0,0,8.28,41.17,41.17,0,0,1-.63,20.3,105,105,0,0,1-11.86,28.36,26.22,26.22,0,0,0-2.27,9.93c.2,4.49,3.46,8.49,0,23.82a92.89,92.89,0,0,1-11.08,26.75c-.72-.5-5.42,2.07-5.42,2.07s-.56-4.68-2.48-4.94Z"/><path id="Контур_620" data-name="Контур 620" class="cls-7" d="M1179.4,672.14c.88-13.06-.55-17.65,1.09-25.37a14.34,14.34,0,0,1,1.36-4.23c1.8-3.15,5.51-2.58,8.78-18a104.1,104.1,0,0,0,1.94-13.49c.72-9.13.19-16.11.41-20.93a28.05,28.05,0,0,1,2.12-10c1.81-3.16,5.52-2.59,8.8-18l-5.29-13.47a9,9,0,0,1-3.06,6.23c-3,2.93-5.08,6.56-7.08,16a163.24,163.24,0,0,0-2.36,34.41,28.1,28.1,0,0,1-2.12,10c-1.8,3.15-5.51,2.58-8.79,18a143.17,143.17,0,0,0-2.29,32.35,46.07,46.07,0,0,1,3,7.5s2.11-2.89,3.52-1Z"/><path id="Контур_621" data-name="Контур 621" class="cls-7" d="M711.32,567.7C698.26,557,693.9,555.48,686,547.59a38.69,38.69,0,0,1-4.38-4.93,89,89,0,0,0-19-25.1c-4.94-5-9.49-9-13.63-12.52-9.11-7.66-16-12.07-20.79-15.93A64.54,64.54,0,0,1,618,478.91a89.76,89.76,0,0,0-19-25.11l-12.6-2.73a28.82,28.82,0,0,1,6.6,8.71,84.05,84.05,0,0,0,16.83,21.34,279.59,279.59,0,0,0,34.4,28.44,63.84,63.84,0,0,1,10.18,10.21,89.29,89.29,0,0,0,19.05,25.09,248,248,0,0,0,32.34,26.85c.32-.61,7,1.49,7,1.49s-3.18-5-1.48-5.5Z"/><path id="Контур_622" data-name="Контур 622" class="cls-7" d="M1800.93,563.63c2-9.48,1.53-12.14,3.47-18.18a20,20,0,0,1,1.36-3.49,46.36,46.36,0,0,0,7.85-16c1.22-3.79,2.09-7.18,2.75-10.19,1.47-6.67,1.86-11.35,2.54-14.82a34.48,34.48,0,0,1,2.48-7.81,46.72,46.72,0,0,0,7.87-16c-.74-2.57-1.37-4.79-2.11-7.37a14.86,14.86,0,0,1-2.73,5.55,44.48,44.48,0,0,0-6.49,14,153.53,153.53,0,0,0-5.28,25,33.83,33.83,0,0,1-2.48,7.81,46.8,46.8,0,0,0-7.87,16,135.14,135.14,0,0,0-5,23.54c.42,0,1.19,4.09,1.19,4.09s1.73-2.85,2.48-2.07Z"/><path id="Контур_623" data-name="Контур 623" class="cls-7" d="M1480.75,487c-6.21-7.45-8.58-8.73-12.12-14a21.35,21.35,0,0,1-1.88-3.24,46.67,46.67,0,0,0-7.71-16.09c-2.22-3.31-4.33-6.09-6.28-8.49-4.33-5.27-7.76-8.48-10.07-11.17a34.57,34.57,0,0,1-4.55-6.81,46.52,46.52,0,0,0-7.7-16.08l-7.09-2.93a15.17,15.17,0,0,1,2.67,5.58,43.9,43.9,0,0,0,6.92,13.74,152.34,152.34,0,0,0,16.35,19.67,34.42,34.42,0,0,1,4.58,6.81,46.69,46.69,0,0,0,7.7,16.08,134.82,134.82,0,0,0,15.35,18.54c.28-.31,3.95,1.61,3.95,1.61s-1.18-3.13-.1-3.23Z"/><path id="Контур_624" data-name="Контур 624" class="cls-7" d="M1760.7,1996.94a81.68,81.68,0,0,1,.91-8.4,54.59,54.59,0,0,1,8.61-23.71,20.35,20.35,0,0,0,3.83-9.65,27.38,27.38,0,0,0-.54-11.5,73.07,73.07,0,0,1-.62-27.61,54.68,54.68,0,0,1,8.61-23.72,20.06,20.06,0,0,0,3.82-9.64,27.5,27.5,0,0,0-.52-11.49,72.77,72.77,0,0,1-.64-27.63l10.21,4.32a27.45,27.45,0,0,0,.53,11.48,72.92,72.92,0,0,1,.64,27.62,54.63,54.63,0,0,1-8.63,23.7,20.27,20.27,0,0,0-3.82,9.66,27.45,27.45,0,0,0,.54,11.48,72.87,72.87,0,0,1,.63,27.61,54.82,54.82,0,0,1-8.62,23.72,20.34,20.34,0,0,0-3.83,9.66,27.46,27.46,0,0,0,.54,11.48,74,74,0,0,1,1.6,17.49,15.72,15.72,0,0,0-7.1-9.8s-3.89-13.2-6.15-15.07Z"/><path id="Контур_625" data-name="Контур 625" class="cls-7" d="M946.77,604.8a125.43,125.43,0,0,1-13-30.18,61.05,61.05,0,0,1-3-24.48,22.17,22.17,0,0,0-1-10,44.64,44.64,0,0,0-5.13-11.61,119.22,119.22,0,0,1-11.81-27.93l9.73,3.79a44.91,44.91,0,0,0,5.13,11.6,119.26,119.26,0,0,1,11.81,28,61.08,61.08,0,0,1,3,24.49,22,22,0,0,0,1,10c2.42,8.59,5.64,11.27,10.84,22.75-1.24,0-1.47,6.15-1.47,6.15s-4.92-4-6.06-2.51Z"/><path id="Контур_626" data-name="Контур 626" class="cls-7" d="M2022.77,461.37a99.57,99.57,0,0,1,6.59-9.31,9.54,9.54,0,0,1,1.66-1.45,19.16,19.16,0,0,0,8.34-5.84,56.07,56.07,0,0,0,4.14-4.83c2.51-3.31,3.94-6,5.21-7.74a15.72,15.72,0,0,1,3.37-3.49,19.39,19.39,0,0,0,8.33-5.86c.29-1.92.53-3.57.83-5.5a6,6,0,0,1-2.9,2,18.73,18.73,0,0,0-7.08,5.28,79.39,79.39,0,0,0-9.34,12.55,15.59,15.59,0,0,1-3.37,3.51,19.1,19.1,0,0,0-8.34,5.85,69.49,69.49,0,0,0-8.81,11.79,13.07,13.07,0,0,1-.45,3s1.66-.88,1.85,0Z"/><path id="Контур_627" data-name="Контур 627" class="cls-7" d="M2125.76,631.16c7.82-5.72,9.27-8,14.74-11.2a20.27,20.27,0,0,1,3.36-1.68,46.92,46.92,0,0,0,16.56-6.66c3.44-2,6.35-4,8.87-5.75,5.55-4,9-7.19,11.8-9.31a34.24,34.24,0,0,1,7.09-4.14,46.68,46.68,0,0,0,16.56-6.67l3.37-6.88a15.13,15.13,0,0,1-5.74,2.31,44.12,44.12,0,0,0-14.17,6,152.56,152.56,0,0,0-20.67,15.07,34.31,34.31,0,0,1-7.08,4.13,46.53,46.53,0,0,0-16.57,6.66,136.23,136.23,0,0,0-19.48,14.14c.29.29-1.86,3.84-1.86,3.84s3.21-1,3.23.11Z"/><path id="Контур_628" data-name="Контур 628" class="cls-7" d="M249,546.05a115.87,115.87,0,0,1-13.06-5.36,9.64,9.64,0,0,1-2.07-1.53,19.13,19.13,0,0,0-8.55-8.28,61.42,61.42,0,0,0-6.82-3.58c-4.66-2.1-8.33-3.1-10.82-4.14a17.12,17.12,0,0,1-5-3,19.35,19.35,0,0,0-8.55-8.24l-7.46.44a6.29,6.29,0,0,1,3,2.86,18.59,18.59,0,0,0,7.67,6.93,91.73,91.73,0,0,0,17.62,7.72,17.48,17.48,0,0,1,5,3,19.15,19.15,0,0,0,8.55,8.27,81.61,81.61,0,0,0,16.57,7.3,20.44,20.44,0,0,1,4.14-.26s-1.33-1.72-.21-2.14Z"/><path id="Контур_629" data-name="Контур 629" class="cls-7" d="M315.16,484.29a118.71,118.71,0,0,1-7.52-11.91,10.07,10.07,0,0,1-.78-2.46,19.14,19.14,0,0,0-2.15-11.69,61.67,61.67,0,0,0-3.45-6.9c-2.57-4.41-5-7.36-6.39-9.63a17.29,17.29,0,0,1-2.28-5.38,19.2,19.2,0,0,0-2.16-11.68l-6.31-4a6.23,6.23,0,0,1,.74,4.05,18.69,18.69,0,0,0,2.2,10.1,91.57,91.57,0,0,0,9.84,16.52,17.16,17.16,0,0,1,2.29,5.37,19.14,19.14,0,0,0,2.15,11.69A81.3,81.3,0,0,0,310.55,484a20,20,0,0,1,3.52,2.2s-.07-2.17,1.09-1.88Z"/><path id="Контур_630" data-name="Контур 630" class="cls-7" d="M1227.62,425.76a155.05,155.05,0,0,1,6.75,15.94,9.89,9.89,0,0,1,.41,2.91c-.15,2.37-2.5,2.87,0,13.14a75.18,75.18,0,0,0,2.78,8.78c2.24,5.79,4.59,10,5.86,13.05a19.36,19.36,0,0,1,1.65,6.65c-.14,2.36-2.48,2.86.05,13.13l7,7.12a5.89,5.89,0,0,1,0-4.55,18.15,18.15,0,0,0-.47-11.51,118.8,118.8,0,0,0-8.63-21.82,19.65,19.65,0,0,1-1.66-6.66c.15-2.35,2.51-2.85,0-13.12a104.07,104.07,0,0,0-8.07-20.52,33.49,33.49,0,0,1-3.93-4s-.42,2.29-1.8,1.43Z"/><path id="Контур_631" data-name="Контур 631" class="cls-7" d="M1134,486.22a124.88,124.88,0,0,1-8.89,13.51,8.56,8.56,0,0,1-2.13,1.8c-2,1-3.89-.74-10.72,6.42a61.36,61.36,0,0,0-5.48,6.66c-3.37,4.73-5.36,8.77-7.07,11.35a16.32,16.32,0,0,1-4.42,4.65c-2,1-3.9-.76-10.73,6.42-.51,3.31-1,6.16-1.48,9.48,1.87-2,2.48-2,3.72-2.21a15.85,15.85,0,0,0,9.14-6,97.49,97.49,0,0,0,12.54-18,16.28,16.28,0,0,1,4.42-4.64c2-1,3.9.74,10.73-6.43a85.15,85.15,0,0,0,11.82-16.87,30.35,30.35,0,0,1,.83-5.29s-2.11.78-2.27-.83Z"/><path id="Контур_632" data-name="Контур 632" class="cls-7" d="M1291.51,637.61a134.56,134.56,0,0,1-4.49,15.87,9,9,0,0,1-1.49,2.39c-1.6,1.58-3.85.41-8.21,9.45a64.16,64.16,0,0,0-3.24,8.14c-1.82,5.63-2.53,10.18-3.4,13.2a16.92,16.92,0,0,1-2.82,5.86c-1.61,1.6-3.85.41-8.21,9.46.45,3.4.83,6.32,1.29,9.73,1.19-2.48,1.74-2.71,2.85-3.27,2.36-1.19,4.17-3,6.85-8.58a103.38,103.38,0,0,0,6.62-21.33,16.68,16.68,0,0,1,2.83-5.86c1.6-1.6,3.85-.41,8.21-9.46a90.16,90.16,0,0,0,6.29-20,31.86,31.86,0,0,1-.74-5.41s-1.76,1.36-2.36-.16Z"/><path id="Контур_633" data-name="Контур 633" class="cls-7" d="M520.34,636.26a76.38,76.38,0,0,1-8.75-2.48,5,5,0,0,1-1.35-.83c-.93-.87-.39-2.1-5.46-4.5a37.19,37.19,0,0,0-4.52-1.78c-3.12-1-5.61-1.38-7.26-1.87a9.75,9.75,0,0,1-3.29-1.55c-.93-.88-.39-2.11-5.45-4.51-1.82.24-3.38.47-5.2.72,1.39.65,1.54.95,1.89,1.56a9.64,9.64,0,0,0,4.92,3.76,57.88,57.88,0,0,0,11.79,3.64A10.25,10.25,0,0,1,501,630c.93.88.39,2.12,5.45,4.51a51.13,51.13,0,0,0,11.07,3.45,16.61,16.61,0,0,1,2.9-.41s-.83-1,0-1.3Z"/><path id="Контур_634" data-name="Контур 634" class="cls-7" d="M525.3,572.84a73.38,73.38,0,0,1-2.79-8.66,5.16,5.16,0,0,1-.06-1.57,9.59,9.59,0,0,0,.74-7,34.92,34.92,0,0,0-1-4.75c-.89-3.14-1.94-5.44-2.45-7.08a9.76,9.76,0,0,1-.53-3.59,9.57,9.57,0,0,0,.74-7c-1.2-1.36-2.25-2.54-3.45-3.92a3.17,3.17,0,0,1-.27,2.43,9.58,9.58,0,0,0-.41,6.18,58.61,58.61,0,0,0,3.47,11.83,9.72,9.72,0,0,1,.53,3.59,9.52,9.52,0,0,0-.74,7,50.72,50.72,0,0,0,3.24,11.13,17.48,17.48,0,0,1,1.93,2.19s.35-1.22,1.07-.73Z"/><path id="Контур_635" data-name="Контур 635" class="cls-7" d="M412.54,592a78.25,78.25,0,0,1-5.15-7.49,5.26,5.26,0,0,1-.51-1.49,9.6,9.6,0,0,0-1.32-6.95,37.27,37.27,0,0,0-2.34-4.25c-1.76-2.76-3.42-4.65-4.39-6.08a9.72,9.72,0,0,1-1.54-3.31,9.55,9.55,0,0,0-1.31-7c-1.56-1-2.9-1.8-4.45-2.77a3.16,3.16,0,0,1,.45,2.41,9.57,9.57,0,0,0,1.38,6,59.25,59.25,0,0,0,6.73,10.35,9.58,9.58,0,0,1,1.54,3.28,9.51,9.51,0,0,0,1.31,6.94,51.06,51.06,0,0,0,6.31,9.74,16.27,16.27,0,0,1,2.48,1.54s0-1.27.83-1Z"/><path id="Контур_636" data-name="Контур 636" class="cls-7" d="M1897.33,873.22a127,127,0,0,1,4.47-15.54,8.78,8.78,0,0,1,1.5-2.35c1.63-1.57,3.94-.41,8.34-9.3a60.79,60.79,0,0,0,3.25-8c1.82-5.52,2.51-10,3.39-12.92a16.13,16.13,0,0,1,2.84-5.75c1.64-1.59,3.94-.45,8.34-9.32-.49-3.31-.91-6.16-1.4-9.49-1.2,2.43-1.76,2.66-2.89,3.22-2.4,1.19-4.25,3-6.94,8.44a96.93,96.93,0,0,0-6.63,20.89,16.13,16.13,0,0,1-2.84,5.75c-1.63,1.59-3.94.45-8.34,9.33a85.06,85.06,0,0,0-6.29,19.62,30.33,30.33,0,0,1,.8,5.28s1.79-1.35,2.42.13Z"/><path id="Контур_637" data-name="Контур 637" class="cls-7" d="M1702.32,775.71a133.18,133.18,0,0,1-.42-16.47,8.55,8.55,0,0,1,.72-2.73c1.05-2,3.55-1.53,5-11.46a62.24,62.24,0,0,0,.67-8.73c.07-5.92-.6-10.48-.66-13.62a16.62,16.62,0,0,1,1-6.44c1.05-2,3.55-1.53,5-11.46-1.45-3.11-2.68-5.79-4.14-8.91-.41,2.72-.86,3.1-1.76,4a15.89,15.89,0,0,0-4,10.22,103,103,0,0,0,0,22.34,16.62,16.62,0,0,1-1,6.44c-1.06,2-3.55,1.53-5,11.47a89.94,89.94,0,0,0-.06,21,31,31,0,0,1,2.3,5s1.28-1.84,2.3-.56Z"/><path id="Контур_638" data-name="Контур 638" class="cls-7" d="M1099.82,1001.22a118.37,118.37,0,0,1-13.06-5.33,10,10,0,0,1-2.07-1.54,19,19,0,0,0-8.55-8.27,59.85,59.85,0,0,0-6.82-3.59c-4.66-2.1-8.33-3.11-10.81-4.14a17,17,0,0,1-5-3A19.33,19.33,0,0,0,1045,967c-2.6.16-4.83.28-7.45.45a6.27,6.27,0,0,1,3,2.86,18.59,18.59,0,0,0,7.67,6.93,91.55,91.55,0,0,0,17.63,7.72,17,17,0,0,1,5,3,19.16,19.16,0,0,0,8.55,8.27,80.16,80.16,0,0,0,16.56,7.29,20.52,20.52,0,0,1,4.14-.25s-1.33-1.72-.22-2.16Z"/><path id="Контур_639" data-name="Контур 639" class="cls-7" d="M1252.37,1253a74.42,74.42,0,0,1-5.62-7.14,5.16,5.16,0,0,1-.62-1.45,9.48,9.48,0,0,0-1.76-6.85,35,35,0,0,0-2.61-4.09c-1.93-2.64-3.73-4.43-4.78-5.8a10,10,0,0,1-1.74-3.19,9.58,9.58,0,0,0-1.76-6.85l-4.61-2.48a3.17,3.17,0,0,1,.6,2.38,9.55,9.55,0,0,0,1.77,5.92,58.7,58.7,0,0,0,7.38,9.88,9.75,9.75,0,0,1,1.75,3.19,9.54,9.54,0,0,0,1.76,6.84,51.25,51.25,0,0,0,6.92,9.31,16.22,16.22,0,0,1,2.57,1.37s-.08-1.26.75-1Z"/><path id="Контур_640" data-name="Контур 640" class="cls-7" d="M1644.21,441.1c-5-1.28-6.9-1.27-9.77-2.32a6.72,6.72,0,0,1-1.54-.71c-1.08-.72-.56-1.65-6.29-3.78-1.79-.66-3.5-1.18-5.08-1.59-3.49-.93-6.25-1.35-8.1-1.79a15,15,0,0,1-3.73-1.36c-1.08-.74-.57-1.69-6.3-3.8l-5.65.34c1.56.58,1.75.83,2.18,1.32a12.4,12.4,0,0,0,5.66,3.17,90.64,90.64,0,0,0,13.18,3.37,14.91,14.91,0,0,1,3.73,1.37c1.08.74.57,1.69,6.29,3.79a79.1,79.1,0,0,0,12.39,3.2,25.33,25.33,0,0,1,3.14-.19s-1-.8-.11-1Z"/><path id="Контур_641" data-name="Контур 641" class="cls-7" d="M1639.85,424.24a28.91,28.91,0,0,1-1.8-4.39,1.71,1.71,0,0,1,0-.78c.22-.6,1.24-.63.85-3.39a13.83,13.83,0,0,0-.6-2.38c-.57-1.59-1.28-2.77-1.61-3.62a3.24,3.24,0,0,1-.27-1.79c.22-.6,1.24-.62.85-3.37-.87-.76-1.63-1.4-2.51-2.16.12.76,0,.89-.3,1.17-.56.61-.8,1.29-.56,3a21.76,21.76,0,0,0,2.21,6,3.24,3.24,0,0,1,.27,1.79c-.22.61-1.25.62-.85,3.39a18.68,18.68,0,0,0,2.07,5.64,10.61,10.61,0,0,1,1.4,1.19.64.64,0,0,1,.85-.29Z"/><path id="Контур_642" data-name="Контур 642" class="cls-7" d="M1661.14,441a26.89,26.89,0,0,1-1.07-4.51,1.67,1.67,0,0,1,.15-.76,3.61,3.61,0,0,0,1.4-3.31,12.29,12.29,0,0,0-.2-2.42c-.29-1.62-.83-2.85-1-3.72a3.33,3.33,0,0,1,0-1.8,3.6,3.6,0,0,0,1.4-3.31l-2.14-2.31c0,.76-.18.88-.49,1.14a3.37,3.37,0,0,0-1,2.94,20.27,20.27,0,0,0,1.2,6.11,3.15,3.15,0,0,1,0,1.8,3.59,3.59,0,0,0-1.4,3.31,18,18,0,0,0,1.11,5.75,9.76,9.76,0,0,1,1.2,1.29s.41-.54.89-.22Z"/><path id="Контур_643" data-name="Контур 643" class="cls-7" d="M2338.9,520.36a84.36,84.36,0,0,1-9.52-3.43,6.75,6.75,0,0,1-1.49-1,12.55,12.55,0,0,0-6.15-5.62,41.14,41.14,0,0,0-5-2.37c-3.4-1.38-6.09-2-7.9-2.66a12,12,0,0,1-3.62-2,12.55,12.55,0,0,0-6.14-5.63l-5.51.49a4.16,4.16,0,0,1,2.12,2,12.45,12.45,0,0,0,5.51,4.72,65.93,65.93,0,0,0,12.86,5,12,12,0,0,1,3.63,2,12.51,12.51,0,0,0,6.13,5.62,56.59,56.59,0,0,0,12.09,4.75,15.8,15.8,0,0,1,3.07-.28S2338.07,520.69,2338.9,520.36Z"/><path id="Контур_644" data-name="Контур 644" class="cls-7" d="M2334.7,493.06a56.13,56.13,0,0,1-1.76-6.53,3.63,3.63,0,0,1,0-1.14,6.5,6.5,0,0,0,.83-5,28.39,28.39,0,0,0-.58-3.54c-.55-2.37-1.25-4.14-1.58-5.38a7.19,7.19,0,0,1-.25-2.65,6.59,6.59,0,0,0,.83-5c-.86-1.11-1.6-2.07-2.45-3.19.11,1.12,0,1.32-.29,1.74a6.54,6.54,0,0,0-.55,4.43,43.39,43.39,0,0,0,2.16,8.91,7.19,7.19,0,0,1,.25,2.65,6.5,6.5,0,0,0-.83,5,39.07,39.07,0,0,0,2,8.38,12.32,12.32,0,0,1,1.36,1.76s.32-.83.83-.41Z"/><path id="Контур_645" data-name="Контур 645" class="cls-7" d="M2355.54,520.2a55.72,55.72,0,0,1-1-6.69,3.31,3.31,0,0,1,.14-1.13,6.51,6.51,0,0,0,1.36-4.9,26.9,26.9,0,0,0-.19-3.59c-.29-2.42-.8-4.24-1-5.51a7.27,7.27,0,0,1,0-2.67,6.42,6.42,0,0,0,1.37-4.9c-.74-1.19-1.36-2.23-2.09-3.43,0,1.13-.17,1.31-.48,1.71a6.56,6.56,0,0,0-1,4.34,43.72,43.72,0,0,0,1.18,9.1,7.06,7.06,0,0,1,0,2.67,6.46,6.46,0,0,0-1.36,4.9,38.5,38.5,0,0,0,1.08,8.55,14.25,14.25,0,0,1,1.17,1.9s.41-.8.87-.33Z"/><path id="Контур_646" data-name="Контур 646" class="cls-10" d="M986.8,754.47a1653.82,1653.82,0,0,0-171.13-15,1941.33,1941.33,0,0,0-310.74,12.86c-317,0-413.09-15-436.78-30-33.95-21.48,89.7-38.93,94.57-81.37,3.58-31.19-98.62-39-126.09-87.79-23.39-41.5,16.26-96.45,59.09-127.11,68.4-48.95,154.28-42.58,553.36-43.47,114.08-.25,228.2,2.18,342.21,0,108.29-2.07,1456.15,2.16,1495.53-1.8,21.53-2.16,15.49,136.72,15.49,136.73,2.41,20.47,88.13,95.66,90.41,105.21,18.28,76.62-78.85,65.06-138.39,89-53.13,21.4-1087.1-80.26-1134.27-56.89-29.5,14.58,54.65,29.9,18,50.31-17.07,9.51-56.64,15-135.06,25.7C1153.45,737.66,1080.89,746.49,986.8,754.47Z"/><path id="Контур_647" data-name="Контур 647" class="cls-7" d="M1042.82,1703.89c-11.49-4-15.45-2.73-22.29-6.87a14.42,14.42,0,0,1-3.77-3c-2.85-3.48-2.53-9.2-16.18-17.48a69.46,69.46,0,0,0-11.92-5.8c-8-3-14.12-3.56-18.37-4.9a21.92,21.92,0,0,1-8.84-5.38c-2.86-3.49-2.54-9.22-16.19-17.49-4,2-7.51,3.61-11.55,5.57a11.61,11.61,0,0,1,5.6,6.07A33,33,0,0,0,953.67,1669c13.67,8.27,24.26,8.77,30.28,10.7a21.74,21.74,0,0,1,8.85,5.38c2.85,3.48,2.53,9.2,16.18,17.48a84.33,84.33,0,0,0,28.46,10.18c.34-1,6.43-3.13,6.43-3.13s-2.66-3.92-1-5.74Z"/><path id="Контур_648" data-name="Контур 648" class="cls-7" d="M910.56,1281.66c-5.75-6.24-6.73-9.46-10.77-12.49a7.57,7.57,0,0,0-2.5-1.38,15,15,0,0,1-12.47-4.13,49.71,49.71,0,0,1-6.55-5.84c-4.07-4.29-6.54-8.21-8.61-10.58a13.73,13.73,0,0,0-5.26-3.91,15,15,0,0,1-12.46-4.14c-.77-3.53-1.44-6.55-2.21-10.08a4.89,4.89,0,0,0,4.33,1.43,14.33,14.33,0,0,1,10.64,4.08,81.77,81.77,0,0,1,15.15,16.43,13.91,13.91,0,0,0,5.26,3.91,15,15,0,0,1,12.47,4.14,71,71,0,0,1,14.29,15.37,30,30,0,0,0,1.21,5.63s-2.43-.27-2.51,1.55Z"/><path id="Контур_649" data-name="Контур 649" class="cls-7" d="M1352.27,1115.84c4.52-10.75,7.53-12.47,9.28-20.14a17.39,17.39,0,0,0,.58-4.76c-.21-4.49-3.46-8.49,0-23.81a80.67,80.67,0,0,1,3.82-12.33c3.08-7.63,6.31-12.18,8-16a26,26,0,0,0,2.26-9.93c-.21-4.49-3.46-8.49,0-23.82l9.7-3.72a14.55,14.55,0,0,0,0,8.27,41.38,41.38,0,0,1-.63,20.32,105,105,0,0,1-11.87,28.37,26,26,0,0,0-2.26,9.93c.2,4.5,3.46,8.49,0,23.81a93.23,93.23,0,0,1-11.08,26.76c-.73-.5-5.42,2-5.42,2s-.56-4.67-2.48-4.93Z"/><path id="Контур_650" data-name="Контур 650" class="cls-7" d="M1399.64,812.71a126.88,126.88,0,0,1,4.47-15.53,8.35,8.35,0,0,1,1.5-2.34c1.63-1.58,3.94-.45,8.34-9.33a61.22,61.22,0,0,0,3.25-8c1.81-5.52,2.51-10,3.38-12.93a16.32,16.32,0,0,1,2.85-5.75c1.63-1.58,3.94-.45,8.33-9.32-.49-3.31-.91-6.18-1.39-9.49-1.21,2.42-1.77,2.66-2.9,3.21-2.39,1.2-4.25,3-6.94,8.46a96.35,96.35,0,0,0-6.62,20.89,16.32,16.32,0,0,1-2.85,5.75c-1.64,1.58-3.94.45-8.34,9.32a85.46,85.46,0,0,0-6.29,19.61,30.33,30.33,0,0,1,.8,5.28s1.79-1.35,2.42.13Z"/><path id="Контур_651" data-name="Контур 651" class="cls-7" d="M329,675.25a121.18,121.18,0,0,1-13.06-5.33,9.73,9.73,0,0,1-2.07-1.55,19.11,19.11,0,0,0-8.55-8.25,62.61,62.61,0,0,0-6.83-3.6c-4.66-2.07-8.33-3.09-10.81-4.14a17,17,0,0,1-5-3,19.24,19.24,0,0,0-8.56-8.25c-2.6.16-4.83.3-7.45.44a6.2,6.2,0,0,1,2.95,2.86,18.7,18.7,0,0,0,7.68,6.94A91.42,91.42,0,0,0,294.92,659a17.29,17.29,0,0,1,5,3.05,19.18,19.18,0,0,0,8.56,8.27A80.7,80.7,0,0,0,325,677.65a20.53,20.53,0,0,1,4.14-.26s-1.32-1.72-.21-2.14Z"/><path id="Контур_652" data-name="Контур 652" class="cls-7" d="M482.19,927a76,76,0,0,1-5.63-7.13,5.2,5.2,0,0,1-.61-1.46,9.54,9.54,0,0,0-1.76-6.84,35,35,0,0,0-2.62-4.09c-1.93-2.65-3.72-4.43-4.77-5.8a9.81,9.81,0,0,1-1.74-3.19,9.59,9.59,0,0,0-1.77-6.85l-4.61-2.48a3.22,3.22,0,0,1,.61,2.38,9.52,9.52,0,0,0,1.76,5.93,58.82,58.82,0,0,0,7.39,9.87,9.64,9.64,0,0,1,1.74,3.19,9.56,9.56,0,0,0,1.77,6.85,50.6,50.6,0,0,0,6.92,9.3,17.19,17.19,0,0,1,2.57,1.38s-.09-1.24.74-1.06Z"/><path id="Контур_653" data-name="Контур 653" class="cls-7" d="M2396.87,680.19a133.29,133.29,0,0,1-.42-16.48,8.81,8.81,0,0,1,.71-2.72c1.06-2,3.56-1.53,5-11.47a60.67,60.67,0,0,0,.68-8.73c.07-5.91-.6-10.47-.66-13.6a16.78,16.78,0,0,1,.95-6.44c1.06-2,3.56-1.54,5-11.47l-4.11-8.9c-.42,2.71-.87,3.1-1.76,4a15.83,15.83,0,0,0-4,10.22,103,103,0,0,0,0,22.34,16.93,16.93,0,0,1-1,6.43c-1.06,2-3.55,1.55-5,11.48a91,91,0,0,0-.06,21,32.83,32.83,0,0,1,2.31,5s1.28-1.83,2.3-.55Z"/><path id="Контур_654" data-name="Контур 654" class="cls-7" d="M2047.61,1020.33c4.52-10.76,7.52-12.48,9.28-20.15a17.44,17.44,0,0,0,.58-4.76c-.22-4.5-3.47-8.49,0-23.8a80.55,80.55,0,0,1,3.82-12.32c3.07-7.64,6.3-12.19,8-16a26.22,26.22,0,0,0,2.27-9.93c-.21-4.48-3.46-8.5,0-23.82l9.69-3.72a14.55,14.55,0,0,0,0,8.27,41.1,41.1,0,0,1-.63,20.31,105.26,105.26,0,0,1-11.86,28.38,26.17,26.17,0,0,0-2.27,9.93c.21,4.49,3.46,8.48,0,23.8a92.55,92.55,0,0,1-11.08,26.76c-.72-.49-5.42,2.06-5.42,2.06s-.56-4.68-2.49-4.93Z"/><path id="Контур_655" data-name="Контур 655" class="cls-7" d="M1631.53,590.17c-5.73-6.25-6.72-9.47-10.76-12.5a7.35,7.35,0,0,0-2.51-1.38,14.92,14.92,0,0,1-12.46-4.14,49.71,49.71,0,0,1-6.55-5.84c-4.08-4.29-6.54-8.22-8.61-10.57a13.68,13.68,0,0,0-5.26-3.92,15,15,0,0,1-12.46-4.14c-.78-3.52-1.43-6.55-2.21-10.08A4.82,4.82,0,0,0,1575,539a14.56,14.56,0,0,1,10.65,4.11,81.4,81.4,0,0,1,15.15,16.41,13.71,13.71,0,0,0,5.27,3.92,15,15,0,0,1,12.46,4.14A72,72,0,0,1,1632.85,583a29.94,29.94,0,0,0,1.21,5.62s-2.43-.25-2.52,1.57Z"/><path id="Контур_656" data-name="Контур 656" class="cls-7" d="M742.81,452.44a77.35,77.35,0,0,1-5.62-7.14,5.44,5.44,0,0,1-.61-1.45,9.58,9.58,0,0,0-1.76-6.85,37.46,37.46,0,0,0-2.62-4.1c-1.94-2.64-3.72-4.41-4.77-5.77a10.13,10.13,0,0,1-1.74-3.19,9.55,9.55,0,0,0-1.76-6.85l-4.62-2.48a3.1,3.1,0,0,1,.6,2.37,9.7,9.7,0,0,0,1.78,5.94,57.69,57.69,0,0,0,7.38,9.87,9.81,9.81,0,0,1,1.74,3.19,9.63,9.63,0,0,0,1.76,6.85,51.58,51.58,0,0,0,6.93,9.3,17.14,17.14,0,0,1,2.57,1.37s-.1-1.27.74-1.06Z"/></g></svg>