<svg id="Layer_1" data-name="Layer 1" xmlns="http://www.w3.org/2000/svg" viewBox="0 0 184 528"><defs><style>.cls-1{fill:#446a62;}.cls-2{fill:#a3a2a1;}.cls-3{fill:#5c895a;}.cls-4{fill:#3a3e3a;}.cls-5,.cls-6{isolation:isolate;}.cls-6{font-size:12px;fill:#fff;font-family:MADETOMMY, MADE TOMMY;}.cls-7{letter-spacing:-0.04em;}.cls-8{letter-spacing:-0.01em;}.cls-9{fill:#563419;}.cls-10{letter-spacing:-0.01em;}.cls-11{letter-spacing:0em;}.cls-12{letter-spacing:-0.02em;}</style></defs><g id="Сгруппировать_369" data-name="Сгруппировать 369"><rect id="Прямоугольник_24" data-name="Прямоугольник 24" class="cls-1" width="184" height="528" rx="62"/><g id="Сгруппировать_353" data-name="Сгруппировать 353"><g id="Сгруппировать_352" data-name="Сгруппировать 352"><g id="Сгруппировать_297" data-name="Сгруппировать 297"><path id="Контур_896" data-name="Контур 896" class="cls-2" d="M137.42,215H29.87l16-108.4h74.24Z"/><ellipse id="Эллипс_340" data-name="Эллипс 340" class="cls-2" cx="83.64" cy="215.02" rx="53.77" ry="21.5"/><ellipse id="Эллипс_341" data-name="Эллипс 341" class="cls-3" cx="82.95" cy="106.83" rx="37.12" ry="12.15"/><path id="Контур_897" data-name="Контур 897" class="cls-4" d="M118,106.91c-.9,5.6-19.28,10.93-35.27,10.89-15.76,0-33.78-5.34-34.81-10.89-1.08-5.85,17.37-11.3,34.38-11.46C99.57,95.29,119,100.83,118,106.91Z"/><circle id="Эллипс_342" data-name="Эллипс 342" class="cls-2" cx="89.18" cy="78.33" r="11.43"/><ellipse id="Эллипс_343" data-name="Эллипс 343" class="cls-2" cx="114.01" cy="67.26" rx="24.83" ry="17.51"/><ellipse id="Эллипс_344" data-name="Эллипс 344" class="cls-2" cx="128.14" cy="48.19" rx="24.22" ry="19.16" transform="translate(-1.97 5.59) rotate(-2.48)"/></g><g id="Factories" class="cls-5"><text class="cls-6" transform="translate(63.52 258.81)"><tspan class="cls-7">F</tspan><tspan x="5.77" y="0">ac</tspan><tspan class="cls-8" x="18.77" y="0">t</tspan><tspan x="23.05" y="0">ories</tspan></text></g></g><g id="Сгруппировать_351" data-name="Сгруппировать 351"><g id="Сгруппировать_300" data-name="Сгруппировать 300"><path id="Контур_898" data-name="Контур 898" class="cls-9" d="M144.25,458H39.94c-4.36,0-7.9-6.72-10.94-15v-9.89c3-8.28,2.8-13.25,7.17-13.25l8.57-2.66,8.95-3,18.73,4.95,15.36-4.95,20.57,5.07,16.24-5.07h18c4.36,0,9.55,10.61,11.58,18.66v9.89C152.15,451.32,148.61,458,144.25,458Z"/><ellipse id="Эллипс_345" data-name="Эллипс 345" class="cls-9" cx="92.1" cy="453.31" rx="57.64" ry="13.69"/><g id="Сгруппировать_298" data-name="Сгруппировать 298"><path id="Контур_899" data-name="Контур 899" class="cls-3" d="M109.26,413.74v13h5.09v-13a12.75,12.75,0,0,0,10.17-12.46V378.64a12.73,12.73,0,0,0-10.17,12.46V362.87a12.75,12.75,0,0,0,10.17-12.46V338a12.72,12.72,0,0,0-10.17,12.46V325h-5.09v25.44A12.74,12.74,0,0,0,99.09,338v12.46a12.73,12.73,0,0,0,10.17,12.46V391.1a12.75,12.75,0,0,0-10.17-12.46v22.64A12.73,12.73,0,0,0,109.26,413.74Z"/><path id="Контур_900" data-name="Контур 900" class="cls-3" d="M111.55,327.52v-2.29a12.74,12.74,0,0,0-10.17-12.46v2.29A12.74,12.74,0,0,0,111.55,327.52Z"/><path id="Контур_901" data-name="Контур 901" class="cls-3" d="M122.23,315.06v-2.29a12.75,12.75,0,0,0-10.18,12.46v2.29A12.75,12.75,0,0,0,122.23,315.06Z"/></g><g id="Сгруппировать_299" data-name="Сгруппировать 299"><path id="Контур_902" data-name="Контур 902" class="cls-3" d="M65,413.74v13h5.08v-13a12.75,12.75,0,0,0,10.18-12.46V378.64A12.75,12.75,0,0,0,70.07,391.1V362.87a12.75,12.75,0,0,0,10.18-12.46V338a12.74,12.74,0,0,0-10.18,12.46V325H65v25.44A12.74,12.74,0,0,0,54.81,338v12.46A12.75,12.75,0,0,0,65,362.87V391.1a12.75,12.75,0,0,0-10.18-12.46v22.64A12.75,12.75,0,0,0,65,413.74Z"/><path id="Контур_903" data-name="Контур 903" class="cls-3" d="M67.28,327.52v-2.29A12.75,12.75,0,0,0,57.1,312.77v2.29A12.74,12.74,0,0,0,67.28,327.52Z"/><path id="Контур_904" data-name="Контур 904" class="cls-3" d="M78,315.06v-2.29a12.75,12.75,0,0,0-10.17,12.46v2.29A12.74,12.74,0,0,0,78,315.06Z"/></g><ellipse id="Эллипс_346" data-name="Эллипс 346" class="cls-3" cx="111.8" cy="426.59" rx="2.54" ry="1.04"/><ellipse id="Эллипс_347" data-name="Эллипс 347" class="cls-3" cx="67.53" cy="426.71" rx="2.54" ry="1.04"/></g><g id="Agricultures" class="cls-5"><text class="cls-6" transform="translate(57 491.38)"><tspan class="cls-10">A</tspan><tspan class="cls-11" x="7.97" y="0">gricultu</tspan><tspan class="cls-12" x="49.69" y="0">r</tspan><tspan x="53.77" y="0">es</tspan></text></g></g></g></g></svg>