<svg id="Layer_1" data-name="Layer 1" xmlns="http://www.w3.org/2000/svg" viewBox="0 0 2621.59 2191.23"><defs><style>.cls-1{fill:#92bcbf;}.cls-2{fill:#835332;}.cls-3{fill:#a3a2a1;}</style></defs><g id="Сгруппировать_171" data-name="Сгруппировать 171"><rect id="Прямоугольник_8" data-name="Прямоугольник 8" class="cls-1" width="2621.59" height="2191" rx="75.5"/><path id="Контур_490" data-name="Контур 490" class="cls-2" d="M2498.93,2191H109.67v-46.26c0-45.59,89-82.55,198.68-82.55h1992c109.72,0,198.64,37,198.64,82.55Z"/><g id="Сгруппировать_166" data-name="Сгруппировать 166"><path id="Контур_491" data-name="Контур 491" class="cls-3" d="M668.94,27.94c-7.37-17.09-30.28-26-51.16-20L560.5,19.47l33.69,37.88,77.5-23Z"/><path id="Контур_492" data-name="Контур 492" class="cls-3" d="M594.19,149.84,560.5,187.71l57.28,11.56c20.88,6,43.79-2.93,51.16-20l2.75-6.39Z"/><path id="Контур_493" data-name="Контур 493" class="cls-3" d="M673.06,26c-64.12,0-140.71,44.87-161.31,68.08v19c20.6,23.2,97.19,68.09,161.31,68.09,74.83,0,118.61-77.6,118.61-77.6S747.89,26,673.06,26Z"/><path id="Контур_494" data-name="Контур 494" class="cls-3" d="M791.67,103.59s-30.43-53.92-83.91-71.85a109.89,109.89,0,0,0,0,143.72C761.24,157.52,791.67,103.59,791.67,103.59Z"/><ellipse id="Эллипс_186" data-name="Эллипс 186" class="cls-3" cx="729.68" cy="84.02" rx="9.71" ry="8.54"/><path id="Контур_495" data-name="Контур 495" class="cls-3" d="M472.16,103.59h-6c-12.37,0-22.38-5.92-22.38-13.22l-9-31h15.75c34.81,0,63.06,16.67,63.06,37.24v14c0,20.58-28.23,37.24-63.06,37.24H434.81l9-31c0-7.29,10-13.23,22.38-13.23"/></g><g id="Сгруппировать_167" data-name="Сгруппировать 167"><path id="Контур_496" data-name="Контур 496" class="cls-3" d="M1988.64,27.94c7.38-17.09,30.28-26,51.17-20l57.27,11.54L2063.4,57.35l-77.5-23Z"/><path id="Контур_497" data-name="Контур 497" class="cls-3" d="M2063.4,149.84l33.68,37.87-57.27,11.56c-20.88,6-43.79-2.93-51.16-20l-2.76-6.39Z"/><path id="Контур_498" data-name="Контур 498" class="cls-3" d="M1984.52,26c64.13,0,140.71,44.87,161.31,68.08v19c-20.6,23.2-97.18,68.09-161.31,68.09-74.82,0-118.6-77.59-118.6-77.59S1909.7,26,1984.52,26Z"/><path id="Контур_499" data-name="Контур 499" class="cls-3" d="M1865.9,103.6s30.43-53.93,83.91-71.86a109.89,109.89,0,0,1,0,143.72C1896.35,157.52,1865.9,103.6,1865.9,103.6Z"/><ellipse id="Эллипс_187" data-name="Эллипс 187" class="cls-3" cx="1927.91" cy="84.02" rx="9.71" ry="8.54"/><path id="Контур_500" data-name="Контур 500" class="cls-3" d="M2185.43,103.6h6c12.36,0,22.38-5.93,22.38-13.22l9-31H2207C2172.23,59.37,2144,76,2144,96.6v14c0,20.57,28.23,37.24,63.05,37.24h15.75l-9-31c0-7.29-10-13.21-22.38-13.21"/></g><g id="Сгруппировать_168" data-name="Сгруппировать 168"><path id="Контур_501" data-name="Контур 501" class="cls-3" d="M1603,32.68c-11-25.5-45.17-38.88-76.33-29.87L1441.21,20l50.26,56.51,115.62-34.36Z"/><path id="Контур_502" data-name="Контур 502" class="cls-3" d="M1491.47,214.55l-50.26,56.51,85.45,17.22c31.15,9,65.33-4.36,76.33-29.84l4.11-9.53Z"/><path id="Контур_503" data-name="Контур 503" class="cls-3" d="M1609.14,29.79c-95.67,0-209.93,67-240.67,101.58v28.35c30.74,34.63,145,101.59,240.67,101.59,111.64,0,177-115.77,177-115.77S1720.78,29.79,1609.14,29.79Z"/><path id="Контур_504" data-name="Контур 504" class="cls-3" d="M1786.09,145.54s-45.4-80.44-125.18-107.2a163.92,163.92,0,0,0,0,214.41C1740.71,226,1786.09,145.54,1786.09,145.54Z"/><ellipse id="Эллипс_188" data-name="Эллипс 188" class="cls-3" cx="1693.6" cy="116.34" rx="14.49" ry="12.74"/><path id="Контур_505" data-name="Контур 505" class="cls-3" d="M1309.4,145.55h-9c-18.45,0-33.4-8.84-33.4-19.73l-13.4-46.27h23.49c52,0,94.08,24.87,94.08,55.56V156c0,30.67-42.13,55.56-94.08,55.56h-23.49l13.4-46.28c0-10.88,15-19.71,33.4-19.71"/></g><g id="Сгруппировать_169" data-name="Сгруппировать 169"><path id="Контур_506" data-name="Контур 506" class="cls-3" d="M1332.63,2080.89c2.33-4.85,6.57-11.12,3.28-21.41a26.76,26.76,0,0,0-13.76-15.62c-3.49-2.07-5.09-3-6.14-6.32s-.26-4.85,1.49-8.26a23.57,23.57,0,0,0,2.47-19.78l-17.9,4.56c1,3.29.25,4.85-1.5,8.28a23.53,23.53,0,0,0-2.46,19.78,26.87,26.87,0,0,0,13.76,15.63c3.5,2.07,5.1,3,6.15,6.3,1.85,5.81-2.9,8.19-4.67,16.38,2.63-.31,8.26,3.41,8.26,3.41a27,27,0,0,1,11-3Z"/><path id="Контур_507" data-name="Контур 507" class="cls-3" d="M1299.91,2069.1a37.19,37.19,0,0,0-3.87-5.6,48,48,0,0,0-20.8-14.33,18.53,18.53,0,0,1-9-5.76,9.49,9.49,0,0,1-2.43-8.08,25.17,25.17,0,0,0-6.88-19.24,47.94,47.94,0,0,0-20.8-14.33,18.5,18.5,0,0,1-9-5.76,9.4,9.4,0,0,1-2.43-8.07,25.27,25.27,0,0,0-6.89-19.26l-15.33,5.43a9.47,9.47,0,0,1,2.43,8.08,25.17,25.17,0,0,0,6.88,19.24,48,48,0,0,0,20.81,14.34,18.51,18.51,0,0,1,9,5.74,9.45,9.45,0,0,1,2.42,8.08,25.24,25.24,0,0,0,6.88,19.25,48.08,48.08,0,0,0,20.81,14.34,18.47,18.47,0,0,1,9,5.74,9.48,9.48,0,0,1,2.43,8.08,23.85,23.85,0,0,0,2.42,12.48c.75-5.21,8.7-8.48,8.7-8.48s2.55-10.06,5.67-11.89Z"/><path id="Контур_508" data-name="Контур 508" class="cls-3" d="M1499.56,1931.24c-3.36,6.19-9.43,5.24-17.48,12.14a29.78,29.78,0,0,0-10.24,18.82c-.52,6.4,2.07,10.62,2.19,13.91a10.52,10.52,0,0,1-4.28,7.88,98.71,98.71,0,0,0-14.39,8.53,29.76,29.76,0,0,0-10.24,18.81c-.51,6.4,2.08,10.62,2.19,13.91a10.56,10.56,0,0,1-4.27,7.88,96.39,96.39,0,0,0-14.39,8.52,29.7,29.7,0,0,0-10.23,18.81,33.72,33.72,0,0,0,1.91,12c3.13,1.43,7.79,10.41,7.79,10.41s6.13-1.6,8.29.64c6.13-11.73.91-18.83.74-23.42a7.84,7.84,0,0,1,1.19-4.24,9.79,9.79,0,0,1,3.08-3.62,31.58,31.58,0,0,1,4.39-2.39,43.43,43.43,0,0,0,10-6.14,30.7,30.7,0,0,0,7-8.78,25.24,25.24,0,0,0,3.2-10c.52-6.38-2.07-10.62-2.19-13.91a10.48,10.48,0,0,1,4.28-7.85,100.71,100.71,0,0,0,14.39-8.53,29.74,29.74,0,0,0,10.23-18.81c.52-6.4-2.07-10.62-2.18-13.92a10.52,10.52,0,0,1,4.27-7.87c4.5-3.21,14.84-5.21,21.44-17.31l-16.75-5.43Z"/><path id="Контур_509" data-name="Контур 509" class="cls-3" d="M1403,2079.06c-1.16-9.39-6.17-11.53-3.88-17.82a8.33,8.33,0,0,1,2.49-3.76c4-3.34,14-5.45,18.57-18a24.26,24.26,0,0,0,1.55-10.4c-.54-6.63-3.81-11-4.48-14.39a9.41,9.41,0,0,1,3-8.15c4-3.34,14-5.46,18.58-18-6.17-1.93-11.47-3.59-17.64-5.54-1.24,3.44-3,4.35-6.47,6.27a27.19,27.19,0,0,0-14.59,15.54c-4.6,12.58,2,19.93,2.93,24.77a9.39,9.39,0,0,1-3,8.16c-4,3.32-14,5.45-18.57,18-4.15,11.33.77,18.28,2.53,23.35a47.42,47.42,0,0,1,9.87,3.06,16.94,16.94,0,0,1,9.12-3Z"/><path id="Контур_510" data-name="Контур 510" class="cls-3" d="M1360.71,1896.85c-.42,7.57-6.87,6.84-11.58,15.59a30.85,30.85,0,0,0-1.25,23,112.24,112.24,0,0,0,8.73,16.42,10.89,10.89,0,0,1-.52,9.62c-2,2.82-7,5.12-10.24,11.08a30.85,30.85,0,0,0-1.24,23,110.84,110.84,0,0,0,8.74,16.42,10.89,10.89,0,0,1-.53,9.62c-2,2.81-7,5.13-10.23,11.08a30.8,30.8,0,0,0-1.24,23,64.92,64.92,0,0,0,7.55,14.17c3.8,1.51,12.64,11.9,12.64,11.9s5.32-2.31,8.53.23c.53-14.36-8-22.47-10.32-27.93a10.54,10.54,0,0,1-.82-5.11,8,8,0,0,1,1.34-4.51,18,18,0,0,1,3.22-3.12,26.74,26.74,0,0,0,7-8,25.47,25.47,0,0,0,2.83-10.91,32.81,32.81,0,0,0-1.57-12.13A109.43,109.43,0,0,0,1363,1994a10.89,10.89,0,0,1,.53-9.62c2-2.82,7-5.12,10.23-11.07a30.88,30.88,0,0,0,1.25-23,111.73,111.73,0,0,0-8.73-16.42,11,11,0,0,1,.52-9.63c2.93-4.1,12.25-7.13,13.06-22l-19.15-5.39Z"/><path id="Контур_511" data-name="Контур 511" class="cls-3" d="M1467.33,2079.67c8.45-10.4,14.33-12.68,17.41-19.71a7.47,7.47,0,0,0,.92-4.24c-.66-3.78-7.34-6.33-1.17-20.37a54.4,54.4,0,0,1,7-11.56c5.72-7.34,11.91-12.1,15.18-15.87a14.22,14.22,0,0,0,4-9.12c-.65-3.79-7.34-6.35-1.17-20.38l19.13-5.78a5.79,5.79,0,0,0,.43,7.06c2.9,4.62,3.59,8.94-.19,17.55-6.17,14-17.51,22.06-22.16,27.43a14.23,14.23,0,0,0-4,9.1c.64,3.79,7.33,6.33,1.16,20.37-5.56,12.64-15.19,20.26-20.69,25.84a64.05,64.05,0,0,0-10.68,3.21,5.32,5.32,0,0,0-5.18-3.55Z"/></g><g id="Сгруппировать_170" data-name="Сгруппировать 170"><path id="Контур_512" data-name="Контур 512" class="cls-3" d="M1636.69,2081.46a15.36,15.36,0,0,1-2-13.07,16.28,16.28,0,0,1,8.39-9.53c2.13-1.27,3.1-1.85,3.73-3.86s.15-2.95-.91-5a14.36,14.36,0,0,1-1.5-12.06l10.92,2.8c-.64,2-.16,3,.91,5a14.43,14.43,0,0,1,1.5,12.06,16.33,16.33,0,0,1-8.4,9.53c-2.13,1.27-3.11,1.84-3.73,3.86-1.12,3.53,1.77,5,2.85,10-1.61-.19-5,2.08-5,2.08a16.65,16.65,0,0,0-6.73-1.8Z"/><path id="Контур_513" data-name="Контур 513" class="cls-3" d="M1656.67,2074.26a22.16,22.16,0,0,1,2.35-3.43,29.37,29.37,0,0,1,12.69-8.73,11.33,11.33,0,0,0,5.48-3.51,5.75,5.75,0,0,0,1.48-4.92,15.39,15.39,0,0,1,4.2-11.75,29.33,29.33,0,0,1,12.69-8.74,11.25,11.25,0,0,0,5.47-3.51,5.74,5.74,0,0,0,1.49-4.93,15.39,15.39,0,0,1,4.2-11.74l9.36,3.32a5.78,5.78,0,0,0-1.48,4.92,15.38,15.38,0,0,1-4.2,11.75,29.33,29.33,0,0,1-12.69,8.74,11.16,11.16,0,0,0-5.47,3.51,5.77,5.77,0,0,0-1.48,4.93,15.3,15.3,0,0,1-4.2,11.72,29,29,0,0,1-12.69,8.76,11.3,11.3,0,0,0-5.47,3.51,5.73,5.73,0,0,0-1.48,4.93,14.7,14.7,0,0,1-1.47,7.61c-.47-3.18-5.32-5.17-5.32-5.17s-1.54-6.13-3.46-7.26Z"/><path id="Контур_514" data-name="Контур 514" class="cls-3" d="M1534.86,1990.17c2.08,3.77,5.75,3.18,10.66,7.4a18.12,18.12,0,0,1,6.25,11.48,35.87,35.87,0,0,1-1.33,8.49,6.39,6.39,0,0,0,2.61,4.79,58.83,58.83,0,0,1,8.78,5.21,18.15,18.15,0,0,1,6.22,11.47,36,36,0,0,1-1.33,8.49,6.33,6.33,0,0,0,2.6,4.78,62,62,0,0,1,8.78,5.2,18.21,18.21,0,0,1,6.25,11.48,21.05,21.05,0,0,1-1.16,7.34c-1.93.87-4.76,6.36-4.76,6.36s-3.73-1-5.07.38c-3.73-7.15-.56-11.48-.46-14.28a4.82,4.82,0,0,0-.72-2.59,6.09,6.09,0,0,0-1.88-2.21,19.7,19.7,0,0,0-2.67-1.45,27,27,0,0,1-6.11-3.75,18.72,18.72,0,0,1-4.29-5.36,15.38,15.38,0,0,1-2-6.11,35.46,35.46,0,0,1,1.34-8.5A6.38,6.38,0,0,0,1554,2034a60.26,60.26,0,0,1-8.79-5.2,18.21,18.21,0,0,1-6.21-11.48,35.36,35.36,0,0,1,1.33-8.49,6.41,6.41,0,0,0-2.61-4.8c-2.74-2-9-3.17-13.07-10.56l10.21-3.31Z"/><path id="Контур_515" data-name="Контур 515" class="cls-3" d="M1593.78,2080.33c.71-5.73,3.77-7,2.37-10.87a5,5,0,0,0-1.52-2.29c-2.42-2-8.53-3.31-11.33-11a14.79,14.79,0,0,1-1-6.35,41.57,41.57,0,0,1,2.73-8.78,5.69,5.69,0,0,0-1.82-5c-2.41-2-8.53-3.31-11.33-11l10.78-3.36c.76,2.07,1.84,2.64,4,3.8a16.65,16.65,0,0,1,8.9,9.49c2.81,7.67-1.21,12.15-1.79,15.11a5.74,5.74,0,0,0,1.82,5c2.41,2,8.52,3.32,11.33,11a17.41,17.41,0,0,1-1.54,14.25,28.77,28.77,0,0,0-6,1.87,10.48,10.48,0,0,0-5.56-1.87Z"/><path id="Контур_516" data-name="Контур 516" class="cls-3" d="M1619.57,1969.19c.25,4.62,4.19,4.17,7,9.49a18.89,18.89,0,0,1,.77,14.07,67.27,67.27,0,0,1-5.33,10,6.66,6.66,0,0,0,.32,5.87c1.24,1.72,4.28,3.12,6.25,6.76a18.84,18.84,0,0,1,.76,14,66.3,66.3,0,0,1-5.33,10,6.69,6.69,0,0,0,.32,5.87c1.25,1.72,4.29,3.12,6.25,6.75a18.81,18.81,0,0,1,.77,14.06,39.42,39.42,0,0,1-4.61,8.64,40.32,40.32,0,0,0-7.72,7.27s-3.24-1.41-5.2.13c-.32-8.76,4.87-13.7,6.3-17a6.54,6.54,0,0,0,.5-3.12,4.81,4.81,0,0,0-.83-2.75,11.87,11.87,0,0,0-2-1.91,16.14,16.14,0,0,1-4.27-4.85,15.43,15.43,0,0,1-1.73-6.65,20.23,20.23,0,0,1,1-7.41,67.66,67.66,0,0,1,5.34-10,6.66,6.66,0,0,0-.32-5.87c-1.25-1.72-4.29-3.12-6.25-6.76a18.86,18.86,0,0,1-.76-14.06,67.54,67.54,0,0,1,5.32-10,6.66,6.66,0,0,0-.32-5.87c-1.79-2.49-7.46-4.36-8-13.42l11.69-3.28Z"/><path id="Контур_517" data-name="Контур 517" class="cls-3" d="M1554.53,2080.7c-5.15-6.33-8.74-7.72-10.63-12a4.46,4.46,0,0,1-.55-2.58c.39-2.29,4.46-3.85.71-12.43a33.87,33.87,0,0,0-4.26-7c-3.49-4.48-7.27-7.39-9.27-9.68a8.72,8.72,0,0,1-2.44-5.55c.42-2.31,4.48-3.87.71-12.44l-11.67-3.52a3.52,3.52,0,0,1-.26,4.31,10,10,0,0,0,.12,10.7c3.77,8.58,10.68,13.47,13.51,16.74a8.57,8.57,0,0,1,2.44,5.55c-.39,2.3-4.46,3.86-.7,12.43a50.59,50.59,0,0,0,12.62,15.75,39,39,0,0,1,6.51,1.95,3.28,3.28,0,0,1,3.16-2.18Z"/></g></g></svg>