<svg id="Layer_1" data-name="Layer 1" xmlns="http://www.w3.org/2000/svg" viewBox="0 0 184 528"><defs><style>.cls-1{fill:#446a62;}.cls-2{fill:#a3a2a1;}.cls-3,.cls-4{isolation:isolate;}.cls-4{font-size:12px;fill:#fff;font-family:MADETOMMY, MADE TOMMY;}.cls-5{letter-spacing:-0.03em;}.cls-6{letter-spacing:-0.02em;}.cls-7{letter-spacing:-0.01em;}</style></defs><g id="Сгруппировать_376" data-name="Сгруппировать 376"><rect id="Прямоугольник_26" data-name="Прямоугольник 26" class="cls-1" width="184" height="528" rx="62"/><g id="Сгруппировать_367" data-name="Сгруппировать 367"><g id="Сгруппировать_306" data-name="Сгруппировать 306"><path id="Контур_921" data-name="Контур 921" class="cls-2" d="M73.22,316a13.41,13.41,0,0,0-4.57-16.53c-1.92-1.24-4.15-2-6-3.35a10.18,10.18,0,0,1-3.87-8.79c.46-5.36,5.13-10.17,4-15.42-.94-4.33-5.38-6.74-8.59-9.78-5.47-5.17-7-12.09-5.77-19.25a15,15,0,0,0-2.45-11s3.44,1.71,4.44,2.42c3.86,2.76,8,5.72,9.9,10.22.78,1.82,1.2,3.76,1.89,5.61a12.85,12.85,0,0,0,5.53,6.6c2,1.2,4.32,1.68,6.5,2.45a12.06,12.06,0,0,1,7.89,14.77c-1.5,5.14-6.2,9.57-5.48,14.86.35,2.58,2,4.77,3,7.15,3.08,7.11.11,15.86-6.44,20.06Z"/><path id="Контур_922" data-name="Контур 922" class="cls-2" d="M93.15,312.31a36.64,36.64,0,0,1-9.43-12.6c-2-4.76-2.8-11.19-.64-16.09,2.73-6.19,5.87-14.71,1.35-20.95-2.58-3.58-5.51-6.09-7.35-10.43-4.22-9.91-.27-17.59,4-26.06,2.4-4.73,3.46-11.55,1.63-16.79a17.36,17.36,0,0,1,.15-12.91C87,186.58,96.5,181.88,105,180c-.83,1.26-3,5.32-3.17,5.61a25.13,25.13,0,0,0-2,6.66c-1.06,7.64-.12,13.56,4.52,19.08a19.2,19.2,0,0,1,4.16,15.2c-.85,5.54-4.65,8.14-6.36,12.9-3.2,9,5.32,16.59,5.46,25.29.15,8.34-5.24,15.42-9.42,21.39-4.66,6.66-6.67,17.72-5,26.18Z"/><path id="Контур_923" data-name="Контур 923" class="cls-2" d="M128.13,217.23c2.77,6.55.74,15-4.48,18.71-1.91,1.35-4.15,2.09-6,3.6a11.88,11.88,0,0,0-3.82,9.9c.5,6.13,5.21,11.8,4.1,17.75-.92,4.91-5.35,7.5-8.55,10.85-5.46,5.7-6.94,13.55-5.67,21.77a18.66,18.66,0,0,1-2.39,12.5,49.07,49.07,0,0,0,4.44-2.6c3.86-3,8-6.24,9.87-11.31.77-2,1.18-4.25,1.86-6.33a13.59,13.59,0,0,1,5.51-7.34c2-1.3,4.32-1.75,6.5-2.56,6-2.2,9.75-9.1,7.82-16.57-1.54-5.93-6.29-11.15-5.59-17.18.33-2.92,1.93-5.36,2.95-8,3.05-8,0-18.11-6.59-23.14Z"/></g><g id="Dead_underwater_plants" data-name="Dead underwater plants" class="cls-3"><text class="cls-4" transform="translate(24 339.5)">Dead under<tspan class="cls-5" x="64.69" y="0">w</tspan><tspan class="cls-6" x="73.62" y="0">a</tspan><tspan class="cls-7" x="79.82" y="0">t</tspan><tspan x="84.11" y="0">er pla</tspan><tspan class="cls-7" x="115.17" y="0">n</tspan><tspan x="121.92" y="0">ts</tspan></text></g></g></g></svg>