<svg id="Layer_1" data-name="Layer 1" xmlns="http://www.w3.org/2000/svg" viewBox="0 0 2621.59 2565.16"><defs><style>.cls-1{fill:#446a62;}.cls-2{fill:#835332;}.cls-10,.cls-3{fill:#5c895a;}.cls-4{fill:#8b9a6c;}.cls-5{fill:#9baf78;}.cls-6{fill:#272727;}.cls-7{fill:#21342f;}.cls-8{fill:#e4d95e;}.cls-9{fill:#e9e081;}.cls-10{opacity:0.75;isolation:isolate;}</style></defs><g id="Сгруппировать_362" data-name="Сгруппировать 362"><path id="Прямоугольник_9" data-name="Прямоугольник 9" class="cls-1" d="M77.23,382.82H2546.74a74.82,74.82,0,0,1,74.85,74.79V2490.17a74.81,74.81,0,0,1-74.85,74.78H77.23a74.81,74.81,0,0,1-74.85-74.78V457.61A74.82,74.82,0,0,1,77.23,382.82Z"/><path id="Контур_518" data-name="Контур 518" class="cls-2" d="M2488.48,2565h-2370v-46.18c0-45.5,88.26-82.39,197.09-82.39H2291.44c108.83,0,197,36.88,197,82.39Z"/><g id="Сгруппировать_172" data-name="Сгруппировать 172"><path id="Контур_519" data-name="Контур 519" class="cls-3" d="M338.73,2461.64a43.29,43.29,0,0,0-14.38-52.84c-6-4-13-6.28-18.72-10.7A32.73,32.73,0,0,1,293.48,2370c1.45-17.12,16.15-32.51,12.54-49.28-3-13.85-16.91-21.54-27-31.25-17.19-16.55-22-38.65-18.14-61.54a48.73,48.73,0,0,0-7.7-35.23s10.81,5.46,14,7.74c12.13,8.82,25,18.29,31.11,32.68,2.46,5.8,3.77,12,5.94,17.93a40.9,40.9,0,0,0,17.39,21.1A108.09,108.09,0,0,0,342,2280a38.67,38.67,0,0,1,24.78,47.21c-4.7,16.45-19.49,30.58-17.21,47.52,1.1,8.22,6.16,15.23,9.4,22.82a53.52,53.52,0,0,1-20.24,64.12Z"/><path id="Контур_520" data-name="Контур 520" class="cls-3" d="M401.37,2449.84a117,117,0,0,1-29.65-40.28c-6.26-15.21-8.79-35.75-2-51.41,8.58-19.77,18.45-47,4.24-67-8.13-11.43-17.33-19.47-23.12-33.31-13.24-31.69-.82-56.24,12.72-83.32,7.55-15.12,10.85-36.9,5.11-53.66a56.29,56.29,0,0,1,.47-41.25C382,2048,411.89,2033,438.54,2027c-2.62,4-9.57,17-10,17.92a80.9,80.9,0,0,0-6.36,21.29c-3.31,24.41-.37,43.33,14.21,61a62.15,62.15,0,0,1,13.1,48.58c-2.7,17.71-14.64,26-20,41.22-10.06,28.6,16.69,53,17.16,80.82.44,26.65-16.48,49.28-29.61,68.36-14.65,21.28-21,56.63-15.73,83.68Z"/><path id="Контур_521" data-name="Контур 521" class="cls-3" d="M511.29,2146c8.72,20.93,2.33,48-14.08,59.78-6,4.31-13,6.68-18.7,11.52a38.27,38.27,0,0,0-12,31.63c1.56,19.61,16.39,37.73,12.88,56.73-2.9,15.69-16.82,24-26.88,34.67-17.14,18.25-21.82,43.31-17.8,69.59a60.45,60.45,0,0,1-7.51,39.94,161.12,161.12,0,0,0,14-8.33c12.12-9.61,25-19.94,31-36.13,2.43-6.53,3.7-13.59,5.84-20.27a43.2,43.2,0,0,1,17.32-23.44,97.06,97.06,0,0,1,20.44-8.17c18.85-7,30.64-29.09,24.56-53-4.82-19-19.75-35.65-17.57-54.88,1-9.37,6.09-17.16,9.29-25.73a67.84,67.84,0,0,0-20.7-73.94Z"/></g><g id="Сгруппировать_173" data-name="Сгруппировать 173"><path id="Контур_522" data-name="Контур 522" class="cls-3" d="M879.05,2455.74c-11.37-25.37-2.73-59,19.08-74.24,8-5.58,17.28-8.82,24.84-15A47.25,47.25,0,0,0,939.09,2327c-1.92-24.06-21.39-45.7-16.63-69.25,3.95-19.44,22.43-30.27,35.81-43.92,22.81-23.23,29.18-54.31,24.08-86.47a71.71,71.71,0,0,1,10.21-49.51s-14.34,7.67-18.52,10.89c-16.11,12.39-33.2,25.69-41.29,45.92-3.26,8.16-5,16.89-7.87,25.2a57,57,0,0,1-23.08,29.65c-8.38,5.4-18,7.51-27.11,11a55,55,0,0,0-32.86,66.33c6.24,23.11,25.85,43,22.84,66.78-1.47,11.56-8.19,21.39-12.48,32.08a77.65,77.65,0,0,0,26.86,90.08Z"/><path id="Контур_523" data-name="Контур 523" class="cls-3" d="M795.93,2439.17a164.32,164.32,0,0,0,39.33-56.6c8.31-21.38,11.67-50.24,2.66-72.25-11.38-27.79-24.48-66.07-5.64-94.1,10.77-16,23-27.36,30.68-46.81,17.56-44.53,1.09-79-16.87-117.09-10-21.24-14.41-51.85-6.79-75.38a83.48,83.48,0,0,0-.64-58c-17.06-44.46-56.72-65.56-92.06-74,3.48,5.64,12.69,23.87,13.25,25.2a118.55,118.55,0,0,1,8.43,29.9c4.42,34.31.5,60.9-18.85,85.71A91.05,91.05,0,0,0,732,2054c3.57,24.88,19.42,36.55,26.5,57.91,13.35,40.19-22.15,74.51-22.77,113.57-.6,37.45,21.85,69.24,39.28,96.05,19.44,29.93,27.84,79.59,20.84,117.59Z"/><path id="Контур_524" data-name="Контур 524" class="cls-3" d="M650.09,2012.18c-11.56,29.41-3.08,67.51,18.7,84,8,6,17.28,9.39,24.84,16.19a55.56,55.56,0,0,1,15.94,44.45c-2.07,27.55-21.74,53-17.1,79.7,3.85,22.06,22.32,33.67,35.67,48.73,22.75,25.65,28.94,60.86,23.63,97.78a89.27,89.27,0,0,0,9.94,56.13,212.09,212.09,0,0,1-18.52-11.7c-16.08-13.52-33.15-28-41.14-50.79-3.23-9.17-4.91-19.08-7.75-28.44a60.72,60.72,0,0,0-23-32.95c-8.37-5.83-18-7.86-27.12-11.47-25-9.88-40.66-40.89-32.59-74.46,6.41-26.64,26.2-50.09,23.32-77.14-1.4-13.15-8.08-24.1-12.33-36.14-12.7-35.95,0-81.33,27.48-103.91Z"/></g><g id="Сгруппировать_174" data-name="Сгруппировать 174"><path id="Контур_525" data-name="Контур 525" class="cls-3" d="M2035.58,2455.72c11.24-25.36,2.69-59-18.87-74.25-7.89-5.56-17.09-8.81-24.56-15a47.55,47.55,0,0,1-15.94-39.49c1.9-24.06,21.16-45.68,16.44-69.23-3.9-19.44-22.17-30.28-35.41-43.92-22.55-23.24-28.85-54.31-23.8-86.46a72.47,72.47,0,0,0-10.1-49.51s14.18,7.67,18.32,10.89c15.92,12.39,32.83,25.68,40.82,45.92,3.23,8.15,4.94,16.89,7.78,25.19a56.86,56.86,0,0,0,22.83,29.65c8.28,5.4,17.8,7.52,26.81,11a55.18,55.18,0,0,1,32.49,66.34c-6.17,23.11-25.56,43-22.58,66.77,1.44,11.58,8.09,21.39,12.33,32.09a78.18,78.18,0,0,1-26.55,90.08Z"/><path id="Контур_526" data-name="Контур 526" class="cls-3" d="M2117.77,2439.16a164.05,164.05,0,0,1-38.92-56.6c-8.21-21.38-11.54-50.23-2.63-72.24,11.25-27.79,24.2-66.07,5.57-94.11-10.67-16.05-22.74-27.35-30.33-46.8-17.36-44.52-1.08-79,16.68-117.09,9.91-21.24,14.25-51.84,6.71-75.38a84.37,84.37,0,0,1,.62-58c16.88-44.48,56.08-65.58,91.05-74-3.44,5.63-12.55,23.87-13.09,25.2a120,120,0,0,0-8.34,29.9c-4.37,34.31-.49,60.89,18.64,85.7A91.85,91.85,0,0,1,2180.9,2054c-3.53,24.89-19.2,36.55-26.22,57.91-13.2,40.19,21.9,74.5,22.51,113.57.59,37.44-21.61,69.24-38.85,96.05-19.22,29.92-27.53,79.58-20.61,117.59Z"/><path id="Контур_527" data-name="Контур 527" class="cls-3" d="M2262,2012.17c11.44,29.39,3.06,67.5-18.48,84-7.87,6-17.1,9.38-24.55,16.18-10.89,10-17,27.3-15.76,44.46,2,27.54,21.49,53,16.9,79.69-3.8,22.07-22.07,33.69-35.27,48.74-22.49,25.65-28.62,60.86-23.37,97.78a90.17,90.17,0,0,1-9.84,56.12,206.94,206.94,0,0,0,18.3-11.69c15.91-13.51,32.79-28,40.7-50.79,3.18-9.18,4.85-19.09,7.65-28.45a60.67,60.67,0,0,1,22.73-32.94c8.28-5.84,17.8-7.89,26.82-11.48,24.72-9.87,40.2-40.9,32.22-74.46-6.33-26.64-25.91-50.09-23.06-77.14,1.39-13.15,8-24.11,12.19-36.14,12.55-36,0-81.32-27.18-103.91Z"/></g><g id="Сгруппировать_175" data-name="Сгруппировать 175"><path id="Контур_528" data-name="Контур 528" class="cls-4" d="M635.64,1168c-7.37-17.07-30.26-26-51.12-20l-57.22,11.52L561,1197.35l77.42-23Z"/><path id="Контур_529" data-name="Контур 529" class="cls-5" d="M561,1289.68l-33.65,37.79L584.52,1339c20.86,6,43.75-2.92,51.12-20l2.75-6.37Z"/><path id="Контур_530" data-name="Контур 530" class="cls-5" d="M639.76,1166.06c-64.07,0-140.58,44.79-161.17,68v19c20.59,23.16,97.1,68,161.17,68,74.76,0,118.49-77.45,118.49-77.45S714.52,1166.06,639.76,1166.06Z"/><path id="Контур_531" data-name="Контур 531" class="cls-4" d="M758.25,1243.52s-30.4-53.83-83.83-71.74a109.63,109.63,0,0,0,0,143.46C727.85,1297.33,758.25,1243.52,758.25,1243.52Z"/><ellipse id="Эллипс_189" data-name="Эллипс 189" class="cls-6" cx="696.32" cy="1223.98" rx="9.7" ry="8.53"/><path id="Контур_532" data-name="Контур 532" class="cls-4" d="M439,1243.51h-6c-12.35,0-22.36-5.9-22.36-13.19l-9-31h15.73c34.78,0,63,16.64,63,37.17v14c0,20.52-28.2,37.15-63,37.15H401.71l9-31c0-7.28,10-13.2,22.36-13.2"/></g><g id="Сгруппировать_176" data-name="Сгруппировать 176"><path id="Контур_533" data-name="Контур 533" class="cls-4" d="M1782,1590.72c7.37-17.08,30.25-26,51.12-20l57.22,11.53-33.66,37.81-77.42-23Z"/><path id="Контур_534" data-name="Контур 534" class="cls-5" d="M1856.73,1712.37l33.65,37.81-57.22,11.53c-20.86,6-43.75-2.93-51.12-20l-2.75-6.37Z"/><path id="Контур_535" data-name="Контур 535" class="cls-5" d="M1777.92,1588.77c64.07,0,140.58,44.8,161.16,68v19c-20.58,23.16-97.09,68-161.16,68-74.76,0-118.49-77.45-118.49-77.45S1703.16,1588.77,1777.92,1588.77Z"/><path id="Контур_536" data-name="Контур 536" class="cls-4" d="M1659.43,1666.22s30.4-53.82,83.83-71.72a109.62,109.62,0,0,1,0,143.45C1689.83,1720.05,1659.43,1666.22,1659.43,1666.22Z"/><ellipse id="Эллипс_190" data-name="Эллипс 190" class="cls-6" cx="1721.36" cy="1646.69" rx="9.7" ry="8.53"/><path id="Контур_537" data-name="Контур 537" class="cls-4" d="M1978.64,1666.22h6c12.35,0,22.36-5.91,22.36-13.19l9-31h-15.74c-34.77,0-63,16.63-63,37.16v14c0,20.53,28.21,37.17,63,37.17H2016l-9-31c0-7.29-10-13.2-22.36-13.2"/></g><g id="Сгруппировать_177" data-name="Сгруппировать 177"><path id="Контур_538" data-name="Контур 538" class="cls-4" d="M1625.86,815c-11-25.44-45.13-38.8-76.26-29.81l-85.38,17.2,50.22,56.41L1630,824.47Z"/><path id="Контур_539" data-name="Контур 539" class="cls-5" d="M1514.44,996.48l-50.22,56.41,85.38,17.2c31.12,9,65.27-4.36,76.26-29.81l4.1-9.51Z"/><path id="Контур_540" data-name="Контур 540" class="cls-5" d="M1632,812.06c-95.58,0-209.75,66.85-240.46,101.41v28.29c30.71,34.57,144.88,101.41,240.46,101.41,111.53,0,176.8-115.55,176.8-115.55S1743.54,812.06,1632,812.06Z"/><path id="Контур_541" data-name="Контур 541" class="cls-4" d="M1808.79,927.62s-45.36-80.29-125.07-107a163.52,163.52,0,0,0,0,214C1763.43,1007.91,1808.79,927.62,1808.79,927.62Z"/><ellipse id="Эллипс_191" data-name="Эллипс 191" class="cls-6" cx="1716.39" cy="898.46" rx="14.48" ry="12.72"/><path id="Контур_542" data-name="Контур 542" class="cls-4" d="M1332.54,927.61h-9c-18.43,0-33.38-8.81-33.38-19.68l-13.38-46.19h23.47c51.92,0,94,24.82,94,55.45V938c0,30.61-42.08,55.46-94,55.46h-23.47l13.38-46.2c0-10.86,15-19.68,33.38-19.68"/></g><g id="Сгруппировать_178" data-name="Сгруппировать 178"><path id="Контур_543" data-name="Контур 543" class="cls-7" d="M1372.73,2430.4a486,486,0,0,0,2.33-83c-2.07-35.63-6.52-50-9.76-60.49a80.54,80.54,0,0,1-4.35-24.46,173.82,173.82,0,0,1,1.06-32,460.29,460.29,0,0,0,1.74-76.53l-12.68,17.69a173.82,173.82,0,0,1-1.06,32,460.89,460.89,0,0,0-1.74,76.58c2.07,35.65,6.52,50,9.76,60.51a80.79,80.79,0,0,1,4.35,24.45c1.31,22.43-2.07,31.67-3.31,63.4,1.87-1.21,5.85,13.2,5.85,13.2s5.23-13.79,7.81-11.39Z"/><path id="Контур_544" data-name="Контур 544" class="cls-7" d="M1349.55,2384.65c-.69-6.7-1.57-13.92-2.75-21.66-5.09-33.8-10.66-46.33-14.73-55.48a66.62,66.62,0,0,1-6.36-22.32,167.55,167.55,0,0,1-1.73-31.25,441.73,441.73,0,0,0-4.87-74.55c-5.11-33.8-10.68-46.34-14.74-55.48a66.71,66.71,0,0,1-6.37-22.29,168.66,168.66,0,0,1-1.72-31.27,439.79,439.79,0,0,0-4.88-74.56l-10.87,21a167.75,167.75,0,0,1,1.72,31.27,441.69,441.69,0,0,0,4.88,74.54c5.1,33.81,10.66,46.33,14.74,55.48a66.81,66.81,0,0,1,6.35,22.29,167.87,167.87,0,0,1,1.73,31.28,441.45,441.45,0,0,0,4.87,74.52c5.11,33.82,10.68,46.35,14.74,55.5a67,67,0,0,1,6.37,22.31,166.69,166.69,0,0,1,1.71,31.25,475.64,475.64,0,0,0,1.72,48.34,93.49,93.49,0,0,1,6.17-32.83S1347.34,2391.77,1349.55,2384.65Z"/><path id="Контур_545" data-name="Контур 545" class="cls-7" d="M1491,1850.85c-2.39,24-6.69,20.28-12.38,47a417.11,417.11,0,0,0-7.26,72.85c-.36,24.82,1.46,41.14,1.55,53.9a145.85,145.85,0,0,1-3,30.41c-2.18,8.52-6.31,14.78-10.2,33a418,418,0,0,0-7.25,72.84c-.37,24.79,1.46,41.12,1.55,53.87a145.37,145.37,0,0,1-3,30.43c-2.18,8.51-6.31,14.78-10.19,33a417.93,417.93,0,0,0-7.25,72.83c-.3,20,.86,34.91,1.35,46.51,2.22,5.56,5.52,40.38,5.52,40.38s4.35-6.25,5.89,2.48c4.35-45.47.65-72.94.53-90.73a147.28,147.28,0,0,1,.82-16.4,92.16,92.16,0,0,1,2.19-14,83.56,83.56,0,0,1,3.11-9.24,147.15,147.15,0,0,0,7.09-23.79,312.29,312.29,0,0,0,5-34c1.46-14.77,2.09-27.6,2.26-38.84.37-24.73-1.46-41.15-1.55-53.88a145.91,145.91,0,0,1,3-30.41c2.19-8.52,6.32-14.79,10.21-33a418.92,418.92,0,0,0,7.25-72.84c.37-24.82-1.47-41.14-1.55-53.89a145.53,145.53,0,0,1,3-30.44c3.18-12.41,10.51-20.11,15.18-67-4.14-7.37-7.71-13.7-11.87-21.06Z"/><path id="Контур_546" data-name="Контур 546" class="cls-7" d="M1422.59,2423.27c-.83-36.35-4.37-44.67-2.75-69.05a99.23,99.23,0,0,1,1.77-14.58c2.81-12.93,9.9-21.09,13.16-69.81,1-15.31,1.27-28.61,1.1-40.25-.38-25.67-2.7-42.52-3.17-55.72a155.91,155.91,0,0,1,2.11-31.56c2.8-12.93,9.9-21.13,13.16-69.82l-12.49-21.42a75.35,75.35,0,0,1-4.59,24.22c-5.18,15.6-8.35,30.35-10.36,60.19-3.25,48.73,1.41,77.17,2.07,95.94a156,156,0,0,1-2.1,31.57c-2.81,12.94-9.91,21.13-13.17,69.83a561.27,561.27,0,0,0,1.8,90.38c1.36-.68,7,11.86,7,11.86s3.43-13.09,6.46-11.78Z"/><path id="Контур_547" data-name="Контур 547" class="cls-7" d="M1392.64,1717.66c-.3,29.37-4.87,26.5-8.21,60.33a625.74,625.74,0,0,0-.89,89.26c1.77,29.64,5,48.45,6.18,63.59a217.92,217.92,0,0,1-.37,37.28c-1.43,10.88-5,19.79-7.25,42.88a625.57,625.57,0,0,0-.89,89.25c1.78,29.63,5,48.4,6.21,63.57a217.79,217.79,0,0,1-.38,37.27c-1.43,10.9-5,19.81-7.25,42.9a626.63,626.63,0,0,0-.88,89.22c1.42,23.86,3.86,41.23,5.35,54.86,2.69,5.84,9,46.11,9,46.11s3.76-8.95,6,.87c.38-55.63-5.66-87-7.31-108.15-.47-6-.66-11.8-.58-19.81a143.29,143.29,0,0,1,1-17.45c.53-4,1.27-7.44,2.28-12.09a242.86,242.86,0,0,0,5-30.81c1-10.59,1.81-24.15,2-42.23s-.31-33.58-1.12-47c-1.77-29.56-5-48.46-6.18-63.58a217.32,217.32,0,0,1,.37-37.23c1.42-10.91,5-19.83,7.25-42.91a626.62,626.62,0,0,0,.89-89.22c-1.77-29.65-5-48.44-6.19-63.6a219,219,0,0,1,.37-37.29c2.07-15.88,8.7-27.63,9.26-85.11l-13.58-20.88Z"/><path id="Контур_548" data-name="Контур 548" class="cls-7" d="M1468.19,2425.63c6-40.26,10.15-49.08,12.35-76.31a149.14,149.14,0,0,0,.65-16.37c-.47-14.65-5.21-24.51-.83-78.9,1.37-17.11,3.1-31.88,4.94-44.78,4-28.44,8.45-46.87,10.77-61.46a231.49,231.49,0,0,0,2.83-35.27c-.46-14.65-5.2-24.52-.83-78.9,4.75-7.83,8.82-14.55,13.56-22.39a108.07,108.07,0,0,0,.31,27.37c2,17.87,2.54,34.59-.14,67.91-4.38,54.43-12.42,85.47-15.7,106.23a228.74,228.74,0,0,0-2.83,35.26c.45,14.65,5.19,24.51.82,78.91A836,836,0,0,1,1479.44,2427c-1-.91-7.57,12.41-7.57,12.41s-1-14.89-3.68-13.78Z"/></g><g id="Сгруппировать_179" data-name="Сгруппировать 179"><path id="Контур_549" data-name="Контур 549" class="cls-7" d="M1587,2432.59a296.88,296.88,0,0,1-1.42-50.59,136.44,136.44,0,0,1,6-36.92,48.84,48.84,0,0,0,2.66-14.91,106.12,106.12,0,0,0-.64-19.52,281.33,281.33,0,0,1-1.07-46.71l7.73,10.8a107,107,0,0,0,.65,19.52,281.5,281.5,0,0,1,1.07,46.72,136.31,136.31,0,0,1-6,36.91,48.91,48.91,0,0,0-2.67,14.92c-.8,13.68,1.25,19.32,2,38.67-1.13-.73-3.57,8.06-3.57,8.06s-3.18-8.43-4.76-6.95Z"/><path id="Контур_550" data-name="Контур 550" class="cls-7" d="M1601.15,2404.7c.42-4.11,1-8.5,1.66-13.24a113.88,113.88,0,0,1,9-33.85,40.71,40.71,0,0,0,3.88-13.61,103.08,103.08,0,0,0,1-19.07,268.29,268.29,0,0,1,3-45.48,113.6,113.6,0,0,1,9-33.84,41.18,41.18,0,0,0,3.88-13.61,102.32,102.32,0,0,0,1-19.08,269.63,269.63,0,0,1,3-45.5l6.62,12.82a102.26,102.26,0,0,0-1,19.07,269.33,269.33,0,0,1-3,45.48,113.58,113.58,0,0,1-9,33.85,41.07,41.07,0,0,0-3.88,13.59,103.35,103.35,0,0,0-1,19.09,267.93,267.93,0,0,1-3,45.45,113.73,113.73,0,0,1-9,33.87,41.2,41.2,0,0,0-3.88,13.6,102.26,102.26,0,0,0-1,19.07,287.35,287.35,0,0,1-1.05,29.49,57.21,57.21,0,0,0-3.76-20,270.5,270.5,0,0,0-2.46-28.13Z"/><path id="Контур_551" data-name="Контур 551" class="cls-7" d="M1514.85,2079.05c1.45,14.61,4.07,12.36,7.55,28.69a254.92,254.92,0,0,1,4.42,44.44c.23,15.14-.89,25.1-.94,32.88a89.06,89.06,0,0,0,1.84,18.56,186.62,186.62,0,0,1,6.21,20.14,255,255,0,0,1,4.42,44.44c.23,15.13-.89,25.09-.94,32.87a88.93,88.93,0,0,0,1.84,18.56,187,187,0,0,1,6.21,20.16,253.84,253.84,0,0,1,4.42,44.43c.19,12.18-.52,21.29-.83,28.36a232.11,232.11,0,0,0-3.37,24.63s-2.65-3.8-3.59,1.51a366.42,366.42,0,0,1-.32-55.34,88.2,88.2,0,0,0-.52-10,56,56,0,0,0-1.33-8.54,48.53,48.53,0,0,0-1.9-5.64,90.71,90.71,0,0,1-4.32-14.52,188.62,188.62,0,0,1-3-20.75c-.9-9-1.28-16.84-1.39-23.69-.22-15.09.9-25.11,1-32.87a88.9,88.9,0,0,0-1.84-18.55,186.1,186.1,0,0,1-6.21-20.15,255,255,0,0,1-4.42-44.44c-.23-15.13.89-25.09.94-32.88a89,89,0,0,0-1.84-18.56c-1.95-7.57-6.42-12.27-9.27-40.89,2.53-4.5,4.71-8.35,7.24-12.83Z"/><path id="Контур_552" data-name="Контур 552" class="cls-7" d="M1556.6,2428.24c.5-22.18,2.67-27.23,1.66-42.12a62,62,0,0,0-1.07-8.89c-1.72-7.88-6-12.89-8-42.58-.62-9.36-.76-17.46-.66-24.56.22-15.66,1.65-25.93,1.93-34a95.66,95.66,0,0,0-1.29-19.27c-1.71-7.89-6.05-12.89-8-42.6,2.67-4.55,5-8.49,7.62-13.06a45.76,45.76,0,0,0,2.8,14.77,133.61,133.61,0,0,1,6.31,36.72,389.06,389.06,0,0,1-1.26,58.53,94.83,94.83,0,0,0,1.28,19.26c1.71,7.89,6,12.88,8,42.6a343.13,343.13,0,0,1-1.1,55.15c-.82-.42-4.26,7.22-4.26,7.22s-2.09-8-3.93-7.18Z"/><path id="Контур_553" data-name="Контур 553" class="cls-7" d="M1574.87,1997.8c.18,17.9,3,16.16,5,36.81a380.6,380.6,0,0,1,.54,54.45c-1.08,18.08-3.05,29.55-3.77,38.79a133,133,0,0,0,.22,22.75c.87,6.65,3,12.09,4.43,26.18a381.8,381.8,0,0,1,.54,54.43c-1.08,18.07-3,29.54-3.77,38.78a133,133,0,0,0,.22,22.75c.87,6.64,3,12.09,4.43,26.16a383.4,383.4,0,0,1,.54,54.44c-.87,14.55-2.36,25.15-3.26,33.47-1.66,3.55-5.47,28.13-5.47,28.13s-2.29-5.47-3.69.53a518,518,0,0,1,4.46-66c.29-3.64.41-7.18.36-12.09a85.87,85.87,0,0,0-.59-10.63c-.32-2.44-.77-4.55-1.39-7.38a147.34,147.34,0,0,1-3-18.79c-.64-6.47-1.11-14.74-1.22-25.77s.19-20.48.67-28.68c1.09-18,3.05-29.56,3.78-38.78a134.11,134.11,0,0,0-.22-22.76c-.88-6.64-3-12.08-4.43-26.16a383.4,383.4,0,0,1-.54-54.44c1.08-18.08,3-29.55,3.77-38.79a133.08,133.08,0,0,0-.22-22.76c-1.27-9.68-5.3-16.84-5.65-51.91l8.28-12.73Z"/><path id="Контур_554" data-name="Контур 554" class="cls-7" d="M1528.78,2429.68c-3.65-24.55-6.21-29.94-7.53-46.56a89.65,89.65,0,0,1-.41-10,207.72,207.72,0,0,0,.5-48.13c-.83-10.44-1.89-19.44-3-27.32-2.48-17.38-5.15-28.59-6.56-37.5a142.23,142.23,0,0,1-1.73-21.51,207.82,207.82,0,0,0,.5-48.14c-2.9-4.78-5.38-8.88-8.28-13.65a66.59,66.59,0,0,1-.19,16.69,193.94,193.94,0,0,0,.09,41.44,573.14,573.14,0,0,0,9.58,64.8,142.22,142.22,0,0,1,1.72,21.51,208.93,208.93,0,0,0-.51,48.14,510.91,510.91,0,0,0,9,61.05c.63-.55,4.62,7.56,4.62,7.56s.58-9.1,2.24-8.4Z"/></g><g id="Сгруппировать_180" data-name="Сгруппировать 180"><path id="Контур_555" data-name="Контур 555" class="cls-8" d="M1312,89.31l-1163.54,292H2475.53Z"/><path id="Контур_556" data-name="Контур 556" class="cls-9" d="M1312,89.31l-853.57,292H2165.55Z"/><path id="Контур_557" data-name="Контур 557" class="cls-8" d="M1312,89.31l-579.92,292H1891.91Z"/><path id="Контур_558" data-name="Контур 558" class="cls-9" d="M1312,89.31l-379.5,292h759Z"/><path id="Контур_559" data-name="Контур 559" class="cls-8" d="M1312,89.31l-220.57,292h441.14Z"/><path id="Контур_560" data-name="Контур 560" class="cls-9" d="M1312,89.31l-68.52,292h137Z"/><ellipse id="Эллипс_192" data-name="Эллипс 192" class="cls-8" cx="1311.98" cy="56.71" rx="57.64" ry="56.51"/></g><path id="Контур_561" data-name="Контур 561" class="cls-7" d="M1177,1550.64a125.83,125.83,0,0,1-13-30.18,61.08,61.08,0,0,1-3-24.49,22.13,22.13,0,0,0-1-10,44.65,44.65,0,0,0-5.12-11.61,118.21,118.21,0,0,1-11.81-27.93l9.72,3.78a44.82,44.82,0,0,0,5.13,11.61,119.75,119.75,0,0,1,11.82,27.94,61.17,61.17,0,0,1,3,24.5,22.27,22.27,0,0,0,1,10c2.43,8.59,5.65,11.27,10.84,22.75-1.24,0-1.47,6.16-1.47,6.16s-4.92-4-6.06-2.51Z"/><path id="Контур_562" data-name="Контур 562" class="cls-7" d="M1378.08,1210.72c.87-2.42,1.93-5,3.25-7.8a54.8,54.8,0,0,1,15-20.3,20.15,20.15,0,0,0,6.41-8.17,27.37,27.37,0,0,0,2.75-11.17,73,73,0,0,1,7.25-26.65,54.48,54.48,0,0,1,15-20.27,20.35,20.35,0,0,0,6.41-8.17,27.46,27.46,0,0,0,2.76-11.17,72.83,72.83,0,0,1,7.24-26.66l8.57,7a27.46,27.46,0,0,0-2.76,11.17,72.83,72.83,0,0,1-7.24,26.65,54.5,54.5,0,0,1-15,20.27,20.55,20.55,0,0,0-6.41,8.18,27.53,27.53,0,0,0-2.75,11.17,72.78,72.78,0,0,1-7.24,26.64,54.54,54.54,0,0,1-15,20.29,20.31,20.31,0,0,0-6.41,8.18,27.21,27.21,0,0,0-2.75,11.17,73.81,73.81,0,0,1-3.45,17.21,15.62,15.62,0,0,0-4-11.4s0-13.76-1.61-16.2Z"/><path id="Контур_563" data-name="Контур 563" class="cls-7" d="M904,987.08c-4.79-16.22-7.58-19.86-9.7-30.79a40,40,0,0,1-.85-6.54,88.93,88.93,0,0,0-1.73-31.44c-1.32-6.87-2.79-12.8-4.28-18-3.28-11.46-6.48-18.94-8.31-24.82a64.07,64.07,0,0,1-2.72-14.13,89.16,89.16,0,0,0-1.73-31.44l-8.9-9.31a28.6,28.6,0,0,1,.58,10.9,83.92,83.92,0,0,0,2,27.08A279.75,279.75,0,0,0,881,901.4a64.38,64.38,0,0,1,2.73,14.15A89.16,89.16,0,0,0,885.43,947a248.35,248.35,0,0,0,11.78,40.33c.6-.33,5,5.16,5,5.16s.17-5.93,1.85-5.38Z"/><path id="Контур_564" data-name="Контур 564" class="cls-7" d="M1850,1174c4.51-10.76,7.52-12.47,9.27-20.15a17.32,17.32,0,0,0,.58-4.75c-.21-4.49-3.46-8.49,0-23.82a80.67,80.67,0,0,1,3.82-12.33c3.08-7.62,6.31-12.18,8-16A26.2,26.2,0,0,0,1874,1087c-.2-4.5-3.46-8.49,0-23.82l9.7-3.72a14.55,14.55,0,0,0,0,8.27,41.21,41.21,0,0,1-.63,20.31,105,105,0,0,1-11.87,28.38,26,26,0,0,0-2.26,9.93c.2,4.49,3.45,8.49,0,23.83a93.45,93.45,0,0,1-11.08,26.75c-.73-.5-5.42,2-5.42,2s-.56-4.67-2.49-4.93Z"/><path id="Контур_565" data-name="Контур 565" class="cls-7" d="M983.75,684.16c5.92-19.11,5.33-25.23,10.55-36.93a33.71,33.71,0,0,1,3.59-6.56c3.9-5.17,9.43-5.66,19.87-29a190.07,190.07,0,0,0,7.71-20.1c4.31-13.39,5.92-23.27,8-30.3a57.87,57.87,0,0,1,6.77-15.12c3.89-5.16,9.43-5.65,19.87-29-1.2-6.14-2.24-11.41-3.43-17.55a23.44,23.44,0,0,1-6.91,10c-5.73,5.3-10.15,11.21-16.57,25.5-10.44,23.34-12.75,40.4-15.66,50.4a57.87,57.87,0,0,1-6.77,15.12c-3.9,5.17-9.43,5.64-19.88,29A242.05,242.05,0,0,0,976,677.09a41.12,41.12,0,0,1,2,9.76s4.28-4.92,5.79-2.67Z"/><path id="Контур_566" data-name="Контур 566" class="cls-7" d="M915.63,503c-14.88-8.07-19.43-8.66-28.66-14.9a40,40,0,0,1-5.25-4,89,89,0,0,0-23.49-21c-5.8-3.92-11.05-7.08-15.78-9.69-10.44-5.77-18-8.79-23.46-11.66a63.37,63.37,0,0,1-12-8.05,88.87,88.87,0,0,0-23.5-21l-12.89-.28a28.37,28.37,0,0,1,8.14,7.29,84.28,84.28,0,0,0,20.62,17.72,281.7,281.7,0,0,0,39.23,21.33,65,65,0,0,1,11.94,8.06,89.26,89.26,0,0,0,23.51,21A249.17,249.17,0,0,0,911,507.94c.19-.67,7.16.12,7.16.12s-4.07-4.29-2.51-5.12Z"/><path id="Контур_567" data-name="Контур 567" class="cls-7" d="M1477.52,501.76c5.25-10.42,8.35-11.93,10.63-19.47a17.29,17.29,0,0,0,.9-4.72c.1-4.48-2.87-8.68,1.66-23.75a82.42,82.42,0,0,1,4.66-12c3.58-7.4,7.12-11.73,9.11-15.46a26.56,26.56,0,0,0,2.94-9.77c.1-4.5-2.88-8.68,1.66-23.75,3.47-1.08,6.46-2,9.94-3.06a14.49,14.49,0,0,0-.57,8.27,41.11,41.11,0,0,1-2,20.21,105.16,105.16,0,0,1-13.77,27.5,26.14,26.14,0,0,0-2.94,9.75c-.1,4.5,2.88,8.69-1.65,23.77a92.72,92.72,0,0,1-12.88,25.93c-.69-.54-5.55,1.68-5.55,1.68s-.23-4.7-2.13-5.08Z"/><path id="Контур_568" data-name="Контур 568" class="cls-7" d="M1594.22,436.13c2.39-4.06,4.85-4.13,5.21-7.44a4,4,0,0,0-.24-2.16,16.85,16.85,0,0,1-3.8-11.58,13.58,13.58,0,0,1,1.5-5,37.34,37.34,0,0,1,4.75-5.74,5.07,5.07,0,0,0,.47-4.26,16.81,16.81,0,0,1-3.82-11.58c2.9.24,5.38.45,8.26.67a5.13,5.13,0,0,0,1.34,4,13.09,13.09,0,0,1,2.71,9.72,18,18,0,0,1-6.26,10.76,5,5,0,0,0-.46,4.23,16.86,16.86,0,0,1,3.81,11.59,15.9,15.9,0,0,1-5.8,10.18,18.29,18.29,0,0,0-4.61-.41,6.93,6.93,0,0,0-3-3Z"/><path id="Контур_569" data-name="Контур 569" class="cls-7" d="M573.59,408.57c3.84,2.75,3.68,5.2,6.93,5.87a4.14,4.14,0,0,0,2.18-.05,16.91,16.91,0,0,1,11.89-2.72,13.22,13.22,0,0,1,4.87,1.94,37.57,37.57,0,0,1,5.3,5.25,5,5,0,0,0,4.2.83A16.89,16.89,0,0,1,620.85,417c-.5,2.86-.93,5.3-1.43,8.15a5.12,5.12,0,0,0-4.14,1,13.1,13.1,0,0,1-9.94,1.81,17.82,17.82,0,0,1-10.15-7.2,5,5,0,0,0-4.2-.83,16.86,16.86,0,0,1-11.89,2.73,15.83,15.83,0,0,1-9.63-6.69,19.1,19.1,0,0,0,.83-4.55,7,7,0,0,0,3.31-2.77Z"/><path id="Контур_570" data-name="Контур 570" class="cls-7" d="M1857.87,402.15c4.72-.1,6.07,2,9.06.53a4.16,4.16,0,0,0,1.72-1.33c1.43-2,1.89-6.49,7.87-9.33a13.31,13.31,0,0,1,5.06-1.35,36.84,36.84,0,0,1,7.39,1,5,5,0,0,0,3.87-1.84c1.43-2,1.9-6.49,7.87-9.32l3.76,7.37c-1.63.77-2,1.61-2.72,3.25a13.06,13.06,0,0,1-6.86,7.4,18,18,0,0,1-12.46.35,5,5,0,0,0-3.87,1.83c-1.42,1.95-1.9,6.49-7.86,9.33a15.88,15.88,0,0,1-11.72.41,19.54,19.54,0,0,0-2.09-4.13,6.94,6.94,0,0,0,1-4.19Z"/><path id="Контур_571" data-name="Контур 571" class="cls-10" d="M831.22,750.42a1216.93,1216.93,0,0,0-145.58-14.83A1424.34,1424.34,0,0,0,421.28,748.3c-269.65,0-351.4-14.81-371.57-29.65-28.86-21.26,76.31-38.52,80.46-80.49,3.05-30.87-83.9-38.63-107.27-86.85C3,510.26,36.74,455.88,73.17,425.56c58.19-48.43,131.25-42.14,470.77-43,97-.25,194.12,2.17,291.11,0,92.13-2.06,347.3-9.72,377,35.89a88.45,88.45,0,0,1,12.8,35.24c2.05,20.24-8.63,29.92-6.69,39.37,15.55,75.8,246,112.91,195.35,136.63-45.2,21.18-258.67-.83-298.8,22.24-25.09,14.44,46.51,29.58,15.32,49.78-14.53,9.41-48.18,14.89-114.9,25.42C973,733.77,911.25,742.52,831.22,750.42Z"/><path id="Контур_572" data-name="Контур 572" class="cls-10" d="M2104.15,735a941.39,941.39,0,0,0-125.28-14.22A1101.3,1101.3,0,0,0,1751.37,733c-232.07,0-302.42-14.19-319.77-28.44-24.84-20.37,65.68-36.94,69.23-77.19,2.72-30.7-69.18-43.9-92.3-83.28-17.63-30-7-78.68,96.19-161.83H1856.9c83.51,0,167,.53,250.54,0,254.92-1.59,355.55-7.66,376.3,25.3,5.47,8.71,7.64,23.74-15.08,49.91a37.52,37.52,0,0,0,2.69,4.68A215.65,215.65,0,0,0,2484.9,482c17.17,22,128,74.83,121.84,130.88a14.08,14.08,0,0,1-1.49,6.43c-20.12,30.22-227,2-257.12,21.32-21.6,13.84,40,28.38,13.19,47.73-12.51,9-41.48,14.28-98.88,24.38C2226.16,719.07,2173,727.45,2104.15,735Z"/></g></svg>