<svg id="Layer_1" data-name="Layer 1" xmlns="http://www.w3.org/2000/svg" viewBox="0 0 184 528"><defs><style>.cls-1{fill:#446a62;}.cls-2{fill:#21342f;}.cls-3,.cls-4{isolation:isolate;}.cls-4{font-size:12px;fill:#fff;font-family:MADETOMMY, MADE TOMMY;}.cls-5{letter-spacing:-0.02em;}.cls-6{letter-spacing:-0.01em;}.cls-7{letter-spacing:0em;}.cls-8{letter-spacing:-0.03em;}.cls-9{letter-spacing:-0.01em;}.cls-10{fill:#5c895a;}.cls-11{fill:#835332;}.cls-12{letter-spacing:-0.02em;}</style></defs><g id="Сгруппировать_374" data-name="Сгруппировать 374"><rect id="Прямоугольник_11" data-name="Прямоугольник 11" class="cls-1" width="184" height="528" rx="62"/><g id="Сгруппировать_373" data-name="Сгруппировать 373"><g id="Сгруппировать_355" data-name="Сгруппировать 355"><g id="Сгруппировать_301" data-name="Сгруппировать 301"><path id="Контур_906" data-name="Контур 906" class="cls-2" d="M78.53,242.19a187.82,187.82,0,0,0,.9-32c-.8-13.74-2.51-19.28-3.76-23.33A30.88,30.88,0,0,1,74,177.44a67,67,0,0,1,.41-12.34,177.59,177.59,0,0,0,.67-29.53l-4.88,6.83a68,68,0,0,1-.41,12.35,177.56,177.56,0,0,0-.68,29.53c.8,13.75,2.52,19.29,3.76,23.33A30.93,30.93,0,0,1,74.54,217c.5,8.65-.79,12.22-1.27,24.45.72-.46,2.25,5.1,2.25,5.1s2-5.33,3-4.4Z"/><path id="Контур_907" data-name="Контур 907" class="cls-2" d="M69.59,224.56c-.26-2.59-.6-5.37-1-8.36-2-13-4.12-17.87-5.68-21.4a25.79,25.79,0,0,1-2.45-8.6,64.89,64.89,0,0,1-.67-12.06,169.74,169.74,0,0,0-1.88-28.75c-2-13-4.11-17.87-5.68-21.4a26.27,26.27,0,0,1-2.45-8.6,65.75,65.75,0,0,1-.66-12.06,169.68,169.68,0,0,0-1.88-28.75L43,82.69a64,64,0,0,1,.66,12.06,171.84,171.84,0,0,0,1.88,28.75c2,13,4.12,17.87,5.68,21.4a25.74,25.74,0,0,1,2.45,8.59,64.89,64.89,0,0,1,.67,12.06,169.56,169.56,0,0,0,1.88,28.74c2,13.05,4.11,17.88,5.68,21.41a26.27,26.27,0,0,1,2.45,8.6,65.65,65.65,0,0,1,.66,12A181.42,181.42,0,0,0,65.67,255a36.13,36.13,0,0,1,2.38-12.67s.69-15,1.55-17.78Z"/><path id="Контур_908" data-name="Контур 908" class="cls-2" d="M124.11,57.9c-.92,7.65-2.58,6.47-4.77,15a111,111,0,0,0-2.8,23.25c-.14,7.92.57,13.13.6,17.2a38.75,38.75,0,0,1-1.17,9.71c-.84,2.72-2.43,4.72-3.93,10.54a111.69,111.69,0,0,0-2.79,23.25c-.14,7.92.56,13.13.6,17.2a38.81,38.81,0,0,1-1.17,9.71c-.84,2.71-2.43,4.72-3.93,10.54A111.6,111.6,0,0,0,102,217.55c-.12,6.37.33,11.14.52,14.85.86,1.77,2.13,12.88,2.13,12.88s1.67-2,2.27.79c1.67-14.51.25-23.27.2-28.95a39.85,39.85,0,0,1,.32-5.24,25.16,25.16,0,0,1,.84-4.47,26,26,0,0,1,1.2-2.95,41.21,41.21,0,0,0,2.74-7.59A83.41,83.41,0,0,0,114.1,186a122.2,122.2,0,0,0,.87-12.39c.14-7.9-.56-13.14-.6-17.2a39.27,39.27,0,0,1,1.16-9.71c.84-2.71,2.43-4.72,3.93-10.54a111.61,111.61,0,0,0,2.8-23.24c.14-7.92-.57-13.13-.6-17.2A38.82,38.82,0,0,1,122.82,86c1.23-4,4.06-6.42,5.86-21.39L124.1,57.9Z"/><path id="Контур_909" data-name="Контур 909" class="cls-2" d="M97.74,239.45c-.32-14-1.69-17.23-1.06-26.64a37.86,37.86,0,0,1,.68-5.61c1.08-5,3.82-8.15,5.07-26.93.4-5.91.49-11,.42-15.52-.14-9.9-1-16.4-1.22-21.49a60.57,60.57,0,0,1,.81-12.18c1.08-5,3.82-8.15,5.08-26.92-1.69-2.89-3.14-5.37-4.82-8.26a29,29,0,0,1-1.77,9.34c-2,6-3.21,11.7-4,23.21-1.25,18.79.54,29.76.8,37a60.57,60.57,0,0,1-.81,12.18c-1.09,5-3.82,8.14-5.08,26.93-1.13,16.91.22,27.29.7,34.85.52-.26,2.7,4.58,2.7,4.58s1.32-5.06,2.48-4.55Z"/><path id="Контур_910" data-name="Контур 910" class="cls-2" d="M86.2,39c-.12,8.39-1.88,7.57-3.17,17.24a133.29,133.29,0,0,0-.34,25.5c.69,8.47,1.93,13.84,2.38,18.17a45.71,45.71,0,0,1-.14,10.65c-.55,3.11-1.91,5.66-2.79,12.26a133.29,133.29,0,0,0-.35,25.5c.69,8.46,1.93,13.83,2.39,18.16A46.83,46.83,0,0,1,84,177.13c-.55,3.12-1.92,5.66-2.8,12.26a133.29,133.29,0,0,0-.34,25.5c.55,6.82,1.49,11.78,2.06,15.68,1,1.66,3.45,13.17,3.45,13.17s1.45-2.56,2.33.25c.15-15.9-2.18-24.87-2.81-30.91a44.57,44.57,0,0,1-.23-5.66,30.75,30.75,0,0,1,.37-5A29.72,29.72,0,0,1,87,199a53.69,53.69,0,0,0,1.91-8.8,99.25,99.25,0,0,0,.77-12.06c.07-5.17-.11-9.6-.42-13.44-.69-8.44-1.93-13.84-2.39-18.16A46.82,46.82,0,0,1,87,135.87c.55-3.11,1.92-5.66,2.8-12.26a133.28,133.28,0,0,0,.34-25.5c-.68-8.47-1.93-13.84-2.38-18.17a46.27,46.27,0,0,1,.14-10.65c.8-4.54,3.34-7.9,3.57-24.32L86.2,39Z"/><path id="Контур_911" data-name="Контур 911" class="cls-2" d="M115.31,240.35c2.3-15.52,3.91-18.92,4.75-29.43a55.38,55.38,0,0,0,.25-6.31c-.17-5.65-2-9.45-.31-30.43.52-6.6,1.2-12.3,1.9-17.27,1.56-11,3.26-18.07,4.15-23.7a89.82,89.82,0,0,0,1.09-13.6c-.18-5.66-2-9.46-.32-30.44,1.83-3,3.4-5.61,5.22-8.63a42.41,42.41,0,0,0,.12,10.56c.79,6.89,1,13.34,0,26.19-1.69,21-4.78,33-6.05,41a88.35,88.35,0,0,0-1.09,13.6c.17,5.65,2,9.45.32,30.43-1.52,18.89-4.15,30.26-5.65,38.6-.4-.35-2.92,4.78-2.92,4.78s-.37-5.75-1.41-5.31Z"/></g><g id="Blue-green_algae_or_Cyanobacteria" data-name="Blue-green algae or Cyanobacteria" class="cls-3"><text class="cls-4" transform="translate(43 277.49)">Blue-g<tspan class="cls-5" x="36.58" y="0">r</tspan><tspan x="40.66" y="0">een al</tspan><tspan class="cls-6" x="73.61" y="0">g</tspan><tspan class="cls-7" x="80.89" y="0">ae </tspan></text><text class="cls-4" transform="translate(43 291.89)">or C<tspan class="cls-8" x="23.23" y="0">y</tspan><tspan x="29.32" y="0">anobac</tspan><tspan class="cls-9" x="70.38" y="0">t</tspan><tspan x="74.66" y="0">eria</tspan></text></g></g><g id="Сгруппировать_354" data-name="Сгруппировать 354"><g id="Сгруппировать_303" data-name="Сгруппировать 303"><g id="Сгруппировать_302" data-name="Сгруппировать 302"><path id="Контур_912" data-name="Контур 912" class="cls-10" d="M71.84,462.07a13.23,13.23,0,0,0-4.51-16.3c-1.89-1.22-4.09-1.93-5.88-3.3a10,10,0,0,1-3.81-8.66c.46-5.28,5.06-10,3.93-15.2-.93-4.27-5.3-6.65-8.46-9.64-5.4-5.1-6.9-11.93-5.69-19A14.84,14.84,0,0,0,45,379.13s3.39,1.68,4.38,2.38c3.81,2.72,7.85,5.64,9.76,10.08.77,1.79,1.18,3.71,1.86,5.53a12.69,12.69,0,0,0,5.46,6.51c2,1.19,4.25,1.65,6.4,2.41a11.9,11.9,0,0,1,7.78,14.56c-1.48,5.08-6.12,9.44-5.4,14.66.34,2.54,1.93,4.7,2.94,7,3,7,.11,15.64-6.35,19.78Z"/><path id="Контур_913" data-name="Контур 913" class="cls-10" d="M91.49,458.43A35.87,35.87,0,0,1,82.19,446c-2-4.69-2.76-11-.63-15.86,2.69-6.1,5.78-14.5,1.33-20.66-2.55-3.52-5.44-6-7.25-10.27-4.15-9.77-.26-17.35,4-25.7C82,368.86,83,362.14,81.23,357a17.06,17.06,0,0,1,.15-12.72c4-9.76,13.4-14.4,21.76-16.25-.82,1.24-3,5.24-3.13,5.53a25.19,25.19,0,0,0-2,6.57c-1,7.53-.12,13.36,4.46,18.81a19,19,0,0,1,4.11,15c-.85,5.46-4.6,8-6.27,12.71-3.16,8.82,5.23,16.35,5.38,24.93.14,8.22-5.17,15.2-9.29,21.08-4.6,6.57-6.58,17.47-4.93,25.81Z"/><path id="Контур_914" data-name="Контур 914" class="cls-10" d="M126,364.71c2.73,6.45.73,14.82-4.42,18.44-1.89,1.33-4.09,2.06-5.87,3.55a11.71,11.71,0,0,0-3.77,9.76c.49,6.05,5.14,11.63,4,17.49-.91,4.85-5.28,7.4-8.43,10.7-5.38,5.63-6.85,13.36-5.59,21.47a18.44,18.44,0,0,1-2.35,12.32,49,49,0,0,0,4.37-2.57c3.8-3,7.84-6.15,9.73-11.15.77-2,1.16-4.19,1.83-6.24a13.35,13.35,0,0,1,5.44-7.23c2-1.29,4.26-1.73,6.41-2.52,5.91-2.17,9.61-9,7.7-16.34-1.51-5.85-6.19-11-5.51-16.94.33-2.88,1.91-5.29,2.91-7.93a20.71,20.71,0,0,0-6.5-22.81Z"/></g><path id="Контур_915" data-name="Контур 915" class="cls-11" d="M128.43,465.13H45v-3.82a6.88,6.88,0,0,1,6.94-6.82h69.55a6.89,6.89,0,0,1,6.94,6.82Z"/></g><g id="Underwater_plants" data-name="Underwater plants" class="cls-3"><text class="cls-4" transform="translate(39 486.66)">Under<tspan class="cls-8" x="33.66" y="0">w</tspan><tspan class="cls-12" x="42.59" y="0">a</tspan><tspan class="cls-6" x="48.79" y="0">t</tspan><tspan x="53.08" y="0">er pla</tspan><tspan class="cls-9" x="84.14" y="0">n</tspan><tspan x="90.89" y="0">ts</tspan></text></g></g></g></g></svg>