<svg id="Layer_1" data-name="Layer 1" xmlns="http://www.w3.org/2000/svg" viewBox="0 0 2621.59 2565.16"><defs><style>.cls-1{fill:#446a62;}.cls-2{fill:#835332;}.cls-3{fill:#8b9a6c;}.cls-4{fill:#9baf78;}.cls-5{fill:#272727;}.cls-6{fill:#21342f;}.cls-7{fill:#e4d95e;}.cls-8{fill:#e9e081;}.cls-9{fill:#5c895a;opacity:0.75;isolation:isolate;}.cls-10{fill:#92bcbf;}</style></defs><g id="Сгруппировать_361" data-name="Сгруппировать 361"><path id="Прямоугольник_7" data-name="Прямоугольник 7" class="cls-1" d="M77.26,380.79H2546.73a74.83,74.83,0,0,1,74.86,74.8V2490.14a74.83,74.83,0,0,1-74.86,74.8H77.26a74.83,74.83,0,0,1-74.86-74.8V455.59A74.83,74.83,0,0,1,77.26,380.79Z"/><path id="Контур_448" data-name="Контур 448" class="cls-2" d="M2488.48,2564.93h-2370v-46.17c0-45.51,88.25-82.39,197.08-82.39h1975.9c108.83,0,197,36.88,197,82.39Z"/><g id="Сгруппировать_156" data-name="Сгруппировать 156"><path id="Контур_449" data-name="Контур 449" class="cls-3" d="M635.65,1170.13c-7.37-17.06-30.25-26-51.11-20l-57.22,11.53L561,1199.49l77.42-23Z"/><path id="Контур_450" data-name="Контур 450" class="cls-4" d="M561,1291.81l-33.65,37.8,57.22,11.53c20.86,6,43.75-2.89,51.12-20l2.75-6.36Z"/><path id="Контур_451" data-name="Контур 451" class="cls-4" d="M639.77,1168.2c-64.07,0-140.58,44.8-161.16,68v19c20.58,23.17,97.09,68,161.16,68,74.76,0,118.49-77.45,118.49-77.45S714.53,1168.2,639.77,1168.2Z"/><path id="Контур_452" data-name="Контур 452" class="cls-3" d="M758.26,1245.65s-30.39-53.82-83.83-71.72a109.61,109.61,0,0,0,0,143.44C727.86,1299.47,758.26,1245.65,758.26,1245.65Z"/><ellipse id="Эллипс_170" data-name="Эллипс 170" class="cls-5" cx="696.33" cy="1226.11" rx="9.7" ry="8.53"/><path id="Контур_453" data-name="Контур 453" class="cls-3" d="M439.05,1245.65h-6c-12.35,0-22.35-5.9-22.35-13.2l-9-31h15.74c34.78,0,63,16.66,63,37.17v14c0,20.52-28.2,37.16-63,37.16H401.72l9-31c0-7.29,10-13.2,22.35-13.2"/></g><g id="Сгруппировать_157" data-name="Сгруппировать 157"><path id="Контур_454" data-name="Контур 454" class="cls-3" d="M1782,1592.1c7.37-17.06,30.26-26,51.12-20l57.22,11.53-33.65,37.81-77.43-23Z"/><path id="Контур_455" data-name="Контур 455" class="cls-4" d="M1856.73,1713.78l33.65,37.81-57.22,11.52c-20.86,6-43.74-2.9-51.11-20l-2.75-6.36Z"/><path id="Контур_456" data-name="Контур 456" class="cls-4" d="M1777.93,1590.17c64.06,0,140.58,44.8,161.16,68v19c-20.59,23.16-97.1,68-161.16,68-74.76,0-118.5-77.45-118.5-77.45S1703.16,1590.17,1777.93,1590.17Z"/><path id="Контур_457" data-name="Контур 457" class="cls-3" d="M1659.43,1667.63s30.4-53.82,83.83-71.73a109.6,109.6,0,0,1,0,143.45C1689.83,1721.45,1659.43,1667.63,1659.43,1667.63Z"/><ellipse id="Эллипс_171" data-name="Эллипс 171" class="cls-5" cx="1721.36" cy="1648.08" rx="9.7" ry="8.53"/><path id="Контур_458" data-name="Контур 458" class="cls-3" d="M1978.65,1667.62h6c12.35,0,22.36-5.9,22.36-13.2l9-31h-15.73c-34.78,0-63,16.65-63,37.18v14c0,20.52,28.2,37.16,63,37.16H2016l-9-31c0-7.29-10-13.2-22.36-13.2"/></g><g id="Сгруппировать_158" data-name="Сгруппировать 158"><path id="Контур_459" data-name="Контур 459" class="cls-3" d="M1625.87,817.67c-11-25.46-45.14-38.81-76.27-29.82l-85.37,17.2,50.21,56.4L1630,827.16Z"/><path id="Контур_460" data-name="Контур 460" class="cls-4" d="M1514.44,999.21l-50.21,56.4,85.37,17.2c31.13,9,65.27-4.36,76.27-29.81l4.1-9.51Z"/><path id="Контур_461" data-name="Контур 461" class="cls-4" d="M1632,814.79c-95.58,0-209.74,66.83-240.45,101.4v28.29c30.71,34.56,144.87,101.4,240.45,101.4,111.53,0,176.8-115.55,176.8-115.55S1743.54,814.79,1632,814.79Z"/><path id="Контур_462" data-name="Контур 462" class="cls-3" d="M1808.8,930.34s-45.36-80.3-125.08-107a163.55,163.55,0,0,0,0,214C1763.44,1010.63,1808.8,930.34,1808.8,930.34Z"/><ellipse id="Эллипс_172" data-name="Эллипс 172" class="cls-5" cx="1716.4" cy="901.19" rx="14.47" ry="12.72"/><path id="Контур_463" data-name="Контур 463" class="cls-3" d="M1332.55,930.33h-9c-18.42,0-33.37-8.82-33.37-19.69l-13.38-46.18h23.47c51.91,0,94,24.82,94,55.43v20.84c0,30.61-42.08,55.43-94,55.43h-23.47L1290.22,950c0-10.87,15-19.69,33.37-19.69"/></g><g id="Сгруппировать_159" data-name="Сгруппировать 159"><path id="Контур_464" data-name="Контур 464" class="cls-6" d="M1331.35,2448a78.31,78.31,0,0,0,3.29-39.05,49,49,0,0,0-13.75-28.46,18.29,18.29,0,0,1-6.14-11.51,28.15,28.15,0,0,1,1.49-15.06,74,74,0,0,0,2.46-36l-17.87,8.33a28.27,28.27,0,0,1-1.5,15.07,74,74,0,0,0-2.46,36,49,49,0,0,0,13.75,28.48,18.26,18.26,0,0,1,6.14,11.5c1.85,10.56-2.9,14.91-4.66,29.84,2.63-.57,8.25,6.21,8.25,6.21s7.37-6.5,11-5.36Z"/><path id="Контур_465" data-name="Контур 465" class="cls-6" d="M1298.68,2426.44a84.05,84.05,0,0,0-3.87-10.19,59.13,59.13,0,0,0-20.77-26.11,22.19,22.19,0,0,1-9-10.51,27.75,27.75,0,0,1-2.42-14.7,73.45,73.45,0,0,0-6.88-35.09,59.21,59.21,0,0,0-20.78-26.11,22.1,22.1,0,0,1-9-10.49,27.75,27.75,0,0,1-2.43-14.72,73.43,73.43,0,0,0-6.88-35.08l-15.32,9.89a27.75,27.75,0,0,1,2.43,14.72,73.39,73.39,0,0,0,6.88,35.07,59.18,59.18,0,0,0,20.78,26.12,22.15,22.15,0,0,1,9,10.48,27.86,27.86,0,0,1,2.42,14.73,73.39,73.39,0,0,0,6.88,35.07,59.17,59.17,0,0,0,20.78,26.12,22.07,22.07,0,0,1,9,10.49,27.79,27.79,0,0,1,2.42,14.71,76.53,76.53,0,0,0,2.41,22.75,23.72,23.72,0,0,1,8.7-15.46s2.53-18.34,5.66-21.69Z"/><path id="Контур_466" data-name="Контур 466" class="cls-6" d="M1498.14,2175.21c-3.36,11.28-9.42,9.55-17.46,22.14a74.65,74.65,0,0,0-10.23,34.29c-.52,11.67,2.07,19.36,2.19,25.36a26.18,26.18,0,0,1-4.28,14.31c-3.07,4-8.89,7-14.38,15.56a74.47,74.47,0,0,0-10.22,34.27c-.52,11.67,2.07,19.36,2.18,25.35a26.09,26.09,0,0,1-4.27,14.32c-3.08,4-8.89,7-14.38,15.55a74.68,74.68,0,0,0-10.23,34.29,110.72,110.72,0,0,0,1.91,21.88c3.15,2.61,7.8,19,7.8,19s6.11-2.93,8.28,1.17c6.12-21.39.91-34.34.73-42.7a24.2,24.2,0,0,1,1.2-7.73,19,19,0,0,1,3.08-6.58,31.59,31.59,0,0,1,4.38-4.35,50.08,50.08,0,0,0,10-11.2,62.27,62.27,0,0,0,7-16,75.68,75.68,0,0,0,3.19-18.28c.52-11.65-2.07-19.37-2.19-25.35a26.2,26.2,0,0,1,4.27-14.32c3.08-4,8.9-7,14.38-15.55a74.61,74.61,0,0,0,10.23-34.28c.52-11.67-2.07-19.35-2.19-25.36a26.21,26.21,0,0,1,4.28-14.32c4.48-5.84,14.82-9.47,21.41-31.55l-16.73-9.93Z"/><path id="Контур_467" data-name="Контур 467" class="cls-6" d="M1401.65,2444.61c-1.16-17.12-6.17-21-3.87-32.5a18.68,18.68,0,0,1,2.48-6.86c4-6.09,14-9.93,18.56-32.86a78.68,78.68,0,0,0,1.55-18.94c-.53-12.09-3.81-20-4.47-26.22a26.3,26.3,0,0,1,3-14.85c4-6.1,14-9.93,18.56-32.87l-17.62-10.07a17.88,17.88,0,0,1-6.47,11.39,49,49,0,0,0-14.57,28.34c-4.59,22.92,2,36.31,2.93,45.14a26.48,26.48,0,0,1-3,14.87c-4,6.09-14,9.93-18.56,32.86-4.14,20.64.78,33.3,2.53,42.53,1.92-.33,9.87,5.58,9.87,5.58s4.83-6.16,9.11-5.54Z"/><path id="Контур_468" data-name="Контур 468" class="cls-6" d="M1359.42,2112.54c-.42,13.82-6.86,12.46-11.57,28.39a99.33,99.33,0,0,0-1.26,42c2.51,14,7,22.8,8.72,29.93a34.76,34.76,0,0,1-.52,17.54c-2,5.12-7,9.32-10.23,20.19a99.65,99.65,0,0,0-1.24,42c2.51,13.95,7,22.78,8.73,29.91a35,35,0,0,1-.52,17.54c-2,5.14-7,9.33-10.23,20.19a99.44,99.44,0,0,0-1.24,42,164.87,164.87,0,0,0,7.55,25.82c3.78,2.75,12.63,21.71,12.63,21.71s5.3-4.23,8.52.41c.53-26.17-8-41-10.31-50.88a34.52,34.52,0,0,1-.83-9.34,23.32,23.32,0,0,1,1.36-8.19,30.43,30.43,0,0,1,3.21-5.7,50.8,50.8,0,0,0,7-14.5,78.15,78.15,0,0,0,2.82-19.88,106.6,106.6,0,0,0-1.56-22.13c-2.51-13.91-7-22.8-8.73-29.92a34.84,34.84,0,0,1,.53-17.53c2-5.13,7-9.32,10.22-20.18a99.49,99.49,0,0,0,1.24-42c-2.5-13.94-7-22.79-8.73-29.92a35.14,35.14,0,0,1,.53-17.55c2.94-7.49,12.24-13,13-40.06l-19.14-9.82Z"/><path id="Контур_469" data-name="Контур 469" class="cls-6" d="M1466,2445.7c8.42-18.94,14.31-23.1,17.39-35.9a23.91,23.91,0,0,0,.91-7.71c-.65-6.9-7.33-11.54-1.17-37.13a132.34,132.34,0,0,1,7-21.07c5.72-13.39,11.91-22.06,15.18-28.93a39.47,39.47,0,0,0,4-16.59c-.64-6.9-7.33-11.55-1.16-37.14l19.1-10.53a17.66,17.66,0,0,0,.44,12.87c2.89,8.42,3.59,16.28-.19,32-6.17,25.62-17.5,40.22-22.14,50a39.56,39.56,0,0,0-4,16.6c.65,6.89,7.33,11.54,1.17,37.13-5.55,23.05-15.18,36.94-20.67,47.11-1.46-.41-10.67,5.83-10.67,5.83s-1.35-7-5.18-6.49Z"/></g><g id="Сгруппировать_160" data-name="Сгруппировать 160"><path id="Контур_470" data-name="Контур 470" class="cls-6" d="M1633.44,2449a47.81,47.81,0,0,1-2-23.81,29.81,29.81,0,0,1,8.39-17.38,11.13,11.13,0,0,0,3.72-7,17.15,17.15,0,0,0-.9-9.19,45.18,45.18,0,0,1-1.5-22l10.9,5.1a17.26,17.26,0,0,0,.91,9.19,45,45,0,0,1,1.5,22,29.86,29.86,0,0,1-8.38,17.37,11.09,11.09,0,0,0-3.73,7c-1.12,6.44,1.77,9.1,2.84,18.2-1.6-.35-5,3.8-5,3.8s-4.49-4-6.72-3.27Z"/><path id="Контур_471" data-name="Контур 471" class="cls-6" d="M1653.37,2435.87a52.55,52.55,0,0,1,2.37-6.23,36,36,0,0,1,12.68-15.93,13.61,13.61,0,0,0,5.47-6.4,16.92,16.92,0,0,0,1.47-9,44.89,44.89,0,0,1,4.2-21.41,36.28,36.28,0,0,1,12.68-15.93,13.43,13.43,0,0,0,5.47-6.39,16.93,16.93,0,0,0,1.47-9,44.87,44.87,0,0,1,4.2-21.4l9.36,6a17,17,0,0,0-1.48,9,44.77,44.77,0,0,1-4.2,21.41,36.08,36.08,0,0,1-12.68,15.93,13.43,13.43,0,0,0-5.46,6.4,16.86,16.86,0,0,0-1.48,9,44.81,44.81,0,0,1-4.2,21.38,36.17,36.17,0,0,1-12.67,15.94,13.45,13.45,0,0,0-5.47,6.4,16.89,16.89,0,0,0-1.49,9,46.06,46.06,0,0,1-1.47,13.88,14.43,14.43,0,0,0-5.31-9.43s-1.54-11.19-3.46-13.24Z"/><path id="Контур_472" data-name="Контур 472" class="cls-6" d="M1531.69,2282.6c2,6.89,5.74,5.83,10.65,13.51a45.49,45.49,0,0,1,6.24,20.92,112.92,112.92,0,0,1-1.33,15.47,16,16,0,0,0,2.6,8.73,65.71,65.71,0,0,1,8.78,9.48,45.69,45.69,0,0,1,6.24,20.92,112.65,112.65,0,0,1-1.34,15.46,16,16,0,0,0,2.61,8.74,65.08,65.08,0,0,1,8.77,9.48,45.69,45.69,0,0,1,6.24,20.91,66.62,66.62,0,0,1-1.17,13.37,44,44,0,0,0-4.74,11.58s-3.73-1.8-5.07.72c-3.73-13.07-.56-20.94-.45-26.06a14.51,14.51,0,0,0-.73-4.72,11.55,11.55,0,0,0-1.87-4,19.18,19.18,0,0,0-2.68-2.65,30.82,30.82,0,0,1-6.1-6.84,37.93,37.93,0,0,1-4.28-9.76,46.07,46.07,0,0,1-2-11.17,112.93,112.93,0,0,1,1.34-15.47,16,16,0,0,0-2.61-8.73,66.24,66.24,0,0,1-8.78-9.48,45.65,45.65,0,0,1-6.24-20.91,114.68,114.68,0,0,1,1.34-15.48,16,16,0,0,0-2.61-8.73c-2.73-3.56-9-5.79-13.06-19.24l10.21-6.05Z"/><path id="Контур_473" data-name="Контур 473" class="cls-6" d="M1590.56,2447c.71-10.44,3.76-12.82,2.36-19.83a11.49,11.49,0,0,0-1.52-4.19c-2.42-3.72-8.52-6.06-11.32-20a47.67,47.67,0,0,1-.94-11.55,123.78,123.78,0,0,1,2.73-16,16.1,16.1,0,0,0-1.82-9.06c-2.41-3.73-8.52-6.07-11.32-20.05,3.76-2.15,7-4,10.74-6.15a11,11,0,0,0,4,7,29.82,29.82,0,0,1,8.88,17.27c2.8,14-1.2,22.17-1.78,27.56a16.11,16.11,0,0,0,1.82,9.06c2.41,3.72,8.51,6.06,11.31,20.05a55.05,55.05,0,0,1-1.53,25.94c-1.18-.19-6,3.42-6,3.42s-2.94-3.78-5.54-3.38Z"/><path id="Контур_474" data-name="Контур 474" class="cls-6" d="M1616.32,2244.36c.25,8.44,4.18,7.62,7,17.32a60.8,60.8,0,0,1,.77,25.65,173.15,173.15,0,0,1-5.33,18.25,21.28,21.28,0,0,0,.33,10.69,67.19,67.19,0,0,1,6.21,12.33,60.65,60.65,0,0,1,.77,25.62,175.34,175.34,0,0,1-5.32,18.24,21.32,21.32,0,0,0,.31,10.7,65.69,65.69,0,0,1,6.24,12.32,60.66,60.66,0,0,1,.77,25.62,101.49,101.49,0,0,1-4.61,15.75,67.36,67.36,0,0,0-7.7,13.24s-3.24-2.58-5.2.25c-.32-16,4.87-25,6.29-31a20.71,20.71,0,0,0,.5-5.71,14.65,14.65,0,0,0-.82-5,19.45,19.45,0,0,0-2-3.47,31,31,0,0,1-4.28-8.84,47.81,47.81,0,0,1-1.72-12.13,65.69,65.69,0,0,1,1-13.5,172.46,172.46,0,0,1,5.33-18.25,21.21,21.21,0,0,0-.32-10.7,65.69,65.69,0,0,1-6.24-12.32,60.61,60.61,0,0,1-.77-25.61,174.8,174.8,0,0,1,5.32-18.25,21.29,21.29,0,0,0-.32-10.72c-1.78-4.54-7.45-7.92-8-24.43l11.68-6Z"/><path id="Контур_475" data-name="Контур 475" class="cls-6" d="M1551.34,2447.62c-5.14-11.56-8.73-14.09-10.62-21.91a14.61,14.61,0,0,1-.56-4.7c.41-4.2,4.47-7,.71-22.64a80.71,80.71,0,0,0-4.25-12.86c-3.49-8.17-7.27-13.46-9.26-17.64a24.07,24.07,0,0,1-2.43-10.13c.39-4.21,4.47-7,.7-22.66l-11.65-6.42a10.78,10.78,0,0,1-.27,7.86,31.29,31.29,0,0,0,.12,19.49c3.77,15.62,10.68,24.54,13.51,30.49a24.07,24.07,0,0,1,2.43,10.13c-.41,4.21-4.47,7-.7,22.66a102.62,102.62,0,0,0,12.6,28.73c.89-.26,6.51,3.56,6.51,3.56s.83-4.28,3.16-4Z"/></g><g id="Сгруппировать_161" data-name="Сгруппировать 161"><path id="Контур_476" data-name="Контур 476" class="cls-7" d="M1312,89.33l-1163.53,292H2475.53Z"/><path id="Контур_477" data-name="Контур 477" class="cls-8" d="M1312,89.33l-853.56,292H2165.56Z"/><path id="Контур_478" data-name="Контур 478" class="cls-7" d="M1312,89.33l-579.92,292H1891.92Z"/><path id="Контур_479" data-name="Контур 479" class="cls-8" d="M1312,89.33l-379.5,292h759Z"/><path id="Контур_480" data-name="Контур 480" class="cls-7" d="M1312,89.33l-220.57,292h441.14Z"/><path id="Контур_481" data-name="Контур 481" class="cls-8" d="M1312,89.33l-68.52,292h137Z"/><ellipse id="Эллипс_173" data-name="Эллипс 173" class="cls-7" cx="1311.99" cy="56.73" rx="57.64" ry="56.51"/></g><path id="Контур_482" data-name="Контур 482" class="cls-6" d="M1180.24,2187.16a125.19,125.19,0,0,1-13-30.17,61.1,61.1,0,0,1-3-24.49,22,22,0,0,0-1-10,44.76,44.76,0,0,0-5.13-11.6A119.22,119.22,0,0,1,1146.3,2083l9.73,3.79a45.31,45.31,0,0,0,5.13,11.61A118.21,118.21,0,0,1,1173,2126.3a61.17,61.17,0,0,1,3,24.5,22.33,22.33,0,0,0,1,10c2.43,8.57,5.65,11.26,10.85,22.75-1.25,0-1.47,6.15-1.47,6.15s-4.94-4-6.07-2.52Z"/><path id="Контур_483" data-name="Контур 483" class="cls-6" d="M1053.52,2406.73c2.51.51,5.24,1.18,8.2,2.09a54.88,54.88,0,0,1,22.27,11.89,20.2,20.2,0,0,0,9,5.17,27.58,27.58,0,0,0,11.45,1.1,73.13,73.13,0,0,1,27.45,3.31,54.6,54.6,0,0,1,22.27,11.9,20.27,20.27,0,0,0,9,5.15,27.83,27.83,0,0,0,11.47,1.12,72.75,72.75,0,0,1,27.45,3.31l-5.72,9.48a27.61,27.61,0,0,0-11.46-1.11,72.7,72.7,0,0,1-27.44-3.31,54.6,54.6,0,0,1-22.27-11.9,20.54,20.54,0,0,0-9-5.16,27.46,27.46,0,0,0-11.46-1.09,73.07,73.07,0,0,1-27.44-3.31,54.74,54.74,0,0,1-22.27-11.91,20.24,20.24,0,0,0-9-5.15,27.24,27.24,0,0,0-11.45-1.11,74.22,74.22,0,0,1-17.55-.9,15.7,15.7,0,0,0,10.71-5.62s13.64-2,15.81-3.95Z"/><path id="Контур_484" data-name="Контур 484" class="cls-6" d="M907.29,1623c-4.79-16.22-7.58-19.85-9.69-30.77a39.15,39.15,0,0,1-.86-6.56,88.87,88.87,0,0,0-1.72-31.43c-1.32-6.86-2.8-12.8-4.29-18-3.28-11.46-6.48-18.94-8.31-24.82a64.88,64.88,0,0,1-2.73-14.14,88.93,88.93,0,0,0-1.72-31.44l-8.9-9.31a28.65,28.65,0,0,1,.58,10.91,84,84,0,0,0,2,27.09,282.35,282.35,0,0,0,12.59,42.81,64.18,64.18,0,0,1,2.73,14.14,88.94,88.94,0,0,0,1.72,31.44,248.35,248.35,0,0,0,11.78,40.33c.61-.34,5,5.14,5,5.14s.17-5.91,1.85-5.37Z"/><path id="Контур_485" data-name="Контур 485" class="cls-6" d="M1810.31,2449.23c11.39-2.52,14.54-1.07,21.82-4.07a17.4,17.4,0,0,0,4.22-2.28c3.55-2.77,4.94-7.72,19.49-13.71a82.55,82.55,0,0,1,12.27-4c8-1.89,13.6-1.89,17.77-2.7a26.37,26.37,0,0,0,9.43-3.89c3.55-2.77,4.94-7.72,19.48-13.72,3,2,5.62,3.75,8.65,5.75a14.65,14.65,0,0,0-6.76,4.78,41.14,41.14,0,0,1-17,11.22,105.37,105.37,0,0,1-30,6.7,26.3,26.3,0,0,0-9.43,3.89c-3.55,2.77-4.94,7.71-19.49,13.72a93.38,93.38,0,0,1-28.26,6.4c0-.88-4.8-3.24-4.8-3.24s3.5-3.16,2.61-4.85Z"/><path id="Контур_486" data-name="Контур 486" class="cls-6" d="M1344.23,1738.9c5.92-19.11,5.33-25.23,10.56-36.92a33.15,33.15,0,0,1,3.58-6.56c3.9-5.18,9.43-5.66,19.87-29a190.23,190.23,0,0,0,7.71-20.11c4.3-13.38,5.92-23.27,8-30.29a57.22,57.22,0,0,1,6.77-15.12c3.89-5.17,9.43-5.66,19.87-29-1.2-6.13-2.25-11.41-3.44-17.55a23.32,23.32,0,0,1-6.91,10c-5.73,5.3-10.15,11.23-16.56,25.52-10.45,23.33-12.76,40.39-15.68,50.39a57,57,0,0,1-6.77,15.11c-3.89,5.17-9.42,5.66-19.87,29a241.14,241.14,0,0,0-14.86,47.39,40.61,40.61,0,0,1,2,9.77s4.28-4.93,5.8-2.68Z"/><path id="Контур_487" data-name="Контур 487" class="cls-9" d="M674.58,754.56a791.15,791.15,0,0,0-117.59-15A921.1,921.1,0,0,0,343.5,752.43c-217.79,0-283.8-15-300.08-30-23.32-21.51,61.62-39,65-81.4,2.46-31.21-67.75-39-86.63-87.81C5.69,511.72,32.94,456.75,62.34,426.09c47-49,106-42.61,380.19-43.5,78.37-.25,156.77,2.19,235.11,0,74.39-2.07,280.47-9.83,304.48,36.29a105.68,105.68,0,0,1,10.35,35.62c1.65,20.48-7,30.27-5.41,39.82,12.56,76.64,198.68,114.17,157.77,138.17-36.51,21.41-208.9-.85-241.32,22.5-20.26,14.58,37.57,29.9,12.37,50.33-11.73,9.51-38.92,15-92.79,25.7C789.09,737.73,739.22,746.59,674.58,754.56Z"/><path id="Контур_488" data-name="Контур 488" class="cls-9" d="M2143.67,739.19a792.07,792.07,0,0,0-115.44-14.39,926.27,926.27,0,0,0-209.61,12.32c-213.83,0-278.65-14.36-294.64-28.77-22.89-20.62,60.51-37.36,63.79-78.09,2.48-31.07-63.76-44.42-85.06-84.25-16.24-30.37-6.49-79.59,88.64-163.71h324.49c77,0,153.91.52,230.85,0,234.88-1.63,327.6-7.76,346.72,25.6,5.05,8.8,7,24-13.89,50.47a42.79,42.79,0,0,0,2.49,4.74,220.12,220.12,0,0,0,12.49,20c15.81,22.28,117.91,75.7,112.26,132.41a15.48,15.48,0,0,1-1.36,6.5c-18.55,30.58-209.18,2-236.94,21.57-19.9,14,36.89,28.71,12.15,48.3-11.51,9.14-38.2,14.44-91.11,24.66C2256.09,723,2207.14,731.53,2143.67,739.19Z"/><path id="Контур_489" data-name="Контур 489" class="cls-6" d="M1817.05,2498.18c-11.36-15.52-15.52-18.3-22.12-29.21a51.06,51.06,0,0,1-3.57-6.69,116,116,0,0,0-14.94-33.14c-4.14-6.87-8-12.66-11.64-17.65-7.92-11-14.08-17.75-18.28-23.35A82.49,82.49,0,0,1,1738,2374a116.15,116.15,0,0,0-14.94-33.15l-12.28-6.42a36.77,36.77,0,0,1,5.17,11.49,109.77,109.77,0,0,0,13.35,28.35,352,352,0,0,0,29.92,41,81.43,81.43,0,0,1,8.55,14.12,116.22,116.22,0,0,0,14.94,33.14,307.74,307.74,0,0,0,28.1,38.64c.42-.59,6.84,3.54,6.84,3.54s-2.35-6.43-.55-6.55Z"/><g id="Сгруппировать_162" data-name="Сгруппировать 162"><ellipse id="Эллипс_174" data-name="Эллипс 174" class="cls-10" cx="1782.45" cy="2250.49" rx="36.8" ry="36.77"/><ellipse id="Эллипс_175" data-name="Эллипс 175" class="cls-10" cx="1861.07" cy="2344.1" rx="9.64" ry="9.63"/><ellipse id="Эллипс_176" data-name="Эллипс 176" class="cls-10" cx="1848.81" cy="2301.14" rx="23.08" ry="23.06"/><ellipse id="Эллипс_177" data-name="Эллипс 177" class="cls-10" cx="1854.6" cy="2229.72" rx="20.79" ry="20.77"/></g><g id="Сгруппировать_163" data-name="Сгруппировать 163"><ellipse id="Эллипс_178" data-name="Эллипс 178" class="cls-10" cx="1140.91" cy="2213.52" rx="34.59" ry="36.77"/><ellipse id="Эллипс_179" data-name="Эллипс 179" class="cls-10" cx="1067.02" cy="2307.13" rx="9.06" ry="9.63"/><ellipse id="Эллипс_180" data-name="Эллипс 180" class="cls-10" cx="1078.55" cy="2264.17" rx="21.69" ry="23.06"/><ellipse id="Эллипс_181" data-name="Эллипс 181" class="cls-10" cx="1073.11" cy="2192.76" rx="19.54" ry="20.77"/></g><g id="Сгруппировать_164" data-name="Сгруппировать 164"><ellipse id="Эллипс_182" data-name="Эллипс 182" class="cls-10" cx="1415.06" cy="2013.52" rx="36.8" ry="36.77"/><ellipse id="Эллипс_183" data-name="Эллипс 183" class="cls-10" cx="1493.68" cy="2107.13" rx="9.64" ry="9.63"/><ellipse id="Эллипс_184" data-name="Эллипс 184" class="cls-10" cx="1481.42" cy="2064.17" rx="23.08" ry="23.06"/><ellipse id="Эллипс_185" data-name="Эллипс 185" class="cls-10" cx="1487.21" cy="1992.76" rx="20.79" ry="20.77"/></g></g></svg>