<svg id="Layer_1" data-name="Layer 1" xmlns="http://www.w3.org/2000/svg" viewBox="0 0 2621.59 2565.16"><defs><style>.cls-1{fill:#92bcbf;}.cls-2{fill:#e4d95e;}.cls-3{fill:#e9e081;}.cls-4{fill:#835332;}.cls-5{fill:#5c895a;}.cls-6{fill:#8b9a6c;}.cls-7{fill:#9baf78;}.cls-8{fill:#272727;}.cls-9{fill:#21342f;}</style></defs><g id="Сгруппировать_358" data-name="Сгруппировать 358"><path id="Прямоугольник_6" data-name="Прямоугольник 6" class="cls-1" d="M74.92,380.64H2546.67a74.86,74.86,0,0,1,74.92,74.8V2490.35a74.86,74.86,0,0,1-74.92,74.81H74.92A74.86,74.86,0,0,1,0,2490.35V455.44A74.86,74.86,0,0,1,74.92,380.64Z"/><g id="Сгруппировать_357" data-name="Сгруппировать 357"><g id="Сгруппировать_146" data-name="Сгруппировать 146"><path id="Контур_405" data-name="Контур 405" class="cls-2" d="M1310.8,89.12l-1164.62,292H2475.4Z"/><path id="Контур_406" data-name="Контур 406" class="cls-3" d="M1310.8,89.12l-854.42,292H2165.21Z"/><path id="Контур_407" data-name="Контур 407" class="cls-2" d="M1310.79,89.12l-580.56,292H1891.35Z"/><path id="Контур_408" data-name="Контур 408" class="cls-3" d="M1310.79,89.12,931,381.14h759.59Z"/><path id="Контур_409" data-name="Контур 409" class="cls-2" d="M1310.79,89.12l-220.74,292h441.48Z"/><path id="Контур_410" data-name="Контур 410" class="cls-3" d="M1310.8,89.12l-68.58,292h137.15Z"/><ellipse id="Эллипс_166" data-name="Эллипс 166" class="cls-2" cx="1310.79" cy="56.52" rx="57.69" ry="56.52"/></g><path id="Контур_411" data-name="Контур 411" class="cls-4" d="M2488.37,2565.16H116.15V2519c0-45.52,88.34-82.4,197.26-82.4H2291.14c108.93,0,197.24,36.89,197.24,82.4Z"/><g id="Сгруппировать_147" data-name="Сгруппировать 147"><path id="Контур_412" data-name="Контур 412" class="cls-5" d="M336.6,2461.83A43.29,43.29,0,0,0,322.22,2409c-6-3.95-13-6.27-18.73-10.7a32.69,32.69,0,0,1-12.16-28.1c1.44-17.13,16.13-32.52,12.53-49.28-3-13.85-16.91-21.55-27-31.26-17.2-16.55-22-38.66-18.15-61.55a48.75,48.75,0,0,0-7.71-35.23s10.82,5.45,14,7.74c12.15,8.82,25,18.29,31.14,32.67,2.46,5.79,3.77,12,5.94,17.93a40.94,40.94,0,0,0,17.4,21.11,108.27,108.27,0,0,0,20.44,7.82,38.67,38.67,0,0,1,24.79,47.22c-4.7,16.45-19.5,30.59-17.23,47.52,1.1,8.23,6.18,15.23,9.41,22.84a53.48,53.48,0,0,1-20.26,64.13Z"/><path id="Контур_413" data-name="Контур 413" class="cls-5" d="M399.31,2450a116.86,116.86,0,0,1-29.68-40.28c-6.26-15.21-8.81-35.76-2-51.42,8.58-19.78,18.47-47,4.25-67-8.13-11.42-17.35-19.47-23.13-33.31-13.26-31.69-.83-56.27,12.72-83.34,7.56-15.11,10.86-36.91,5.12-53.65a56.27,56.27,0,0,1,.47-41.28c12.87-31.64,42.78-46.67,69.44-52.68-2.62,4-9.57,17-10,18a80.72,80.72,0,0,0-6.36,21.28c-3.33,24.41-.37,43.35,14.22,61a62.13,62.13,0,0,1,13.11,48.59c-2.71,17.72-14.66,26-20,41.24-10.06,28.6,16.71,53,17.17,80.82.45,26.65-16.48,49.29-29.63,68.38-14.66,21.28-21,56.63-15.72,83.68Z"/><path id="Контур_414" data-name="Контур 414" class="cls-5" d="M509.3,2146.12c8.7,20.93,2.32,48.05-14.09,59.8-6,4.3-13,6.67-18.73,11.52a38.28,38.28,0,0,0-12,31.64c1.56,19.59,16.4,37.72,12.89,56.72-2.9,15.72-16.84,24-26.9,34.68-17.16,18.25-21.83,43.32-17.82,69.6a60.51,60.51,0,0,1-7.5,39.94,161.12,161.12,0,0,0,14-8.33c12.14-9.61,25-19.94,31-36.14,2.43-6.54,3.7-13.58,5.84-20.25a43.29,43.29,0,0,1,17.33-23.45,96,96,0,0,1,20.46-8.17c18.85-7,30.66-29.11,24.57-53-4.83-19-19.76-35.65-17.58-54.91,1-9.35,6.1-17.15,9.29-25.72a67.83,67.83,0,0,0-20.72-74Z"/></g><g id="Сгруппировать_148" data-name="Сгруппировать 148"><path id="Контур_415" data-name="Контур 415" class="cls-5" d="M877.44,2455.92c-11.39-25.35-2.73-59,19.09-74.25,8-5.57,17.3-8.81,24.86-15a47.24,47.24,0,0,0,16.16-39.48c-1.92-24.07-21.41-45.7-16.64-69.25,4-19.45,22.45-30.28,35.85-43.93,22.82-23.24,29.19-54.32,24.08-86.47A71.8,71.8,0,0,1,991.06,2078s-14.35,7.68-18.53,10.89c-16.12,12.41-33.23,25.7-41.32,45.92-3.26,8.16-5,16.89-7.88,25.2a56.91,56.91,0,0,1-23.1,29.66c-8.38,5.4-18,7.51-27.12,11A55,55,0,0,0,840.22,2267c6.24,23.12,25.87,43,22.85,66.78-1.45,11.59-8.18,21.4-12.48,32.09a77.64,77.64,0,0,0,26.89,90.1Z"/><path id="Контур_416" data-name="Контур 416" class="cls-5" d="M794.25,2439.34a163.85,163.85,0,0,0,39.36-56.61c8.32-21.39,11.69-50.24,2.67-72.25-11.39-27.8-24.5-66.09-5.65-94.13,10.78-16,23-27.35,30.7-46.8,17.58-44.54,1.1-79-16.88-117.09-10-21.24-14.42-51.85-6.79-75.4a83.48,83.48,0,0,0-.63-58c-17.09-44.48-56.77-65.58-92.14-74,3.47,5.62,12.7,23.88,13.26,25.21a118.67,118.67,0,0,1,8.43,29.9c4.43,34.32.5,60.91-18.86,85.72a91.06,91.06,0,0,0-17.41,68.26c3.58,24.9,19.44,36.56,26.54,57.93,13.36,40.19-22.16,74.51-22.79,113.58-.59,37.45,21.88,69.25,39.32,96.07,19.45,29.91,27.86,79.59,20.86,117.6Z"/><path id="Контур_417" data-name="Контур 417" class="cls-5" d="M648.31,2012.29c-11.58,29.41-3.09,67.52,18.71,84,8,6,17.3,9.38,24.86,16.18a55.57,55.57,0,0,1,16,44.46c-2.07,27.55-21.75,53-17.1,79.71,3.84,22.07,22.33,33.69,35.7,48.75,22.75,25.65,29,60.86,23.64,97.79a89.27,89.27,0,0,0,9.95,56.13,210.6,210.6,0,0,1-18.52-11.7c-16.11-13.52-33.19-28-41.19-50.78-3.22-9.2-4.91-19.1-7.74-28.46a60.69,60.69,0,0,0-23-33c-8.39-5.83-18-7.86-27.15-11.47-25-9.88-40.68-40.9-32.6-74.48,6.4-26.64,26.21-50.09,23.33-77.15-1.4-13.14-8.09-24.1-12.34-36.14-12.7-36,0-81.33,27.51-103.93Z"/></g><g id="Сгруппировать_149" data-name="Сгруппировать 149"><path id="Контур_418" data-name="Контур 418" class="cls-5" d="M2035.12,2455.91c11.26-25.36,2.7-59-18.88-74.26-7.87-5.57-17.1-8.82-24.58-15a47.53,47.53,0,0,1-16-39.49c1.9-24.07,21.17-45.7,16.45-69.24-3.9-19.47-22.19-30.28-35.44-43.93-22.57-23.25-28.87-54.32-23.82-86.49a72.42,72.42,0,0,0-10.1-49.51s14.18,7.67,18.32,10.88c15.94,12.41,32.85,25.69,40.86,45.93,3.22,8.16,4.94,16.9,7.79,25.2a56.85,56.85,0,0,0,22.84,29.66c8.29,5.4,17.82,7.52,26.82,11A55.18,55.18,0,0,1,2072,2267c-6.17,23.12-25.58,43-22.6,66.78,1.45,11.56,8.1,21.4,12.34,32.08a78.16,78.16,0,0,1-26.57,90.11Z"/><path id="Контур_419" data-name="Контур 419" class="cls-5" d="M2117.38,2439.32a164,164,0,0,1-39-56.6c-8.22-21.38-11.55-50.25-2.63-72.26,11.27-27.79,24.22-66.08,5.58-94.12-10.67-16.05-22.76-27.36-30.35-46.8-17.4-44.55-1.09-79.05,16.68-117.12,9.95-21.23,14.27-51.86,6.72-75.39a84.34,84.34,0,0,1,.63-58c16.89-44.49,56.13-65.59,91.11-74-3.43,5.63-12.56,23.88-13.1,25.2a119.61,119.61,0,0,0-8.33,29.91c-4.38,34.32-.5,60.91,18.64,85.73a91.73,91.73,0,0,1,17.19,68.27c-3.53,24.88-19.21,36.55-26.24,57.92-13.2,40.19,21.91,74.52,22.53,113.59.58,37.45-21.63,69.25-38.88,96.08-19.23,29.91-27.55,79.58-20.62,117.59Z"/><path id="Контур_420" data-name="Контур 420" class="cls-5" d="M2261.71,2012.27c11.44,29.41,3.05,67.52-18.5,84-7.88,6-17.11,9.39-24.57,16.2-10.9,9.95-17,27.27-15.77,44.45,2,27.55,21.51,53,16.91,79.72-3.8,22-22.08,33.68-35.29,48.73-22.5,25.65-28.64,60.87-23.39,97.8a90.07,90.07,0,0,1-9.86,56.11,211.09,211.09,0,0,0,18.32-11.69c15.92-13.52,32.81-28,40.72-50.79,3.19-9.19,4.86-19.08,7.66-28.45a60.67,60.67,0,0,1,22.74-33c8.29-5.84,17.82-7.87,26.85-11.48,24.74-9.89,40.22-40.9,32.24-74.47-6.33-26.64-25.92-50.09-23.07-77.15,1.38-13.15,8-24.1,12.2-36.14,12.56-36,0-81.32-27.2-103.93Z"/></g><g id="Сгруппировать_150" data-name="Сгруппировать 150"><path id="Контур_421" data-name="Контур 421" class="cls-6" d="M633.8,1170.12c-7.37-17.07-30.27-26-51.15-20l-57.27,11.53,33.69,37.82,77.48-23Z"/><path id="Контур_422" data-name="Контур 422" class="cls-7" d="M559.06,1291.82l-33.68,37.81,57.26,11.52c20.88,6,43.78-2.9,51.16-20l2.75-6.36Z"/><path id="Контур_423" data-name="Контур 423" class="cls-7" d="M637.92,1168.18c-64.11,0-140.69,44.81-161.28,68v19c20.6,23.17,97.18,68,161.28,68,74.82,0,118.6-77.46,118.6-77.46S712.74,1168.18,637.92,1168.18Z"/><path id="Контур_424" data-name="Контур 424" class="cls-6" d="M756.52,1245.65s-30.43-53.83-83.89-71.75a109.57,109.57,0,0,0,0,143.48C726.09,1299.47,756.52,1245.65,756.52,1245.65Z"/><ellipse id="Эллипс_167" data-name="Эллипс 167" class="cls-8" cx="694.53" cy="1226.1" rx="9.71" ry="8.53"/><path id="Контур_425" data-name="Контур 425" class="cls-6" d="M437.07,1245.64h-6c-12.36,0-22.38-5.91-22.38-13.2l-9-31h15.74c34.81,0,63.05,16.64,63.05,37.16v14c0,20.53-28.23,37.17-63.05,37.17H399.71l9-31c0-7.29,10-13.19,22.38-13.19"/></g><g id="Сгруппировать_151" data-name="Сгруппировать 151"><path id="Контур_426" data-name="Контур 426" class="cls-6" d="M1781.29,1592.16c7.38-17.06,30.28-26,51.16-20l57.26,11.52L1856,1621.52l-77.48-23Z"/><path id="Контур_427" data-name="Контур 427" class="cls-7" d="M1856,1713.87l33.68,37.8-57.27,11.53c-20.87,6-43.78-2.92-51.15-20l-2.76-6.38Z"/><path id="Контур_428" data-name="Контур 428" class="cls-7" d="M1777.17,1590.22c64.12,0,140.7,44.8,161.29,68v19c-20.59,23.17-97.17,68-161.29,68-74.81,0-118.58-77.47-118.58-77.47S1702.35,1590.22,1777.17,1590.22Z"/><path id="Контур_429" data-name="Контур 429" class="cls-6" d="M1658.59,1667.69s30.42-53.83,83.89-71.74a109.57,109.57,0,0,1,0,143.48C1689,1721.52,1658.59,1667.69,1658.59,1667.69Z"/><ellipse id="Эллипс_168" data-name="Эллипс 168" class="cls-8" cx="1720.57" cy="1648.15" rx="9.71" ry="8.53"/><path id="Контур_430" data-name="Контур 430" class="cls-6" d="M1978.05,1667.69h6c12.37,0,22.37-5.91,22.37-13.2l9-31h-15.74c-34.81,0-63.05,16.64-63.05,37.17v14c0,20.53,28.22,37.17,63.05,37.17h15.74l-9-31c0-7.29-10-13.2-22.37-13.2"/></g><g id="Сгруппировать_152" data-name="Сгруппировать 152"><path id="Контур_431" data-name="Контур 431" class="cls-6" d="M1625,817.59c-11-25.46-45.16-38.81-76.33-29.82L1463.19,805l50.25,56.42,115.6-34.3Z"/><path id="Контур_432" data-name="Контур 432" class="cls-7" d="M1513.44,999.15l-50.25,56.42,85.43,17.2c31.15,9,65.32-4.36,76.33-29.82l4.11-9.51Z"/><path id="Контур_433" data-name="Контур 433" class="cls-7" d="M1631.1,814.7c-95.66,0-209.91,66.86-240.64,101.41v28.31c30.73,34.56,145,101.42,240.64,101.42,111.62,0,176.93-115.57,176.93-115.57S1742.73,814.7,1631.1,814.7Z"/><path id="Контур_434" data-name="Контур 434" class="cls-6" d="M1808,930.26s-45.41-80.3-125.17-107a163.48,163.48,0,0,0,0,214.06C1762.62,1010.58,1808,930.26,1808,930.26Z"/><ellipse id="Эллипс_169" data-name="Эллипс 169" class="cls-8" cx="1715.55" cy="901.12" rx="14.49" ry="12.72"/><path id="Контур_435" data-name="Контур 435" class="cls-6" d="M1331.4,930.27h-9c-18.45,0-33.4-8.82-33.4-19.69l-13.39-46.19h23.49c51.95,0,94.06,24.83,94.06,55.44v20.85c0,30.62-42.11,55.44-94.06,55.44h-23.49l13.39-46.19c0-10.87,15-19.69,33.4-19.69"/></g><g id="Сгруппировать_153" data-name="Сгруппировать 153"><path id="Контур_436" data-name="Контур 436" class="cls-9" d="M1371.6,2430.58a485.08,485.08,0,0,0,2.32-83c-2.07-35.65-6.52-50-9.75-60.51a80.26,80.26,0,0,1-4.37-24.46,175.63,175.63,0,0,1,1.06-32,459.67,459.67,0,0,0,1.75-76.57l-12.69,17.71a174.74,174.74,0,0,1-1.06,32,461.11,461.11,0,0,0-1.75,76.6c2.07,35.64,6.52,50,9.76,60.5a80.55,80.55,0,0,1,4.36,24.45c1.31,22.45-2.07,31.68-3.32,63.42,1.87-1.21,5.85,13.2,5.85,13.2s5.23-13.8,7.82-11.38Z"/><path id="Контур_437" data-name="Контур 437" class="cls-9" d="M1348.4,2384.84c-.68-6.73-1.58-13.92-2.75-21.67-5.1-33.8-10.68-46.34-14.74-55.5a66.65,66.65,0,0,1-6.37-22.31,167.7,167.7,0,0,1-1.73-31.26,440,440,0,0,0-4.88-74.57c-5.1-33.79-10.67-46.34-14.75-55.47a67.23,67.23,0,0,1-6.36-22.32,166.9,166.9,0,0,1-1.72-31.27,442,442,0,0,0-4.89-74.57l-10.88,21a167.86,167.86,0,0,1,1.72,31.28,441.62,441.62,0,0,0,4.88,74.54c5.11,33.82,10.68,46.34,14.75,55.5a67.08,67.08,0,0,1,6.37,22.29,168,168,0,0,1,1.72,31.29,441.51,441.51,0,0,0,4.88,74.53c5.1,33.84,10.68,46.37,14.75,55.52a66.87,66.87,0,0,1,6.37,22.32,168.24,168.24,0,0,1,1.72,31.24,470.11,470.11,0,0,0,1.71,48.35,93.83,93.83,0,0,1,6.18-32.84s1.8-39,4-46.11Z"/><path id="Контур_438" data-name="Контур 438" class="cls-9" d="M1490,1850.94c-2.39,24-6.69,20.29-12.4,47a417.43,417.43,0,0,0-7.26,72.87c-.37,24.8,1.47,41.15,1.55,53.9a145.28,145.28,0,0,1-3,30.42c-2.19,8.51-6.31,14.79-10.21,33a418.17,418.17,0,0,0-7.26,72.85c-.36,24.83,1.47,41.13,1.56,53.88a145.53,145.53,0,0,1-3,30.44c-2.18,8.51-6.31,14.78-10.21,33a418,418,0,0,0-7.25,72.84c-.3,20,.86,34.91,1.35,46.52,2.23,5.55,5.53,40.37,5.53,40.37s4.34-6.24,5.89,2.49c4.35-45.47.65-73,.53-90.75a149.9,149.9,0,0,1,.82-16.41,92,92,0,0,1,2.19-14,85.87,85.87,0,0,1,3.11-9.25,146.3,146.3,0,0,0,7.1-23.8,312.06,312.06,0,0,0,5-34c1.48-14.77,2.11-27.6,2.27-38.84.37-24.74-1.47-41.16-1.56-53.89a145.29,145.29,0,0,1,3-30.42c2.18-8.52,6.31-14.79,10.21-33a418.06,418.06,0,0,0,7.25-72.85c.37-24.8-1.46-41.14-1.54-53.9a146,146,0,0,1,3-30.43c3.19-12.42,10.53-20.12,15.2-67-4.14-7.37-7.72-13.69-11.87-21.06Z"/><path id="Контур_439" data-name="Контур 439" class="cls-9" d="M1421.49,2423.46c-.83-36.37-4.38-44.68-2.75-69.06a102,102,0,0,1,1.77-14.58c2.81-12.93,9.91-21.11,13.17-69.82,1-15.31,1.27-28.62,1.1-40.26-.38-25.68-2.7-42.52-3.18-55.73a156.69,156.69,0,0,1,2.12-31.57c2.81-12.93,9.91-21.14,13.17-69.84-4.38-7.48-8.13-13.92-12.51-21.41a75.08,75.08,0,0,1-4.59,24.22c-5.18,15.6-8.35,30.36-10.36,60.2-3.26,48.74,1.4,77.18,2.07,96a156.11,156.11,0,0,1-2.11,31.58c-2.81,12.93-9.91,21.1-13.17,69.84a562.55,562.55,0,0,0,1.79,90.39c1.36-.68,7,11.86,7,11.86s3.44-13.1,6.46-11.78Z"/><path id="Контур_440" data-name="Контур 440" class="cls-9" d="M1391.51,1717.71c-.29,29.36-4.86,26.48-8.21,60.34a625.86,625.86,0,0,0-.89,89.27c1.78,29.64,5,48.45,6.21,63.59a217.9,217.9,0,0,1-.38,37.28c-1.42,10.89-5,19.81-7.25,42.91a625.58,625.58,0,0,0-.89,89.25c1.78,29.65,5,48.43,6.19,63.57a218,218,0,0,1-.37,37.29c-1.43,10.91-5,19.82-7.25,42.9a626.9,626.9,0,0,0-.9,89.24c1.44,23.87,3.88,41.25,5.37,54.88,2.68,5.84,9,46.11,9,46.11s3.77-9,6.05.88c.38-55.64-5.66-87-7.32-108.18-.47-6-.67-11.78-.58-19.81a143.13,143.13,0,0,1,1-17.44c.53-4,1.27-7.45,2.29-12.09a241.39,241.39,0,0,0,5-30.83c1-10.59,1.83-24.15,2-42.23s-.3-33.59-1.11-47c-1.77-29.57-5-48.46-6.21-63.59a216.66,216.66,0,0,1,.38-37.26c1.42-10.91,5-19.82,7.25-42.9a625.58,625.58,0,0,0,.89-89.25c-1.78-29.65-5-48.45-6.19-63.6a218.14,218.14,0,0,1,.37-37.3c2.07-15.89,8.7-27.63,9.26-85.12l-13.58-20.88Z"/><path id="Контур_441" data-name="Контур 441" class="cls-9" d="M1467.13,2425.81c6-40.26,10.17-49.08,12.35-76.32a144.25,144.25,0,0,0,.65-16.37c-.46-14.66-5.2-24.52-.83-78.9,1.38-17.12,3.12-31.89,5-44.8,4-28.44,8.46-46.88,10.78-61.48a231.13,231.13,0,0,0,2.83-35.25c-.46-14.66-5.2-24.54-.83-78.93,4.74-7.82,8.82-14.54,13.56-22.39a109.08,109.08,0,0,0,.31,27.38c2,17.87,2.54,34.59-.13,67.93-4.38,54.43-12.43,85.48-15.72,106.23a229,229,0,0,0-2.83,35.27c.46,14.66,5.2,24.51.82,78.92a833.92,833.92,0,0,1-14.67,100.09c-1-.9-7.58,12.42-7.58,12.42s-1-14.9-3.66-13.78Z"/></g><g id="Сгруппировать_154" data-name="Сгруппировать 154"><path id="Контур_442" data-name="Контур 442" class="cls-9" d="M1586.07,2432.78a296.21,296.21,0,0,1-1.42-50.62,135.4,135.4,0,0,1,5.95-36.9,49,49,0,0,0,2.67-14.92,107.23,107.23,0,0,0-.65-19.54,281.24,281.24,0,0,1-1.07-46.7l7.75,10.8a106.26,106.26,0,0,0,.64,19.53,280.37,280.37,0,0,1,1.06,46.72,135.54,135.54,0,0,1-6,36.91,49.26,49.26,0,0,0-2.66,14.92c-.8,13.69,1.25,19.32,2,38.68-1.14-.73-3.57,8.06-3.57,8.06s-3.19-8.42-4.77-6.94Z"/><path id="Контур_443" data-name="Контур 443" class="cls-9" d="M1600.22,2404.86c.41-4.09,1-8.49,1.68-13.21a113.88,113.88,0,0,1,9-33.85,41,41,0,0,0,3.89-13.61,102.32,102.32,0,0,0,1-19.08,270.38,270.38,0,0,1,3-45.48,114.19,114.19,0,0,1,9-33.85,41,41,0,0,0,3.89-13.6,102.32,102.32,0,0,0,1-19.08,269.69,269.69,0,0,1,3-45.51l6.63,12.83a101.48,101.48,0,0,0-1,19.08,270.13,270.13,0,0,1-3,45.46,114.41,114.41,0,0,1-9,33.87,40.84,40.84,0,0,0-3.88,13.59,101.64,101.64,0,0,0-1,19.09,270.32,270.32,0,0,1-3,45.47,114,114,0,0,1-9,33.86,40.88,40.88,0,0,0-3.88,13.61,101.32,101.32,0,0,0-1,19.06,290.51,290.51,0,0,1-1,29.5,57,57,0,0,0-3.77-20,267.77,267.77,0,0,0-2.45-28.13Z"/><path id="Контур_444" data-name="Контур 444" class="cls-9" d="M1513.85,2079.18c1.45,14.61,4.08,12.37,7.55,28.69a254.18,254.18,0,0,1,4.43,44.45c.23,15.13-.89,25.1-.95,32.88a89.62,89.62,0,0,0,1.85,18.56,187,187,0,0,1,6.22,20.16,255.9,255.9,0,0,1,4.43,44.44c.22,15.13-.9,25.09-1,32.87a89.59,89.59,0,0,0,1.85,18.55,187,187,0,0,1,6.22,20.16,255,255,0,0,1,4.43,44.44c.18,12.18-.53,21.3-.83,28.37a227.39,227.39,0,0,0-3.37,24.63s-2.65-3.8-3.6,1.52a369.32,369.32,0,0,1-.32-55.36,88.19,88.19,0,0,0-.51-10A56.1,56.1,0,0,0,1539,2365a53.21,53.21,0,0,0-1.9-5.63,89.32,89.32,0,0,1-4.33-14.51,188.8,188.8,0,0,1-3-20.76c-.91-9-1.29-16.84-1.39-23.7-.23-15.09.89-25.1,1-32.87a88.24,88.24,0,0,0-1.85-18.55,189.28,189.28,0,0,1-6.22-20.16,255.79,255.79,0,0,1-4.43-44.43c-.22-15.14.9-25.11,1-32.9a88.4,88.4,0,0,0-1.85-18.56c-1.94-7.57-6.42-12.27-9.27-40.89,2.53-4.5,4.71-8.36,7.24-12.83Z"/><path id="Контур_445" data-name="Контур 445" class="cls-9" d="M1555.63,2428.43c.5-22.19,2.67-27.26,1.68-42.14a60.62,60.62,0,0,0-1.08-8.89c-1.72-7.89-6-12.88-8-42.61-.63-9.34-.77-17.46-.67-24.56.23-15.67,1.66-25.94,1.94-34a95.61,95.61,0,0,0-1.29-19.26c-1.71-7.88-6-12.88-8-42.61,2.67-4.55,5-8.48,7.63-13.06a46,46,0,0,0,2.8,14.78,133.17,133.17,0,0,1,6.31,36.72,386.54,386.54,0,0,1-1.26,58.54,94.12,94.12,0,0,0,1.29,19.26c1.71,7.89,6,12.88,8,42.62a344.07,344.07,0,0,1-1.1,55.13c-.83-.41-4.27,7.24-4.27,7.24s-2.1-8-3.94-7.18Z"/><path id="Контур_446" data-name="Контур 446" class="cls-9" d="M1573.91,1997.91c.19,17.91,3,16.16,5,36.82a383.69,383.69,0,0,1,.54,54.46c-1.08,18.08-3.06,29.56-3.78,38.8a133,133,0,0,0,.23,22.75c.87,6.64,3,12.09,4.43,26.18a383.4,383.4,0,0,1,.54,54.44c-1.09,18.08-3.06,29.54-3.78,38.78a133.08,133.08,0,0,0,.22,22.76c.88,6.65,3,12.09,4.43,26.17a381.93,381.93,0,0,1,.55,54.44c-.88,14.56-2.36,25.17-3.27,33.48-1.66,3.56-5.47,28.13-5.47,28.13s-2.3-5.46-3.69.53a518.27,518.27,0,0,1,4.46-66c.29-3.65.41-7.19.36-12.08a88.06,88.06,0,0,0-.58-10.65c-.32-2.44-.78-4.55-1.39-7.37a146,146,0,0,1-3-18.8c-.64-6.47-1.11-14.75-1.23-25.77s.19-20.49.68-28.69c1.08-18,3.06-29.56,3.78-38.79a132.6,132.6,0,0,0-.23-22.72c-.87-6.66-3-12.11-4.43-26.18a382.08,382.08,0,0,1-.53-54.45c1.08-18.08,3-29.56,3.77-38.8a134.11,134.11,0,0,0-.22-22.76c-1.28-9.68-5.3-16.85-5.66-51.93l8.29-12.73Z"/><path id="Контур_447" data-name="Контур 447" class="cls-9" d="M1527.79,2429.86c-3.65-24.56-6.22-29.94-7.54-46.56a87.73,87.73,0,0,1-.39-10,207.81,207.81,0,0,0,.5-48.14c-.83-10.43-1.9-19.45-3-27.31-2.48-17.34-5.15-28.6-6.57-37.5a140.85,140.85,0,0,1-1.73-21.51,207.9,207.9,0,0,0,.5-48.15c-2.9-4.77-5.38-8.87-8.28-13.65a66.2,66.2,0,0,1-.19,16.7,194.69,194.69,0,0,0,.08,41.45,578.59,578.59,0,0,0,9.59,64.81,139.59,139.59,0,0,1,1.73,21.51,207.9,207.9,0,0,0-.5,48.15,511.37,511.37,0,0,0,9,61.06c.63-.54,4.62,7.56,4.62,7.56s.58-9.11,2.24-8.4Z"/></g></g></g></svg>