<svg id="Layer_1" data-name="Layer 1" xmlns="http://www.w3.org/2000/svg" xmlns:xlink="http://www.w3.org/1999/xlink" viewBox="0 0 2621.59 2319.29"><defs><style>.cls-1{fill:#92bcbf;}.cls-2{fill:#835332;}.cls-3,.cls-8{fill:#5c895a;}.cls-4{fill:#8b9a6c;}.cls-5{fill:#9baf78;}.cls-6{fill:#272727;}.cls-7{fill:#21342f;}.cls-8{opacity:0.5;isolation:isolate;}.cls-9{fill:url(#linear-gradient);}.cls-10{fill:#a3a2a1;}.cls-11{fill:#3a3e3a;}.cls-12{fill:#563419;}</style><linearGradient id="linear-gradient" x1="6007.07" y1="-2786.11" x2="6010.48" y2="-2786.11" gradientTransform="matrix(81.05, 0, 0, -16.18, -388320.47, -44682.31)" gradientUnits="userSpaceOnUse"><stop offset="0.39" stop-color="#5c895a"/><stop offset="1" stop-color="#8fbbc5"/></linearGradient></defs><g id="Сгруппировать_145" data-name="Сгруппировать 145"><g id="Сгруппировать_140" data-name="Сгруппировать 140"><rect id="Прямоугольник_1" data-name="Прямоугольник 1" class="cls-1" x="204.63" y="515.72" width="2176.34" height="1803.57" rx="61.65"/><path id="Контур_356" data-name="Контур 356" class="cls-2" d="M2284.74,2319.29H300.86v-37.23c0-36.69,73.88-66.44,165-66.44h1654c91.1,0,164.94,29.75,164.94,66.44Z"/><g id="Сгруппировать_132" data-name="Сгруппировать 132"><path id="Контур_357" data-name="Контур 357" class="cls-3" d="M483.51,2236a34.31,34.31,0,0,0-11.94-42.6c-5-3.2-10.8-5.06-15.52-8.62A26.13,26.13,0,0,1,446,2162.11c1.2-13.81,13.37-26.22,10.39-39.73-2.47-11.16-14-17.37-22.38-25.2-14.25-13.33-18.24-31.16-15-49.62a38.43,38.43,0,0,0-6.39-28.4s9,4.4,11.58,6.24c10.06,7.11,20.75,14.75,25.8,26.34,2,4.68,3.11,9.7,4.91,14.46a33.25,33.25,0,0,0,14.43,17,91.19,91.19,0,0,0,16.93,6.31,31,31,0,0,1,20.55,38.06c-3.91,13.26-16.16,24.67-14.28,38.31.91,6.64,5.12,12.28,7.8,18.42,8,18.33.29,40.87-16.79,51.69Z"/><path id="Контур_358" data-name="Контур 358" class="cls-3" d="M535.45,2226.48A94.71,94.71,0,0,1,510.86,2194c-5.18-12.28-7.29-28.82-1.66-41.46,7.12-15.94,15.3-37.91,3.53-54-6.74-9.21-14.37-15.69-19.17-26.86-11-25.54-.68-45.34,10.54-67.19,6.27-12.18,9-29.74,4.25-43.25a44.21,44.21,0,0,1,.38-33.26c10.67-25.52,35.45-37.63,57.54-42.47-2.17,3.23-7.93,13.69-8.27,14.45a64.23,64.23,0,0,0-5.26,17.16c-2.76,19.69-.31,34.95,11.78,49.18a49.13,49.13,0,0,1,10.85,39.17c-2.22,14.28-12.13,21-16.57,33.24-8.34,23.06,13.84,42.75,14.23,65.17.37,21.48-13.64,39.72-24.56,55.11-12.14,17.16-17.39,45.66-13,67.47Z"/><path id="Контур_359" data-name="Контур 359" class="cls-3" d="M626.59,1981.47c7.23,16.88,1.93,38.75-11.69,48.21-5,3.47-10.8,5.39-15.51,9.29a30.45,30.45,0,0,0-10,25.51c1.29,15.8,13.59,30.41,10.68,45.73-2.39,12.66-14,19.33-22.29,28-14.21,14.71-18.07,34.92-14.76,56.1a47.68,47.68,0,0,1-6.22,32.21s9-4.71,11.57-6.71c10.05-7.76,20.72-16.09,25.71-29.14,2-5.28,3.07-11,4.84-16.34a35,35,0,0,1,14.36-18.89,81.33,81.33,0,0,1,17-6.59c15.62-5.66,25.4-23.46,20.35-42.71-4-15.29-16.37-28.75-14.56-44.26.87-7.55,5-13.83,7.7-20.74a53.79,53.79,0,0,0-17.18-59.63Z"/></g><g id="Сгруппировать_133" data-name="Сгруппировать 133"><path id="Контур_360" data-name="Контур 360" class="cls-3" d="M936.63,2231.23c-9.43-20.47-2.26-47.6,15.82-59.87,6.61-4.48,14.32-7.1,20.59-12.12a37.61,37.61,0,0,0,13.37-31.83c-1.6-19.41-17.74-36.84-13.79-55.83,3.27-15.69,18.6-24.41,29.69-35.41,18.91-18.74,24.19-43.79,20-69.73a56.57,56.57,0,0,1,8.47-39.91s-11.89,6.19-15.35,8.77c-13.36,10-27.53,20.72-34.24,37-2.7,6.57-4.14,13.61-6.52,20.3a46.13,46.13,0,0,1-19.14,23.92c-7,4.35-14.92,6.06-22.47,8.87a44.08,44.08,0,0,0-27.26,53.48c5.18,18.64,21.44,34.65,18.94,53.84-1.21,9.32-6.78,17.25-10.34,25.87a61.62,61.62,0,0,0,22.27,72.63Z"/><path id="Контур_361" data-name="Контур 361" class="cls-3" d="M867.71,2217.86a132.23,132.23,0,0,0,32.62-45.63c6.89-17.24,9.68-40.5,2.21-58.25-9.44-22.41-20.3-53.27-4.68-75.87,8.94-12.94,19.07-22.06,25.43-37.74,14.57-35.9.92-63.72-14-94.41-8.31-17.12-11.94-41.8-5.63-60.78a65.56,65.56,0,0,0-.52-46.75c-14.15-35.85-47-52.87-76.33-59.67,2.87,4.54,10.52,19.25,11,20.32a93.78,93.78,0,0,1,7,24.11c3.67,27.66.41,49.09-15.63,69.1a72,72,0,0,0-14.41,55c3,20.07,16.11,29.47,22,46.71,11.07,32.4-18.36,60.07-18.87,91.57-.49,30.19,18.12,55.83,32.57,77.46,16.12,24.11,23.09,64.15,17.28,94.79Z"/><path id="Контур_362" data-name="Контур 362" class="cls-3" d="M746.8,1873.59c-9.59,23.71-2.56,54.44,15.5,67.74,6.61,4.88,14.32,7.57,20.58,13.06a44.06,44.06,0,0,1,13.22,35.83c-1.71,22.21-18,42.74-14.18,64.26,3.19,17.79,18.51,27.16,29.58,39.3,18.85,20.67,24,49.07,19.59,78.84a70.29,70.29,0,0,0,8.26,45.25,175.79,175.79,0,0,1-15.35-9.43c-13.34-10.9-27.49-22.6-34.11-40.93-2.67-7.41-4.06-15.39-6.42-23A49,49,0,0,0,764.42,2118c-6.94-4.7-14.94-6.35-22.49-9.25-20.73-8-33.71-33-27-60,5.3-21.47,21.71-40.38,19.32-62.19-1.15-10.6-6.7-19.44-10.23-29.14-10.53-29,0-65.56,22.79-83.78Z"/></g><g id="Сгруппировать_134" data-name="Сгруппировать 134"><path id="Контур_363" data-name="Контур 363" class="cls-3" d="M1909.22,2231.22c9.33-20.46,2.24-47.61-15.64-59.87-6.54-4.49-14.17-7.11-20.36-12.12a37.8,37.8,0,0,1-13.22-31.84c1.58-19.4,17.55-36.83,13.65-55.82-3.24-15.69-18.39-24.41-29.37-35.41-18.7-18.74-23.92-43.8-19.73-69.73a57.13,57.13,0,0,0-8.38-39.91s11.76,6.18,15.18,8.77c13.21,10,27.22,20.72,33.86,37,2.67,6.57,4.09,13.62,6.44,20.31a46.06,46.06,0,0,0,18.93,23.91c6.87,4.35,14.75,6.06,22.23,8.87a44.19,44.19,0,0,1,26.94,53.48c-5.12,18.65-21.2,34.66-18.73,53.85,1.2,9.32,6.71,17.25,10.23,25.86a62,62,0,0,1-22,72.65Z"/><path id="Контур_364" data-name="Контур 364" class="cls-3" d="M1977.37,2217.85a132.32,132.32,0,0,1-32.25-45.64c-6.82-17.23-9.57-40.5-2.18-58.25,9.33-22.41,20.07-53.27,4.62-75.87-8.84-12.94-18.85-22.06-25.15-37.74-14.4-35.9-.9-63.72,13.83-94.4,8.22-17.13,11.81-41.81,5.57-60.79a66.21,66.21,0,0,1,.52-46.75c14-35.85,46.49-52.86,75.48-59.67-2.85,4.54-10.4,19.25-10.85,20.33a94.57,94.57,0,0,0-6.91,24.1c-3.62,27.67-.4,49.1,15.46,69.1a72.61,72.61,0,0,1,14.25,55c-2.94,20.07-15.93,29.47-21.75,46.7-10.94,32.4,18.16,60.07,18.67,91.57.48,30.19-17.92,55.83-32.21,77.45-15.94,24.13-22.83,64.17-17.09,94.81Z"/><path id="Контур_365" data-name="Контур 365" class="cls-3" d="M2096.94,1873.57c9.48,23.72,2.53,54.44-15.32,67.74-6.54,4.87-14.18,7.57-20.36,13.06a44.31,44.31,0,0,0-13.07,35.84c1.7,22.2,17.82,42.73,14,64.25-3.15,17.79-18.3,27.16-29.24,39.3-18.65,20.67-23.73,49.06-19.37,78.85a71,71,0,0,1-8.17,45.24,174.46,174.46,0,0,0,15.18-9.43c13.19-10.92,27.19-22.59,33.74-40.93,2.64-7.4,4-15.39,6.34-22.95a49,49,0,0,1,18.84-26.56c6.87-4.7,14.77-6.35,22.25-9.25,20.5-8,33.32-33,26.71-60-5.25-21.48-21.49-40.38-19.12-62.19,1.15-10.6,6.63-19.44,10.11-29.14,10.4-29,0-65.57-22.54-83.78Z"/></g><g id="Сгруппировать_135" data-name="Сгруппировать 135"><path id="Контур_366" data-name="Контур 366" class="cls-4" d="M733,1199.32c-6.11-13.76-25.09-21-42.38-16.11l-47.44,9.29L671.1,1223l64.2-18.54Z"/><path id="Контур_367" data-name="Контур 367" class="cls-5" d="M671.1,1297.43l-27.91,30.48,47.45,9.29c17.29,4.87,36.27-2.35,42.38-16.11l2.28-5.13Z"/><path id="Контур_368" data-name="Контур 368" class="cls-5" d="M736.43,1197.76c-53.11,0-116.56,36.12-133.62,54.8v15.29c17.05,18.68,80.49,54.8,133.62,54.8,62,0,98.25-62.45,98.25-62.45S798.42,1197.76,736.43,1197.76Z"/><path id="Контур_369" data-name="Контур 369" class="cls-4" d="M834.68,1260.2s-25.2-43.39-69.51-57.83a86.57,86.57,0,0,0,0,115.67C809.48,1303.6,834.68,1260.2,834.68,1260.2Z"/><ellipse id="Эллипс_153" data-name="Эллипс 153" class="cls-6" cx="783.33" cy="1244.46" rx="8.05" ry="6.88"/><path id="Контур_370" data-name="Контур 370" class="cls-4" d="M570,1260.2h-5c-10.24,0-18.55-4.78-18.55-10.64l-7.44-25H552.1c28.85,0,52.23,13.41,52.23,30v11.25c0,16.56-23.39,30-52.23,30H539.05l7.44-25c0-5.87,8.31-10.64,18.55-10.64"/></g><g id="Сгруппировать_136" data-name="Сгруппировать 136"><path id="Контур_371" data-name="Контур 371" class="cls-4" d="M1694,1538c6.12-13.76,25.09-21,42.39-16.11l47.44,9.29-27.9,30.48-64.21-18.53Z"/><path id="Контур_372" data-name="Контур 372" class="cls-5" d="M1756,1636.06l27.9,30.48-47.44,9.3c-17.3,4.86-36.27-2.36-42.39-16.11l-2.27-5.14Z"/><path id="Контур_373" data-name="Контур 373" class="cls-5" d="M1690.62,1536.38c53.12,0,116.57,36.12,133.63,54.8v15.3c-17,18.68-80.49,54.79-133.63,54.79-62,0-98.25-62.44-98.25-62.44S1628.63,1536.38,1690.62,1536.38Z"/><path id="Контур_374" data-name="Контур 374" class="cls-4" d="M1592.37,1598.83s25.21-43.39,69.51-57.83a86.53,86.53,0,0,1,0,115.66C1617.58,1642.23,1592.37,1598.83,1592.37,1598.83Z"/><ellipse id="Эллипс_154" data-name="Эллипс 154" class="cls-6" cx="1643.73" cy="1583.08" rx="8.05" ry="6.88"/><path id="Контур_375" data-name="Контур 375" class="cls-4" d="M1857.05,1598.83h5c10.23,0,18.54-4.78,18.54-10.65l7.44-25h-13c-28.85,0-52.24,13.42-52.24,30v11.25c0,16.55,23.39,30,52.24,30h13l-7.44-25c0-5.88-8.3-10.64-18.54-10.64"/></g><g id="Сгруппировать_137" data-name="Сгруппировать 137"><path id="Контур_376" data-name="Контур 376" class="cls-4" d="M1562.25,916.38c-9.12-20.52-37.43-31.28-63.23-24l-70.79,13.86,41.61,45.48L1565.63,924Z"/><path id="Контур_377" data-name="Контур 377" class="cls-5" d="M1469.86,1062.75l-41.61,45.47L1499,1122.1c25.8,7.24,54.11-3.52,63.22-24l3.42-7.66Z"/><path id="Контур_378" data-name="Контур 378" class="cls-5" d="M1567.34,914.05c-79.25,0-173.9,53.89-199.36,81.76v22.82c25.46,27.86,120.11,81.76,199.36,81.76,92.48,0,146.59-93.17,146.59-93.17S1659.82,914.05,1567.34,914.05Z"/><path id="Контур_379" data-name="Контур 379" class="cls-4" d="M1713.93,1007.22s-37.61-64.74-103.7-86.29a129.12,129.12,0,0,0,0,172.58C1676.32,1072,1713.93,1007.22,1713.93,1007.22Z"/><ellipse id="Эллипс_155" data-name="Эллипс 155" class="cls-6" cx="1637.31" cy="983.72" rx="12" ry="10.26"/><path id="Контур_380" data-name="Контур 380" class="cls-4" d="M1319.06,1007.22h-7.43c-15.28,0-27.66-7.11-27.66-15.88l-11.1-37.23h19.46c43,0,77.93,20,77.93,44.7v16.81c0,24.69-34.89,44.7-77.93,44.7h-19.46l11.1-37.22c0-8.77,12.38-15.88,27.66-15.88"/></g><g id="Сгруппировать_138" data-name="Сгруппировать 138"><path id="Контур_381" data-name="Контур 381" class="cls-7" d="M1351,2210.79a380.17,380.17,0,0,0,1.92-66.87c-1.72-28.73-5.4-40.31-8.08-48.77a63.18,63.18,0,0,1-3.61-19.72,137.46,137.46,0,0,1,.87-25.81,360.6,360.6,0,0,0,1.45-61.73L1333,2002.16a137.41,137.41,0,0,1-.88,25.81,361.73,361.73,0,0,0-1.45,61.74c1.73,28.73,5.41,40.32,8.09,48.77a63.4,63.4,0,0,1,3.61,19.71c1.09,18.08-1.7,25.54-2.72,51.12,1.54-1,4.85,10.66,4.85,10.66s4.33-11.13,6.48-9.21Z"/><path id="Контур_382" data-name="Контур 382" class="cls-7" d="M1331.73,2173.93c-.57-5.41-1.31-11.22-2.28-17.47-4.23-27.25-8.85-37.35-12.22-44.74a52.89,52.89,0,0,1-5.28-18,132,132,0,0,1-1.42-25.2,347.49,347.49,0,0,0-4-60.11c-4.23-27.26-8.85-37.36-12.22-44.73a53,53,0,0,1-5.27-18,130.35,130.35,0,0,1-1.43-25.2,346.74,346.74,0,0,0-4-60.13l-9,17a130.49,130.49,0,0,1,1.43,25.21,345.3,345.3,0,0,0,4,60.09c4.22,27.27,8.85,37.37,12.22,44.75a53,53,0,0,1,5.27,18,131.6,131.6,0,0,1,1.43,25.24,346.22,346.22,0,0,0,4,60.08c4.23,27.29,8.87,37.37,12.23,44.75a53,53,0,0,1,5.27,18,131.89,131.89,0,0,1,1.43,25.19,372.61,372.61,0,0,0,1.41,39,74,74,0,0,1,5.12-26.46s1.5-31.45,3.34-37.18Z"/><path id="Контур_383" data-name="Контур 383" class="cls-7" d="M1449,1743.51c-2,19.33-5.54,16.37-10.27,37.93a328.2,328.2,0,0,0-6,58.74c-.3,20,1.21,33.17,1.29,43.46a114.16,114.16,0,0,1-2.51,24.52c-1.81,6.86-5.23,11.91-8.45,26.63a327.31,327.31,0,0,0-6,58.75c-.3,20,1.22,33.15,1.29,43.42a114.2,114.2,0,0,1-2.52,24.53c-1.8,6.87-5.23,11.94-8.45,26.64a327.15,327.15,0,0,0-6,58.72c-.25,16.1.71,28.14,1.12,37.52,1.85,4.48,4.58,32.55,4.58,32.55s3.6-5,4.88,2c3.6-36.66.54-58.8.44-73.16a114.45,114.45,0,0,1,.7-13.22,71.88,71.88,0,0,1,1.81-11.3,65.58,65.58,0,0,1,2.58-7.45,117.7,117.7,0,0,0,5.88-19.18,246.62,246.62,0,0,0,4.13-27.43c1.22-11.9,1.73-22.25,1.87-31.31.31-19.94-1.21-33.17-1.28-43.44a114.16,114.16,0,0,1,2.51-24.52c1.81-6.87,5.23-11.93,8.45-26.63a328.09,328.09,0,0,0,6-58.73c.3-20-1.22-33.17-1.29-43.46a114.46,114.46,0,0,1,2.51-24.56c2.63-10,8.72-16.21,12.59-54l-9.84-17Z"/><path id="Контур_384" data-name="Контур 384" class="cls-7" d="M1392.28,2205.05c-.68-29.33-3.62-36-2.27-55.68a76.1,76.1,0,0,1,1.46-11.74c2.33-10.43,8.22-17,10.92-56.28.85-12.35,1-23.07.9-32.45-.31-20.7-2.23-34.29-2.62-44.93a121.92,121.92,0,0,1,1.75-25.45c2.32-10.43,8.21-17,10.91-56.3-3.63-6-6.74-11.21-10.36-17.26a59.3,59.3,0,0,1-3.81,19.53c-4.28,12.57-6.91,24.47-8.56,48.53-2.71,39.28,1.16,62.22,1.7,77.36a121.78,121.78,0,0,1-1.75,25.44c-2.32,10.43-8.21,17-10.91,56.3a442.22,442.22,0,0,0,1.48,72.87c1.14-.54,5.8,9.55,5.8,9.55s2.85-10.55,5.35-9.49Z"/><path id="Контур_385" data-name="Контур 385" class="cls-7" d="M1367.45,1636.13c-.24,23.66-4,21.35-6.8,48.64a489.67,489.67,0,0,0-.74,72c1.47,23.91,4.14,39.06,5.11,51.27a170.39,170.39,0,0,1-.31,30c-1.18,8.79-4.12,16-6,34.59a489.67,489.67,0,0,0-.73,72c1.47,23.88,4.14,39,5.11,51.25a171.47,171.47,0,0,1-.3,30.06c-1.18,8.79-4.13,16-6,34.59a492,492,0,0,0-.74,71.93c1.19,19.25,3.21,33.26,4.44,44.25,2.23,4.7,7.43,37.18,7.43,37.18s3.11-7.23,5,.7c.31-44.85-4.69-70.16-6.07-87.21-.39-4.81-.55-9.5-.48-16a114.09,114.09,0,0,1,.79-14.07c.44-3.22,1.06-6,1.89-9.74a189.81,189.81,0,0,0,4.12-24.84c.87-8.55,1.51-19.48,1.66-34.06s-.26-27.07-.92-37.9c-1.47-23.84-4.15-39.07-5.12-51.26a170.29,170.29,0,0,1,.31-30c1.18-8.79,4.12-16,6-34.59a490.65,490.65,0,0,0,.74-71.93c-1.47-23.92-4.15-39.07-5.12-51.29a172.45,172.45,0,0,1,.31-30.06c1.73-12.82,7.2-22.28,7.68-68.63l-11.26-16.83Z"/><path id="Контур_386" data-name="Контур 386" class="cls-7" d="M1430.09,2207c5-32.46,8.43-39.57,10.23-61.54a116.08,116.08,0,0,0,.54-13.19c-.39-11.81-4.31-19.76-.68-63.61,1.14-13.8,2.57-25.7,4.09-36.1,3.36-22.94,7-37.8,8.92-49.57a180.32,180.32,0,0,0,2.35-28.42c-.38-11.82-4.31-19.78-.68-63.63l11.23-18.05a85.37,85.37,0,0,0,.26,22.07c1.7,14.41,2.11,27.89-.11,54.76-3.63,43.88-10.29,68.91-13,85.64a180.58,180.58,0,0,0-2.35,28.44c.38,11.8,4.3,19.76.68,63.62a655.63,655.63,0,0,1-12.15,80.69c-.86-.73-6.28,10-6.28,10s-.79-12-3-11.1Z"/></g><g id="Сгруппировать_139" data-name="Сгруппировать 139"><path id="Контур_387" data-name="Контур 387" class="cls-7" d="M1529.94,2212.57a232.71,232.71,0,0,1-1.18-40.8,106.71,106.71,0,0,1,4.94-29.76,38.47,38.47,0,0,0,2.2-12,82.83,82.83,0,0,0-.54-15.74,221.26,221.26,0,0,1-.88-37.65l6.42,8.71a82.83,82.83,0,0,0,.54,15.74,221.4,221.4,0,0,1,.88,37.66,106.64,106.64,0,0,1-4.94,29.76,38.58,38.58,0,0,0-2.2,12c-.66,11,1,15.58,1.67,31.19-.94-.61-3,6.48-3,6.48s-2.64-6.79-4-5.6Z"/><path id="Контур_388" data-name="Контур 388" class="cls-7" d="M1541.65,2190.08c.34-3.31.8-6.85,1.39-10.66a90.11,90.11,0,0,1,7.45-27.28,32.2,32.2,0,0,0,3.22-11,80.75,80.75,0,0,0,.87-15.38,210.18,210.18,0,0,1,2.47-36.66,90,90,0,0,1,7.45-27.29,32.14,32.14,0,0,0,3.22-11,80.8,80.8,0,0,0,.87-15.38,211.2,211.2,0,0,1,2.46-36.67l5.51,10.34a79,79,0,0,0-.87,15.37,212.33,212.33,0,0,1-2.47,36.67,89.84,89.84,0,0,1-7.46,27.28,32.42,32.42,0,0,0-3.21,11,79.29,79.29,0,0,0-.87,15.39,211,211,0,0,1-2.47,36.65,90,90,0,0,1-7.46,27.31,32.18,32.18,0,0,0-3.21,11,79,79,0,0,0-.87,15.37,230,230,0,0,1-.87,23.77,45.15,45.15,0,0,0-3.12-16.15,212.59,212.59,0,0,0-2-22.67Z"/><path id="Контур_389" data-name="Контур 389" class="cls-7" d="M1470.09,1927.53c1.21,11.78,3.38,10,6.27,23.13a199.67,199.67,0,0,1,3.66,35.84c.19,12.19-.73,20.23-.78,26.51a69.56,69.56,0,0,0,1.54,15,146.83,146.83,0,0,1,5.15,16.26,199.26,199.26,0,0,1,3.67,35.81c.19,12.2-.74,20.24-.78,26.49a69.73,69.73,0,0,0,1.53,15,148.86,148.86,0,0,1,5.16,16.25,199.57,199.57,0,0,1,3.67,35.83c.15,9.81-.44,17.17-.69,22.87a181.75,181.75,0,0,0-2.79,19.86s-2.2-3.07-3,1.21a289,289,0,0,1-.27-44.62,68,68,0,0,0-.42-8.07,45.77,45.77,0,0,0-1.1-6.89,42.76,42.76,0,0,0-1.58-4.54,71.35,71.35,0,0,1-3.59-11.71,152.06,152.06,0,0,1-2.52-16.73c-.74-7.26-1.06-13.58-1.14-19.1-.19-12.17.73-20.24.78-26.5a69.64,69.64,0,0,0-1.53-15,146.72,146.72,0,0,1-5.16-16.25,199.44,199.44,0,0,1-3.67-35.81c-.19-12.19.74-20.23.78-26.51a69.89,69.89,0,0,0-1.53-15c-1.61-6.09-5.32-9.89-7.68-33,2.1-3.62,3.9-6.74,6-10.35Z"/><path id="Контур_390" data-name="Контур 390" class="cls-7" d="M1504.7,2209.07c.42-17.89,2.22-22,1.4-34a48,48,0,0,0-.9-7.16c-1.42-6.36-5-10.38-6.65-34.34-.53-7.53-.65-14.07-.56-19.78.19-12.62,1.36-20.91,1.61-27.41a74.7,74.7,0,0,0-1.08-15.52c-1.41-6.36-5-10.4-6.65-34.35l6.32-10.53a36.21,36.21,0,0,0,2.32,11.91,105.41,105.41,0,0,1,5.23,29.61,303.66,303.66,0,0,1-1.06,47.2,74.75,74.75,0,0,0,1.08,15.52c1.41,6.36,5,10.39,6.65,34.34a268.24,268.24,0,0,1-.91,44.45c-.68-.34-3.53,5.85-3.53,5.85s-1.74-6.45-3.27-5.8Z"/><path id="Контур_391" data-name="Контур 391" class="cls-7" d="M1519.86,1862c.15,14.43,2.46,13,4.15,29.67a300.75,300.75,0,0,1,.45,43.91c-.9,14.59-2.53,23.83-3.13,31.28a105.86,105.86,0,0,0,.18,18.33c.73,5.36,2.52,9.74,3.67,21.11a297.7,297.7,0,0,1,.45,43.89c-.9,14.58-2.53,23.81-3.13,31.26a104,104,0,0,0,.19,18.34c.72,5.36,2.51,9.74,3.67,21.09a300.47,300.47,0,0,1,.45,43.89c-.73,11.74-2,20.28-2.71,27a229.93,229.93,0,0,0-4.53,22.69s-1.91-4.42-3.07.42a404.61,404.61,0,0,1,3.7-53.2c.23-3,.34-5.8.3-9.75a70.18,70.18,0,0,0-.49-8.58c-.26-2-.64-3.66-1.15-6a115.9,115.9,0,0,1-2.51-15.15c-.53-5.21-.93-11.88-1-20.77s.16-16.52.56-23.13c.9-14.54,2.53-23.83,3.13-31.27a103.92,103.92,0,0,0-.19-18.33c-.72-5.36-2.51-9.75-3.67-21.09a300.47,300.47,0,0,1-.45-43.89c.9-14.59,2.53-23.82,3.13-31.29a104,104,0,0,0-.19-18.34c-1-7.81-4.38-13.58-4.68-41.86,2.41-3.59,4.47-6.68,6.87-10.27Z"/><path id="Контур_392" data-name="Контур 392" class="cls-7" d="M1481.64,2210.22c-3-19.78-5.14-24.14-6.25-37.52a72.15,72.15,0,0,1-.34-8,162.55,162.55,0,0,0,.42-38.81c-.68-8.41-1.57-15.68-2.5-22-2-14-4.27-23.06-5.46-30.24a110.51,110.51,0,0,1-1.43-17.33,163.16,163.16,0,0,0,.41-38.82l-6.85-11a52.28,52.28,0,0,1-.15,13.46,153,153,0,0,0,.06,33.41,451.45,451.45,0,0,0,8,52.24,110.86,110.86,0,0,1,1.43,17.35,163.16,163.16,0,0,0-.41,38.82,400.46,400.46,0,0,0,7.41,49.21c.53-.44,3.83,6.11,3.83,6.11s.49-7.33,1.85-6.78Z"/></g></g><rect id="Прямоугольник_2" data-name="Прямоугольник 2" class="cls-3" x="2059.39" y="372.42" width="52.32" height="261.42" rx="14.66"/><rect id="Прямоугольник_3" data-name="Прямоугольник 3" class="cls-3" x="453.2" y="372.42" width="55.19" height="259.97" rx="15.42"/><rect id="Прямоугольник_4" data-name="Прямоугольник 4" class="cls-3" x="2061.49" y="372.21" width="276.45" height="55.19" rx="15.46"/><path id="Контур_393" data-name="Контур 393" class="cls-8" d="M531.12,953.42a112.14,112.14,0,0,0-42.79-17.74c-37.27-6.74-66.76,8.67-77.71,15.2-79.26,0-103.3-17.7-109.23-35.45-8.48-25.42,22.44-46,23.66-96.24,1.2-49.8-26-70.39-31.54-103.83C286.9,675.18,311,612.43,446.66,513.62h85.6C576,522,628.65,540,643.75,583.68c7.31,21.11-.49,29.9,1.12,62.05,4.57,90.61,72.31,135,57.43,163.33-13.3,25.32-76-1-87.84,26.6-7.38,17.26,13.67,35.37,4.5,59.51C614.7,906.43,604.8,913,585.2,925.56A320.71,320.71,0,0,1,531.12,953.42Z"/><path id="Контур_394" data-name="Контур 394" class="cls-8" d="M2138.23,1045.76a120.68,120.68,0,0,0-47.91-21.45c-41.72-8.16-74.74,10.49-87,18.38-88.74,0-115.64-21.42-122.28-42.89-9.5-30.75,25.12-55.72,26.48-116.44,1.35-60.22-29.15-85.16-35.3-125.62-7.41-48.62,19.58-124.54,171.46-244.09h95.81c49,10.09,107.91,31.88,124.83,84.76,8.19,25.56-.55,36.16,1.26,75.07,5.12,109.64,81,163.31,64.29,197.63-14.88,30.64-85.13-1.22-98.34,32.18-8.25,20.87,15.31,42.78,5,72-4.78,13.64-15.86,21.53-37.82,36.78A350.87,350.87,0,0,1,2138.23,1045.76Z"/><rect id="Прямоугольник_5" data-name="Прямоугольник 5" class="cls-9" x="231.93" y="372.21" width="276.45" height="55.19" rx="15.46"/><g id="Сгруппировать_141" data-name="Сгруппировать 141"><path id="Контур_395" data-name="Контур 395" class="cls-10" d="M215.26,384.79H2.17L33.79,170H180.87Z"/><ellipse id="Эллипс_156" data-name="Эллипс 156" class="cls-10" cx="108.71" cy="384.79" rx="106.54" ry="42.6"/><ellipse id="Эллипс_157" data-name="Эллипс 157" class="cls-3" cx="107.33" cy="170.44" rx="73.54" ry="24.07"/><path id="Контур_396" data-name="Контур 396" class="cls-11" d="M176.75,170.6c-1.79,11.1-38.2,21.66-69.87,21.57-31.22-.08-66.94-10.57-69-21.57C35.77,159,72.32,148.22,106,147.9,140.27,147.59,178.69,158.56,176.75,170.6Z"/><circle id="Эллипс_158" data-name="Эллипс 158" class="cls-10" cx="119.68" cy="113.98" r="22.65"/><ellipse id="Эллипс_159" data-name="Эллипс 159" class="cls-10" cx="168.88" cy="92.03" rx="49.2" ry="34.69"/><ellipse id="Эллипс_160" data-name="Эллипс 160" class="cls-10" cx="196.86" cy="54.25" rx="47.98" ry="37.96" transform="translate(-2.16 8.58) rotate(-2.48)"/><ellipse id="Эллипс_161" data-name="Эллипс 161" class="cls-10" cx="242.15" cy="76.45" rx="32.57" ry="27.61"/><ellipse id="Эллипс_162" data-name="Эллипс 162" class="cls-10" cx="239.67" cy="35.75" rx="45.66" ry="35.75"/></g><g id="Сгруппировать_144" data-name="Сгруппировать 144"><path id="Контур_397" data-name="Контур 397" class="cls-12" d="M2601.53,409.27H2390.65c-8.82,0-16-13.58-22.12-30.32V359c6.14-16.75,5.67-26.8,14.49-26.8l17.34-5.37,18.08-6,37.85,10,31.06-10L2528.93,331l32.84-10.23h36.4c8.82,0,19.32,21.44,23.42,37.72v20C2617.51,395.69,2610.35,409.27,2601.53,409.27Z"/><ellipse id="Эллипс_163" data-name="Эллипс 163" class="cls-12" cx="2496.09" cy="399.72" rx="116.54" ry="27.67"/><g id="Сгруппировать_142" data-name="Сгруппировать 142"><path id="Контур_398" data-name="Контур 398" class="cls-3" d="M2530.79,319.71v26.22h10.28V319.71a25.76,25.76,0,0,0,20.57-25.2V248.76A25.75,25.75,0,0,0,2541.07,274v-57.1a25.76,25.76,0,0,0,20.57-25.19V166.47a25.76,25.76,0,0,0-20.57,25.19V140.24h-10.28v51.42a25.76,25.76,0,0,0-20.57-25.19v25.19a25.74,25.74,0,0,0,20.57,25.19v57.08a25.75,25.75,0,0,0-20.57-25.19V294.5a25.73,25.73,0,0,0,20.57,25.19Z"/><path id="Контур_399" data-name="Контур 399" class="cls-3" d="M2535.43,145.41v-4.62a25.76,25.76,0,0,0-20.57-25.2v4.62A25.75,25.75,0,0,0,2535.43,145.41Z"/><path id="Контур_400" data-name="Контур 400" class="cls-3" d="M2557,120.21V115.6a25.73,25.73,0,0,0-20.57,25.19v4.63A25.78,25.78,0,0,0,2557,120.21Z"/></g><g id="Сгруппировать_143" data-name="Сгруппировать 143"><path id="Контур_401" data-name="Контур 401" class="cls-3" d="M2441.28,319.71v26.22h10.28V319.71a25.74,25.74,0,0,0,20.57-25.2V248.76A25.75,25.75,0,0,0,2451.56,274v-57.1a25.74,25.74,0,0,0,20.57-25.19V166.47a25.76,25.76,0,0,0-20.57,25.19V140.24h-10.28v51.42a25.75,25.75,0,0,0-20.57-25.19v25.19a25.75,25.75,0,0,0,20.57,25.19v57.08a25.74,25.74,0,0,0-20.57-25.19V294.5a25.74,25.74,0,0,0,20.57,25.19Z"/><path id="Контур_402" data-name="Контур 402" class="cls-3" d="M2445.92,145.41v-4.62a25.74,25.74,0,0,0-20.57-25.2v4.62A25.76,25.76,0,0,0,2445.92,145.41Z"/><path id="Контур_403" data-name="Контур 403" class="cls-3" d="M2467.5,120.21V115.6a25.74,25.74,0,0,0-20.57,25.19v4.63A25.78,25.78,0,0,0,2467.5,120.21Z"/></g><ellipse id="Эллипс_164" data-name="Эллипс 164" class="cls-3" cx="2535.92" cy="345.7" rx="5.13" ry="2.11"/><ellipse id="Эллипс_165" data-name="Эллипс 165" class="cls-3" cx="2446.42" cy="345.94" rx="5.13" ry="2.11"/></g></g></svg>