<svg id="Layer_1" data-name="Layer 1" xmlns="http://www.w3.org/2000/svg" viewBox="0 0 4456.28 1951.64"><defs><style>.cls-1{fill:#5c895a;}.cls-2{fill:#92bcbf;}.cls-3{fill:#563419;}.cls-4,.cls-5{fill:none;stroke-miterlimit:10;stroke-width:12px;}.cls-4{stroke:#ca151c;}.cls-5{stroke:#5fa431;}</style></defs><g id="Сгруппировать_465" data-name="Сгруппировать 465"><g id="Сгруппировать_464" data-name="Сгруппировать 464"><path id="Контур_1289" data-name="Контур 1289" class="cls-1" d="M1121.5,1735.91c0,61-50.19,99.8-93.72,77.91-369.17.62-597.4-3.81-934,0C49.57,1836,0,1796.75,0,1735.91c0-14.09,33.58-69.63,38.53-81.54C32.91,1621,20,1515.72,20,1250c0-100.92,41.7-390.41,55.88-485.9H1045.6c14.17,95.49,55.87,385,55.87,485.9,0,265.7-12.86,371-18.49,404.35C1088.1,1666.25,1121.5,1721.78,1121.5,1735.91Z"/><path id="Контур_1290" data-name="Контур 1290" class="cls-2" d="M652.56,1670.86H469c-152.08,0-275.34-154.57-275.34-345.25S316.92,980.37,469,980.37H652.56c152.07,0,275.34,154.57,275.34,345.24S804.6,1670.86,652.56,1670.86Z"/><path id="Контур_1291" data-name="Контур 1291" class="cls-2" d="M1027.67,786.06H93.82c-30.93,0-56-34.36-56-76.72s25.09-76.72,56-76.72h933.85c30.94,0,56,34.35,56,76.72S1058.61,786.06,1027.67,786.06Z"/><g id="Сгруппировать_463" data-name="Сгруппировать 463"><path id="Контур_1292" data-name="Контур 1292" class="cls-3" d="M758.83,1583H366.46c-16.41,0-29.71-25.36-41.15-56.64V1489c11.44-31.29,10.54-50.08,26.95-50.08l32.26-10,33.64-11.25,70.47,18.7,57.79-18.7,77.36,19.14,61.11-19.14h67.72c16.42,0,35.92,40.07,43.58,70.48v37.39C788.55,1557.67,775.25,1583,758.83,1583Z"/><ellipse id="Эллипс_485" data-name="Эллипс 485" class="cls-3" cx="562.65" cy="1565.2" rx="216.82" ry="51.71"/><g id="Сгруппировать_461" data-name="Сгруппировать 461"><path id="Контур_1293" data-name="Контур 1293" class="cls-1" d="M627.21,1415.69v49h19.13v-49a48.06,48.06,0,0,0,38.28-47.06v-85.49a48.08,48.08,0,0,0-38.28,47.07V1223.56a48.07,48.07,0,0,0,38.28-47.06v-47.07a48.08,48.08,0,0,0-38.28,47.07v-96.07H627.21v96.07a48.06,48.06,0,0,0-38.27-47.07v47.07a48.07,48.07,0,0,0,38.27,47.06v106.65a48.06,48.06,0,0,0-38.27-47.07v85.5a48.05,48.05,0,0,0,38.27,47.06Z"/><path id="Контур_1294" data-name="Контур 1294" class="cls-1" d="M635.84,1090.06v-8.64a48.07,48.07,0,0,0-38.28-47.06V1043A48.07,48.07,0,0,0,635.84,1090.06Z"/><path id="Контур_1295" data-name="Контур 1295" class="cls-1" d="M676,1043v-8.6a48.07,48.07,0,0,0-38.26,47.06v8.64A48.08,48.08,0,0,0,676,1043Z"/></g><g id="Сгруппировать_462" data-name="Сгруппировать 462"><path id="Контур_1296" data-name="Контур 1296" class="cls-1" d="M460.67,1415.69v49H479.8v-49a48,48,0,0,0,38.26-47.06v-85.49a48.08,48.08,0,0,0-38.26,47.07V1223.56a48.05,48.05,0,0,0,38.26-47.06v-47.07a48.08,48.08,0,0,0-38.26,47.07v-96.07H460.67v96.07a48.07,48.07,0,0,0-38.26-47.07v47.07a48.05,48.05,0,0,0,38.26,47.06v106.65a48.07,48.07,0,0,0-38.26-47.07v85.5a48,48,0,0,0,38.26,47.06Z"/><path id="Контур_1297" data-name="Контур 1297" class="cls-1" d="M469.3,1090.06v-8.64A48.06,48.06,0,0,0,431,1034.36V1043A48.05,48.05,0,0,0,469.3,1090.06Z"/><path id="Контур_1298" data-name="Контур 1298" class="cls-1" d="M509.44,1043v-8.6a48.06,48.06,0,0,0-38.26,47.06v8.64A48,48,0,0,0,509.44,1043Z"/></g><ellipse id="Эллипс_486" data-name="Эллипс 486" class="cls-1" cx="636.75" cy="1464.27" rx="9.55" ry="3.94"/><ellipse id="Эллипс_487" data-name="Эллипс 487" class="cls-1" cx="470.24" cy="1464.71" rx="9.55" ry="3.94"/></g></g><path id="Контур_1300" data-name="Контур 1300" class="cls-3" d="M1913.13,1820.35c0-57.42-30.39-106.21-72.77-124.21a230,230,0,0,0,6.37-54.13c0-85.37-45.37-156.52-105.6-172.64a229.69,229.69,0,0,0,8.87-63.62c0-97.25-58.87-176.11-131.52-176.11a100,100,0,0,0-18.91,1.84c-8.14-86.77-63.41-153.93-130.44-153.93-53.22,0-99,42.32-119.71,103.2-20.74-60.84-66.51-103.2-119.72-103.2-54,0-100.29,43.52-120.57,105.75a104.23,104.23,0,0,0-55.71-16.58c-72.64,0-131.52,78.82-131.52,176.1a235.59,235.59,0,0,0,1.53,27.08c-4.21,4.93-8.41,9.95-12.52,15-64.2,11.65-113.71,85.29-113.71,174.46a235.59,235.59,0,0,0,1.62,27.59q-6.5,18-12.12,36.49c-2.87-.25-5.76-.42-8.69-.42-72.63,0-131.52,78.84-131.52,176.1,0,63.66,25.2,119.43,63,150.35H1783.27a90.52,90.52,0,0,0,21.06,2.51,89.36,89.36,0,0,0,21-2.51h3.75c0-.32.07-.67.1-1C1877.32,1934.86,1913.13,1882.65,1913.13,1820.35Z"/></g><g id="Сгруппировать_475" data-name="Сгруппировать 475"><path id="Контур_1313" data-name="Контур 1313" class="cls-4" d="M1153.69,0c27.5,72.93,73.7,137.23,122.52,198a2248.73,2248.73,0,0,0,464.88,434.6"/><path id="Контур_1314" data-name="Контур 1314" class="cls-4" d="M1238.81,593.71A1495.2,1495.2,0,0,1,1748.25,17.57"/></g><g id="Сгруппировать_470" data-name="Сгруппировать 470"><g id="Сгруппировать_469" data-name="Сгруппировать 469"><path id="Контур_1301" data-name="Контур 1301" class="cls-1" d="M3772.64,1736.29c0,61-50.2,99.83-93.73,77.92-369.17.63-597.39-3.8-934,0-44.15,22.2-93.73-17.08-93.73-77.92,0-14.11,33.58-69.68,38.53-81.59-5.63-33.35-18.5-138.68-18.5-404.47,0-101,41.71-390.56,55.88-486.07h969.69c14.17,95.51,55.89,385.1,55.89,486.07,0,265.8-12.88,371.13-18.52,404.47C3739.24,1666.61,3772.64,1722.15,3772.64,1736.29Z"/><path id="Контур_1302" data-name="Контур 1302" class="cls-2" d="M3303.67,1671.22H3120.11c-152.08,0-275.35-154.62-275.35-345.36S2968,980.5,3120.11,980.5h183.56c152.07,0,275.34,154.62,275.34,345.36S3455.74,1671.22,3303.67,1671.22Z"/><path id="Контур_1303" data-name="Контур 1303" class="cls-2" d="M3678.79,786.11H2745c-30.94,0-56-34.36-56-76.75s25.08-76.74,56-76.74h933.81c30.94,0,56,34.35,56,76.74S3709.74,786.11,3678.79,786.11Z"/><g id="Сгруппировать_468" data-name="Сгруппировать 468"><path id="Контур_1304" data-name="Контур 1304" class="cls-3" d="M3410,1583.36H3017.62c-16.42,0-29.72-25.38-41.18-56.67v-37.38c11.46-31.29,10.55-50.09,27-50.09l32.26-10,33.64-11.25,70.46,18.7,57.79-18.7,77.36,19.14,61.1-19.14h67.73c16.41,0,35.92,40.09,43.57,70.5v37.38C3439.68,1558,3426.37,1583.36,3410,1583.36Z"/><ellipse id="Эллипс_488" data-name="Эллипс 488" class="cls-3" cx="3213.78" cy="1565.51" rx="216.82" ry="51.72"/><g id="Сгруппировать_466" data-name="Сгруппировать 466"><path id="Контур_1305" data-name="Контур 1305" class="cls-1" d="M3278.33,1416v49h19.14v-49a48.1,48.1,0,0,0,38.27-47.08v-85.52a48.06,48.06,0,0,0-38.27,47.07V1223.77a48.09,48.09,0,0,0,38.27-47.08v-47.08a48.07,48.07,0,0,0-38.27,47.08v-96.11h-19.14v96.11a48.08,48.08,0,0,0-38.27-47.08v47.08a48.07,48.07,0,0,0,38.27,47.08v106.67a48.06,48.06,0,0,0-38.27-47.07v85.52A48.07,48.07,0,0,0,3278.33,1416Z"/><path id="Контур_1306" data-name="Контур 1306" class="cls-1" d="M3287,1090.21v-8.64a48.06,48.06,0,0,0-38.26-47.08v8.64A48.08,48.08,0,0,0,3287,1090.21Z"/><path id="Контур_1307" data-name="Контур 1307" class="cls-1" d="M3327.12,1043.13v-8.64a48.08,48.08,0,0,0-38.27,47.08v8.64A48.08,48.08,0,0,0,3327.12,1043.13Z"/></g><g id="Сгруппировать_467" data-name="Сгруппировать 467"><path id="Контур_1308" data-name="Контур 1308" class="cls-1" d="M3111.8,1416v49h19.14v-49a48.08,48.08,0,0,0,38.27-47.08v-85.52a48.07,48.07,0,0,0-38.27,47.07V1223.77a48.07,48.07,0,0,0,38.27-47.08v-47.08a48.07,48.07,0,0,0-38.27,47.08v-96.11H3111.8v96.11a48,48,0,0,0-38.26-47.08v47.08a48.08,48.08,0,0,0,38.26,47.08v106.67a48.05,48.05,0,0,0-38.26-47.07v85.52A48.08,48.08,0,0,0,3111.8,1416Z"/><path id="Контур_1309" data-name="Контур 1309" class="cls-1" d="M3120.44,1090.21v-8.64a48.08,48.08,0,0,0-38.28-47.08v8.64A48.07,48.07,0,0,0,3120.44,1090.21Z"/><path id="Контур_1310" data-name="Контур 1310" class="cls-1" d="M3160.58,1043.13v-8.64a48.08,48.08,0,0,0-38.26,47.08v8.64A48.07,48.07,0,0,0,3160.58,1043.13Z"/></g><ellipse id="Эллипс_489" data-name="Эллипс 489" class="cls-1" cx="3287.89" cy="1464.55" rx="9.55" ry="3.94"/><ellipse id="Эллипс_490" data-name="Эллипс 490" class="cls-1" cx="3121.37" cy="1464.98" rx="9.55" ry="3.94"/></g></g><path id="Контур_1312" data-name="Контур 1312" class="cls-3" d="M3915.87,1889.14c0-27.42-14.52-50.73-34.76-59.33a110.41,110.41,0,0,0,3-25.86c0-40.78-21.68-74.76-50.45-82.47a109.45,109.45,0,0,0,4.24-30.37c0-46.46-28.12-84.13-62.83-84.13a48,48,0,0,0-9,.88c-3.9-41.45-30.3-73.53-62.31-73.53-25.42,0-47.3,20.23-57.17,49.3-9.9-29.07-31.77-49.3-57.17-49.3-25.78,0-47.91,20.79-57.61,50.52a49.73,49.73,0,0,0-26.61-7.92c-34.7,0-62.82,37.65-62.82,84.12a114,114,0,0,0,.73,12.93q-3,3.54-6,7.18c-30.67,5.57-54.32,40.74-54.32,83.33a111.82,111.82,0,0,0,.77,13.19c-2.06,5.72-4,11.55-5.79,17.43-1.37-.12-2.74-.19-4.15-.19-34.69,0-62.82,37.65-62.82,84.12a92.87,92.87,0,0,0,30.12,71.83h512.87a43.14,43.14,0,0,0,10.07,1.2,42.63,42.63,0,0,0,10.05-1.2h1.78l.05-.48C3898.75,1943.83,3915.87,1918.9,3915.87,1889.14Z"/></g><path id="Контур_1315" data-name="Контур 1315" class="cls-5" d="M3718.54,268.1a1302.52,1302.52,0,0,1,163.21,302.44,854.17,854.17,0,0,1,574.53-420.07"/></svg>