<svg id="Layer_1" data-name="Layer 1" xmlns="http://www.w3.org/2000/svg" viewBox="0 0 2004.65 2020.46"><defs><style>.cls-1{fill:#bbdcb9;}.cls-2{fill:#fff;}</style></defs><rect class="cls-1" y="0.02" width="2004.65" height="2020.43"/><g id="Сгруппировать_332" data-name="Сгруппировать 332"><path id="Контур_969" data-name="Контур 969" class="cls-2" d="M211.52,1429.52Q147.7,1485.23,83.89,1541c-7.8,6.78-14.82,14.41-23,20.66-17.29,13.31-36.4,12.43-50.27-1.55a34.05,34.05,0,0,1-.23-48.48c.72-.72,1.47-1.4,2.25-2.06,33.93-31.53,67.9-63.18,103.72-92.65,55.09-45.29,111.74-88.8,168-133.28-35.64-9.58-72.8-16.07-107-29.66-52.09-20.7-102.6-45.5-152.87-70.22C-.06,1171.65-6,1150.32,5.94,1131.49c11.78-18.64,32.8-22,56.65-7.73a636.37,636.37,0,0,0,249.11,89.52c20.65,2.58,41.49,3.92,62.3,5a30.13,30.13,0,0,0,16.74-4.1c42.9-27.41,87.45-52.9,127.78-83.6,94.18-71.7,112.67-149.94,64.81-257.38-37.79-84.94-97.06-155.87-157.67-225.59C377.55,592.27,327.85,538.25,278,484.39a42.19,42.19,0,0,0-25-8.89c-71.63-7.31-143.45-12.8-214.94-21.25-29.25-3.44-41.93-22-36.85-43.92C6.17,389,25.91,381,55,385.51c51.84,8,103.94,14.49,162.6,22.55-8.79-13.51-13.69-20.51-18-27.84-28-46.92-56.42-93.59-83.59-141-14-24.41-9.09-43.84,10.88-54.51,20.47-10.92,38.13-2,53.89,22.79C224.8,277,270,345.93,314.83,415a181.3,181.3,0,0,0,15.81,17.45c8.5-43.5,19.35-81.82,22.81-120.75,4.7-53.27,4.25-107,5.11-160.55.49-30.11,11-45.1,34.83-45.74,23.34-.64,34.61,12.36,37.26,41.53a800.52,800.52,0,0,1-41,329.75,28.67,28.67,0,0,0,7.15,32.68c84.19,93.33,192,138,317.06,149.39,73.38,6.67,145.76,4.3,216.4-17.79,73.82-23,130.55-70.22,174.86-129.47,14.59-19.54,13.6-50.92,17.17-77.19,3.46-25.83,3.18-52.09,5.67-78.05,1.38-14.45-3.59-20.95-17.85-26.92C999.78,283.37,928.45,203.84,898,90.37,891,64,899.9,45.17,921.43,39.81c22.66-5.61,38.74,5.24,46.09,32.12a280,280,0,0,0,139.4,178c4.4,2.44,9,4.54,19,9.59-6.46-40.4-10.92-76.58-18.29-112.18-6.93-33.25-16.77-65.9-25.54-98.73C1076.43,27.3,1084.76,9,1103.48,2.5a34.58,34.58,0,0,1,44.88,18.88,33.19,33.19,0,0,1,1.83,6C1166.28,95.61,1181.86,164,1193.86,233c6.42,36.92,5.07,75.09,7.43,116,6.87-5.06,13.18-9.16,18.87-14a446,446,0,0,0,137.2-194.89,84,84,0,0,1,7.8-17.93,34.72,34.72,0,0,1,44.46-14.38c18.78,6.75,26.51,25.49,19.33,47A511.68,511.68,0,0,1,1256.2,398a229.3,229.3,0,0,1-39.8,27.86c-17.8,8.67-23.1,22.15-25.51,39.49-3.69,26.49-8.67,52.8-13.54,79.13-11.19,65.2,20.27,130.31,78.55,162.56,52,28.18,123.53,18.84,172.19-23.79a71,71,0,0,0,16.58-27.37A977.93,977.93,0,0,1,1733.94,257.1c20.08-16.74,40.8-17.12,55.36-1.66,15.11,16,12.08,37-8,55.09-3.26,2.94-6.69,5.76-10,8.58a910.82,910.82,0,0,0-207.7,253.74c-2.4,4.29-4.6,8.78-10.71,20.46,43.81-7,82.43-10.93,119.87-19.64a625.8,625.8,0,0,0,230.26-106,143.12,143.12,0,0,1,12.73-8.79,36.3,36.3,0,0,1,49.4,9.21,32.15,32.15,0,0,1-4.21,45.57,32.62,32.62,0,0,1-5.67,3.76c-43.46,27.7-88.4,53.16-132.91,79.36-6.27,3.66-13.2,6.25-22.69,10.71a307.1,307.1,0,0,0,132.44,29.13c11.92-.12,23.87-.65,35.77-.33a34.13,34.13,0,0,1,36.12,32c0,.47,0,.94,0,1.41a34.06,34.06,0,0,1-32,36c-.53,0-1.06,0-1.59,0a388.2,388.2,0,0,1-241.2-54.39,62.88,62.88,0,0,0-47.66-7.79c-48.23,8.11-97,13.51-145.75,18.1a23.25,23.25,0,0,0-22.47,16c-9.65,21-19.88,41.86-31.55,61.86-84.13,144.11-15.6,332.71,155.57,369.08a122.15,122.15,0,0,0,65.49-2.25,794.7,794.7,0,0,1,259-38.63c28,.34,44.48,16.23,42.14,39.38-2,19.61-17.15,30.44-43.47,31.77-37.87,1.94-75.75,4.29-113.6,6.49-3.47.19-6.86,1.1-14.61,2.35,21.15,16,40.27,28.18,56.59,43.23,35.08,32.36,69.52,65.45,102.62,99.71,18.11,18.79,16.74,40,.61,53.78-17.45,14.89-37.64,12-56-9.13a659.23,659.23,0,0,0-193.61-155.4,42.54,42.54,0,0,0-22.43-4.39c-40.49,3.91-81,7.57-121.23,13.73A747,747,0,0,0,1485.86,1212c-57.37,18.18-79.74,64.19-85.07,119-3,31-2.68,62.27-4.79,93.38a21.53,21.53,0,0,0,14.18,23.44c32.07,16.81,63,35.7,95,52.51a45.86,45.86,0,0,0,26.94,4.18c86.4-14.43,172.93-19.75,260-6.8,23.83,3.55,38.86,19.08,36.73,38.24-2.21,20.06-18.79,32.19-43.27,31.53-50.56-1.34-101.13-3-151.66-3.91a280.16,280.16,0,0,0-33.1,3.14l-6.74,8.06c5.93,2.57,13.75,3.66,17.54,8,44.53,51.42,89.26,102.68,132.13,155.39,17.18,21.19,12.61,43.09-6.36,54.95s-39,5.89-54.34-17.34a750.56,750.56,0,0,0-258.76-241.54c-5.77-3.29-11.73-6.27-17.7-9.19-1.18-.57-2.87-.07-6-.07a537.24,537.24,0,0,0,48,177.12c13.68,28.86,30,56.54,45.94,84.35,13.59,23.79,11,43.65-8.37,55-18.55,10.89-38.33,5-52.77-16.83A638.63,638.63,0,0,1,1329,1536.81c-1.63-15.12-1.91-30.49-4.87-45.33a32.85,32.85,0,0,0-12.08-18.56c-150-106.8-378.79-42.84-446.54,126-7.48,18.68-3.77,42.74-1.32,63.89,10.47,90.15,52.1,162,134.34,208.71,8.29,4.72,17.77,7.36,26.41,11.51,20.18,9.66,28,28.45,19.87,46.86A36.3,36.3,0,0,1,998,1948.4a276.34,276.34,0,0,1-132.18-96.22c-16.47-21.32-30.09-44.65-47.72-71.15-7.46,31.58-16.56,60.72-20.8,90.54-5.2,36.44-6.87,73.43-9.09,110.25-1.44,23.82-14,38.4-35.7,38.64s-35.59-13.94-36.15-38a623.63,623.63,0,0,1,40.73-240.54c7-18.13,18.66-34.52,27-52.21a234.75,234.75,0,0,0,9.7-30.34l-6.76-5.08c-35.09,16.4-71.51,30.64-105,49.75-51.88,29.67-101.59,62.93-152.61,94a81.41,81.41,0,0,1-32,12.64c-16.8,1.81-27.59-8.92-33.1-23.92a31.76,31.76,0,0,1,14.81-39.67c50.59-33.11,100.54-67.54,153.21-97.2a1099.54,1099.54,0,0,1,136.71-63.3,38.27,38.27,0,0,0,27.64-38.54C802.2,1460,773,1385,703.82,1327.55c-78.76-65.32-169.09-89.76-267.52-50.79-41.18,16.32-76.76,46.23-114.2,70.94-5.2,3.44-7.11,12.32-9.44,19a1139.37,1139.37,0,0,0-61,369.22c-.12,20.83-7.66,35.57-29.09,40.24-24.54,5.36-42.38-11.73-42.83-39.49a1173.71,1173.71,0,0,1,33.31-288.54c1.12-4.83,1.94-9.71,2.93-14.59Zm1296.36-298.28c-117.4-91.08-153.09-206.41-125-344.57-64.5,13.12-123.17,9.13-176.53-26.06-52-34.25-83.36-82.6-99.89-143.9A420.48,420.48,0,0,1,848.76,729.12,743,743,0,0,1,564,700.7c19.49,29.9,37.92,55.45,53.3,82.64a653.39,653.39,0,0,1,42.1,86c47.08,122,18.95,223.51-83.61,307.42a90.67,90.67,0,0,1-15.11,8.18c163.92,34.58,265.11,124.9,305.81,278.84,135.4-124.61,287.77-145.53,458.2-70.32C1322.38,1265.17,1359.8,1162.76,1507.88,1131.24Z"/><path id="Контур_970" data-name="Контур 970" class="cls-2" d="M1040.23,836.52c117.84-1.54,214.62,91.86,216.17,208.6,0,1.13,0,2.27,0,3.4-.59,114.76-98.41,206.13-220.34,205.79-118.11,1.32-214.94-92.46-216.27-209.47,0-.83,0-1.65,0-2.48C820.32,928.1,918.76,836.17,1040.23,836.52Zm143.31,209.24c.26-75-66-138.92-144.57-139.52-78.35-.64-145.21,62.27-146.33,137.71s66.63,140.81,145.71,140.63c78.58-.2,145-63.66,145.19-138.86Z"/></g></svg>