<svg id="Layer_1" data-name="Layer 1" xmlns="http://www.w3.org/2000/svg" viewBox="0 0 2181.08 2036.37"><defs><style>.cls-1,.cls-2,.cls-3{fill:none;stroke-miterlimit:10;}.cls-1,.cls-2{stroke:#9baf78;}.cls-1{stroke-width:0.5px;}.cls-2,.cls-3{stroke-width:0.75px;}.cls-3{stroke:#181e15;}.cls-4{isolation:isolate;}.cls-5{fill:#fff;}.cls-6{fill:#181e15;}.cls-7{opacity:0.82;}.cls-8{fill:#051a1e;}</style></defs><g id="Сгруппировать_285" data-name="Сгруппировать 285"><g id="Сгруппировать_255" data-name="Сгруппировать 255"><circle id="Эллипс_322" data-name="Эллипс 322" class="cls-1" cx="1083.21" cy="848.95" r="137.42"/><circle id="Эллипс_323" data-name="Эллипс 323" class="cls-1" cx="1083.21" cy="848.95" r="274.84"/><circle id="Эллипс_324" data-name="Эллипс 324" class="cls-1" cx="1083.21" cy="848.95" r="412.25"/><circle id="Эллипс_325" data-name="Эллипс 325" class="cls-1" cx="1083.21" cy="848.95" r="549.67"/><circle id="Эллипс_326" data-name="Эллипс 326" class="cls-1" cx="1083.21" cy="848.95" r="687.09"/></g><g id="Сгруппировать_256" data-name="Сгруппировать 256"><line id="Линия_45" data-name="Линия 45" class="cls-2" x1="1083.21" y1="848.26" x2="1083.21" y2="164.47"/><line id="Линия_46" data-name="Линия 46" class="cls-2" x1="1083.21" y1="848.26" x2="1284.77" y2="194.85"/><line id="Линия_47" data-name="Линия 47" class="cls-2" x1="1083.21" y1="848.26" x2="1468.41" y2="283.28"/><line id="Линия_48" data-name="Линия 48" class="cls-2" x1="1083.21" y1="848.26" x2="1617.83" y2="421.92"/><line id="Линия_49" data-name="Линия 49" class="cls-2" x1="1083.21" y1="848.26" x2="1719.74" y2="598.44"/><line id="Линия_50" data-name="Линия 50" class="cls-2" x1="1083.21" y1="848.26" x2="1765.1" y2="797.16"/><line id="Линия_51" data-name="Линия 51" class="cls-2" x1="1083.21" y1="848.26" x2="1749.87" y2="1000.42"/><line id="Линия_52" data-name="Линия 52" class="cls-2" x1="1083.21" y1="848.26" x2="1675.4" y2="1190.16"/><line id="Линия_53" data-name="Линия 53" class="cls-2" x1="1083.21" y1="848.26" x2="1548.31" y2="1349.52"/><line id="Линия_54" data-name="Линия 54" class="cls-2" x1="1083.21" y1="848.26" x2="1379.9" y2="1464.34"/><line id="Линия_55" data-name="Линия 55" class="cls-2" x1="1083.21" y1="848.26" x2="1185.13" y2="1524.42"/><line id="Линия_56" data-name="Линия 56" class="cls-2" x1="1083.21" y1="848.26" x2="981.3" y2="1524.42"/><line id="Линия_57" data-name="Линия 57" class="cls-2" x1="1083.21" y1="848.26" x2="786.53" y2="1464.34"/><line id="Линия_58" data-name="Линия 58" class="cls-2" x1="1083.21" y1="848.26" x2="618.12" y2="1349.52"/><line id="Линия_59" data-name="Линия 59" class="cls-2" x1="1083.21" y1="848.26" x2="491.03" y2="1190.16"/><line id="Линия_60" data-name="Линия 60" class="cls-2" x1="1083.21" y1="848.26" x2="416.56" y2="1000.42"/><line id="Линия_61" data-name="Линия 61" class="cls-2" x1="1083.21" y1="848.26" x2="401.33" y2="797.16"/><line id="Линия_62" data-name="Линия 62" class="cls-2" x1="1083.21" y1="848.26" x2="446.69" y2="598.44"/><line id="Линия_63" data-name="Линия 63" class="cls-2" x1="1083.21" y1="848.26" x2="548.6" y2="421.92"/><line id="Линия_64" data-name="Линия 64" class="cls-3" x1="1083.21" y1="848.26" x2="699.15" y2="284.95"/></g><g id="Сгруппировать_277" data-name="Сгруппировать 277"><g id="Сгруппировать_257" data-name="Сгруппировать 257"><g id="_2002" data-name=" 2002" class="cls-4"><g class="cls-4"><path class="cls-5" d="M1041.69,54.68v6.48h-31v-5c4.17-4.6,6.12-6.83,11-12.59,5.61-6.55,12.16-13.67,12.16-18.85,0-4.89-2.74-8.42-7.85-8.42-5.54,0-8,4.25-8.7,7.63l-6.69-1.58c1.94-8.13,8.27-12.45,16.11-12.45,8.21,0,14.25,6.55,14.25,14.82,0,8-7.48,14.89-20,29.93Z"/><path class="cls-5" d="M1087.81,36c0,12.67-5.18,26.12-19.64,26.12S1048.52,48.64,1048.52,36s5.19-26,19.65-26S1087.81,23.31,1087.81,36Zm-7.2,0c0-8.63-2.8-19.35-12.44-19.35S1055.72,27.34,1055.72,36s2.81,19.36,12.45,19.36S1080.61,44.61,1080.61,36Z"/><path class="cls-5" d="M1133.57,36c0,12.67-5.18,26.12-19.65,26.12S1094.28,48.64,1094.28,36s5.18-26,19.64-26S1133.57,23.31,1133.57,36Zm-7.2,0c0-8.63-2.8-19.35-12.45-19.35S1101.48,27.34,1101.48,36s2.8,19.36,12.44,19.36S1126.37,44.61,1126.37,36Z"/><path class="cls-5" d="M1170,54.68v6.48h-31v-5c4.17-4.6,6.11-6.83,11-12.59,5.61-6.55,12.16-13.67,12.16-18.85,0-4.89-2.73-8.42-7.84-8.42-5.54,0-8,4.25-8.71,7.63L1139,22.38c2-8.13,8.28-12.45,16.12-12.45,8.2,0,14.24,6.55,14.24,14.82,0,8-7.48,14.89-20,29.93Z"/></g></g><g id="_2002-2" data-name=" 2002-2" class="cls-4"><g class="cls-4"><path class="cls-5" d="M1041.69,54.68v6.48h-31v-5c4.17-4.6,6.12-6.83,11-12.59,5.61-6.55,12.16-13.67,12.16-18.85,0-4.89-2.74-8.42-7.85-8.42-5.54,0-8,4.25-8.7,7.63l-6.69-1.58c1.94-8.13,8.27-12.45,16.11-12.45,8.21,0,14.25,6.55,14.25,14.82,0,8-7.48,14.89-20,29.93Z"/><path class="cls-5" d="M1087.81,36c0,12.67-5.18,26.12-19.64,26.12S1048.52,48.64,1048.52,36s5.19-26,19.65-26S1087.81,23.31,1087.81,36Zm-7.2,0c0-8.63-2.8-19.35-12.44-19.35S1055.72,27.34,1055.72,36s2.81,19.36,12.45,19.36S1080.61,44.61,1080.61,36Z"/><path class="cls-5" d="M1133.57,36c0,12.67-5.18,26.12-19.65,26.12S1094.28,48.64,1094.28,36s5.18-26,19.64-26S1133.57,23.31,1133.57,36Zm-7.2,0c0-8.63-2.8-19.35-12.45-19.35S1101.48,27.34,1101.48,36s2.8,19.36,12.44,19.36S1126.37,44.61,1126.37,36Z"/><path class="cls-5" d="M1170,54.68v6.48h-31v-5c4.17-4.6,6.11-6.83,11-12.59,5.61-6.55,12.16-13.67,12.16-18.85,0-4.89-2.73-8.42-7.84-8.42-5.54,0-8,4.25-8.71,7.63L1139,22.38c2-8.13,8.28-12.45,16.12-12.45,8.2,0,14.24,6.55,14.24,14.82,0,8-7.48,14.89-20,29.93Z"/></g></g></g><g id="Сгруппировать_258" data-name="Сгруппировать 258"><g id="_2003" data-name=" 2003" class="cls-4"><g class="cls-4"><path class="cls-5" d="M1279.58,90.53V97h-31v-5c4.18-4.61,6.12-6.84,11-12.6,5.61-6.54,12.16-13.66,12.16-18.84,0-4.9-2.73-8.42-7.84-8.42-5.54,0-8,4.24-8.71,7.62l-6.69-1.58c2-8.13,8.28-12.45,16.12-12.45,8.2,0,14.24,6.55,14.24,14.83,0,8-7.48,14.89-20,29.92Z"/><path class="cls-5" d="M1325.7,71.83c0,12.66-5.18,26.11-19.64,26.11s-19.64-13.45-19.64-26.11,5.18-26,19.64-26S1325.7,59.17,1325.7,71.83Zm-7.19,0c0-8.63-2.81-19.35-12.45-19.35s-12.45,10.72-12.45,19.35,2.81,19.35,12.45,19.35S1318.51,80.46,1318.51,71.83Z"/><path class="cls-5" d="M1371.46,71.83c0,12.66-5.18,26.11-19.64,26.11s-19.64-13.45-19.64-26.11,5.18-26,19.64-26S1371.46,59.17,1371.46,71.83Zm-7.19,0c0-8.63-2.81-19.35-12.45-19.35s-12.45,10.72-12.45,19.35,2.81,19.35,12.45,19.35S1364.27,80.46,1364.27,71.83Z"/><path class="cls-5" d="M1411.61,82.12c0,9.13-6.48,15.82-17.41,15.82-8.35,0-15.76-4.6-17-11.07l6.69-1.52c.57,2.52,3.59,6.19,10.29,6.19,6.11,0,10.28-3.16,10.28-9.42,0-6.62-6.47-7.92-10.79-7.92h-4.24v-6h4.24c4.32,0,8.92-1.8,8.92-8,0-4.1-2.66-8-8.41-8-5.4,0-8,3.09-8.78,5.9l-6.62-1.44c1.8-6.69,8.35-10.87,15.4-10.87,9.42,0,15.1,6,15.1,13.82a11.73,11.73,0,0,1-6.69,10.79C1408.37,72.4,1411.61,76.51,1411.61,82.12Z"/></g></g><g id="_2003-2" data-name=" 2003-2" class="cls-4"><g class="cls-4"><path class="cls-5" d="M1279.58,90.53V97h-31v-5c4.18-4.61,6.12-6.84,11-12.6,5.61-6.54,12.16-13.66,12.16-18.84,0-4.9-2.73-8.42-7.84-8.42-5.54,0-8,4.24-8.71,7.62l-6.69-1.58c2-8.13,8.28-12.45,16.12-12.45,8.2,0,14.24,6.55,14.24,14.83,0,8-7.48,14.89-20,29.92Z"/><path class="cls-5" d="M1325.7,71.83c0,12.66-5.18,26.11-19.64,26.11s-19.64-13.45-19.64-26.11,5.18-26,19.64-26S1325.7,59.17,1325.7,71.83Zm-7.19,0c0-8.63-2.81-19.35-12.45-19.35s-12.45,10.72-12.45,19.35,2.81,19.35,12.45,19.35S1318.51,80.46,1318.51,71.83Z"/><path class="cls-5" d="M1371.46,71.83c0,12.66-5.18,26.11-19.64,26.11s-19.64-13.45-19.64-26.11,5.18-26,19.64-26S1371.46,59.17,1371.46,71.83Zm-7.19,0c0-8.63-2.81-19.35-12.45-19.35s-12.45,10.72-12.45,19.35,2.81,19.35,12.45,19.35S1364.27,80.46,1364.27,71.83Z"/><path class="cls-5" d="M1411.61,82.12c0,9.13-6.48,15.82-17.41,15.82-8.35,0-15.76-4.6-17-11.07l6.69-1.52c.57,2.52,3.59,6.19,10.29,6.19,6.11,0,10.28-3.16,10.28-9.42,0-6.62-6.47-7.92-10.79-7.92h-4.24v-6h4.24c4.32,0,8.92-1.8,8.92-8,0-4.1-2.66-8-8.41-8-5.4,0-8,3.09-8.78,5.9l-6.62-1.44c1.8-6.69,8.35-10.87,15.4-10.87,9.42,0,15.1,6,15.1,13.82a11.73,11.73,0,0,1-6.69,10.79C1408.37,72.4,1411.61,76.51,1411.61,82.12Z"/></g></g></g><g id="Сгруппировать_259" data-name="Сгруппировать 259"><g id="_2004" data-name=" 2004" class="cls-4"><g class="cls-4"><path class="cls-5" d="M1495.52,193.36v6.32h-30.28v-4.85c4.08-4.49,6-6.67,10.75-12.29,5.48-6.39,11.87-13.34,11.87-18.4,0-4.77-2.67-8.22-7.66-8.22-5.4,0-7.79,4.15-8.49,7.45l-6.54-1.55c1.9-7.93,8.08-12.15,15.74-12.15,8,0,13.9,6.39,13.9,14.47,0,7.8-7.3,14.54-19.52,29.22Z"/><path class="cls-5" d="M1540.54,175.1c0,12.36-5.06,25.49-19.18,25.49s-19.17-13.13-19.17-25.49,5.06-25.43,19.17-25.43S1540.54,162.74,1540.54,175.1Zm-7,0c0-8.43-2.74-18.9-12.15-18.9s-12.15,10.47-12.15,18.9S1512,194,1521.36,194,1533.51,183.53,1533.51,175.1Z"/><path class="cls-5" d="M1585.21,175.1c0,12.36-5.06,25.49-19.18,25.49s-19.17-13.13-19.17-25.49,5.05-25.43,19.17-25.43S1585.21,162.74,1585.21,175.1Zm-7,0c0-8.43-2.74-18.9-12.15-18.9s-12.15,10.47-12.15,18.9S1556.62,194,1566,194,1578.18,183.53,1578.18,175.1Z"/><path class="cls-5" d="M1628.19,188.65h-6.39v11h-7v-11h-23.59V183l20.57-32.52h10V182.4h6.39Zm-13.42-6.25v-25l-15.87,25Z"/></g></g><g id="_2004-2" data-name=" 2004-2" class="cls-4"><g class="cls-4"><path class="cls-5" d="M1495.52,193.36v6.32h-30.28v-4.85c4.08-4.49,6-6.67,10.75-12.29,5.48-6.39,11.87-13.34,11.87-18.4,0-4.77-2.67-8.22-7.66-8.22-5.4,0-7.79,4.15-8.49,7.45l-6.54-1.55c1.9-7.93,8.08-12.15,15.74-12.15,8,0,13.9,6.39,13.9,14.47,0,7.8-7.3,14.54-19.52,29.22Z"/><path class="cls-5" d="M1540.54,175.1c0,12.36-5.06,25.49-19.18,25.49s-19.17-13.13-19.17-25.49,5.06-25.43,19.17-25.43S1540.54,162.74,1540.54,175.1Zm-7,0c0-8.43-2.74-18.9-12.15-18.9s-12.15,10.47-12.15,18.9S1512,194,1521.36,194,1533.51,183.53,1533.51,175.1Z"/><path class="cls-5" d="M1585.21,175.1c0,12.36-5.06,25.49-19.18,25.49s-19.17-13.13-19.17-25.49,5.05-25.43,19.17-25.43S1585.21,162.74,1585.21,175.1Zm-7,0c0-8.43-2.74-18.9-12.15-18.9s-12.15,10.47-12.15,18.9S1556.62,194,1566,194,1578.18,183.53,1578.18,175.1Z"/><path class="cls-5" d="M1628.19,188.65h-6.39v11h-7v-11h-23.59V183l20.57-32.52h10V182.4h6.39Zm-13.42-6.25v-25l-15.87,25Z"/></g></g></g><g id="Сгруппировать_260" data-name="Сгруппировать 260"><g id="_2005" data-name=" 2005" class="cls-4"><g class="cls-4"><path class="cls-5" d="M1671.87,357v6.32H1641.6v-4.84c4.07-4.5,6-6.68,10.75-12.29,5.48-6.4,11.87-13.35,11.87-18.41,0-4.77-2.67-8.21-7.66-8.21-5.41,0-7.79,4.14-8.5,7.44l-6.53-1.54c1.9-7.94,8.08-12.16,15.73-12.16,8,0,13.91,6.4,13.91,14.47,0,7.8-7.3,14.54-19.53,29.22Z"/><path class="cls-5" d="M1716.89,338.74c0,12.36-5.05,25.5-19.17,25.5s-19.18-13.14-19.18-25.5,5.06-25.43,19.18-25.43S1716.89,326.38,1716.89,338.74Zm-7,0c0-8.43-2.74-18.89-12.15-18.89s-12.15,10.46-12.15,18.89,2.74,18.89,12.15,18.89S1709.87,347.17,1709.87,338.74Z"/><path class="cls-5" d="M1761.56,338.74c0,12.36-5,25.5-19.17,25.5s-19.18-13.14-19.18-25.5,5.06-25.43,19.18-25.43S1761.56,326.38,1761.56,338.74Zm-7,0c0-8.43-2.74-18.89-12.15-18.89s-12.15,10.46-12.15,18.89,2.74,18.89,12.15,18.89S1754.54,347.17,1754.54,338.74Z"/><path class="cls-5" d="M1800.82,347.59c0,8.85-6.53,16.65-17.2,16.65-8.15,0-15.18-4.5-16.44-10.89l6.46-1.48c.63,2.46,3.51,6.12,10,6.12a10,10,0,0,0,10.32-10.4c0-6.39-4.21-9.83-9.9-9.83a13.1,13.1,0,0,0-9.55,4.14l-5.62-1.4,3.09-26.34h25.91v6.39h-20.51l-1.61,14.05a14.79,14.79,0,0,1,8.92-3C1794.36,331.58,1800.82,338.46,1800.82,347.59Z"/></g></g><g id="_2005-2" data-name=" 2005-2" class="cls-4"><g class="cls-4"><path class="cls-5" d="M1671.87,357v6.32H1641.6v-4.84c4.07-4.5,6-6.68,10.75-12.29,5.48-6.4,11.87-13.35,11.87-18.41,0-4.77-2.67-8.21-7.66-8.21-5.41,0-7.79,4.14-8.5,7.44l-6.53-1.54c1.9-7.94,8.08-12.16,15.73-12.16,8,0,13.91,6.4,13.91,14.47,0,7.8-7.3,14.54-19.53,29.22Z"/><path class="cls-5" d="M1716.89,338.74c0,12.36-5.05,25.5-19.17,25.5s-19.18-13.14-19.18-25.5,5.06-25.43,19.18-25.43S1716.89,326.38,1716.89,338.74Zm-7,0c0-8.43-2.74-18.89-12.15-18.89s-12.15,10.46-12.15,18.89,2.74,18.89,12.15,18.89S1709.87,347.17,1709.87,338.74Z"/><path class="cls-5" d="M1761.56,338.74c0,12.36-5,25.5-19.17,25.5s-19.18-13.14-19.18-25.5,5.06-25.43,19.18-25.43S1761.56,326.38,1761.56,338.74Zm-7,0c0-8.43-2.74-18.89-12.15-18.89s-12.15,10.46-12.15,18.89,2.74,18.89,12.15,18.89S1754.54,347.17,1754.54,338.74Z"/><path class="cls-5" d="M1800.82,347.59c0,8.85-6.53,16.65-17.2,16.65-8.15,0-15.18-4.5-16.44-10.89l6.46-1.48c.63,2.46,3.51,6.12,10,6.12a10,10,0,0,0,10.32-10.4c0-6.39-4.21-9.83-9.9-9.83a13.1,13.1,0,0,0-9.55,4.14l-5.62-1.4,3.09-26.34h25.91v6.39h-20.51l-1.61,14.05a14.79,14.79,0,0,1,8.92-3C1794.36,331.58,1800.82,338.46,1800.82,347.59Z"/></g></g></g><g id="Сгруппировать_261" data-name="Сгруппировать 261"><g id="_2006" data-name=" 2006" class="cls-4"><g class="cls-4"><path class="cls-5" d="M1792.16,565.34v6.32h-30.27v-4.84c4.08-4.5,6-6.68,10.75-12.3,5.48-6.39,11.87-13.34,11.87-18.4,0-4.77-2.67-8.22-7.66-8.22-5.41,0-7.79,4.15-8.5,7.45l-6.53-1.55c1.9-7.93,8.08-12.15,15.74-12.15,8,0,13.9,6.4,13.9,14.47,0,7.8-7.3,14.54-19.52,29.22Z"/><path class="cls-5" d="M1837.19,547.08c0,12.36-5.06,25.5-19.18,25.5s-19.17-13.14-19.17-25.5,5.05-25.43,19.17-25.43S1837.19,534.72,1837.19,547.08Zm-7,0c0-8.43-2.74-18.89-12.15-18.89s-12.15,10.46-12.15,18.89S1808.6,566,1818,566,1830.16,555.51,1830.16,547.08Z"/><path class="cls-5" d="M1881.85,547.08c0,12.36-5,25.5-19.17,25.5s-19.18-13.14-19.18-25.5,5.06-25.43,19.18-25.43S1881.85,534.72,1881.85,547.08Zm-7,0c0-8.43-2.74-18.89-12.15-18.89s-12.15,10.46-12.15,18.89,2.74,18.89,12.15,18.89S1874.83,555.51,1874.83,547.08Z"/><path class="cls-5" d="M1922.73,555.93c0,8.85-6.53,16.65-17.28,16.65s-17.28-7.8-17.28-16.65c0-6.88,3.73-11.8,5.48-14.47l13.07-19h7.93l-12.15,17.06a12.63,12.63,0,0,1,3-.35C1915,539.21,1922.73,545.89,1922.73,555.93Zm-6.88,0a10.4,10.4,0,1,0-10.4,10.39A10.14,10.14,0,0,0,1915.85,555.93Z"/></g></g><g id="_2006-2" data-name=" 2006-2" class="cls-4"><g class="cls-4"><path class="cls-5" d="M1792.16,565.34v6.32h-30.27v-4.84c4.08-4.5,6-6.68,10.75-12.3,5.48-6.39,11.87-13.34,11.87-18.4,0-4.77-2.67-8.22-7.66-8.22-5.41,0-7.79,4.15-8.5,7.45l-6.53-1.55c1.9-7.93,8.08-12.15,15.74-12.15,8,0,13.9,6.4,13.9,14.47,0,7.8-7.3,14.54-19.52,29.22Z"/><path class="cls-5" d="M1837.19,547.08c0,12.36-5.06,25.5-19.18,25.5s-19.17-13.14-19.17-25.5,5.05-25.43,19.17-25.43S1837.19,534.72,1837.19,547.08Zm-7,0c0-8.43-2.74-18.89-12.15-18.89s-12.15,10.46-12.15,18.89S1808.6,566,1818,566,1830.16,555.51,1830.16,547.08Z"/><path class="cls-5" d="M1881.85,547.08c0,12.36-5,25.5-19.17,25.5s-19.18-13.14-19.18-25.5,5.06-25.43,19.18-25.43S1881.85,534.72,1881.85,547.08Zm-7,0c0-8.43-2.74-18.89-12.15-18.89s-12.15,10.46-12.15,18.89,2.74,18.89,12.15,18.89S1874.83,555.51,1874.83,547.08Z"/><path class="cls-5" d="M1922.73,555.93c0,8.85-6.53,16.65-17.28,16.65s-17.28-7.8-17.28-16.65c0-6.88,3.73-11.8,5.48-14.47l13.07-19h7.93l-12.15,17.06a12.63,12.63,0,0,1,3-.35C1915,539.21,1922.73,545.89,1922.73,555.93Zm-6.88,0a10.4,10.4,0,1,0-10.4,10.39A10.14,10.14,0,0,0,1915.85,555.93Z"/></g></g></g><g id="Сгруппировать_262" data-name="Сгруппировать 262"><g id="_2007" data-name=" 2007" class="cls-4"><g class="cls-4"><path class="cls-5" d="M1846.51,801.45v6.47h-31v-5c4.17-4.6,6.11-6.83,11-12.59,5.62-6.55,12.16-13.67,12.16-18.85,0-4.89-2.73-8.42-7.84-8.42-5.54,0-8,4.25-8.7,7.63l-6.7-1.58c2-8.13,8.28-12.45,16.12-12.45,8.2,0,14.25,6.55,14.25,14.82,0,8-7.49,14.89-20,29.93Z"/><path class="cls-5" d="M1892.63,782.74c0,12.67-5.18,26.12-19.64,26.12s-19.64-13.45-19.64-26.12,5.18-26,19.64-26S1892.63,770.08,1892.63,782.74Zm-7.19,0c0-8.63-2.81-19.35-12.45-19.35s-12.44,10.72-12.44,19.35,2.8,19.36,12.44,19.36S1885.44,791.38,1885.44,782.74Z"/><path class="cls-5" d="M1938.39,782.74c0,12.67-5.18,26.12-19.64,26.12s-19.64-13.45-19.64-26.12,5.18-26,19.64-26S1938.39,770.08,1938.39,782.74Zm-7.19,0c0-8.63-2.81-19.35-12.45-19.35s-12.45,10.72-12.45,19.35,2.81,19.36,12.45,19.36S1931.2,791.38,1931.2,782.74Z"/><path class="cls-5" d="M1975.3,757.56V763l-17.77,44.89h-7.27l17.42-43.81h-23.17v-6.55Z"/></g></g><g id="_2007-2" data-name=" 2007-2" class="cls-4"><g class="cls-4"><path class="cls-5" d="M1846.51,801.45v6.47h-31v-5c4.17-4.6,6.11-6.83,11-12.59,5.62-6.55,12.16-13.67,12.16-18.85,0-4.89-2.73-8.42-7.84-8.42-5.54,0-8,4.25-8.7,7.63l-6.7-1.58c2-8.13,8.28-12.45,16.12-12.45,8.2,0,14.25,6.55,14.25,14.82,0,8-7.49,14.89-20,29.93Z"/><path class="cls-5" d="M1892.63,782.74c0,12.67-5.18,26.12-19.64,26.12s-19.64-13.45-19.64-26.12,5.18-26,19.64-26S1892.63,770.08,1892.63,782.74Zm-7.19,0c0-8.63-2.81-19.35-12.45-19.35s-12.44,10.72-12.44,19.35,2.8,19.36,12.44,19.36S1885.44,791.38,1885.44,782.74Z"/><path class="cls-5" d="M1938.39,782.74c0,12.67-5.18,26.12-19.64,26.12s-19.64-13.45-19.64-26.12,5.18-26,19.64-26S1938.39,770.08,1938.39,782.74Zm-7.19,0c0-8.63-2.81-19.35-12.45-19.35s-12.45,10.72-12.45,19.35,2.81,19.36,12.45,19.36S1931.2,791.38,1931.2,782.74Z"/><path class="cls-5" d="M1975.3,757.56V763l-17.77,44.89h-7.27l17.42-43.81h-23.17v-6.55Z"/></g></g></g><g id="Сгруппировать_263" data-name="Сгруппировать 263"><g id="_2008" data-name=" 2008" class="cls-4"><g class="cls-4"><path class="cls-5" d="M1827.71,1039.8v6.32h-30.27v-4.85c4.08-4.49,6-6.67,10.75-12.29,5.48-6.39,11.87-13.35,11.87-18.4,0-4.78-2.67-8.22-7.66-8.22-5.41,0-7.79,4.14-8.5,7.44l-6.53-1.54c1.9-7.94,8.08-12.15,15.73-12.15,8,0,13.91,6.39,13.91,14.47,0,7.79-7.3,14.54-19.52,29.22Z"/><path class="cls-5" d="M1872.73,1021.53c0,12.37-5,25.5-19.17,25.5s-19.17-13.13-19.17-25.5,5-25.42,19.17-25.42S1872.73,1009.17,1872.73,1021.53Zm-7,0c0-8.42-2.74-18.89-12.15-18.89s-12.15,10.47-12.15,18.89,2.74,18.9,12.15,18.9S1865.71,1030,1865.71,1021.53Z"/><path class="cls-5" d="M1917.4,1021.53c0,12.37-5.05,25.5-19.17,25.5s-19.18-13.13-19.18-25.5,5.06-25.42,19.18-25.42S1917.4,1009.17,1917.4,1021.53Zm-7,0c0-8.42-2.74-18.89-12.15-18.89s-12.15,10.47-12.15,18.89,2.74,18.9,12.15,18.9S1910.38,1030,1910.38,1021.53Z"/><path class="cls-5" d="M1959.26,1032.14c0,8.78-7.16,14.89-17.77,14.89s-17.77-6.11-17.77-14.89c0-5.62,3.23-10.11,8.22-12.57a11.65,11.65,0,0,1-5.69-10.26c0-7.3,5.34-13.2,15.24-13.2s15.31,5.9,15.31,13.2a11.56,11.56,0,0,1-5.75,10.26C1956.1,1022,1959.26,1026.52,1959.26,1032.14Zm-7.37-.21c0-6-4.78-8.78-10.4-8.78s-10.39,2.74-10.39,8.78c0,5.55,4.49,8.85,10.39,8.85S1951.89,1037.48,1951.89,1031.93Zm-18.9-22.27c0,4.64,3.87,7.38,8.5,7.38s8.57-2.74,8.57-7.38c0-4.42-3.3-7.3-8.57-7.3S1933,1005.24,1933,1009.66Z"/></g></g><g id="_2008-2" data-name=" 2008-2" class="cls-4"><g class="cls-4"><path class="cls-5" d="M1827.71,1039.8v6.32h-30.27v-4.85c4.08-4.49,6-6.67,10.75-12.29,5.48-6.39,11.87-13.35,11.87-18.4,0-4.78-2.67-8.22-7.66-8.22-5.41,0-7.79,4.14-8.5,7.44l-6.53-1.54c1.9-7.94,8.08-12.15,15.73-12.15,8,0,13.91,6.39,13.91,14.47,0,7.79-7.3,14.54-19.52,29.22Z"/><path class="cls-5" d="M1872.73,1021.53c0,12.37-5,25.5-19.17,25.5s-19.17-13.13-19.17-25.5,5-25.42,19.17-25.42S1872.73,1009.17,1872.73,1021.53Zm-7,0c0-8.42-2.74-18.89-12.15-18.89s-12.15,10.47-12.15,18.89,2.74,18.9,12.15,18.9S1865.71,1030,1865.71,1021.53Z"/><path class="cls-5" d="M1917.4,1021.53c0,12.37-5.05,25.5-19.17,25.5s-19.18-13.13-19.18-25.5,5.06-25.42,19.18-25.42S1917.4,1009.17,1917.4,1021.53Zm-7,0c0-8.42-2.74-18.89-12.15-18.89s-12.15,10.47-12.15,18.89,2.74,18.9,12.15,18.9S1910.38,1030,1910.38,1021.53Z"/><path class="cls-5" d="M1959.26,1032.14c0,8.78-7.16,14.89-17.77,14.89s-17.77-6.11-17.77-14.89c0-5.62,3.23-10.11,8.22-12.57a11.65,11.65,0,0,1-5.69-10.26c0-7.3,5.34-13.2,15.24-13.2s15.31,5.9,15.31,13.2a11.56,11.56,0,0,1-5.75,10.26C1956.1,1022,1959.26,1026.52,1959.26,1032.14Zm-7.37-.21c0-6-4.78-8.78-10.4-8.78s-10.39,2.74-10.39,8.78c0,5.55,4.49,8.85,10.39,8.85S1951.89,1037.48,1951.89,1031.93Zm-18.9-22.27c0,4.64,3.87,7.38,8.5,7.38s8.57-2.74,8.57-7.38c0-4.42-3.3-7.3-8.57-7.3S1933,1005.24,1933,1009.66Z"/></g></g></g><g id="Сгруппировать_264" data-name="Сгруппировать 264"><g id="_2009" data-name=" 2009" class="cls-4"><g class="cls-4"><path class="cls-5" d="M1739.82,1263.75v6.32h-30.27v-4.85c4.07-4.49,6-6.67,10.75-12.29,5.47-6.39,11.87-13.34,11.87-18.4,0-4.78-2.67-8.22-7.66-8.22-5.41,0-7.8,4.14-8.5,7.45l-6.53-1.55c1.9-7.94,8.08-12.15,15.73-12.15,8,0,13.91,6.39,13.91,14.47,0,7.79-7.31,14.54-19.53,29.22Z"/><path class="cls-5" d="M1784.84,1245.48c0,12.37-5,25.5-19.17,25.5s-19.18-13.13-19.18-25.5,5.06-25.42,19.18-25.42S1784.84,1233.12,1784.84,1245.48Zm-7,0c0-8.42-2.74-18.89-12.15-18.89s-12.15,10.47-12.15,18.89,2.74,18.9,12.15,18.9S1777.82,1253.91,1777.82,1245.48Z"/><path class="cls-5" d="M1829.51,1245.48c0,12.37-5.06,25.5-19.17,25.5s-19.18-13.13-19.18-25.5,5.06-25.42,19.18-25.42S1829.51,1233.12,1829.51,1245.48Zm-7,0c0-8.42-2.74-18.89-12.15-18.89s-12.15,10.47-12.15,18.89,2.74,18.9,12.15,18.9S1822.49,1253.91,1822.49,1245.48Z"/><path class="cls-5" d="M1835.83,1236.71c0-8.92,6.6-16.65,17.28-16.65s17.35,7.73,17.35,16.65c0,6.88-3.73,11.8-5.55,14.46l-13,18.9H1844l12.15-17.07a13.25,13.25,0,0,1-3,.35C1843.56,1253.35,1835.83,1246.68,1835.83,1236.71Zm6.88,0a10.15,10.15,0,0,0,10.4,10.39,10.4,10.4,0,1,0-10.4-10.39Z"/></g></g><g id="_2009-2" data-name=" 2009-2" class="cls-4"><g class="cls-4"><path class="cls-5" d="M1739.82,1263.75v6.32h-30.27v-4.85c4.07-4.49,6-6.67,10.75-12.29,5.47-6.39,11.87-13.34,11.87-18.4,0-4.78-2.67-8.22-7.66-8.22-5.41,0-7.8,4.14-8.5,7.45l-6.53-1.55c1.9-7.94,8.08-12.15,15.73-12.15,8,0,13.91,6.39,13.91,14.47,0,7.79-7.31,14.54-19.53,29.22Z"/><path class="cls-5" d="M1784.84,1245.48c0,12.37-5,25.5-19.17,25.5s-19.18-13.13-19.18-25.5,5.06-25.42,19.18-25.42S1784.84,1233.12,1784.84,1245.48Zm-7,0c0-8.42-2.74-18.89-12.15-18.89s-12.15,10.47-12.15,18.89,2.74,18.9,12.15,18.9S1777.82,1253.91,1777.82,1245.48Z"/><path class="cls-5" d="M1829.51,1245.48c0,12.37-5.06,25.5-19.17,25.5s-19.18-13.13-19.18-25.5,5.06-25.42,19.18-25.42S1829.51,1233.12,1829.51,1245.48Zm-7,0c0-8.42-2.74-18.89-12.15-18.89s-12.15,10.47-12.15,18.89,2.74,18.9,12.15,18.9S1822.49,1253.91,1822.49,1245.48Z"/><path class="cls-5" d="M1835.83,1236.71c0-8.92,6.6-16.65,17.28-16.65s17.35,7.73,17.35,16.65c0,6.88-3.73,11.8-5.55,14.46l-13,18.9H1844l12.15-17.07a13.25,13.25,0,0,1-3,.35C1843.56,1253.35,1835.83,1246.68,1835.83,1236.71Zm6.88,0a10.15,10.15,0,0,0,10.4,10.39,10.4,10.4,0,1,0-10.4-10.39Z"/></g></g></g><g id="Сгруппировать_265" data-name="Сгруппировать 265"><g id="_2010" data-name=" 2010" class="cls-4"><g class="cls-4"><path class="cls-5" d="M1590.64,1453.4v6.47h-31v-5c4.18-4.61,6.12-6.84,11-12.59,5.61-6.55,12.16-13.67,12.16-18.85,0-4.89-2.73-8.42-7.84-8.42-5.54,0-8,4.25-8.71,7.63l-6.69-1.59c1.94-8.13,8.28-12.44,16.12-12.44,8.2,0,14.24,6.55,14.24,14.82,0,8-7.48,14.89-20,29.93Z"/><path class="cls-5" d="M1636.76,1434.69c0,12.66-5.18,26.12-19.64,26.12s-19.64-13.46-19.64-26.12,5.18-26,19.64-26S1636.76,1422,1636.76,1434.69Zm-7.19,0c0-8.63-2.81-19.35-12.45-19.35s-12.45,10.72-12.45,19.35,2.81,19.36,12.45,19.36S1629.57,1443.33,1629.57,1434.69Z"/><path class="cls-5" d="M1661.44,1409.51v50.36h-7.2v-41.15l-9.56,6.4-3.24-5.25,15.4-10.36Z"/><path class="cls-5" d="M1710.44,1434.69c0,12.66-5.18,26.12-19.65,26.12s-19.64-13.46-19.64-26.12,5.18-26,19.64-26S1710.44,1422,1710.44,1434.69Zm-7.2,0c0-8.63-2.81-19.35-12.45-19.35s-12.44,10.72-12.44,19.35,2.8,19.36,12.44,19.36S1703.24,1443.33,1703.24,1434.69Z"/></g></g><g id="_2010-2" data-name=" 2010-2" class="cls-4"><g class="cls-4"><path class="cls-5" d="M1590.64,1453.4v6.47h-31v-5c4.18-4.61,6.12-6.84,11-12.59,5.61-6.55,12.16-13.67,12.16-18.85,0-4.89-2.73-8.42-7.84-8.42-5.54,0-8,4.25-8.71,7.63l-6.69-1.59c1.94-8.13,8.28-12.44,16.12-12.44,8.2,0,14.24,6.55,14.24,14.82,0,8-7.48,14.89-20,29.93Z"/><path class="cls-5" d="M1636.76,1434.69c0,12.66-5.18,26.12-19.64,26.12s-19.64-13.46-19.64-26.12,5.18-26,19.64-26S1636.76,1422,1636.76,1434.69Zm-7.19,0c0-8.63-2.81-19.35-12.45-19.35s-12.45,10.72-12.45,19.35,2.81,19.36,12.45,19.36S1629.57,1443.33,1629.57,1434.69Z"/><path class="cls-5" d="M1661.44,1409.51v50.36h-7.2v-41.15l-9.56,6.4-3.24-5.25,15.4-10.36Z"/><path class="cls-5" d="M1710.44,1434.69c0,12.66-5.18,26.12-19.65,26.12s-19.64-13.46-19.64-26.12,5.18-26,19.64-26S1710.44,1422,1710.44,1434.69Zm-7.2,0c0-8.63-2.81-19.35-12.45-19.35s-12.44,10.72-12.44,19.35,2.8,19.36,12.44,19.36S1703.24,1443.33,1703.24,1434.69Z"/></g></g></g><g id="Сгруппировать_266" data-name="Сгруппировать 266"><g id="_2011" data-name=" 2011" class="cls-4"><g class="cls-4"><path class="cls-5" d="M1392.77,1585.8V1592h-29.54v-4.73c4-4.38,5.83-6.51,10.49-12,5.34-6.24,11.58-13,11.58-18,0-4.66-2.61-8-7.47-8-5.28,0-7.61,4-8.3,7.26l-6.37-1.51c1.85-7.74,7.88-11.85,15.35-11.85,7.81,0,13.57,6.23,13.57,14.12,0,7.6-7.13,14.18-19,28.5Z"/><path class="cls-5" d="M1436.69,1568c0,12.06-4.93,24.87-18.71,24.87s-18.71-12.81-18.71-24.87,4.94-24.81,18.71-24.81S1436.69,1555.92,1436.69,1568Zm-6.85,0c0-8.23-2.68-18.44-11.86-18.44s-11.85,10.21-11.85,18.44,2.67,18.43,11.85,18.43S1429.84,1576.21,1429.84,1568Z"/><path class="cls-5" d="M1460.19,1544v48h-6.85v-39.2l-9.12,6.1-3.08-5,14.66-9.87Z"/><path class="cls-5" d="M1490.89,1544v48H1484v-39.2l-9.11,6.1-3.08-5,14.66-9.87Z"/></g></g><g id="_2011-2" data-name=" 2011-2" class="cls-4"><g class="cls-4"><path class="cls-5" d="M1392.77,1585.8V1592h-29.54v-4.73c4-4.38,5.83-6.51,10.49-12,5.34-6.24,11.58-13,11.58-18,0-4.66-2.61-8-7.47-8-5.28,0-7.61,4-8.3,7.26l-6.37-1.51c1.85-7.74,7.88-11.85,15.35-11.85,7.81,0,13.57,6.23,13.57,14.12,0,7.6-7.13,14.18-19,28.5Z"/><path class="cls-5" d="M1436.69,1568c0,12.06-4.93,24.87-18.71,24.87s-18.71-12.81-18.71-24.87,4.94-24.81,18.71-24.81S1436.69,1555.92,1436.69,1568Zm-6.85,0c0-8.23-2.68-18.44-11.86-18.44s-11.85,10.21-11.85,18.44,2.67,18.43,11.85,18.43S1429.84,1576.21,1429.84,1568Z"/><path class="cls-5" d="M1460.19,1544v48h-6.85v-39.2l-9.12,6.1-3.08-5,14.66-9.87Z"/><path class="cls-5" d="M1490.89,1544v48H1484v-39.2l-9.11,6.1-3.08-5,14.66-9.87Z"/></g></g></g><g id="Сгруппировать_267" data-name="Сгруппировать 267"><g id="_2012" data-name=" 2012" class="cls-4"><g class="cls-4"><path class="cls-5" d="M1161.16,1658.27v6.33h-30.27v-4.85c4.07-4.5,6-6.67,10.75-12.29,5.48-6.39,11.87-13.35,11.87-18.4,0-4.78-2.67-8.22-7.66-8.22-5.41,0-7.79,4.14-8.5,7.44l-6.53-1.54c1.9-7.94,8.08-12.15,15.73-12.15,8,0,13.91,6.39,13.91,14.47,0,7.79-7.3,14.54-19.53,29.21Z"/><path class="cls-5" d="M1206.18,1640c0,12.36-5,25.5-19.17,25.5s-19.18-13.14-19.18-25.5,5.06-25.42,19.18-25.42S1206.18,1627.65,1206.18,1640Zm-7,0c0-8.43-2.74-18.89-12.15-18.89s-12.15,10.46-12.15,18.89,2.74,18.9,12.15,18.9S1199.16,1648.44,1199.16,1640Z"/><path class="cls-5" d="M1230.27,1615.43v49.17h-7v-40.18l-9.34,6.25-3.16-5.13,15-10.11Z"/><path class="cls-5" d="M1271.85,1658.27v6.33h-30.27v-4.85c4.08-4.5,6-6.67,10.75-12.29,5.48-6.39,11.87-13.35,11.87-18.4,0-4.78-2.67-8.22-7.66-8.22-5.41,0-7.79,4.14-8.5,7.44l-6.53-1.54c1.9-7.94,8.08-12.15,15.73-12.15,8,0,13.91,6.39,13.91,14.47,0,7.79-7.3,14.54-19.52,29.21Z"/></g></g><g id="_2012-2" data-name=" 2012-2" class="cls-4"><g class="cls-4"><path class="cls-5" d="M1161.16,1658.27v6.33h-30.27v-4.85c4.07-4.5,6-6.67,10.75-12.29,5.48-6.39,11.87-13.35,11.87-18.4,0-4.78-2.67-8.22-7.66-8.22-5.41,0-7.79,4.14-8.5,7.44l-6.53-1.54c1.9-7.94,8.08-12.15,15.73-12.15,8,0,13.91,6.39,13.91,14.47,0,7.79-7.3,14.54-19.53,29.21Z"/><path class="cls-5" d="M1206.18,1640c0,12.36-5,25.5-19.17,25.5s-19.18-13.14-19.18-25.5,5.06-25.42,19.18-25.42S1206.18,1627.65,1206.18,1640Zm-7,0c0-8.43-2.74-18.89-12.15-18.89s-12.15,10.46-12.15,18.89,2.74,18.9,12.15,18.9S1199.16,1648.44,1199.16,1640Z"/><path class="cls-5" d="M1230.27,1615.43v49.17h-7v-40.18l-9.34,6.25-3.16-5.13,15-10.11Z"/><path class="cls-5" d="M1271.85,1658.27v6.33h-30.27v-4.85c4.08-4.5,6-6.67,10.75-12.29,5.48-6.39,11.87-13.35,11.87-18.4,0-4.78-2.67-8.22-7.66-8.22-5.41,0-7.79,4.14-8.5,7.44l-6.53-1.54c1.9-7.94,8.08-12.15,15.73-12.15,8,0,13.91,6.39,13.91,14.47,0,7.79-7.3,14.54-19.52,29.21Z"/></g></g></g><g id="Сгруппировать_268" data-name="Сгруппировать 268"><g id="_2013" data-name=" 2013" class="cls-4"><g class="cls-4"><path class="cls-5" d="M920.58,1658.27v6.33H890.31v-4.85c4.08-4.5,6-6.67,10.75-12.29,5.48-6.39,11.87-13.35,11.87-18.4,0-4.78-2.67-8.22-7.66-8.22-5.41,0-7.79,4.14-8.5,7.44l-6.53-1.54c1.9-7.94,8.08-12.15,15.73-12.15,8,0,13.91,6.39,13.91,14.47,0,7.79-7.3,14.54-19.52,29.21Z"/><path class="cls-5" d="M965.6,1640c0,12.36-5.05,25.5-19.17,25.5s-19.17-13.14-19.17-25.5,5-25.42,19.17-25.42S965.6,1627.65,965.6,1640Zm-7,0c0-8.43-2.74-18.89-12.15-18.89s-12.15,10.46-12.15,18.89,2.74,18.9,12.15,18.9S958.58,1648.44,958.58,1640Z"/><path class="cls-5" d="M989.69,1615.43v49.17h-7v-40.18l-9.34,6.25-3.16-5.13,15-10.11Z"/><path class="cls-5" d="M1033.45,1650.06c0,8.92-6.32,15.45-17,15.45-8.14,0-15.38-4.5-16.57-10.82l6.53-1.47c.56,2.46,3.51,6,10,6,6,0,10-3.09,10-9.2,0-6.46-6.32-7.73-10.54-7.73h-4.14v-5.9H1016c4.22,0,8.71-1.75,8.71-7.8,0-4-2.6-7.79-8.22-7.79-5.26,0-7.79,3-8.57,5.76l-6.46-1.41c1.76-6.53,8.15-10.6,15-10.6,9.2,0,14.75,5.83,14.75,13.48a11.47,11.47,0,0,1-6.53,10.54C1030.29,1640.57,1033.45,1644.58,1033.45,1650.06Z"/></g></g><g id="_2013-2" data-name=" 2013-2" class="cls-4"><g class="cls-4"><path class="cls-5" d="M920.58,1658.27v6.33H890.31v-4.85c4.08-4.5,6-6.67,10.75-12.29,5.48-6.39,11.87-13.35,11.87-18.4,0-4.78-2.67-8.22-7.66-8.22-5.41,0-7.79,4.14-8.5,7.44l-6.53-1.54c1.9-7.94,8.08-12.15,15.73-12.15,8,0,13.91,6.39,13.91,14.47,0,7.79-7.3,14.54-19.52,29.21Z"/><path class="cls-5" d="M965.6,1640c0,12.36-5.05,25.5-19.17,25.5s-19.17-13.14-19.17-25.5,5-25.42,19.17-25.42S965.6,1627.65,965.6,1640Zm-7,0c0-8.43-2.74-18.89-12.15-18.89s-12.15,10.46-12.15,18.89,2.74,18.9,12.15,18.9S958.58,1648.44,958.58,1640Z"/><path class="cls-5" d="M989.69,1615.43v49.17h-7v-40.18l-9.34,6.25-3.16-5.13,15-10.11Z"/><path class="cls-5" d="M1033.45,1650.06c0,8.92-6.32,15.45-17,15.45-8.14,0-15.38-4.5-16.57-10.82l6.53-1.47c.56,2.46,3.51,6,10,6,6,0,10-3.09,10-9.2,0-6.46-6.32-7.73-10.54-7.73h-4.14v-5.9H1016c4.22,0,8.71-1.75,8.71-7.8,0-4-2.6-7.79-8.22-7.79-5.26,0-7.79,3-8.57,5.76l-6.46-1.41c1.76-6.53,8.15-10.6,15-10.6,9.2,0,14.75,5.83,14.75,13.48a11.47,11.47,0,0,1-6.53,10.54C1030.29,1640.57,1033.45,1644.58,1033.45,1650.06Z"/></g></g></g><g id="Сгруппировать_269" data-name="Сгруппировать 269"><g id="_2014" data-name=" 2014" class="cls-4"><g class="cls-4"><path class="cls-5" d="M691.5,1588.92v6.48h-31v-5c4.18-4.6,6.12-6.83,11-12.59,5.61-6.54,12.16-13.67,12.16-18.85,0-4.89-2.73-8.42-7.84-8.42-5.54,0-8,4.25-8.71,7.63l-6.69-1.58c2-8.13,8.28-12.45,16.12-12.45,8.2,0,14.24,6.55,14.24,14.82,0,8-7.48,14.89-20,29.93Z"/><path class="cls-5" d="M737.62,1570.22c0,12.66-5.18,26.11-19.64,26.11s-19.64-13.45-19.64-26.11,5.18-26,19.64-26S737.62,1557.55,737.62,1570.22Zm-7.19,0c0-8.64-2.81-19.36-12.45-19.36s-12.45,10.72-12.45,19.36,2.81,19.35,12.45,19.35S730.43,1578.85,730.43,1570.22Z"/><path class="cls-5" d="M762.3,1545v50.37h-7.19v-41.16l-9.57,6.41-3.24-5.25L757.7,1545Z"/><path class="cls-5" d="M811,1584.1h-6.55v11.3h-7.19v-11.3H773.09v-5.75L794.17,1545h10.29v32.67H811Zm-13.74-6.4v-25.61L781,1577.7Z"/></g></g><g id="_2014-2" data-name=" 2014-2" class="cls-4"><g class="cls-4"><path class="cls-5" d="M691.5,1588.92v6.48h-31v-5c4.18-4.6,6.12-6.83,11-12.59,5.61-6.54,12.16-13.67,12.16-18.85,0-4.89-2.73-8.42-7.84-8.42-5.54,0-8,4.25-8.71,7.63l-6.69-1.58c2-8.13,8.28-12.45,16.12-12.45,8.2,0,14.24,6.55,14.24,14.82,0,8-7.48,14.89-20,29.93Z"/><path class="cls-5" d="M737.62,1570.22c0,12.66-5.18,26.11-19.64,26.11s-19.64-13.45-19.64-26.11,5.18-26,19.64-26S737.62,1557.55,737.62,1570.22Zm-7.19,0c0-8.64-2.81-19.36-12.45-19.36s-12.45,10.72-12.45,19.36,2.81,19.35,12.45,19.35S730.43,1578.85,730.43,1570.22Z"/><path class="cls-5" d="M762.3,1545v50.37h-7.19v-41.16l-9.57,6.41-3.24-5.25L757.7,1545Z"/><path class="cls-5" d="M811,1584.1h-6.55v11.3h-7.19v-11.3H773.09v-5.75L794.17,1545h10.29v32.67H811Zm-13.74-6.4v-25.61L781,1577.7Z"/></g></g></g><g id="Сгруппировать_270" data-name="Сгруппировать 270"><g id="_2015" data-name=" 2015" class="cls-4"><g class="cls-4"><path class="cls-5" d="M491.92,1451.84v6.32H461.65v-4.85c4.07-4.49,6-6.67,10.74-12.29,5.48-6.39,11.87-13.34,11.87-18.4,0-4.78-2.67-8.22-7.65-8.22-5.41,0-7.8,4.15-8.5,7.45l-6.53-1.55c1.89-7.93,8.07-12.15,15.73-12.15,8,0,13.91,6.39,13.91,14.47,0,7.8-7.31,14.54-19.53,29.22Z"/><path class="cls-5" d="M536.94,1433.58c0,12.36-5.06,25.49-19.17,25.49s-19.18-13.13-19.18-25.49,5.06-25.43,19.18-25.43S536.94,1421.22,536.94,1433.58Zm-7,0c0-8.43-2.74-18.9-12.15-18.9s-12.16,10.47-12.16,18.9,2.74,18.89,12.16,18.89S529.92,1442,529.92,1433.58Z"/><path class="cls-5" d="M561,1409v49.17h-7V1418l-9.35,6.26-3.16-5.13,15-10.12Z"/><path class="cls-5" d="M605.56,1442.43c0,8.85-6.53,16.64-17.21,16.64-8.15,0-15.17-4.49-16.43-10.88l6.46-1.48c.63,2.46,3.51,6.11,10,6.11a10,10,0,0,0,10.33-10.39c0-6.39-4.22-9.84-9.91-9.84a13.1,13.1,0,0,0-9.55,4.15l-5.62-1.41,3.09-26.34h25.92v6.4H582.1l-1.61,14a14.8,14.8,0,0,1,8.91-3C599.1,1426.41,605.56,1433.3,605.56,1442.43Z"/></g></g><g id="_2015-2" data-name=" 2015-2" class="cls-4"><g class="cls-4"><path class="cls-5" d="M491.92,1451.84v6.32H461.65v-4.85c4.07-4.49,6-6.67,10.74-12.29,5.48-6.39,11.87-13.34,11.87-18.4,0-4.78-2.67-8.22-7.65-8.22-5.41,0-7.8,4.15-8.5,7.45l-6.53-1.55c1.89-7.93,8.07-12.15,15.73-12.15,8,0,13.91,6.39,13.91,14.47,0,7.8-7.31,14.54-19.53,29.22Z"/><path class="cls-5" d="M536.94,1433.58c0,12.36-5.06,25.49-19.17,25.49s-19.18-13.13-19.18-25.49,5.06-25.43,19.18-25.43S536.94,1421.22,536.94,1433.58Zm-7,0c0-8.43-2.74-18.9-12.15-18.9s-12.16,10.47-12.16,18.9,2.74,18.89,12.16,18.89S529.92,1442,529.92,1433.58Z"/><path class="cls-5" d="M561,1409v49.17h-7V1418l-9.35,6.26-3.16-5.13,15-10.12Z"/><path class="cls-5" d="M605.56,1442.43c0,8.85-6.53,16.64-17.21,16.64-8.15,0-15.17-4.49-16.43-10.88l6.46-1.48c.63,2.46,3.51,6.11,10,6.11a10,10,0,0,0,10.33-10.39c0-6.39-4.22-9.84-9.91-9.84a13.1,13.1,0,0,0-9.55,4.15l-5.62-1.41,3.09-26.34h25.92v6.4H582.1l-1.61,14a14.8,14.8,0,0,1,8.91-3C599.1,1426.41,605.56,1433.3,605.56,1442.43Z"/></g></g></g><g id="Сгруппировать_271" data-name="Сгруппировать 271"><g id="_2016" data-name=" 2016" class="cls-4"><g class="cls-4"><path class="cls-5" d="M341.92,1263.75v6.32H311.64v-4.85c4.08-4.49,6-6.67,10.75-12.29,5.48-6.39,11.87-13.34,11.87-18.4,0-4.78-2.67-8.22-7.66-8.22-5.4,0-7.79,4.14-8.49,7.45l-6.54-1.55c1.9-7.94,8.08-12.15,15.74-12.15,8,0,13.9,6.39,13.9,14.47,0,7.79-7.3,14.54-19.52,29.22Z"/><path class="cls-5" d="M386.94,1245.48c0,12.37-5.06,25.5-19.18,25.5s-19.17-13.13-19.17-25.5,5.05-25.42,19.17-25.42S386.94,1233.12,386.94,1245.48Zm-7,0c0-8.42-2.74-18.89-12.15-18.89s-12.15,10.47-12.15,18.89,2.74,18.9,12.15,18.9S379.91,1253.91,379.91,1245.48Z"/><path class="cls-5" d="M411,1220.9v49.17h-7v-40.18l-9.34,6.25L391.5,1231l15-10.12Z"/><path class="cls-5" d="M456.47,1254.33c0,8.85-6.53,16.65-17.28,16.65s-17.28-7.8-17.28-16.65c0-6.88,3.73-11.8,5.48-14.46l13.07-19h7.93L436.24,1238a12.63,12.63,0,0,1,2.95-.35C448.74,1237.62,456.47,1244.29,456.47,1254.33Zm-6.88,0a10.4,10.4,0,1,0-10.4,10.4A10.13,10.13,0,0,0,449.59,1254.33Z"/></g></g><g id="_2016-2" data-name=" 2016-2" class="cls-4"><g class="cls-4"><path class="cls-5" d="M341.92,1263.75v6.32H311.64v-4.85c4.08-4.49,6-6.67,10.75-12.29,5.48-6.39,11.87-13.34,11.87-18.4,0-4.78-2.67-8.22-7.66-8.22-5.4,0-7.79,4.14-8.49,7.45l-6.54-1.55c1.9-7.94,8.08-12.15,15.74-12.15,8,0,13.9,6.39,13.9,14.47,0,7.79-7.3,14.54-19.52,29.22Z"/><path class="cls-5" d="M386.94,1245.48c0,12.37-5.06,25.5-19.18,25.5s-19.17-13.13-19.17-25.5,5.05-25.42,19.17-25.42S386.94,1233.12,386.94,1245.48Zm-7,0c0-8.42-2.74-18.89-12.15-18.89s-12.15,10.47-12.15,18.89,2.74,18.9,12.15,18.9S379.91,1253.91,379.91,1245.48Z"/><path class="cls-5" d="M411,1220.9v49.17h-7v-40.18l-9.34,6.25L391.5,1231l15-10.12Z"/><path class="cls-5" d="M456.47,1254.33c0,8.85-6.53,16.65-17.28,16.65s-17.28-7.8-17.28-16.65c0-6.88,3.73-11.8,5.48-14.46l13.07-19h7.93L436.24,1238a12.63,12.63,0,0,1,2.95-.35C448.74,1237.62,456.47,1244.29,456.47,1254.33Zm-6.88,0a10.4,10.4,0,1,0-10.4,10.4A10.13,10.13,0,0,0,449.59,1254.33Z"/></g></g></g><g id="Сгруппировать_272" data-name="Сгруппировать 272"><g id="_2017" data-name=" 2017" class="cls-4"><g class="cls-4"><path class="cls-5" d="M254.84,1041.36v6.47h-31v-5c4.17-4.61,6.12-6.84,11-12.59,5.61-6.55,12.16-13.67,12.16-18.85,0-4.9-2.74-8.42-7.85-8.42-5.54,0-8,4.24-8.7,7.62l-6.69-1.58c1.94-8.13,8.27-12.44,16.11-12.44,8.21,0,14.25,6.54,14.25,14.82,0,8-7.48,14.89-20,29.93Z"/><path class="cls-5" d="M301,1022.65c0,12.66-5.18,26.12-19.64,26.12s-19.65-13.46-19.65-26.12,5.19-26,19.65-26S301,1010,301,1022.65Zm-7.2,0c0-8.63-2.8-19.35-12.44-19.35s-12.45,10.72-12.45,19.35,2.81,19.35,12.45,19.35S293.76,1031.28,293.76,1022.65Z"/><path class="cls-5" d="M325.64,997.47v50.36h-7.2v-41.15l-9.57,6.4-3.23-5.25L321,997.47Z"/><path class="cls-5" d="M367.94,997.47v5.47l-17.77,44.89H342.9L360.31,1004H337.15v-6.55Z"/></g></g><g id="_2017-2" data-name=" 2017-2" class="cls-4"><g class="cls-4"><path class="cls-5" d="M254.84,1041.36v6.47h-31v-5c4.17-4.61,6.12-6.84,11-12.59,5.61-6.55,12.16-13.67,12.16-18.85,0-4.9-2.74-8.42-7.85-8.42-5.54,0-8,4.24-8.7,7.62l-6.69-1.58c1.94-8.13,8.27-12.44,16.11-12.44,8.21,0,14.25,6.54,14.25,14.82,0,8-7.48,14.89-20,29.93Z"/><path class="cls-5" d="M301,1022.65c0,12.66-5.18,26.12-19.64,26.12s-19.65-13.46-19.65-26.12,5.19-26,19.65-26S301,1010,301,1022.65Zm-7.2,0c0-8.63-2.8-19.35-12.44-19.35s-12.45,10.72-12.45,19.35,2.81,19.35,12.45,19.35S293.76,1031.28,293.76,1022.65Z"/><path class="cls-5" d="M325.64,997.47v50.36h-7.2v-41.15l-9.57,6.4-3.23-5.25L321,997.47Z"/><path class="cls-5" d="M367.94,997.47v5.47l-17.77,44.89H342.9L360.31,1004H337.15v-6.55Z"/></g></g></g><g id="Сгруппировать_273" data-name="Сгруппировать 273"><g id="_2018" data-name=" 2018" class="cls-4"><g class="cls-4"><path class="cls-5" d="M236,799.89v6.32H205.77v-4.84c4.07-4.5,6-6.68,10.74-12.3,5.48-6.39,11.87-13.34,11.87-18.4,0-4.77-2.67-8.22-7.65-8.22-5.41,0-7.8,4.15-8.5,7.45l-6.53-1.55c1.89-7.93,8.07-12.15,15.73-12.15,8,0,13.91,6.39,13.91,14.47,0,7.8-7.31,14.54-19.53,29.22Z"/><path class="cls-5" d="M281.06,781.63c0,12.36-5.06,25.49-19.17,25.49S242.71,794,242.71,781.63s5.06-25.43,19.18-25.43S281.06,769.27,281.06,781.63Zm-7,0c0-8.43-2.74-18.89-12.15-18.89s-12.16,10.46-12.16,18.89,2.74,18.89,12.16,18.89S274,790.06,274,781.63Z"/><path class="cls-5" d="M305.15,757.05v49.16h-7V766l-9.35,6.25-3.16-5.13,15-10.11Z"/><path class="cls-5" d="M350.87,792.23c0,8.78-7.16,14.89-17.77,14.89s-17.77-6.11-17.77-14.89c0-5.61,3.23-10.11,8.22-12.57a11.64,11.64,0,0,1-5.69-10.25c0-7.31,5.34-13.21,15.24-13.21s15.31,5.9,15.31,13.21a11.55,11.55,0,0,1-5.76,10.25C347.71,782.12,350.87,786.62,350.87,792.23ZM343.5,792c0-6-4.78-8.78-10.4-8.78S322.71,786,322.71,792c0,5.55,4.49,8.85,10.39,8.85S343.5,797.57,343.5,792Zm-18.9-22.26c0,4.63,3.87,7.37,8.5,7.37s8.57-2.74,8.57-7.37c0-4.43-3.3-7.31-8.57-7.31S324.6,765.33,324.6,769.76Z"/></g></g><g id="_2018-2" data-name=" 2018-2" class="cls-4"><g class="cls-4"><path class="cls-5" d="M236,799.89v6.32H205.77v-4.84c4.07-4.5,6-6.68,10.74-12.3,5.48-6.39,11.87-13.34,11.87-18.4,0-4.77-2.67-8.22-7.65-8.22-5.41,0-7.8,4.15-8.5,7.45l-6.53-1.55c1.89-7.93,8.07-12.15,15.73-12.15,8,0,13.91,6.39,13.91,14.47,0,7.8-7.31,14.54-19.53,29.22Z"/><path class="cls-5" d="M281.06,781.63c0,12.36-5.06,25.49-19.17,25.49S242.71,794,242.71,781.63s5.06-25.43,19.18-25.43S281.06,769.27,281.06,781.63Zm-7,0c0-8.43-2.74-18.89-12.15-18.89s-12.16,10.46-12.16,18.89,2.74,18.89,12.16,18.89S274,790.06,274,781.63Z"/><path class="cls-5" d="M305.15,757.05v49.16h-7V766l-9.35,6.25-3.16-5.13,15-10.11Z"/><path class="cls-5" d="M350.87,792.23c0,8.78-7.16,14.89-17.77,14.89s-17.77-6.11-17.77-14.89c0-5.61,3.23-10.11,8.22-12.57a11.64,11.64,0,0,1-5.69-10.25c0-7.31,5.34-13.21,15.24-13.21s15.31,5.9,15.31,13.21a11.55,11.55,0,0,1-5.76,10.25C347.71,782.12,350.87,786.62,350.87,792.23ZM343.5,792c0-6-4.78-8.78-10.4-8.78S322.71,786,322.71,792c0,5.55,4.49,8.85,10.39,8.85S343.5,797.57,343.5,792Zm-18.9-22.26c0,4.63,3.87,7.37,8.5,7.37s8.57-2.74,8.57-7.37c0-4.43-3.3-7.31-8.57-7.31S324.6,765.33,324.6,769.76Z"/></g></g></g><g id="Сгруппировать_274" data-name="Сгруппировать 274"><g id="_2019" data-name=" 2019" class="cls-4"><g class="cls-4"><path class="cls-5" d="M289.58,565.34v6.32H259.3v-4.84c4.08-4.5,6-6.68,10.75-12.3,5.48-6.39,11.87-13.34,11.87-18.4,0-4.77-2.67-8.22-7.66-8.22-5.4,0-7.79,4.15-8.49,7.45l-6.54-1.55c1.9-7.93,8.08-12.15,15.74-12.15,8,0,13.9,6.4,13.9,14.47,0,7.8-7.3,14.54-19.52,29.22Z"/><path class="cls-5" d="M334.6,547.08c0,12.36-5.06,25.5-19.18,25.5s-19.17-13.14-19.17-25.5,5.05-25.43,19.17-25.43S334.6,534.72,334.6,547.08Zm-7,0c0-8.43-2.74-18.89-12.15-18.89s-12.15,10.46-12.15,18.89S306,566,315.42,566,327.57,555.51,327.57,547.08Z"/><path class="cls-5" d="M358.69,522.5v49.16h-7V531.49l-9.34,6.25-3.16-5.13,15-10.11Z"/><path class="cls-5" d="M368.87,538.3c0-8.92,6.6-16.65,17.28-16.65s17.35,7.73,17.35,16.65c0,6.88-3.73,11.8-5.55,14.47l-13,18.89H377l12.15-17.07a12.76,12.76,0,0,1-3,.36C376.6,555,368.87,548.27,368.87,538.3Zm6.88,0a10.15,10.15,0,0,0,10.4,10.39,10.4,10.4,0,1,0-10.4-10.39Z"/></g></g><g id="_2019-2" data-name=" 2019-2" class="cls-4"><g class="cls-4"><path class="cls-5" d="M289.58,565.34v6.32H259.3v-4.84c4.08-4.5,6-6.68,10.75-12.3,5.48-6.39,11.87-13.34,11.87-18.4,0-4.77-2.67-8.22-7.66-8.22-5.4,0-7.79,4.15-8.49,7.45l-6.54-1.55c1.9-7.93,8.08-12.15,15.74-12.15,8,0,13.9,6.4,13.9,14.47,0,7.8-7.3,14.54-19.52,29.22Z"/><path class="cls-5" d="M334.6,547.08c0,12.36-5.06,25.5-19.18,25.5s-19.17-13.14-19.17-25.5,5.05-25.43,19.17-25.43S334.6,534.72,334.6,547.08Zm-7,0c0-8.43-2.74-18.89-12.15-18.89s-12.15,10.46-12.15,18.89S306,566,315.42,566,327.57,555.51,327.57,547.08Z"/><path class="cls-5" d="M358.69,522.5v49.16h-7V531.49l-9.34,6.25-3.16-5.13,15-10.11Z"/><path class="cls-5" d="M368.87,538.3c0-8.92,6.6-16.65,17.28-16.65s17.35,7.73,17.35,16.65c0,6.88-3.73,11.8-5.55,14.47l-13,18.89H377l12.15-17.07a12.76,12.76,0,0,1-3,.36C376.6,555,368.87,548.27,368.87,538.3Zm6.88,0a10.15,10.15,0,0,0,10.4,10.39,10.4,10.4,0,1,0-10.4-10.39Z"/></g></g></g><g id="Сгруппировать_275" data-name="Сгруппировать 275"><g id="_2020" data-name=" 2020" class="cls-4"><g class="cls-4"><path class="cls-5" d="M410.69,358.56V365h-31v-5c4.17-4.6,6.12-6.83,11-12.59,5.61-6.55,12.16-13.67,12.16-18.85,0-4.89-2.74-8.42-7.85-8.42-5.54,0-8,4.25-8.7,7.63l-6.69-1.58c1.94-8.13,8.27-12.45,16.11-12.45,8.21,0,14.25,6.55,14.25,14.82,0,8-7.48,14.89-20,29.93Z"/><path class="cls-5" d="M456.81,339.85c0,12.67-5.18,26.12-19.64,26.12s-19.65-13.45-19.65-26.12,5.18-26,19.65-26S456.81,327.19,456.81,339.85Zm-7.2,0c0-8.63-2.8-19.35-12.44-19.35s-12.45,10.72-12.45,19.35,2.81,19.36,12.45,19.36S449.61,348.49,449.61,339.85Z"/><path class="cls-5" d="M493.28,358.56V365h-31v-5c4.17-4.6,6.11-6.83,11-12.59,5.62-6.55,12.16-13.67,12.16-18.85,0-4.89-2.73-8.42-7.84-8.42-5.54,0-8,4.25-8.7,7.63l-6.7-1.58c1.95-8.13,8.28-12.45,16.12-12.45,8.2,0,14.25,6.55,14.25,14.82,0,8-7.49,14.89-20,29.93Z"/><path class="cls-5" d="M539.4,339.85c0,12.67-5.18,26.12-19.64,26.12s-19.64-13.45-19.64-26.12,5.18-26,19.64-26S539.4,327.19,539.4,339.85Zm-7.19,0c0-8.63-2.81-19.35-12.45-19.35s-12.44,10.72-12.44,19.35,2.8,19.36,12.44,19.36S532.21,348.49,532.21,339.85Z"/></g></g><g id="_2020-2" data-name=" 2020-2" class="cls-4"><g class="cls-4"><path class="cls-5" d="M410.69,358.56V365h-31v-5c4.17-4.6,6.12-6.83,11-12.59,5.61-6.55,12.16-13.67,12.16-18.85,0-4.89-2.74-8.42-7.85-8.42-5.54,0-8,4.25-8.7,7.63l-6.69-1.58c1.94-8.13,8.27-12.45,16.11-12.45,8.21,0,14.25,6.55,14.25,14.82,0,8-7.48,14.89-20,29.93Z"/><path class="cls-5" d="M456.81,339.85c0,12.67-5.18,26.12-19.64,26.12s-19.65-13.45-19.65-26.12,5.18-26,19.65-26S456.81,327.19,456.81,339.85Zm-7.2,0c0-8.63-2.8-19.35-12.44-19.35s-12.45,10.72-12.45,19.35,2.81,19.36,12.45,19.36S449.61,348.49,449.61,339.85Z"/><path class="cls-5" d="M493.28,358.56V365h-31v-5c4.17-4.6,6.11-6.83,11-12.59,5.62-6.55,12.16-13.67,12.16-18.85,0-4.89-2.73-8.42-7.84-8.42-5.54,0-8,4.25-8.7,7.63l-6.7-1.58c1.95-8.13,8.28-12.45,16.12-12.45,8.2,0,14.25,6.55,14.25,14.82,0,8-7.49,14.89-20,29.93Z"/><path class="cls-5" d="M539.4,339.85c0,12.67-5.18,26.12-19.64,26.12s-19.64-13.45-19.64-26.12,5.18-26,19.64-26S539.4,327.19,539.4,339.85Zm-7.19,0c0-8.63-2.81-19.35-12.45-19.35s-12.44,10.72-12.44,19.35,2.8,19.36,12.44,19.36S532.21,348.49,532.21,339.85Z"/></g></g></g><g id="Сгруппировать_276" data-name="Сгруппировать 276"><g id="Forecast" class="cls-4"><g class="cls-4"><path class="cls-6" d="M507.25,156.91v14.61h18.47v6.39H507.25v21.77h-7V150.52h28.16v6.39Z"/><path class="cls-6" d="M569.62,181.91a18.68,18.68,0,1,1-18.68-18.68A18.45,18.45,0,0,1,569.62,181.91Zm-6.53,0c0-7.3-5.13-12.64-12.15-12.64s-12.08,5.34-12.08,12.64,5,12.57,12.08,12.57S563.09,189.15,563.09,181.91Z"/><path class="cls-6" d="M594.91,163.23v7.23C584.37,169.2,583,177.21,583,183.74v15.94h-6.4V164.07H583v6.18A13.11,13.11,0,0,1,594.91,163.23Z"/><path class="cls-6" d="M633.53,184.65h-28.3c1,5.83,5.34,9.83,12.29,9.83,3.86,0,7.38-1.47,9.34-4l5.27,3.37c-3.16,4.29-8.36,6.74-14.61,6.74-11.8,0-19.1-8.42-19.1-18.68s7.58-18.68,18.05-18.68C626.16,163.23,635.22,171.38,633.53,184.65Zm-6.46-5.48c-.84-6-4.56-9.9-10.6-9.9s-10.26,4-11.24,9.9Z"/><path class="cls-6" d="M667.67,188.79l5.48,3a18.24,18.24,0,0,1-15.81,8.85A18.68,18.68,0,1,1,673.15,172l-5.48,3a11.81,11.81,0,0,0-10.33-5.76c-7,0-12.15,5.34-12.15,12.64s5.13,12.57,12.15,12.57A11.73,11.73,0,0,0,667.67,188.79Z"/><path class="cls-6" d="M708.4,178.19v21.49H702v-4.92c-1.61,2.74-6,5.83-11.66,5.83-6.74,0-12.64-4.07-12.64-10.46,0-11.17,13.56-11.45,18.54-11.45H702c0-5.41-1.12-9.62-8.5-9.62a16.65,16.65,0,0,0-9.2,3.16l-4.49-3.44a22.2,22.2,0,0,1,15-5.55C705,163.23,708.4,169.69,708.4,178.19ZM702,183.67h-2.46c-6.6,0-15.24-.07-15.24,6.18,0,2.74,1.76,5.55,7.45,5.55,6.11,0,9.83-4.29,10.25-5.9Z"/><path class="cls-6" d="M742.68,189c0,6.32-4.5,11.58-14,11.58-7,0-12.92-2.81-14.33-8.14l6.25-2.11c.57,1.83,2.46,4.35,8.22,4.35,4.64,0,7.24-1.89,7.24-5.05,0-4.15-6-4.15-10.89-5.27-6.67-1.48-9.55-4.71-9.55-10,0-6.54,5.41-11.17,13.13-11.17,5.76,0,10.89,3,12.15,8.22l-6,1.61c-.63-2-2.74-4.07-6.74-4.07-3.51,0-6.11,2-6.11,4.91,0,4,4.92,4.29,9,5.13C739.8,180.86,742.68,183.67,742.68,189Z"/><path class="cls-6" d="M757.43,170.18v15.59c0,5.06.07,8.43,5.62,8.43,1.05,0,1.82-.07,2.6-.14v5.62a15.4,15.4,0,0,1-3.45.35c-7.72,0-11.16-4.14-11.16-11.94V170.18h-5.55v-6.11H751v-7.44h6.39v7.44h8.22v6.11Z"/></g></g><g id="Forecast-2" class="cls-4"><g class="cls-4"><path class="cls-6" d="M507.25,156.91v14.61h18.47v6.39H507.25v21.77h-7V150.52h28.16v6.39Z"/><path class="cls-6" d="M569.62,181.91a18.68,18.68,0,1,1-18.68-18.68A18.45,18.45,0,0,1,569.62,181.91Zm-6.53,0c0-7.3-5.13-12.64-12.15-12.64s-12.08,5.34-12.08,12.64,5,12.57,12.08,12.57S563.09,189.15,563.09,181.91Z"/><path class="cls-6" d="M594.91,163.23v7.23C584.37,169.2,583,177.21,583,183.74v15.94h-6.4V164.07H583v6.18A13.11,13.11,0,0,1,594.91,163.23Z"/><path class="cls-6" d="M633.53,184.65h-28.3c1,5.83,5.34,9.83,12.29,9.83,3.86,0,7.38-1.47,9.34-4l5.27,3.37c-3.16,4.29-8.36,6.74-14.61,6.74-11.8,0-19.1-8.42-19.1-18.68s7.58-18.68,18.05-18.68C626.16,163.23,635.22,171.38,633.53,184.65Zm-6.46-5.48c-.84-6-4.56-9.9-10.6-9.9s-10.26,4-11.24,9.9Z"/><path class="cls-6" d="M667.67,188.79l5.48,3a18.24,18.24,0,0,1-15.81,8.85A18.68,18.68,0,1,1,673.15,172l-5.48,3a11.81,11.81,0,0,0-10.33-5.76c-7,0-12.15,5.34-12.15,12.64s5.13,12.57,12.15,12.57A11.73,11.73,0,0,0,667.67,188.79Z"/><path class="cls-6" d="M708.4,178.19v21.49H702v-4.92c-1.61,2.74-6,5.83-11.66,5.83-6.74,0-12.64-4.07-12.64-10.46,0-11.17,13.56-11.45,18.54-11.45H702c0-5.41-1.12-9.62-8.5-9.62a16.65,16.65,0,0,0-9.2,3.16l-4.49-3.44a22.2,22.2,0,0,1,15-5.55C705,163.23,708.4,169.69,708.4,178.19ZM702,183.67h-2.46c-6.6,0-15.24-.07-15.24,6.18,0,2.74,1.76,5.55,7.45,5.55,6.11,0,9.83-4.29,10.25-5.9Z"/><path class="cls-6" d="M742.68,189c0,6.32-4.5,11.58-14,11.58-7,0-12.92-2.81-14.33-8.14l6.25-2.11c.57,1.83,2.46,4.35,8.22,4.35,4.64,0,7.24-1.89,7.24-5.05,0-4.15-6-4.15-10.89-5.27-6.67-1.48-9.55-4.71-9.55-10,0-6.54,5.41-11.17,13.13-11.17,5.76,0,10.89,3,12.15,8.22l-6,1.61c-.63-2-2.74-4.07-6.74-4.07-3.51,0-6.11,2-6.11,4.91,0,4,4.92,4.29,9,5.13C739.8,180.86,742.68,183.67,742.68,189Z"/><path class="cls-6" d="M757.43,170.18v15.59c0,5.06.07,8.43,5.62,8.43,1.05,0,1.82-.07,2.6-.14v5.62a15.4,15.4,0,0,1-3.45.35c-7.72,0-11.16-4.14-11.16-11.94V170.18h-5.55v-6.11H751v-7.44h6.39v7.44h8.22v6.11Z"/></g></g></g></g><g id="lines" class="cls-7"><path id="line-0" class="cls-8" d="M1165.64,577.82c18.11-23.12,36.59,67.7,25.41,110.54s-88.3,125.4-92.52,146.52S1157,813.76,1165.75,815s-70.18,6.28-14.67,27.58,308.5,70.07,347.77,100.22-88.83,46.82-112.16,80.64-26.92,48.12-27.81,122.3,60.14,316.81,22.44,322.78-184.43-278.86-248.64-286.93-94.31,223.75-136.57,238.45-49.4-143.18-117-150.17-291.83,160.76-288.78,108.2S905,1022.51,897.4,954.57,553.09,991.14,545,970.42s292.25-89.09,303.79-140.16S602.16,682.57,614.16,664s257.68,67,306.6,54.88-40-148.78-13-127.3,145.55,216.93,174.66,256.18-13.87,24.33,0-20.67,65.16-226.15,83.27-249.28"/></g><g id="Сгруппировать_284" data-name="Сгруппировать 284"><g id="Сгруппировать_278" data-name="Сгруппировать 278"><g id="_0" data-name=" 0" class="cls-4"><g class="cls-4"><path class="cls-6" d="M1059.59,859.63a40.2,40.2,0,0,1,1.61-12.6,15.66,15.66,0,0,1,4.78-7.36,12.24,12.24,0,0,1,8-2.59,12.93,12.93,0,0,1,6.23,1.43,11.87,11.87,0,0,1,4.43,4.12,22.25,22.25,0,0,1,2.74,6.57,43.72,43.72,0,0,1,1,10.43,40.63,40.63,0,0,1-1.59,12.54,15.75,15.75,0,0,1-4.78,7.38,13.45,13.45,0,0,1-18-2Q1059.59,872.06,1059.59,859.63Zm5.57,0q0,10.88,2.54,14.47a7.5,7.5,0,0,0,6.28,3.6q3.74,0,6.28-3.62t2.54-14.45q0-10.9-2.54-14.48a7.56,7.56,0,0,0-6.34-3.59,7,7,0,0,0-6,3.16Q1065.15,848.75,1065.16,859.63Z"/></g></g><g id="_0-2" data-name=" 0-2" class="cls-4"><g class="cls-4"><path class="cls-6" d="M1059.59,859.63a40.2,40.2,0,0,1,1.61-12.6,15.66,15.66,0,0,1,4.78-7.36,12.24,12.24,0,0,1,8-2.59,12.93,12.93,0,0,1,6.23,1.43,11.87,11.87,0,0,1,4.43,4.12,22.25,22.25,0,0,1,2.74,6.57,43.72,43.72,0,0,1,1,10.43,40.63,40.63,0,0,1-1.59,12.54,15.75,15.75,0,0,1-4.78,7.38,13.45,13.45,0,0,1-18-2Q1059.59,872.06,1059.59,859.63Zm5.57,0q0,10.88,2.54,14.47a7.5,7.5,0,0,0,6.28,3.6q3.74,0,6.28-3.62t2.54-14.45q0-10.9-2.54-14.48a7.56,7.56,0,0,0-6.34-3.59,7,7,0,0,0-6,3.16Q1065.15,848.75,1065.16,859.63Z"/></g></g><g id="_0-3" data-name=" 0-3" class="cls-4"><g class="cls-4"><path class="cls-6" d="M1059.59,859.63a40.2,40.2,0,0,1,1.61-12.6,15.66,15.66,0,0,1,4.78-7.36,12.24,12.24,0,0,1,8-2.59,12.93,12.93,0,0,1,6.23,1.43,11.87,11.87,0,0,1,4.43,4.12,22.25,22.25,0,0,1,2.74,6.57,43.72,43.72,0,0,1,1,10.43,40.63,40.63,0,0,1-1.59,12.54,15.75,15.75,0,0,1-4.78,7.38,13.45,13.45,0,0,1-18-2Q1059.59,872.06,1059.59,859.63Zm5.57,0q0,10.88,2.54,14.47a7.5,7.5,0,0,0,6.28,3.6q3.74,0,6.28-3.62t2.54-14.45q0-10.9-2.54-14.48a7.56,7.56,0,0,0-6.34-3.59,7,7,0,0,0-6,3.16Q1065.15,848.75,1065.16,859.63Z"/></g></g></g><g id="Сгруппировать_279" data-name="Сгруппировать 279"><g id="_2" data-name=" 2" class="cls-4"><g class="cls-4"><path class="cls-6" d="M1088.07,738.77V744h-29.18a9.43,9.43,0,0,1,.64-3.76,19.82,19.82,0,0,1,3.56-5.87,55.58,55.58,0,0,1,7.1-6.69q7.18-5.89,9.72-9.35a11.17,11.17,0,0,0,2.53-6.52,7.24,7.24,0,0,0-2.3-5.43,8.31,8.31,0,0,0-6-2.22,8.47,8.47,0,0,0-6.26,2.35,8.89,8.89,0,0,0-2.38,6.51l-5.57-.58q.57-6.23,4.3-9.5t10-3.26q6.36,0,10.06,3.52a11.56,11.56,0,0,1,3.7,8.73,13.25,13.25,0,0,1-1.08,5.21,19.91,19.91,0,0,1-3.6,5.39,86.9,86.9,0,0,1-8.36,7.77q-4.87,4.1-6.26,5.56a17.87,17.87,0,0,0-2.29,2.93Z"/></g></g><g id="_2-2" data-name=" 2-2" class="cls-4"><g class="cls-4"><path class="cls-6" d="M1088.07,738.77V744h-29.18a9.43,9.43,0,0,1,.64-3.76,19.82,19.82,0,0,1,3.56-5.87,55.58,55.58,0,0,1,7.1-6.69q7.18-5.89,9.72-9.35a11.17,11.17,0,0,0,2.53-6.52,7.24,7.24,0,0,0-2.3-5.43,8.31,8.31,0,0,0-6-2.22,8.47,8.47,0,0,0-6.26,2.35,8.89,8.89,0,0,0-2.38,6.51l-5.57-.58q.57-6.23,4.3-9.5t10-3.26q6.36,0,10.06,3.52a11.56,11.56,0,0,1,3.7,8.73,13.25,13.25,0,0,1-1.08,5.21,19.91,19.91,0,0,1-3.6,5.39,86.9,86.9,0,0,1-8.36,7.77q-4.87,4.1-6.26,5.56a17.87,17.87,0,0,0-2.29,2.93Z"/></g></g><g id="_2-3" data-name=" 2-3" class="cls-4"><g class="cls-4"><path class="cls-6" d="M1088.07,738.77V744h-29.18a9.43,9.43,0,0,1,.64-3.76,19.82,19.82,0,0,1,3.56-5.87,55.58,55.58,0,0,1,7.1-6.69q7.18-5.89,9.72-9.35a11.17,11.17,0,0,0,2.53-6.52,7.24,7.24,0,0,0-2.3-5.43,8.31,8.31,0,0,0-6-2.22,8.47,8.47,0,0,0-6.26,2.35,8.89,8.89,0,0,0-2.38,6.51l-5.57-.58q.57-6.23,4.3-9.5t10-3.26q6.36,0,10.06,3.52a11.56,11.56,0,0,1,3.7,8.73,13.25,13.25,0,0,1-1.08,5.21,19.91,19.91,0,0,1-3.6,5.39,86.9,86.9,0,0,1-8.36,7.77q-4.87,4.1-6.26,5.56a17.87,17.87,0,0,0-2.29,2.93Z"/></g></g></g><g id="Сгруппировать_280" data-name="Сгруппировать 280"><g id="_4" data-name=" 4" class="cls-4"><g class="cls-4"><path class="cls-6" d="M1077,606.56V596h-19.15v-5L1078,562.42h4.43V591h6v5h-6v10.57Zm0-15.53V571.12L1063.14,591Z"/></g></g><g id="_4-2" data-name=" 4-2" class="cls-4"><g class="cls-4"><path class="cls-6" d="M1077,606.56V596h-19.15v-5L1078,562.42h4.43V591h6v5h-6v10.57Zm0-15.53V571.12L1063.14,591Z"/></g></g><g id="_4-3" data-name=" 4-3" class="cls-4"><g class="cls-4"><path class="cls-6" d="M1077,606.56V596h-19.15v-5L1078,562.42h4.43V591h6v5h-6v10.57Zm0-15.53V571.12L1063.14,591Z"/></g></g></g><g id="Сгруппировать_281" data-name="Сгруппировать 281"><g id="_6" data-name=" 6" class="cls-4"><g class="cls-4"><path class="cls-6" d="M1087.71,435.81l-5.39.42a10.11,10.11,0,0,0-2-4.63,7.15,7.15,0,0,0-5.42-2.32,7.45,7.45,0,0,0-4.54,1.44,12.39,12.39,0,0,0-4,5.45c-1,2.39-1.49,5.8-1.53,10.21a12.57,12.57,0,0,1,4.78-4.42,12.84,12.84,0,0,1,5.94-1.45,12.27,12.27,0,0,1,9.22,4,14.32,14.32,0,0,1,3.81,10.31,16.93,16.93,0,0,1-1.79,7.73,13,13,0,0,1-4.92,5.46,13.41,13.41,0,0,1-7.11,1.9,13.9,13.9,0,0,1-11.05-5q-4.27-5-4.28-16.43,0-12.8,4.73-18.61a13.61,13.61,0,0,1,11.11-5.06,11.82,11.82,0,0,1,12.53,11Zm-22.13,19a12.44,12.44,0,0,0,1.19,5.36,8.78,8.78,0,0,0,3.33,3.9,8.24,8.24,0,0,0,4.48,1.34,7.62,7.62,0,0,0,5.9-2.77,10.86,10.86,0,0,0,2.47-7.52,10.2,10.2,0,0,0-2.44-7.22,8,8,0,0,0-6.14-2.63,8.36,8.36,0,0,0-6.23,2.63A9.49,9.49,0,0,0,1065.58,454.84Z"/></g></g><g id="_6-2" data-name=" 6-2" class="cls-4"><g class="cls-4"><path class="cls-6" d="M1087.71,435.81l-5.39.42a10.11,10.11,0,0,0-2-4.63,7.15,7.15,0,0,0-5.42-2.32,7.45,7.45,0,0,0-4.54,1.44,12.39,12.39,0,0,0-4,5.45c-1,2.39-1.49,5.8-1.53,10.21a12.57,12.57,0,0,1,4.78-4.42,12.84,12.84,0,0,1,5.94-1.45,12.27,12.27,0,0,1,9.22,4,14.32,14.32,0,0,1,3.81,10.31,16.93,16.93,0,0,1-1.79,7.73,13,13,0,0,1-4.92,5.46,13.41,13.41,0,0,1-7.11,1.9,13.9,13.9,0,0,1-11.05-5q-4.27-5-4.28-16.43,0-12.8,4.73-18.61a13.61,13.61,0,0,1,11.11-5.06,11.82,11.82,0,0,1,12.53,11Zm-22.13,19a12.44,12.44,0,0,0,1.19,5.36,8.78,8.78,0,0,0,3.33,3.9,8.24,8.24,0,0,0,4.48,1.34,7.62,7.62,0,0,0,5.9-2.77,10.86,10.86,0,0,0,2.47-7.52,10.2,10.2,0,0,0-2.44-7.22,8,8,0,0,0-6.14-2.63,8.36,8.36,0,0,0-6.23,2.63A9.49,9.49,0,0,0,1065.58,454.84Z"/></g></g><g id="_6-3" data-name=" 6-3" class="cls-4"><g class="cls-4"><path class="cls-6" d="M1087.71,435.81l-5.39.42a10.11,10.11,0,0,0-2-4.63,7.15,7.15,0,0,0-5.42-2.32,7.45,7.45,0,0,0-4.54,1.44,12.39,12.39,0,0,0-4,5.45c-1,2.39-1.49,5.8-1.53,10.21a12.57,12.57,0,0,1,4.78-4.42,12.84,12.84,0,0,1,5.94-1.45,12.27,12.27,0,0,1,9.22,4,14.32,14.32,0,0,1,3.81,10.31,16.93,16.93,0,0,1-1.79,7.73,13,13,0,0,1-4.92,5.46,13.41,13.41,0,0,1-7.11,1.9,13.9,13.9,0,0,1-11.05-5q-4.27-5-4.28-16.43,0-12.8,4.73-18.61a13.61,13.61,0,0,1,11.11-5.06,11.82,11.82,0,0,1,12.53,11Zm-22.13,19a12.44,12.44,0,0,0,1.19,5.36,8.78,8.78,0,0,0,3.33,3.9,8.24,8.24,0,0,0,4.48,1.34,7.62,7.62,0,0,0,5.9-2.77,10.86,10.86,0,0,0,2.47-7.52,10.2,10.2,0,0,0-2.44-7.22,8,8,0,0,0-6.14-2.63,8.36,8.36,0,0,0-6.23,2.63A9.49,9.49,0,0,0,1065.58,454.84Z"/></g></g></g><g id="Сгруппировать_282" data-name="Сгруппировать 282"><g id="_8" data-name=" 8" class="cls-4"><g class="cls-4"><path class="cls-6" d="M1067.93,307.79a10.13,10.13,0,0,1-5-3.52,9.18,9.18,0,0,1-1.63-5.48,10.72,10.72,0,0,1,3.47-8.1,12.8,12.8,0,0,1,9.21-3.28,12.94,12.94,0,0,1,9.3,3.35,10.88,10.88,0,0,1,3.53,8.18,9,9,0,0,1-1.61,5.34,10.16,10.16,0,0,1-4.9,3.51,11.88,11.88,0,0,1,6.19,4.28,11.72,11.72,0,0,1,2.12,7,12.68,12.68,0,0,1-4,9.52,16.3,16.3,0,0,1-21.08,0,12.88,12.88,0,0,1-4-9.66,11.64,11.64,0,0,1,2.18-7.21A11,11,0,0,1,1067.93,307.79ZM1065.1,319a9.7,9.7,0,0,0,1.1,4.49,7.72,7.72,0,0,0,3.26,3.36,9.6,9.6,0,0,0,4.67,1.19,8.71,8.71,0,0,0,6.41-2.5,8.54,8.54,0,0,0,2.53-6.35,8.7,8.7,0,0,0-2.6-6.48,9,9,0,0,0-6.52-2.56,8.62,8.62,0,0,0-8.85,8.85Zm1.74-20.38a6.9,6.9,0,0,0,2,5.12,7.17,7.17,0,0,0,5.24,2,7,7,0,0,0,5.13-2,6.49,6.49,0,0,0,2-4.83,6.73,6.73,0,0,0-2.07-5,7,7,0,0,0-5.13-2,7.12,7.12,0,0,0-5.15,2A6.43,6.43,0,0,0,1066.84,298.61Z"/></g></g><g id="_8-2" data-name=" 8-2" class="cls-4"><g class="cls-4"><path class="cls-6" d="M1067.93,307.79a10.13,10.13,0,0,1-5-3.52,9.18,9.18,0,0,1-1.63-5.48,10.72,10.72,0,0,1,3.47-8.1,12.8,12.8,0,0,1,9.21-3.28,12.94,12.94,0,0,1,9.3,3.35,10.88,10.88,0,0,1,3.53,8.18,9,9,0,0,1-1.61,5.34,10.16,10.16,0,0,1-4.9,3.51,11.88,11.88,0,0,1,6.19,4.28,11.72,11.72,0,0,1,2.12,7,12.68,12.68,0,0,1-4,9.52,16.3,16.3,0,0,1-21.08,0,12.88,12.88,0,0,1-4-9.66,11.64,11.64,0,0,1,2.18-7.21A11,11,0,0,1,1067.93,307.79ZM1065.1,319a9.7,9.7,0,0,0,1.1,4.49,7.72,7.72,0,0,0,3.26,3.36,9.6,9.6,0,0,0,4.67,1.19,8.71,8.71,0,0,0,6.41-2.5,8.54,8.54,0,0,0,2.53-6.35,8.7,8.7,0,0,0-2.6-6.48,9,9,0,0,0-6.52-2.56,8.62,8.62,0,0,0-8.85,8.85Zm1.74-20.38a6.9,6.9,0,0,0,2,5.12,7.17,7.17,0,0,0,5.24,2,7,7,0,0,0,5.13-2,6.49,6.49,0,0,0,2-4.83,6.73,6.73,0,0,0-2.07-5,7,7,0,0,0-5.13-2,7.12,7.12,0,0,0-5.15,2A6.43,6.43,0,0,0,1066.84,298.61Z"/></g></g><g id="_8-3" data-name=" 8-3" class="cls-4"><g class="cls-4"><path class="cls-6" d="M1067.93,307.79a10.13,10.13,0,0,1-5-3.52,9.18,9.18,0,0,1-1.63-5.48,10.72,10.72,0,0,1,3.47-8.1,12.8,12.8,0,0,1,9.21-3.28,12.94,12.94,0,0,1,9.3,3.35,10.88,10.88,0,0,1,3.53,8.18,9,9,0,0,1-1.61,5.34,10.16,10.16,0,0,1-4.9,3.51,11.88,11.88,0,0,1,6.19,4.28,11.72,11.72,0,0,1,2.12,7,12.68,12.68,0,0,1-4,9.52,16.3,16.3,0,0,1-21.08,0,12.88,12.88,0,0,1-4-9.66,11.64,11.64,0,0,1,2.18-7.21A11,11,0,0,1,1067.93,307.79ZM1065.1,319a9.7,9.7,0,0,0,1.1,4.49,7.72,7.72,0,0,0,3.26,3.36,9.6,9.6,0,0,0,4.67,1.19,8.71,8.71,0,0,0,6.41-2.5,8.54,8.54,0,0,0,2.53-6.35,8.7,8.7,0,0,0-2.6-6.48,9,9,0,0,0-6.52-2.56,8.62,8.62,0,0,0-8.85,8.85Zm1.74-20.38a6.9,6.9,0,0,0,2,5.12,7.17,7.17,0,0,0,5.24,2,7,7,0,0,0,5.13-2,6.49,6.49,0,0,0,2-4.83,6.73,6.73,0,0,0-2.07-5,7,7,0,0,0-5.13-2,7.12,7.12,0,0,0-5.15,2A6.43,6.43,0,0,0,1066.84,298.61Z"/></g></g></g><g id="Сгруппировать_283" data-name="Сгруппировать 283"><g id="_10" data-name=" 10" class="cls-4"><g class="cls-4"><path class="cls-6" d="M1054.44,194.31h-5.57v-35.5a28.68,28.68,0,0,1-5.28,3.84,37.64,37.64,0,0,1-5.86,2.88v-5.39a33.87,33.87,0,0,0,8.17-5.32,20.92,20.92,0,0,0,4.95-6.07h3.59Z"/><path class="cls-6" d="M1068.71,171.93a41.66,41.66,0,0,1,1.65-13,16.17,16.17,0,0,1,4.92-7.57,12.62,12.62,0,0,1,8.22-2.66,13.44,13.44,0,0,1,6.41,1.47,12.37,12.37,0,0,1,4.55,4.24,23,23,0,0,1,2.81,6.75,44.88,44.88,0,0,1,1,10.72,41.41,41.41,0,0,1-1.64,12.89,16.18,16.18,0,0,1-4.9,7.59,12.62,12.62,0,0,1-8.25,2.67,12.44,12.44,0,0,1-10.31-4.7Q1068.71,184.71,1068.71,171.93Zm5.72,0q0,11.17,2.62,14.87t6.45,3.7c2.56,0,4.71-1.23,6.45-3.71s2.62-7.43,2.62-14.86-.87-12.43-2.62-14.88a7.75,7.75,0,0,0-6.51-3.69,7.16,7.16,0,0,0-6.13,3.25Q1074.43,160.76,1074.43,171.93Z"/></g></g><g id="_10-2" data-name=" 10-2" class="cls-4"><g class="cls-4"><path class="cls-6" d="M1054.44,194.31h-5.57v-35.5a28.68,28.68,0,0,1-5.28,3.84,37.64,37.64,0,0,1-5.86,2.88v-5.39a33.87,33.87,0,0,0,8.17-5.32,20.92,20.92,0,0,0,4.95-6.07h3.59Z"/><path class="cls-6" d="M1068.71,171.93a41.66,41.66,0,0,1,1.65-13,16.17,16.17,0,0,1,4.92-7.57,12.62,12.62,0,0,1,8.22-2.66,13.44,13.44,0,0,1,6.41,1.47,12.37,12.37,0,0,1,4.55,4.24,23,23,0,0,1,2.81,6.75,44.88,44.88,0,0,1,1,10.72,41.41,41.41,0,0,1-1.64,12.89,16.18,16.18,0,0,1-4.9,7.59,12.62,12.62,0,0,1-8.25,2.67,12.44,12.44,0,0,1-10.31-4.7Q1068.71,184.71,1068.71,171.93Zm5.72,0q0,11.17,2.62,14.87t6.45,3.7c2.56,0,4.71-1.23,6.45-3.71s2.62-7.43,2.62-14.86-.87-12.43-2.62-14.88a7.75,7.75,0,0,0-6.51-3.69,7.16,7.16,0,0,0-6.13,3.25Q1074.43,160.76,1074.43,171.93Z"/></g></g><g id="_10-3" data-name=" 10-3" class="cls-4"><g class="cls-4"><path class="cls-6" d="M1054.44,194.31h-5.57v-35.5a28.68,28.68,0,0,1-5.28,3.84,37.64,37.64,0,0,1-5.86,2.88v-5.39a33.87,33.87,0,0,0,8.17-5.32,20.92,20.92,0,0,0,4.95-6.07h3.59Z"/><path class="cls-6" d="M1068.71,171.93a41.66,41.66,0,0,1,1.65-13,16.17,16.17,0,0,1,4.92-7.57,12.62,12.62,0,0,1,8.22-2.66,13.44,13.44,0,0,1,6.41,1.47,12.37,12.37,0,0,1,4.55,4.24,23,23,0,0,1,2.81,6.75,44.88,44.88,0,0,1,1,10.72,41.41,41.41,0,0,1-1.64,12.89,16.18,16.18,0,0,1-4.9,7.59,12.62,12.62,0,0,1-8.25,2.67,12.44,12.44,0,0,1-10.31-4.7Q1068.71,184.71,1068.71,171.93Zm5.72,0q0,11.17,2.62,14.87t6.45,3.7c2.56,0,4.71-1.23,6.45-3.71s2.62-7.43,2.62-14.86-.87-12.43-2.62-14.88a7.75,7.75,0,0,0-6.51-3.69,7.16,7.16,0,0,0-6.13,3.25Q1074.43,160.76,1074.43,171.93Z"/></g></g></g></g></g></svg>