<svg id="Layer_1" data-name="Layer 1" xmlns="http://www.w3.org/2000/svg" viewBox="0 0 3358.29 1921.64"><defs><style>.cls-1,.cls-4{fill:none;}.cls-1{stroke:#9baf78;stroke-miterlimit:10;stroke-width:0.25px;}.cls-2,.cls-5{isolation:isolate;}.cls-3{fill:#fff;}.cls-4{stroke:#ebeae9;}.cls-5{fill:#5c895a;opacity:0.75;}.cls-6{fill:#051a1e;}.cls-7{fill:#728860;}</style></defs><g id="Сгруппировать_131" data-name="Сгруппировать 131"><g id="Сгруппировать_105" data-name="Сгруппировать 105"><g id="Сгруппировать_104" data-name="Сгруппировать 104"><g id="Сгруппировать_103" data-name="Сгруппировать 103"><line id="Линия_23" data-name="Линия 23" class="cls-1" x1="127.23" y1="1741.6" x2="3319.94" y2="1741.6"/><line id="Линия_24" data-name="Линия 24" class="cls-1" x1="127.23" y1="1518.95" x2="3319.94" y2="1518.95"/><line id="Линия_25" data-name="Линия 25" class="cls-1" x1="127.23" y1="1296.3" x2="3319.94" y2="1296.3"/><line id="Линия_26" data-name="Линия 26" class="cls-1" x1="127.23" y1="1073.65" x2="3319.94" y2="1073.65"/><line id="Линия_27" data-name="Линия 27" class="cls-1" x1="127.23" y1="851" x2="3319.94" y2="851"/><line id="Линия_28" data-name="Линия 28" class="cls-1" x1="127.23" y1="628.35" x2="3319.94" y2="628.35"/><line id="Линия_29" data-name="Линия 29" class="cls-1" x1="127.23" y1="405.7" x2="3319.94" y2="405.7"/><line id="Линия_30" data-name="Линия 30" class="cls-1" x1="127.23" y1="183.06" x2="3319.94" y2="183.06"/></g></g></g><g id="Сгруппировать_119" data-name="Сгруппировать 119"><g id="Сгруппировать_106" data-name="Сгруппировать 106"><g id="_2020" data-name=" 2020" class="cls-2"><g class="cls-2"><path class="cls-3" d="M3283.42,1876.31l3.16,3.15-15.11,15.11-2.42-2.42c-.21-4.27-.35-6.31-.77-11.49-.46-5.93-.74-12.59-3.26-15.11s-5.44-2.77-7.92-.28c-2.7,2.7-1.83,6-.53,8l-4,2.49c-3-4.9-2-10.09,1.79-13.91,4-4,10.13-3.75,14.16.28s3.61,10.9,4.84,24.33Z"/><path class="cls-3" d="M3296.78,1844.72c6.17,6.17,10.2,15.25,3.15,22.3s-16.12,3-22.29-3.16-10.17-15.21-3.12-22.26S3290.61,1838.55,3296.78,1844.72Zm-3.51,3.51c-4.2-4.21-10.8-8.06-15.49-3.37s-.84,11.29,3.36,15.5,10.8,8.06,15.5,3.36S3297.48,1852.44,3293.27,1848.23Z"/><path class="cls-3" d="M3323.67,1836.07l3.15,3.15-15.11,15.11-2.42-2.42c-.21-4.28-.35-6.31-.77-11.5-.45-5.92-.73-12.58-3.26-15.11-2.38-2.38-5.43-2.77-7.92-.28-2.7,2.7-1.82,6-.53,8l-4,2.49c-3-4.91-2-10.1,1.79-13.92,4-4,10.13-3.75,14.16.28s3.61,10.91,4.84,24.33Z"/><path class="cls-3" d="M3337,1804.48c6.17,6.17,10.2,15.25,3.16,22.3s-16.13,3-22.3-3.16-10.16-15.21-3.12-22.26S3330.85,1798.31,3337,1804.48Zm-3.5,3.51c-4.21-4.21-10.8-8.07-15.5-3.37s-.84,11.29,3.37,15.5,10.79,8.06,15.49,3.36S3337.72,1812.19,3333.52,1808Z"/></g></g></g><g id="Сгруппировать_107" data-name="Сгруппировать 107"><g id="_2019" data-name=" 2019" class="cls-2"><g class="cls-2"><path class="cls-3" d="M3017.54,1876.31l3.15,3.15-15.11,15.11-2.41-2.42c-.21-4.27-.35-6.31-.78-11.49-.45-5.93-.73-12.59-3.26-15.11s-5.43-2.77-7.92-.28c-2.7,2.7-1.82,6-.52,8l-4,2.49c-3-4.9-2-10.09,1.79-13.91,4-4,10.13-3.75,14.16.28s3.62,10.9,4.84,24.33Z"/><path class="cls-3" d="M3030.89,1844.72c6.17,6.17,10.21,15.25,3.16,22.3s-16.13,3-22.3-3.16-10.16-15.21-3.12-22.26S3024.72,1838.56,3030.89,1844.72Zm-3.5,3.51c-4.21-4.21-10.8-8.06-15.5-3.37s-.84,11.29,3.37,15.5,10.8,8.06,15.49,3.36S3031.6,1852.44,3027.39,1848.23Z"/><path class="cls-3" d="M3030.65,1820.43l24.54,24.54-3.51,3.51-20-20.06-1.54,7.79-4.14-1,2.46-12.55Z"/><path class="cls-3" d="M3043.62,1823.24c-4.45-4.46-5-11.61.31-16.94s12.52-4.8,17-.35c3.44,3.44,4,7.75,4.45,10l3,15.92-4,4-2.46-14.58a9.31,9.31,0,0,1-1.33,1.68C3055.78,1827.69,3048.6,1828.21,3043.62,1823.24Zm3.43-3.44a7.17,7.17,0,0,0,10.38,0,7.34,7.34,0,1,0-10.38,0Z"/></g></g></g><g id="Сгруппировать_108" data-name="Сгруппировать 108"><g id="_2018" data-name=" 2018" class="cls-2"><g class="cls-2"><path class="cls-3" d="M2751.66,1876.31l3.15,3.16-15.11,15.11-2.42-2.42c-.21-4.28-.35-6.31-.77-11.5-.45-5.92-.73-12.59-3.26-15.11-2.38-2.38-5.43-2.77-7.92-.28-2.7,2.7-1.82,6-.53,8l-4,2.49c-3-4.91-2-10.1,1.79-13.92,4-4,10.13-3.75,14.16.28s3.61,10.9,4.84,24.33Z"/><path class="cls-3" d="M2765,1844.73c6.17,6.17,10.2,15.25,3.16,22.29s-16.13,3-22.3-3.15-10.16-15.22-3.12-22.26S2758.84,1838.56,2765,1844.73Zm-3.5,3.5c-4.21-4.2-10.8-8.06-15.5-3.36s-.84,11.29,3.37,15.49,10.8,8.07,15.49,3.37S2765.71,1852.44,2761.51,1848.23Z"/><path class="cls-3" d="M2764.77,1820.43l24.54,24.54-3.51,3.51-20.05-20-1.54,7.78-4.14-1,2.45-12.55Z"/><path class="cls-3" d="M2805.15,1815.18c4.38,4.38,3.86,11-1.44,16.3s-11.92,5.82-16.3,1.43a9.77,9.77,0,0,1-2.17-10.37,8.22,8.22,0,0,1-8-2.28c-3.64-3.65-3.92-9.25,1-14.2s10.59-4.7,14.23-1a8.14,8.14,0,0,1,2.24,8A9.7,9.7,0,0,1,2805.15,1815.18Zm-24.33,1.89c2.32,2.31,5.61,1.75,7.92-.56s2.91-5.65.6-8-5.29-2-7.92.63S2778.61,1814.86,2780.82,1817.07Zm20.55,1.68c-3-3-6.77-2-9.58.81s-3.82,6.55-.8,9.57c2.77,2.77,6.66,2.17,9.6-.77S2804.13,1821.52,2801.37,1818.75Z"/></g></g></g><g id="Сгруппировать_109" data-name="Сгруппировать 109"><g id="_2017" data-name=" 2017" class="cls-2"><g class="cls-2"><path class="cls-3" d="M2485.78,1876.31l3.15,3.15-15.11,15.11-2.42-2.42c-.21-4.27-.35-6.3-.77-11.49-.45-5.93-.74-12.59-3.26-15.11s-5.43-2.77-7.92-.28c-2.7,2.7-1.82,6-.53,8l-4,2.49c-3-4.9-2-10.09,1.79-13.91,4-4,10.13-3.75,14.16.28s3.61,10.9,4.84,24.33Z"/><path class="cls-3" d="M2499.13,1844.73c6.17,6.17,10.2,15.24,3.16,22.29s-16.13,3-22.3-3.15-10.16-15.22-3.12-22.26S2493,1838.56,2499.13,1844.73Zm-3.5,3.5c-4.21-4.21-10.8-8.06-15.5-3.37s-.84,11.29,3.37,15.5,10.79,8.06,15.49,3.36S2499.83,1852.44,2495.63,1848.23Z"/><path class="cls-3" d="M2498.89,1820.43l24.53,24.54-3.5,3.51-20.05-20.06-1.55,7.79-4.13-1,2.45-12.55Z"/><path class="cls-3" d="M2519.5,1799.82l2.66,2.66,13.22,30.54-3.54,3.54L2519,1806.72,2507.68,1818l-3.19-3.19Z"/></g></g></g><g id="Сгруппировать_110" data-name="Сгруппировать 110"><g id="_2016" data-name=" 2016" class="cls-2"><g class="cls-2"><path class="cls-3" d="M2219.17,1876.32l3.16,3.15-15.11,15.11-2.42-2.42c-.21-4.27-.35-6.31-.77-11.5-.46-5.92-.74-12.58-3.26-15.1s-5.44-2.77-7.93-.29c-2.7,2.7-1.82,6-.52,8l-4,2.49c-3-4.91-2-10.09,1.79-13.92,4-4,10.13-3.75,14.16.29s3.61,10.9,4.83,24.32Z"/><path class="cls-3" d="M2232.53,1844.73c6.17,6.17,10.2,15.25,3.15,22.3s-16.12,3-22.29-3.16-10.17-15.21-3.12-22.26S2226.36,1838.56,2232.53,1844.73Zm-3.51,3.51c-4.21-4.21-10.8-8.06-15.49-3.37s-.84,11.29,3.36,15.5,10.8,8.06,15.5,3.36S2233.23,1852.44,2229,1848.24Z"/><path class="cls-3" d="M2232.28,1820.44l24.54,24.54-3.51,3.5-20-20-1.54,7.78-4.14-1,2.46-12.55Z"/><path class="cls-3" d="M2271.65,1814.44c4.42,4.42,5,11.57-.32,16.94s-12.51,4.73-16.93.31c-3.43-3.43-4-7.74-4.49-10l-2.94-16,4-4,2.45,14.58a9.33,9.33,0,0,1,1.3-1.64C2259.45,1810,2266.64,1809.43,2271.65,1814.44Zm-3.44,3.44a7.34,7.34,0,1,0,0,10.38A7.15,7.15,0,0,0,2268.21,1817.88Z"/></g></g></g><g id="Сгруппировать_111" data-name="Сгруппировать 111"><g id="_2015" data-name=" 2015" class="cls-2"><g class="cls-2"><path class="cls-3" d="M1953.3,1876.33l3.16,3.15-15.11,15.11-2.42-2.42c-.21-4.27-.35-6.31-.77-11.5-.46-5.92-.74-12.58-3.26-15.1s-5.44-2.77-7.92-.28c-2.7,2.69-1.83,6-.53,8l-4,2.49c-3-4.91-2-10.09,1.79-13.91,4-4,10.13-3.76,14.16.28s3.61,10.9,4.84,24.32Z"/><path class="cls-3" d="M1966.66,1844.74c6.17,6.17,10.2,15.25,3.15,22.3s-16.12,3-22.29-3.16-10.17-15.21-3.12-22.26S1960.49,1838.57,1966.66,1844.74Zm-3.51,3.51c-4.2-4.21-10.79-8.06-15.49-3.37s-.84,11.29,3.36,15.5,10.8,8.06,15.5,3.36S1967.36,1852.46,1963.15,1848.25Z"/><path class="cls-3" d="M1966.41,1820.45,1991,1845l-3.5,3.5-20.06-20-1.54,7.78-4.13-1,2.45-12.55Z"/><path class="cls-3" d="M2005.32,1814.91c4.42,4.42,5,11.57-.28,16.9-4.06,4.06-9.81,5.33-13.63,2.77l2.49-4c1.54.91,4.8,1.29,8-1.93a7.07,7.07,0,0,0,0-10.34c-3.19-3.19-7-2.81-9.85,0a9.23,9.23,0,0,0-2.7,6.84l-3.51,2.1-11.6-14.69,12.94-12.93,3.19,3.19-10.24,10.23,6.2,7.82a10.48,10.48,0,0,1,3-6C1994.11,1810.14,2000.77,1810.35,2005.32,1814.91Z"/></g></g></g><g id="Сгруппировать_112" data-name="Сгруппировать 112"><g id="_2014" data-name=" 2014" class="cls-2"><g class="cls-2"><path class="cls-3" d="M1687.41,1876.31l3.16,3.16-15.11,15.11-2.42-2.42c-.21-4.28-.35-6.31-.77-11.5-.46-5.93-.74-12.59-3.26-15.11s-5.44-2.77-7.92-.28c-2.7,2.7-1.83,6-.53,8l-4,2.49c-3-4.91-2-10.1,1.79-13.92,4-4,10.13-3.75,14.16.28s3.61,10.9,4.84,24.33Z"/><path class="cls-3" d="M1700.77,1844.73c6.17,6.17,10.2,15.25,3.15,22.29s-16.12,3-22.29-3.15-10.17-15.22-3.12-22.26S1694.6,1838.56,1700.77,1844.73Zm-3.51,3.5c-4.2-4.2-10.79-8.06-15.49-3.36s-.84,11.29,3.36,15.49,10.8,8.06,15.5,3.37S1701.47,1852.44,1697.26,1848.23Z"/><path class="cls-3" d="M1700.52,1820.43l24.54,24.54-3.5,3.51-20.06-20-1.54,7.78-4.13-1,2.45-12.55Z"/><path class="cls-3" d="M1743.29,1815.74l-3.19,3.19,5.5,5.5-3.5,3.51-5.51-5.51-11.77,11.78-2.81-2.8-6-26.51,5-5,15.91,15.92,3.19-3.19Zm-9.82,3.57L1721,1806.83l4.56,20.4Z"/></g></g></g><g id="Сгруппировать_113" data-name="Сгруппировать 113"><g id="_2013" data-name=" 2013" class="cls-2"><g class="cls-2"><path class="cls-3" d="M1421.53,1876.31l3.16,3.16-15.11,15.11-2.42-2.42c-.21-4.28-.35-6.31-.77-11.5-.46-5.93-.74-12.59-3.26-15.11s-5.44-2.77-7.93-.28c-2.69,2.7-1.82,6-.52,8l-4,2.49c-3-4.91-2-10.1,1.79-13.92,4-4,10.13-3.75,14.16.28s3.61,10.9,4.83,24.33Z"/><path class="cls-3" d="M1434.89,1844.73c6.17,6.17,10.2,15.25,3.15,22.29s-16.12,3-22.29-3.15-10.17-15.22-3.12-22.26S1428.72,1838.56,1434.89,1844.73Zm-3.51,3.5c-4.2-4.2-10.8-8.06-15.49-3.36s-.84,11.28,3.36,15.49,10.8,8.06,15.5,3.37S1435.59,1852.44,1431.38,1848.23Z"/><path class="cls-3" d="M1434.64,1820.43l24.54,24.54-3.5,3.51-20.06-20-1.54,7.78-4.14-1,2.46-12.55Z"/><path class="cls-3" d="M1473.76,1815.88c4.46,4.45,4.56,10.86-.77,16.19-4.06,4.07-9.92,5.44-13.67,2.88l2.52-4c1.51,1,4.77,1.26,8-2,3-3,3.47-6.55.42-9.6-3.22-3.23-7-.7-9.11,1.4l-2.07,2.07-2.94-3,2.06-2.07c2.11-2.1,3.47-5.22.46-8.23-2-2-5.19-2.6-8,.21-2.63,2.63-2.39,5.4-1.41,7.15l-3.92,2.52c-2.39-4.13-1.23-9.36,2.21-12.79,4.59-4.59,10.27-4.45,14.09-.63a8.1,8.1,0,0,1,2,8.51C1467.45,1812.72,1471,1813.14,1473.76,1815.88Z"/></g></g></g><g id="Сгруппировать_114" data-name="Сгруппировать 114"><g id="_2012" data-name=" 2012" class="cls-2"><g class="cls-2"><path class="cls-3" d="M1154.93,1876.32l3.15,3.16-15.1,15.1-2.42-2.41c-.21-4.28-.35-6.31-.77-11.5-.46-5.93-.74-12.59-3.26-15.11s-5.44-2.77-7.93-.28c-2.7,2.7-1.82,6-.52,8l-4,2.49c-3-4.9-2-10.09,1.78-13.91,4-4,10.13-3.75,14.17.28s3.61,10.9,4.83,24.33Z"/><path class="cls-3" d="M1168.29,1844.73c6.17,6.17,10.2,15.25,3.15,22.3s-16.12,3-22.29-3.15-10.17-15.22-3.12-22.26S1162.12,1838.57,1168.29,1844.73Zm-3.51,3.51c-4.21-4.21-10.8-8.06-15.49-3.36s-.85,11.28,3.36,15.49,10.8,8.06,15.5,3.37S1169,1852.45,1164.78,1848.24Z"/><path class="cls-3" d="M1168,1820.44l24.54,24.54-3.51,3.51-20-20.06-1.54,7.79-4.14-1,2.46-12.55Z"/><path class="cls-3" d="M1210.18,1821.07l3.15,3.16-15.11,15.11-2.42-2.42c-.21-4.28-.35-6.31-.77-11.5-.45-5.92-.73-12.59-3.26-15.11-2.38-2.38-5.43-2.77-7.92-.28-2.7,2.7-1.82,6-.53,8l-4,2.49c-3-4.91-2-10.1,1.79-13.92,4-4,10.13-3.75,14.16.28s3.61,10.9,4.84,24.33Z"/></g></g></g><g id="Сгруппировать_115" data-name="Сгруппировать 115"><g id="_2011" data-name=" 2011" class="cls-2"><g class="cls-2"><path class="cls-3" d="M889,1876.31l3.16,3.15-15.11,15.11-2.42-2.42c-.21-4.27-.35-6.31-.77-11.49-.46-5.93-.74-12.59-3.26-15.11s-5.43-2.77-7.92-.28c-2.7,2.7-1.83,6-.53,8l-4,2.49c-3-4.9-2-10.09,1.79-13.91,4-4,10.13-3.75,14.16.28s3.61,10.9,4.84,24.33Z"/><path class="cls-3" d="M902.39,1844.72c6.17,6.17,10.2,15.25,3.15,22.3s-16.12,3-22.29-3.16-10.17-15.21-3.12-22.26S896.22,1838.56,902.39,1844.72Zm-3.51,3.51c-4.2-4.21-10.79-8.06-15.49-3.37s-.84,11.29,3.36,15.5,10.8,8.06,15.5,3.36S903.09,1852.44,898.88,1848.23Z"/><path class="cls-3" d="M902.14,1820.43,926.68,1845l-3.5,3.51-20-20.06-1.55,7.79-4.13-1,2.45-12.54Z"/><path class="cls-3" d="M917.85,1804.73l24.54,24.54-3.51,3.5-20-20-1.54,7.78-4.14-1,2.46-12.55Z"/></g></g></g><g id="Сгруппировать_116" data-name="Сгруппировать 116"><g id="_2010" data-name=" 2010" class="cls-2"><g class="cls-2"><path class="cls-3" d="M623.16,1876.32l3.16,3.15-15.11,15.11-2.42-2.42c-.21-4.27-.35-6.31-.77-11.5-.46-5.92-.74-12.58-3.26-15.11-2.39-2.38-5.44-2.76-7.92-.28-2.7,2.7-1.83,6-.53,8l-4,2.49c-3-4.91-2-10.09,1.79-13.92,4-4,10.13-3.75,14.16.28s3.61,10.91,4.84,24.33Z"/><path class="cls-3" d="M636.52,1844.73c6.17,6.17,10.2,15.25,3.15,22.3s-16.12,3-22.29-3.16-10.17-15.21-3.12-22.26S630.35,1838.56,636.52,1844.73Zm-3.51,3.51c-4.2-4.21-10.79-8.07-15.49-3.37s-.84,11.29,3.36,15.5,10.8,8.06,15.5,3.36S637.22,1852.44,633,1848.24Z"/><path class="cls-3" d="M636.27,1820.44,660.81,1845l-3.5,3.5-20.06-20-1.54,7.78-4.13-1,2.45-12.55Z"/><path class="cls-3" d="M672.42,1808.84c6.17,6.17,10.2,15.24,3.15,22.29s-16.13,3-22.29-3.15-10.17-15.22-3.12-22.26S666.25,1802.67,672.42,1808.84Zm-3.51,3.5c-4.21-4.21-10.8-8.06-15.5-3.36s-.84,11.28,3.37,15.49,10.8,8.06,15.49,3.37S673.12,1816.55,668.91,1812.34Z"/></g></g></g><g id="Сгруппировать_117" data-name="Сгруппировать 117"><g id="_2009" data-name=" 2009" class="cls-2"><g class="cls-2"><path class="cls-3" d="M357.28,1876.32l3.16,3.15-15.11,15.11-2.42-2.42c-.21-4.27-.35-6.31-.77-11.5-.46-5.92-.74-12.58-3.26-15.1s-5.43-2.77-7.92-.29c-2.7,2.7-1.83,6-.53,8l-4,2.49c-3-4.91-2-10.09,1.79-13.92,4-4,10.13-3.75,14.16.29s3.61,10.9,4.84,24.32Z"/><path class="cls-3" d="M370.64,1844.73c6.17,6.17,10.2,15.25,3.16,22.3s-16.13,3-22.3-3.16-10.17-15.21-3.12-22.26S364.47,1838.56,370.64,1844.73Zm-3.51,3.51c-4.2-4.21-10.79-8.06-15.49-3.37s-.84,11.29,3.37,15.5,10.79,8.06,15.49,3.36S371.34,1852.44,367.13,1848.24Z"/><path class="cls-3" d="M392.94,1822.44c6.17,6.17,10.2,15.25,3.15,22.29s-16.12,3-22.29-3.15-10.17-15.22-3.12-22.26S386.77,1816.27,392.94,1822.44Zm-3.51,3.5c-4.21-4.2-10.8-8.06-15.49-3.36s-.85,11.29,3.36,15.49,10.8,8.06,15.5,3.37S393.64,1830.15,389.43,1825.94Z"/><path class="cls-3" d="M391.71,1814.9c-4.45-4.45-5-11.6.31-16.93s12.52-4.8,17-.35c3.44,3.43,4,7.75,4.45,10l2.95,15.91-4,4L410,1812.9a9.71,9.71,0,0,1-1.33,1.69C403.87,1819.35,396.69,1819.88,391.71,1814.9Zm3.43-3.43a7.37,7.37,0,1,0,0-10.38A7.17,7.17,0,0,0,395.14,1811.47Z"/></g></g></g><g id="Сгруппировать_118" data-name="Сгруппировать 118"><g id="_2008" data-name=" 2008" class="cls-2"><g class="cls-2"><path class="cls-3" d="M90.67,1876.32l3.15,3.15-15.11,15.11-2.42-2.42c-.21-4.28-.35-6.31-.77-11.5-.45-5.92-.73-12.58-3.26-15.11-2.38-2.38-5.43-2.77-7.92-.28-2.7,2.7-1.82,6-.52,8l-4,2.49c-3-4.91-2-10.1,1.79-13.92,4-4,10.13-3.75,14.16.28s3.61,10.91,4.84,24.33Z"/><path class="cls-3" d="M104,1844.73c6.17,6.17,10.2,15.25,3.16,22.3s-16.13,3-22.3-3.16-10.16-15.21-3.12-22.26S97.85,1838.56,104,1844.73Zm-3.5,3.51c-4.21-4.21-10.8-8.07-15.5-3.37s-.84,11.29,3.37,15.5,10.8,8.06,15.49,3.36S104.72,1852.44,100.52,1848.24Z"/><path class="cls-3" d="M126.32,1822.44c6.17,6.17,10.2,15.24,3.15,22.29s-16.12,3-22.29-3.15-10.17-15.22-3.12-22.26S120.15,1816.27,126.32,1822.44Zm-3.51,3.5c-4.2-4.21-10.79-8.06-15.49-3.36s-.84,11.28,3.36,15.49,10.8,8.06,15.5,3.37S127,1830.15,122.81,1825.94Z"/><path class="cls-3" d="M152.5,1806.84c4.39,4.38,3.86,11-1.43,16.3s-11.92,5.82-16.3,1.43a9.76,9.76,0,0,1-2.18-10.37,8.2,8.2,0,0,1-8-2.28c-3.65-3.65-3.93-9.25,1-14.2s10.59-4.7,14.24-1a8.19,8.19,0,0,1,2.24,8A9.68,9.68,0,0,1,152.5,1806.84Zm-24.32,1.89c2.31,2.31,5.61,1.75,7.92-.56s2.91-5.65.59-8-5.29-2-7.92.63S126,1806.52,128.18,1808.73Zm20.54,1.68c-3-3-6.77-2-9.57.81s-3.82,6.55-.81,9.57c2.77,2.77,6.66,2.17,9.61-.77S151.49,1813.18,148.72,1810.41Z"/></g></g></g></g><g id="Сгруппировать_128" data-name="Сгруппировать 128"><g id="Сгруппировать_120" data-name="Сгруппировать 120"><g id="_0" data-name=" 0" class="cls-2"><g class="cls-2"><path class="cls-3" d="M74.87,1731.74c0,8.73-3.57,18-13.53,18s-13.53-9.27-13.53-18,3.56-17.94,13.53-17.94S74.87,1723,74.87,1731.74Zm-5,0c0-6-1.94-13.33-8.58-13.33s-8.58,7.38-8.58,13.33,1.94,13.34,8.58,13.34S69.92,1737.69,69.92,1731.74Z"/></g></g></g><g id="Сгруппировать_121" data-name="Сгруппировать 121"><g id="_700" data-name=" 700" class="cls-2"><g class="cls-2"><path class="cls-3" d="M22.28,155.84v3.77L10,190.55H5l12-30.19h-16v-4.52Z"/><path class="cls-3" d="M53.07,173.2c0,8.72-3.57,18-13.54,18S26,181.92,26,173.2s3.57-17.95,13.53-17.95S53.07,164.47,53.07,173.2Zm-5,0c0-5.95-1.93-13.34-8.58-13.34S31,167.25,31,173.2s1.93,13.33,8.57,13.33S48.11,179.15,48.11,173.2Z"/><path class="cls-3" d="M84.6,173.2c0,8.72-3.57,18-13.54,18s-13.53-9.27-13.53-18,3.57-17.95,13.53-17.95S84.6,164.47,84.6,173.2Zm-5,0c0-5.95-1.93-13.34-8.58-13.34s-8.57,7.39-8.57,13.34,1.93,13.33,8.57,13.33S79.64,179.15,79.64,173.2Z"/></g></g></g><g id="Сгруппировать_122" data-name="Сгруппировать 122"><g id="_600" data-name=" 600" class="cls-2"><g class="cls-2"><path class="cls-3" d="M25.21,402.09c0,6.25-4.61,11.75-12.2,11.75S.81,408.34.81,402.09c0-4.85,2.63-8.32,3.87-10.21L13.9,378.5h5.6l-8.57,12A8.8,8.8,0,0,1,13,390.3C19.75,390.3,25.21,395,25.21,402.09Zm-4.86,0A7.14,7.14,0,0,0,13,394.71a7.1,7.1,0,0,0-7.34,7.38A7.17,7.17,0,0,0,13,409.43,7.14,7.14,0,0,0,20.35,402.09Z"/><path class="cls-3" d="M56.74,395.85c0,8.72-3.57,18-13.54,18s-13.53-9.27-13.53-18,3.57-18,13.53-18S56.74,387.12,56.74,395.85Zm-5,0c0-6-1.94-13.34-8.58-13.34s-8.58,7.39-8.58,13.34,1.94,13.33,8.58,13.33S51.78,401.8,51.78,395.85Z"/><path class="cls-3" d="M88.27,395.85c0,8.72-3.57,18-13.54,18s-13.53-9.27-13.53-18,3.57-18,13.53-18S88.27,387.12,88.27,395.85Zm-5,0c0-6-1.94-13.34-8.58-13.34s-8.58,7.39-8.58,13.34,1.94,13.33,8.58,13.33S83.31,401.8,83.31,395.85Z"/></g></g></g><g id="Сгруппировать_123" data-name="Сгруппировать 123"><g id="_500" data-name=" 500" class="cls-2"><g class="cls-2"><path class="cls-3" d="M24.56,624.74c0,6.25-4.61,11.75-12.14,11.75-5.76,0-10.71-3.17-11.61-7.68l4.57-1c.44,1.73,2.47,4.31,7,4.31a7.07,7.07,0,0,0,7.28-7.34c0-4.51-3-6.94-7-6.94A9.24,9.24,0,0,0,6,620.73l-4-1,2.19-18.59H22.48v4.51H8l-1.14,9.92a10.46,10.46,0,0,1,6.3-2.13C20,613.44,24.56,618.3,24.56,624.74Z"/><path class="cls-3" d="M56.09,618.49c0,8.73-3.57,18-13.53,18S29,627.22,29,618.49s3.57-17.94,13.54-17.94S56.09,609.77,56.09,618.49Zm-5,0c0-5.94-1.93-13.33-8.57-13.33S34,612.55,34,618.49s1.93,13.34,8.58,13.34S51.13,624.44,51.13,618.49Z"/><path class="cls-3" d="M87.62,618.49c0,8.73-3.57,18-13.53,18s-13.54-9.27-13.54-18,3.57-17.94,13.54-17.94S87.62,609.77,87.62,618.49Zm-5,0c0-5.94-1.93-13.33-8.57-13.33s-8.58,7.39-8.58,13.33,1.93,13.34,8.58,13.34S82.66,624.44,82.66,618.49Z"/></g></g></g><g id="Сгруппировать_124" data-name="Сгруппировать 124"><g id="_400" data-name=" 400" class="cls-2"><g class="cls-2"><path class="cls-3" d="M27.19,850.71H22.68v7.79h-5v-7.79H1.06v-4l14.53-23h7.09V846.3h4.51Zm-9.47-4.41V828.65L6.52,846.3Z"/><path class="cls-3" d="M59,841.15c0,8.72-3.57,18-13.54,18s-13.53-9.27-13.53-18,3.57-17.95,13.53-17.95S59,832.42,59,841.15Zm-5,0c0-5.95-1.93-13.34-8.58-13.34s-8.57,7.39-8.57,13.34,1.93,13.33,8.57,13.33S54,847.1,54,841.15Z"/><path class="cls-3" d="M90.5,841.15c0,8.72-3.57,18-13.54,18s-13.53-9.27-13.53-18S67,823.2,77,823.2,90.5,832.42,90.5,841.15Zm-5,0c0-5.95-1.93-13.34-8.58-13.34s-8.57,7.39-8.57,13.34,1.93,13.33,8.57,13.33S85.54,847.1,85.54,841.15Z"/></g></g></g><g id="Сгруппировать_125" data-name="Сгруппировать 125"><g id="_300" data-name=" 300" class="cls-2"><g class="cls-2"><path class="cls-3" d="M24.51,1070.89c0,6.29-4.46,10.9-12,10.9-5.75,0-10.85-3.17-11.7-7.63l4.62-1c.39,1.73,2.47,4.26,7.08,4.26,4.22,0,7.09-2.18,7.09-6.49,0-4.56-4.46-5.46-7.43-5.46H9.24v-4.16h2.93c3,0,6.15-1.24,6.15-5.5,0-2.83-1.84-5.51-5.81-5.51-3.71,0-5.5,2.14-6,4.07l-4.56-1c1.23-4.61,5.75-7.49,10.6-7.49,6.5,0,10.42,4.12,10.42,9.52a8.11,8.11,0,0,1-4.61,7.44C22.28,1064.19,24.51,1067,24.51,1070.89Z"/><path class="cls-3" d="M56,1063.8c0,8.72-3.57,18-13.53,18S29,1072.52,29,1063.8s3.57-18,13.54-18S56,1055.07,56,1063.8Zm-5,0c0-6-1.93-13.34-8.57-13.34s-8.58,7.39-8.58,13.34,1.93,13.33,8.58,13.33S51.08,1069.75,51.08,1063.8Z"/><path class="cls-3" d="M87.57,1063.8c0,8.72-3.57,18-13.53,18s-13.54-9.27-13.54-18,3.57-18,13.54-18S87.57,1055.07,87.57,1063.8Zm-5,0c0-6-1.93-13.34-8.57-13.34s-8.58,7.39-8.58,13.34,1.93,13.33,8.58,13.33S82.61,1069.75,82.61,1063.8Z"/></g></g></g><g id="Сгруппировать_126" data-name="Сгруппировать 126"><g id="_200" data-name=" 200" class="cls-2"><g class="cls-2"><path class="cls-3" d="M22.48,1299.33v4.46H1.11v-3.42c2.88-3.17,4.22-4.71,7.59-8.68,3.86-4.51,8.38-9.42,8.38-13,0-3.38-1.89-5.8-5.41-5.8-3.82,0-5.5,2.92-6,5.25l-4.61-1.09c1.34-5.6,5.7-8.58,11.11-8.58,5.65,0,9.81,4.51,9.81,10.22,0,5.5-5.15,10.26-13.78,20.62Z"/><path class="cls-3" d="M54.26,1286.44c0,8.73-3.57,18-13.54,18s-13.53-9.27-13.53-18,3.57-18,13.53-18S54.26,1277.71,54.26,1286.44Zm-5,0c0-6-1.93-13.34-8.58-13.34s-8.57,7.39-8.57,13.34,1.93,13.34,8.57,13.34S49.3,1292.39,49.3,1286.44Z"/><path class="cls-3" d="M85.79,1286.44c0,8.73-3.57,18-13.54,18s-13.53-9.27-13.53-18,3.57-18,13.53-18S85.79,1277.71,85.79,1286.44Zm-5,0c0-6-1.93-13.34-8.58-13.34s-8.57,7.39-8.57,13.34,1.93,13.34,8.57,13.34S80.83,1292.39,80.83,1286.44Z"/></g></g></g><g id="Сгруппировать_127" data-name="Сгруппировать 127"><g id="_100" data-name=" 100" class="cls-2"><g class="cls-2"><path class="cls-3" d="M13.85,1491.74v34.7H8.9v-28.35l-6.6,4.41-2.23-3.62,10.61-7.14Z"/><path class="cls-3" d="M47.61,1509.09c0,8.73-3.57,18-13.53,18s-13.53-9.27-13.53-18,3.57-17.95,13.53-17.95S47.61,1500.37,47.61,1509.09Zm-5,0c0-5.95-1.94-13.34-8.58-13.34s-8.58,7.39-8.58,13.34,1.94,13.34,8.58,13.34S42.66,1515,42.66,1509.09Z"/><path class="cls-3" d="M79.14,1509.09c0,8.73-3.57,18-13.53,18s-13.53-9.27-13.53-18,3.56-17.95,13.53-17.95S79.14,1500.37,79.14,1509.09Zm-5,0c0-5.95-1.94-13.34-8.58-13.34S57,1503.14,57,1509.09s1.94,13.34,8.58,13.34S74.19,1515,74.19,1509.09Z"/></g></g></g></g><g id="Сгруппировать_129" data-name="Сгруппировать 129"><line id="Линия_31" data-name="Линия 31" class="cls-4" x1="3319.94" y1="1741.6" x2="3319.94" y2="1766.33"/><line id="Линия_32" data-name="Линия 32" class="cls-4" x1="3054.06" y1="1741.6" x2="3054.06" y2="1766.33"/><line id="Линия_33" data-name="Линия 33" class="cls-4" x1="2788.18" y1="1741.6" x2="2788.18" y2="1766.33"/><line id="Линия_34" data-name="Линия 34" class="cls-4" x1="2522.31" y1="1741.6" x2="2522.31" y2="1766.33"/><line id="Линия_35" data-name="Линия 35" class="cls-4" x1="2255.7" y1="1741.6" x2="2255.7" y2="1766.33"/><line id="Линия_36" data-name="Линия 36" class="cls-4" x1="1989.82" y1="1741.6" x2="1989.82" y2="1766.33"/><line id="Линия_37" data-name="Линия 37" class="cls-4" x1="1723.95" y1="1741.6" x2="1723.95" y2="1766.33"/><line id="Линия_38" data-name="Линия 38" class="cls-4" x1="1458.07" y1="1741.6" x2="1458.07" y2="1766.33"/><line id="Линия_39" data-name="Линия 39" class="cls-4" x1="1191.46" y1="1741.6" x2="1191.46" y2="1766.33"/><line id="Линия_40" data-name="Линия 40" class="cls-4" x1="925.59" y1="1741.6" x2="925.59" y2="1766.33"/><line id="Линия_41" data-name="Линия 41" class="cls-4" x1="659.71" y1="1741.6" x2="659.71" y2="1766.33"/><line id="Линия_42" data-name="Линия 42" class="cls-4" x1="393.83" y1="1741.6" x2="393.83" y2="1766.33"/><line id="Линия_43" data-name="Линия 43" class="cls-4" x1="127.23" y1="1741.6" x2="127.23" y2="1766.33"/><line id="Линия_44" data-name="Линия 44" class="cls-4" x1="130.94" y1="1741.6" x2="106.22" y2="1741.6"/></g><g id="t" class="cls-2"><g class="cls-2"><path class="cls-3" d="M75.1,27.28v7h6.39v3.4H75.1V51c0,3,.86,4.77,3.35,4.77a10,10,0,0,0,2.58-.3l.21,3.34a10.85,10.85,0,0,1-4,.61,6.22,6.22,0,0,1-4.82-1.87c-1.26-1.32-1.72-3.5-1.72-6.39V37.72h-3.8v-3.4h3.8V28.44Z"/></g></g><path id="Контур_353" data-name="Контур 353" class="cls-5" d="M127.23,1741.61V873.26C410.59,649.37,682.88,456.34,925.06,472.33c62.75,29.06,103.33,316.22,143.89,563.37,37.66,290.41,90.64,535.31,123.51,507,117.29,32.46,250.44-334.64,382.89-668.56C1721.24,535.06,1886,53,1996.79,129c46.09,21,91.15,421.94,141,688.08,36.46,203,64.7,500.49,117.68,489.34,61-18.44,98.05-210.15,138.7-386.19,38.08-157.3,73-361.12,127.86-336.27,43,3.66,91.84,158.73,139.44,276,43.5,117.73,87.33,233.64,126.67,236.14,44.85,10.86,91.21-116.53,137.23-221.94,46.08-95.44,94-214.88,128.37-201.65,59.57-21.08,169.73,192.91,266.23,345.64V1741.6Z"/><g id="Сгруппировать_130" data-name="Сгруппировать 130"><circle id="Эллипс_143" data-name="Эллипс 143" class="cls-6" cx="127.23" cy="873.26" r="15.29"/><circle id="Эллипс_144" data-name="Эллипс 144" class="cls-6" cx="925.06" cy="472.33" r="15.29"/><circle id="Эллипс_145" data-name="Эллипс 145" class="cls-6" cx="1191.26" cy="1541.26" r="15.29"/><circle id="Эллипс_146" data-name="Эллипс 146" class="cls-6" cx="1990" cy="127.17" r="15.29"/><circle id="Эллипс_147" data-name="Эллипс 147" class="cls-6" cx="2521.99" cy="583.95" r="15.29"/><circle id="Эллипс_148" data-name="Эллипс 148" class="cls-6" cx="2255.43" cy="1306.41" r="15.29"/><circle id="Эллипс_149" data-name="Эллипс 149" class="cls-6" cx="2788.1" cy="1096.06" r="15.29"/><circle id="Эллипс_150" data-name="Эллипс 150" class="cls-6" cx="3053.71" cy="672.47" r="15.29"/><circle id="Эллипс_151" data-name="Эллипс 151" class="cls-6" cx="3319.94" cy="1018.11" r="15.29"/></g><circle id="Эллипс_152" data-name="Эллипс 152" class="cls-7" cx="35.76" cy="75.02" r="24.39"/></g></svg>