<svg id="Layer_1" data-name="Layer 1" xmlns="http://www.w3.org/2000/svg" viewBox="0 0 5781.97 3308.49"><defs><style>.cls-1,.cls-20{fill:none;}.cls-1{stroke:#9baf78;stroke-miterlimit:10;stroke-width:0.25px;}.cls-12,.cls-2,.cls-21,.cls-22,.cls-3{isolation:isolate;}.cls-12,.cls-3{font-size:85.37px;font-family:MADETOMMY, MADE TOMMY;}.cls-12,.cls-21,.cls-3{fill:#fff;}.cls-4{letter-spacing:-0.01em;}.cls-5{letter-spacing:-0.02em;}.cls-6{letter-spacing:-0.01em;}.cls-7{letter-spacing:-0.01em;}.cls-8{letter-spacing:-0.03em;}.cls-9{letter-spacing:-0.02em;}.cls-10,.cls-12{letter-spacing:-0.01em;}.cls-11{letter-spacing:-0.02em;}.cls-13{letter-spacing:0em;}.cls-14{letter-spacing:-0.01em;}.cls-15{letter-spacing:-0.03em;}.cls-16{letter-spacing:-0.03em;}.cls-17{letter-spacing:0.01em;}.cls-18{letter-spacing:-0.04em;}.cls-19{letter-spacing:-0.04em;}.cls-20{stroke:#ebeae9;}.cls-21{font-size:87.31px;font-family:MyriadPro-Regular, Myriad Pro;}.cls-22{fill:#5c895a;opacity:0.75;}.cls-23{fill:#051a1e;}.cls-24{fill:#728860;}</style></defs><g id="Сгруппировать_131" data-name="Сгруппировать 131"><g id="Сгруппировать_105" data-name="Сгруппировать 105"><g id="Сгруппировать_104" data-name="Сгруппировать 104"><g id="Сгруппировать_103" data-name="Сгруппировать 103"><line id="Линия_23" data-name="Линия 23" class="cls-1" x1="218.69" y1="2998.73" x2="5716.37" y2="2998.73"/><line id="Линия_24" data-name="Линия 24" class="cls-1" x1="218.69" y1="2615.34" x2="5716.37" y2="2615.34"/><line id="Линия_25" data-name="Линия 25" class="cls-1" x1="218.69" y1="2231.95" x2="5716.37" y2="2231.95"/><line id="Линия_26" data-name="Линия 26" class="cls-1" x1="218.69" y1="1848.55" x2="5716.37" y2="1848.55"/><line id="Линия_27" data-name="Линия 27" class="cls-1" x1="218.69" y1="1465.16" x2="5716.37" y2="1465.16"/><line id="Линия_28" data-name="Линия 28" class="cls-1" x1="218.69" y1="1081.77" x2="5716.37" y2="1081.77"/><line id="Линия_29" data-name="Линия 29" class="cls-1" x1="218.69" y1="698.38" x2="5716.37" y2="698.38"/><line id="Линия_30" data-name="Линия 30" class="cls-1" x1="218.69" y1="314.99" x2="5716.37" y2="314.99"/></g></g></g><g id="Сгруппировать_119" data-name="Сгруппировать 119"><g id="Сгруппировать_106" data-name="Сгруппировать 106"><g id="_2020" data-name=" 2020" class="cls-2"><text class="cls-3" transform="translate(5629.83 3265.22) rotate(-45)"><tspan class="cls-4">2</tspan><tspan class="cls-5" x="45.42" y="0">0</tspan><tspan class="cls-6" x="98" y="0">2</tspan><tspan x="143.42" y="0">0</tspan></text></g></g><g id="Сгруппировать_107" data-name="Сгруппировать 107"><g id="_2019" data-name=" 2019" class="cls-2"><text class="cls-3" transform="translate(5171.99 3265.22) rotate(-45)"><tspan class="cls-7">20</tspan><tspan class="cls-8" x="98.85" y="0">1</tspan><tspan x="133.68" y="0">9</tspan></text></g></g><g id="Сгруппировать_108" data-name="Сгруппировать 108"><g id="_2018" data-name=" 2018" class="cls-2"><text class="cls-3" transform="translate(4714.16 3265.22) rotate(-45)"><tspan class="cls-6">20</tspan><tspan class="cls-8" x="98.85" y="0">1</tspan><tspan x="133.68" y="0">8</tspan></text></g></g><g id="Сгруппировать_109" data-name="Сгруппировать 109"><g id="_2017" data-name=" 2017" class="cls-2"><text class="cls-3" transform="translate(4256.32 3265.22) rotate(-45)"><tspan class="cls-6">20</tspan><tspan class="cls-9" x="98.85" y="0">1</tspan><tspan x="134.54" y="0">7</tspan></text></g></g><g id="Сгруппировать_110" data-name="Сгруппировать 110"><g id="_2016" data-name=" 2016" class="cls-2"><text class="cls-3" transform="translate(3797.25 3265.23) rotate(-45)"><tspan class="cls-10">20</tspan><tspan class="cls-11" x="98.85" y="0">1</tspan><tspan x="134.54" y="0">6</tspan></text></g></g><g id="Сгруппировать_111" data-name="Сгруппировать 111"><g id="_2015" data-name=" 2015" class="cls-2"><text class="cls-12" transform="translate(3339.43 3265.25) rotate(-45)">20<tspan class="cls-11" x="98.85" y="0">1</tspan><tspan class="cls-13" x="134.54" y="0">5</tspan></text></g></g><g id="Сгруппировать_112" data-name="Сгруппировать 112"><g id="_2014" data-name=" 2014" class="cls-2"><text class="cls-3" transform="translate(2881.58 3265.22) rotate(-45)"><tspan class="cls-14">20</tspan><tspan class="cls-15" x="98.85" y="0">1</tspan><tspan x="133.68" y="0">4</tspan></text></g></g><g id="Сгруппировать_113" data-name="Сгруппировать 113"><g id="_2013" data-name=" 2013" class="cls-2"><text class="cls-3" transform="translate(2423.75 3265.22) rotate(-45)"><tspan class="cls-14">20</tspan><tspan class="cls-16" x="98.85" y="0">1</tspan><tspan x="133.68" y="0">3</tspan></text></g></g><g id="Сгруппировать_114" data-name="Сгруппировать 114"><g id="_2012" data-name=" 2012" class="cls-2"><text class="cls-3" transform="translate(1964.67 3265.23) rotate(-45)"><tspan class="cls-10">20</tspan><tspan class="cls-9" x="98.85" y="0">1</tspan><tspan x="134.54" y="0">2</tspan></text></g></g><g id="Сгруппировать_115" data-name="Сгруппировать 115"><g id="_2011" data-name=" 2011" class="cls-2"><text class="cls-3" transform="translate(1506.82 3265.22) rotate(-45)"><tspan class="cls-10">20</tspan><tspan class="cls-17" x="98.85" y="0">1</tspan><tspan x="137.1" y="0">1</tspan></text></g></g><g id="Сгруппировать_116" data-name="Сгруппировать 116"><g id="_2010" data-name=" 2010" class="cls-2"><text class="cls-3" transform="translate(1049 3265.23) rotate(-45)"><tspan class="cls-7">20</tspan><tspan class="cls-18" x="98.85" y="0">1</tspan><tspan x="132.83" y="0">0</tspan></text></g></g><g id="Сгруппировать_117" data-name="Сгруппировать 117"><g id="_2009" data-name=" 2009" class="cls-2"><text class="cls-3" transform="translate(591.17 3265.23) rotate(-45)"><tspan class="cls-7">2</tspan><tspan x="45.42" y="0">009</tspan></text></g></g><g id="Сгруппировать_118" data-name="Сгруппировать 118"><g id="_2008" data-name=" 2008" class="cls-2"><text class="cls-3" transform="translate(132.07 3265.23) rotate(-45)"><tspan class="cls-6">2</tspan><tspan x="45.42" y="0">008</tspan></text></g></g></g><g id="Сгруппировать_128" data-name="Сгруппировать 128"><g id="Сгруппировать_120" data-name="Сгруппировать 120"><g id="_0" data-name=" 0" class="cls-2"><text class="cls-3" transform="translate(78.08 3011.63)">0</text></g></g><g id="Сгруппировать_121" data-name="Сгруппировать 121"><g id="_700" data-name=" 700" class="cls-2"><text class="cls-3" transform="translate(-2.83 327.89)"><tspan class="cls-5">7</tspan><tspan x="43.37" y="0">00</tspan></text></g></g><g id="Сгруппировать_122" data-name="Сгруппировать 122"><g id="_600" data-name=" 600" class="cls-2"><text class="cls-3" transform="translate(-2.83 711.29)">600</text></g></g><g id="Сгруппировать_123" data-name="Сгруппировать 123"><g id="_500" data-name=" 500" class="cls-2"><text class="cls-3" transform="translate(-2.83 1094.67)">500</text></g></g><g id="Сгруппировать_124" data-name="Сгруппировать 124"><g id="_400" data-name=" 400" class="cls-2"><text class="cls-3" transform="translate(-2.83 1478.07)">400</text></g></g><g id="Сгруппировать_125" data-name="Сгруппировать 125"><g id="_300" data-name=" 300" class="cls-2"><text class="cls-3" transform="translate(-2.83 1861.46)">300</text></g></g><g id="Сгруппировать_126" data-name="Сгруппировать 126"><g id="_200" data-name=" 200" class="cls-2"><text class="cls-3" transform="translate(-2.83 2244.84)"><tspan class="cls-4">2</tspan><tspan x="45.42" y="0">00</tspan></text></g></g><g id="Сгруппировать_127" data-name="Сгруппировать 127"><g id="_100" data-name=" 100" class="cls-2"><text class="cls-3" transform="translate(-2.83 2628.24)"><tspan class="cls-19">1</tspan><tspan x="33.98" y="0">00</tspan></text></g></g></g><g id="Сгруппировать_129" data-name="Сгруппировать 129"><line id="Линия_31" data-name="Линия 31" class="cls-20" x1="5716.37" y1="2998.73" x2="5716.37" y2="3041.3"/><line id="Линия_32" data-name="Линия 32" class="cls-20" x1="5258.54" y1="2998.73" x2="5258.54" y2="3041.3"/><line id="Линия_33" data-name="Линия 33" class="cls-20" x1="4800.72" y1="2998.73" x2="4800.72" y2="3041.3"/><line id="Линия_34" data-name="Линия 34" class="cls-20" x1="4342.89" y1="2998.73" x2="4342.89" y2="3041.3"/><line id="Линия_35" data-name="Линия 35" class="cls-20" x1="3883.81" y1="2998.73" x2="3883.81" y2="3041.3"/><line id="Линия_36" data-name="Линия 36" class="cls-20" x1="3425.98" y1="2998.73" x2="3425.98" y2="3041.3"/><line id="Линия_37" data-name="Линия 37" class="cls-20" x1="2968.16" y1="2998.73" x2="2968.16" y2="3041.3"/><line id="Линия_38" data-name="Линия 38" class="cls-20" x1="2510.33" y1="2998.73" x2="2510.33" y2="3041.3"/><line id="Линия_39" data-name="Линия 39" class="cls-20" x1="2051.25" y1="2998.73" x2="2051.25" y2="3041.3"/><line id="Линия_40" data-name="Линия 40" class="cls-20" x1="1593.42" y1="2998.73" x2="1593.42" y2="3041.3"/><line id="Линия_41" data-name="Линия 41" class="cls-20" x1="1135.59" y1="2998.73" x2="1135.59" y2="3041.3"/><line id="Линия_42" data-name="Линия 42" class="cls-20" x1="677.77" y1="2998.73" x2="677.77" y2="3041.3"/><line id="Линия_43" data-name="Линия 43" class="cls-20" x1="218.69" y1="2998.73" x2="218.69" y2="3041.3"/><line id="Линия_44" data-name="Линия 44" class="cls-20" x1="225.08" y1="2998.73" x2="182.5" y2="2998.73"/></g><g id="t" class="cls-2"><text class="cls-21" transform="translate(113.3 101.14)">t</text></g><path id="Контур_353" data-name="Контур 353" class="cls-22" d="M218.69,2998.74V1503.49C706.63,1118,1175.5,785.57,1592.52,813.11c108,50,177.92,544.51,247.76,970.09,64.85,500.07,156.09,921.78,212.69,873,202,55.9,431.25-576.23,659.32-1151.22C2963.49,921.12,3247.22,91,3438,221.89c79.36,36.1,156.95,726.56,242.73,1184.84,62.78,349.63,111.4,861.82,202.63,842.63,105-31.77,168.83-361.88,238.84-665,65.56-270.86,125.66-621.83,220.16-579,74,6.29,158.16,273.31,240.11,475.2,74.92,202.72,150.39,402.31,218.13,406.62,77.23,18.71,157.05-200.66,236.3-382.17,79.35-164.35,161.92-370,221.05-347.24,102.57-36.29,292.26,332.2,458.43,595.18V2998.73Z"/><g id="Сгруппировать_130" data-name="Сгруппировать 130"><circle id="Эллипс_143" data-name="Эллипс 143" class="cls-23" cx="218.69" cy="1503.48" r="26.33"/><circle id="Эллипс_144" data-name="Эллипс 144" class="cls-23" cx="1592.52" cy="813.1" r="26.33"/><circle id="Эллипс_145" data-name="Эллипс 145" class="cls-23" cx="2050.9" cy="2653.75" r="26.33"/><circle id="Эллипс_146" data-name="Эллипс 146" class="cls-23" cx="3426.28" cy="218.75" r="26.33"/><circle id="Эллипс_147" data-name="Эллипс 147" class="cls-23" cx="4342.34" cy="1005.31" r="26.33"/><circle id="Эллипс_148" data-name="Эллипс 148" class="cls-23" cx="3883.34" cy="2249.36" r="26.33"/><circle id="Эллипс_149" data-name="Эллипс 149" class="cls-23" cx="4800.58" cy="1887.14" r="26.33"/><circle id="Эллипс_150" data-name="Эллипс 150" class="cls-23" cx="5257.95" cy="1157.74" r="26.33"/><circle id="Эллипс_151" data-name="Эллипс 151" class="cls-23" cx="5716.37" cy="1752.91" r="26.33"/></g><circle id="Эллипс_152" data-name="Эллипс 152" class="cls-24" cx="61.19" cy="128.96" r="42"/></g></svg>