<svg id="Layer_1" data-name="Layer 1" xmlns="http://www.w3.org/2000/svg" viewBox="0 0 3543.6 3308.49"><defs><style>.cls-1,.cls-2,.cls-3{fill:none;stroke-miterlimit:10;}.cls-1,.cls-2{stroke:#9baf78;}.cls-1{stroke-width:0.5px;}.cls-2,.cls-3{stroke-width:0.75px;}.cls-3{stroke:#181e15;}.cls-11,.cls-14,.cls-16,.cls-22,.cls-24,.cls-29,.cls-30,.cls-4,.cls-5{isolation:isolate;}.cls-14,.cls-5{font-size:143.82px;}.cls-11,.cls-14,.cls-16,.cls-22,.cls-5{fill:#fff;}.cls-11,.cls-14,.cls-16,.cls-22,.cls-24,.cls-5{font-family:MADETOMMY, MADE TOMMY;}.cls-14,.cls-6{letter-spacing:-0.01em;}.cls-7{letter-spacing:-0.02em;}.cls-8{letter-spacing:0em;}.cls-9{letter-spacing:-0.01em;}.cls-10{letter-spacing:0em;}.cls-11,.cls-22,.cls-24{font-size:140.4px;}.cls-12,.cls-22{letter-spacing:-0.01em;}.cls-13{letter-spacing:-0.01em;}.cls-15{letter-spacing:-0.04em;}.cls-16{font-size:136.97px;}.cls-17{letter-spacing:-0.01em;}.cls-18{letter-spacing:0.01em;}.cls-19{letter-spacing:-0.02em;}.cls-20{letter-spacing:-0.03em;}.cls-21{letter-spacing:-0.03em;}.cls-23{letter-spacing:0em;}.cls-24,.cls-29,.cls-30{fill:#181e15;}.cls-25{letter-spacing:-0.02em;}.cls-26{letter-spacing:0.01em;}.cls-27{opacity:0.82;}.cls-28{fill:#051a1e;}.cls-29{font-size:123.28px;}.cls-29,.cls-30{font-family:ArialMT, Arial;}.cls-30{font-size:126.7px;}</style></defs><g id="Сгруппировать_285" data-name="Сгруппировать 285"><g id="Сгруппировать_255" data-name="Сгруппировать 255"><circle id="Эллипс_322" data-name="Эллипс 322" class="cls-1" cx="1760.35" cy="1676.22" r="274.69"/><circle id="Эллипс_323" data-name="Эллипс 323" class="cls-1" cx="1760.35" cy="1676.22" r="549.38"/><circle id="Эллипс_324" data-name="Эллипс 324" class="cls-1" cx="1760.35" cy="1676.22" r="824.07"/><circle id="Эллипс_325" data-name="Эллипс 325" class="cls-1" cx="1760.35" cy="1676.22" r="1098.77"/><circle id="Эллипс_326" data-name="Эллипс 326" class="cls-1" cx="1760.35" cy="1676.22" r="1373.46"/></g><g id="Сгруппировать_256" data-name="Сгруппировать 256"><line id="Линия_45" data-name="Линия 45" class="cls-2" x1="1760.35" y1="1674.85" x2="1760.35" y2="307.97"/><line id="Линия_46" data-name="Линия 46" class="cls-2" x1="1760.35" y1="1674.85" x2="2163.25" y2="368.7"/><line id="Линия_47" data-name="Линия 47" class="cls-2" x1="1760.35" y1="1674.84" x2="2530.34" y2="545.48"/><line id="Линия_48" data-name="Линия 48" class="cls-2" x1="1760.35" y1="1674.85" x2="2829.02" y2="822.61"/><line id="Линия_49" data-name="Линия 49" class="cls-2" x1="1760.35" y1="1674.84" x2="3032.74" y2="1175.47"/><line id="Линия_50" data-name="Линия 50" class="cls-2" x1="1760.35" y1="1674.85" x2="3123.41" y2="1572.7"/><line id="Линия_51" data-name="Линия 51" class="cls-2" x1="1760.35" y1="1674.85" x2="3092.96" y2="1979"/><line id="Линия_52" data-name="Линия 52" class="cls-2" x1="1760.35" y1="1674.85" x2="2944.1" y2="2358.28"/><line id="Линия_53" data-name="Линия 53" class="cls-2" x1="1760.35" y1="1674.85" x2="2690.07" y2="2676.84"/><line id="Линия_54" data-name="Линия 54" class="cls-2" x1="1760.35" y1="1674.85" x2="2353.42" y2="2906.36"/><line id="Линия_55" data-name="Линия 55" class="cls-2" x1="1760.35" y1="1674.85" x2="1964.07" y2="3026.46"/><line id="Линия_56" data-name="Линия 56" class="cls-2" x1="1760.35" y1="1674.85" x2="1556.63" y2="3026.46"/><line id="Линия_57" data-name="Линия 57" class="cls-2" x1="1760.35" y1="1674.85" x2="1167.29" y2="2906.36"/><line id="Линия_58" data-name="Линия 58" class="cls-2" x1="1760.35" y1="1674.85" x2="830.64" y2="2676.84"/><line id="Линия_59" data-name="Линия 59" class="cls-2" x1="1760.35" y1="1674.85" x2="576.6" y2="2358.28"/><line id="Линия_60" data-name="Линия 60" class="cls-2" x1="1760.35" y1="1674.85" x2="427.75" y2="1979"/><line id="Линия_61" data-name="Линия 61" class="cls-2" x1="1760.35" y1="1674.85" x2="397.3" y2="1572.7"/><line id="Линия_62" data-name="Линия 62" class="cls-2" x1="1760.35" y1="1674.84" x2="487.96" y2="1175.47"/><line id="Линия_63" data-name="Линия 63" class="cls-2" x1="1760.35" y1="1674.85" x2="691.69" y2="822.61"/><line id="Линия_64" data-name="Линия 64" class="cls-3" x1="1760.35" y1="1674.84" x2="992.63" y2="548.8"/></g><g id="Сгруппировать_277" data-name="Сгруппировать 277"><g id="Сгруппировать_257" data-name="Сгруппировать 257"><g id="_2002" data-name=" 2002" class="cls-4"><text class="cls-5" transform="translate(1608.03 101.45)"><tspan class="cls-6">2</tspan><tspan x="76.51" y="0">0</tspan><tspan class="cls-7" x="167.98" y="0">0</tspan><tspan class="cls-8" x="256.58" y="0">2</tspan></text></g><g id="_2002-2" data-name=" 2002-2" class="cls-4"><text class="cls-5" transform="translate(1608.03 101.45)"><tspan class="cls-6">2</tspan><tspan x="76.51" y="0">0</tspan><tspan class="cls-7" x="167.98" y="0">0</tspan><tspan class="cls-8" x="256.58" y="0">2</tspan></text></g></g><g id="Сгруппировать_258" data-name="Сгруппировать 258"><g id="_2003" data-name=" 2003" class="cls-4"><text class="cls-5" transform="translate(2083.57 173.12)"><tspan class="cls-6">2</tspan><tspan x="76.51" y="0">0</tspan><tspan class="cls-9" x="167.98" y="0">0</tspan><tspan class="cls-10" x="258.01" y="0">3</tspan></text></g><g id="_2003-2" data-name=" 2003-2" class="cls-4"><text class="cls-5" transform="translate(2083.57 173.12)"><tspan class="cls-6">2</tspan><tspan x="76.51" y="0">0</tspan><tspan class="cls-9" x="167.98" y="0">0</tspan><tspan class="cls-10" x="258.01" y="0">3</tspan></text></g></g><g id="Сгруппировать_259" data-name="Сгруппировать 259"><g id="_2004" data-name=" 2004" class="cls-4"><text class="cls-11" transform="translate(2516.86 378.36)"><tspan class="cls-12">2</tspan><tspan x="74.69" y="0">0</tspan><tspan class="cls-13" x="163.98" y="0">0</tspan><tspan x="251.87" y="0">4</tspan></text></g><g id="_2004-2" data-name=" 2004-2" class="cls-4"><text class="cls-11" transform="translate(2516.86 378.36)"><tspan class="cls-12">2</tspan><tspan x="74.69" y="0">0</tspan><tspan class="cls-13" x="163.98" y="0">0</tspan><tspan x="251.87" y="0">4</tspan></text></g></g><g id="Сгруппировать_260" data-name="Сгруппировать 260"><g id="_2005" data-name=" 2005" class="cls-4"><text class="cls-11" transform="translate(2869.38 705.47)"><tspan class="cls-12">2</tspan><tspan x="74.69" y="0">0</tspan><tspan class="cls-13" x="163.98" y="0">0</tspan><tspan x="251.87" y="0">5</tspan></text></g><g id="_2005-2" data-name=" 2005-2" class="cls-4"><text class="cls-11" transform="translate(2869.38 705.47)"><tspan class="cls-12">2</tspan><tspan x="74.69" y="0">0</tspan><tspan class="cls-13" x="163.98" y="0">0</tspan><tspan x="251.87" y="0">5</tspan></text></g></g><g id="Сгруппировать_261" data-name="Сгруппировать 261"><g id="_2006" data-name=" 2006" class="cls-4"><text class="cls-11" transform="translate(3109.84 1121.93)"><tspan class="cls-12">2</tspan><tspan x="74.69" y="0">006</tspan></text></g><g id="_2006-2" data-name=" 2006-2" class="cls-4"><text class="cls-11" transform="translate(3109.84 1121.93)"><tspan class="cls-12">2</tspan><tspan x="74.69" y="0">006</tspan></text></g></g><g id="Сгруппировать_262" data-name="Сгруппировать 262"><g id="_2007" data-name=" 2007" class="cls-4"><text class="cls-5" transform="translate(3216.84 1594.21)"><tspan class="cls-6">2</tspan><tspan x="76.51" y="0">0</tspan><tspan class="cls-9" x="167.98" y="0">0</tspan><tspan class="cls-10" x="258.01" y="0">7</tspan></text></g><g id="_2007-2" data-name=" 2007-2" class="cls-4"><text class="cls-5" transform="translate(3216.84 1594.21)"><tspan class="cls-6">2</tspan><tspan x="76.51" y="0">0</tspan><tspan class="cls-9" x="167.98" y="0">0</tspan><tspan class="cls-10" x="258.01" y="0">7</tspan></text></g></g><g id="Сгруппировать_263" data-name="Сгруппировать 263"><g id="_2008" data-name=" 2008" class="cls-4"><text class="cls-11" transform="translate(3180.9 2070.35)"><tspan class="cls-12">2</tspan><tspan x="74.69" y="0">008</tspan></text></g><g id="_2008-2" data-name=" 2008-2" class="cls-4"><text class="cls-11" transform="translate(3180.9 2070.35)"><tspan class="cls-12">2</tspan><tspan x="74.69" y="0">008</tspan></text></g></g><g id="Сгруппировать_264" data-name="Сгруппировать 264"><g id="_2009" data-name=" 2009" class="cls-4"><text class="cls-11" transform="translate(3005.21 2518.02)"><tspan class="cls-12">2</tspan><tspan x="74.69" y="0">009</tspan></text></g><g id="_2009-2" data-name=" 2009-2" class="cls-4"><text class="cls-11" transform="translate(3005.21 2518.02)"><tspan class="cls-12">2</tspan><tspan x="74.69" y="0">009</tspan></text></g></g><g id="Сгруппировать_265" data-name="Сгруппировать 265"><g id="_2010" data-name=" 2010" class="cls-4"><text class="cls-14" transform="translate(2705.36 2897.43)">20<tspan class="cls-15" x="166.54" y="0">1</tspan><tspan class="cls-8" x="223.79" y="0">0</tspan></text></g><g id="_2010-2" data-name=" 2010-2" class="cls-4"><text class="cls-14" transform="translate(2705.36 2897.43)">20<tspan class="cls-15" x="166.54" y="0">1</tspan><tspan class="cls-8" x="223.79" y="0">0</tspan></text></g></g><g id="Сгруппировать_266" data-name="Сгруппировать 266"><g id="_2011" data-name=" 2011" class="cls-4"><text class="cls-16" transform="translate(2313.11 3161.49)"><tspan class="cls-17">20</tspan><tspan class="cls-18" x="158.61" y="0">1</tspan><tspan x="219.98" y="0">1</tspan></text></g><g id="_2011-2" data-name=" 2011-2" class="cls-4"><text class="cls-16" transform="translate(2313.11 3161.49)"><tspan class="cls-17">20</tspan><tspan class="cls-18" x="158.61" y="0">1</tspan><tspan x="219.98" y="0">1</tspan></text></g></g><g id="Сгруппировать_267" data-name="Сгруппировать 267"><g id="_2012" data-name=" 2012" class="cls-4"><text class="cls-11" transform="translate(1848.5 3306.66)"><tspan class="cls-12">20</tspan><tspan class="cls-19" x="162.58" y="0">1</tspan><tspan x="221.27" y="0">2</tspan></text></g><g id="_2012-2" data-name=" 2012-2" class="cls-4"><text class="cls-11" transform="translate(1848.5 3306.66)"><tspan class="cls-12">20</tspan><tspan class="cls-19" x="162.58" y="0">1</tspan><tspan x="221.27" y="0">2</tspan></text></g></g><g id="Сгруппировать_268" data-name="Сгруппировать 268"><g id="_2013" data-name=" 2013" class="cls-4"><text class="cls-11" transform="translate(1367.59 3306.66)"><tspan class="cls-12">20</tspan><tspan class="cls-20" x="162.58" y="0">1</tspan><tspan x="219.86" y="0">3</tspan></text></g><g id="_2013-2" data-name=" 2013-2" class="cls-4"><text class="cls-11" transform="translate(1367.59 3306.66)"><tspan class="cls-12">20</tspan><tspan class="cls-20" x="162.58" y="0">1</tspan><tspan x="219.86" y="0">3</tspan></text></g></g><g id="Сгруппировать_269" data-name="Сгруппировать 269"><g id="_2014" data-name=" 2014" class="cls-4"><text class="cls-14" transform="translate(908.02 3168.34)">20<tspan class="cls-21" x="166.54" y="0">1</tspan><tspan class="cls-10" x="225.22" y="0">4</tspan></text></g><g id="_2014-2" data-name=" 2014-2" class="cls-4"><text class="cls-14" transform="translate(908.02 3168.34)">20<tspan class="cls-21" x="166.54" y="0">1</tspan><tspan class="cls-10" x="225.22" y="0">4</tspan></text></g></g><g id="Сгруппировать_270" data-name="Сгруппировать 270"><g id="_2015" data-name=" 2015" class="cls-4"><text class="cls-22" transform="translate(510.7 2894.01)">20<tspan class="cls-19" x="162.58" y="0">1</tspan><tspan class="cls-23" x="221.27" y="0">5</tspan></text></g><g id="_2015-2" data-name=" 2015-2" class="cls-4"><text class="cls-22" transform="translate(510.7 2894.01)">20<tspan class="cls-19" x="162.58" y="0">1</tspan><tspan class="cls-23" x="221.27" y="0">5</tspan></text></g></g><g id="Сгруппировать_271" data-name="Сгруппировать 271"><g id="_2016" data-name=" 2016" class="cls-4"><text class="cls-22" transform="translate(210.86 2518.02)">20<tspan class="cls-19" x="162.58" y="0">1</tspan><tspan class="cls-23" x="221.27" y="0">6</tspan></text></g><g id="_2016-2" data-name=" 2016-2" class="cls-4"><text class="cls-22" transform="translate(210.86 2518.02)">20<tspan class="cls-19" x="162.58" y="0">1</tspan><tspan class="cls-23" x="221.27" y="0">6</tspan></text></g></g><g id="Сгруппировать_272" data-name="Сгруппировать 272"><g id="_2017" data-name=" 2017" class="cls-4"><text class="cls-5" transform="translate(35.14 2073.77)"><tspan class="cls-6">20</tspan><tspan class="cls-7" x="166.54" y="0">1</tspan><tspan x="226.66" y="0">7</tspan></text></g><g id="_2017-2" data-name=" 2017-2" class="cls-4"><text class="cls-5" transform="translate(35.14 2073.77)"><tspan class="cls-6">20</tspan><tspan class="cls-7" x="166.54" y="0">1</tspan><tspan x="226.66" y="0">7</tspan></text></g></g><g id="Сгруппировать_273" data-name="Сгруппировать 273"><g id="_2018" data-name=" 2018" class="cls-4"><text class="cls-11" transform="translate(-0.79 1590.79)"><tspan class="cls-12">20</tspan><tspan class="cls-20" x="162.58" y="0">1</tspan><tspan x="219.86" y="0">8</tspan></text></g><g id="_2018-2" data-name=" 2018-2" class="cls-4"><text class="cls-11" transform="translate(-0.79 1590.79)"><tspan class="cls-12">20</tspan><tspan class="cls-20" x="162.58" y="0">1</tspan><tspan x="219.86" y="0">8</tspan></text></g></g><g id="Сгруппировать_274" data-name="Сгруппировать 274"><g id="_2019" data-name=" 2019" class="cls-4"><text class="cls-11" transform="translate(106.23 1121.93)"><tspan class="cls-12">20</tspan><tspan class="cls-20" x="162.58" y="0">1</tspan><tspan x="219.86" y="0">9</tspan></text></g><g id="_2019-2" data-name=" 2019-2" class="cls-4"><text class="cls-11" transform="translate(106.23 1121.93)"><tspan class="cls-12">20</tspan><tspan class="cls-20" x="162.58" y="0">1</tspan><tspan x="219.86" y="0">9</tspan></text></g></g><g id="Сгруппировать_275" data-name="Сгруппировать 275"><g id="_2020" data-name=" 2020" class="cls-4"><text class="cls-5" transform="translate(346.68 708.9)"><tspan class="cls-6">2</tspan><tspan class="cls-7" x="76.51" y="0">0</tspan><tspan class="cls-6" x="165.11" y="0">2</tspan><tspan x="241.62" y="0">0</tspan></text></g><g id="_2020-2" data-name=" 2020-2" class="cls-4"><text class="cls-5" transform="translate(346.68 708.9)"><tspan class="cls-6">2</tspan><tspan class="cls-7" x="76.51" y="0">0</tspan><tspan class="cls-6" x="165.11" y="0">2</tspan><tspan x="241.62" y="0">0</tspan></text></g></g><g id="Сгруппировать_276" data-name="Сгруппировать 276"><g id="Forecast" class="cls-4"><text class="cls-24" transform="translate(585.16 378.36)"><tspan class="cls-20">F</tspan><tspan x="68.94" y="0">o</tspan><tspan class="cls-25" x="153.45" y="0">r</tspan><tspan x="201.19" y="0">e</tspan><tspan class="cls-26" x="281.64" y="0">c</tspan><tspan x="359.69" y="0">a</tspan><tspan class="cls-19" x="435.09" y="0">s</tspan><tspan class="cls-23" x="495.88" y="0">t</tspan></text></g><g id="Forecast-2" class="cls-4"><text class="cls-24" transform="translate(585.16 378.36)"><tspan class="cls-20">F</tspan><tspan x="68.94" y="0">o</tspan><tspan class="cls-25" x="153.45" y="0">r</tspan><tspan x="201.19" y="0">e</tspan><tspan class="cls-26" x="281.64" y="0">c</tspan><tspan x="359.69" y="0">a</tspan><tspan class="cls-19" x="435.09" y="0">s</tspan><tspan class="cls-23" x="495.88" y="0">t</tspan></text></g></g></g><g id="lines" class="cls-27"><path id="line-0" class="cls-28" d="M1925.12,1134.25c36.19-46.21,73.14,135.33,50.79,221s-176.51,250.66-185,292.87,116.87-42.22,134.38-39.65S1785,1621,1896,1663.57s616.68,140.06,695.18,200.33-177.57,93.59-224.2,161.2-53.82,96.18-55.6,244.47,120.23,633.28,44.86,645.23-368.66-557.43-497-573.58-188.53,447.28-273,476.67-98.74-286.22-234-300.19S768.92,2839.05,775,2734s629-710.83,613.89-846.64-688.26,73.1-704.47,31.69,584.2-178.09,607.26-280.17-492.95-295.24-469-332.34,515.1,133.85,612.88,109.71-79.93-297.41-26.08-254.48,291,433.64,349.14,512.1-27.73,48.63,0-41.31,130.25-452.07,166.46-498.3"/></g><g id="Сгруппировать_284" data-name="Сгруппировать 284"><g id="Сгруппировать_278" data-name="Сгруппировать 278"><g id="_0" data-name=" 0" class="cls-4"><text class="cls-29" transform="translate(1708 1741.09)">0</text></g><g id="_0-2" data-name=" 0-2" class="cls-4"><text class="cls-29" transform="translate(1708 1741.09)">0</text></g><g id="_0-3" data-name=" 0-3" class="cls-4"><text class="cls-29" transform="translate(1708 1741.09)">0</text></g></g><g id="Сгруппировать_279" data-name="Сгруппировать 279"><g id="_2" data-name=" 2" class="cls-4"><text class="cls-29" transform="translate(1708 1466.39)">2</text></g><g id="_2-2" data-name=" 2-2" class="cls-4"><text class="cls-29" transform="translate(1708 1466.39)">2</text></g><g id="_2-3" data-name=" 2-3" class="cls-4"><text class="cls-29" transform="translate(1708 1466.39)">2</text></g></g><g id="Сгруппировать_280" data-name="Сгруппировать 280"><g id="_4" data-name=" 4" class="cls-4"><text class="cls-29" transform="translate(1708 1191.7)">4</text></g><g id="_4-2" data-name=" 4-2" class="cls-4"><text class="cls-29" transform="translate(1708 1191.7)">4</text></g><g id="_4-3" data-name=" 4-3" class="cls-4"><text class="cls-29" transform="translate(1708 1191.7)">4</text></g></g><g id="Сгруппировать_281" data-name="Сгруппировать 281"><g id="_6" data-name=" 6" class="cls-4"><text class="cls-29" transform="translate(1708 917.01)">6</text></g><g id="_6-2" data-name=" 6-2" class="cls-4"><text class="cls-29" transform="translate(1708 917.01)">6</text></g><g id="_6-3" data-name=" 6-3" class="cls-4"><text class="cls-29" transform="translate(1708 917.01)">6</text></g></g><g id="Сгруппировать_282" data-name="Сгруппировать 282"><g id="_8" data-name=" 8" class="cls-4"><text class="cls-29" transform="translate(1708 642.32)">8</text></g><g id="_8-2" data-name=" 8-2" class="cls-4"><text class="cls-29" transform="translate(1708 642.32)">8</text></g><g id="_8-3" data-name=" 8-3" class="cls-4"><text class="cls-29" transform="translate(1708 642.32)">8</text></g></g><g id="Сгруппировать_283" data-name="Сгруппировать 283"><g id="_10" data-name=" 10" class="cls-4"><text class="cls-30" transform="translate(1655.63 367.62)">10</text></g><g id="_10-2" data-name=" 10-2" class="cls-4"><text class="cls-30" transform="translate(1655.63 367.62)">10</text></g><g id="_10-3" data-name=" 10-3" class="cls-4"><text class="cls-30" transform="translate(1655.63 367.62)">10</text></g></g></g></g></svg>