<svg id="Layer_1" data-name="Layer 1" xmlns="http://www.w3.org/2000/svg" viewBox="0 0 1294 894.64"><defs><style>.cls-1{fill:#051a1e;stroke:#9baf78;stroke-miterlimit:10;stroke-width:0.25px;}</style></defs><g id="Сгруппировать_347" data-name="Сгруппировать 347"><path id="Контур_116" data-name="Контур 116" class="cls-1" d="M1443.42,197.63c10,14.32,35.8,20,24.34,38.67-8.86,14.39-20.19,33.87-24.92,48.62,45.2-20.61,96.52-13.72,143.4-27.53-1.89-4.85-5-10.48-8.19-18.23-7.16-17.19-5.73-17.18-5.73-35.8,0-17.46-3.78-17.28-21.42-51.42-1.19-2.28-2.42-4.7-3.72-7.31-20.85-41.53,7.94-28.63,9.86-63,.32-5.54.49-10.17.58-14.25.36-21.22-2.58-26.17-10.44-50.19-9.37-28.66-2.06-14.33-16.39-44.39s-11.46-14.34-22.93-34.38-11.45-21.48-17.18-41.88,10-48.34,21.48-75.55a35.5,35.5,0,0,0,2.57-9.65,84.65,84.65,0,0,0-17.49,1c-53.92,8.09-16.16,5.4-51.23,16.18s-55.14,16.57-55.14,16.57c-19.34,4.3-36.51-2.14-53.67,12.88s-21.47,19.32-36.51,36.5-10.74,15-27.9,30.05c-15,13.07-7.14,9.89-20.46,15.94-17.77,32.14,9.2,59.52,7.7,73.84s.08,7.16-22.83,32.94-12.9,11.45-49.14,32.29-16.75,12.1-38.23,13.54-25.77-10-47.27-12.9-17.17,4.3-55.87,11.46-39,15.34-39,15.35c3.23,1.61,5.38,6.43,1.09,19.34-6.16,18.46-3.51,27-8.64,31.11,13.52,8.53,17.95,10.11,17.95,10.11s-31.5,28.63-47.25,41.53-34.36,30.08-34.36,30.08l.13.06c.91.26,7.76,1.18,60-.06,60.16-1.44,77.35-1.44,131.77-15.76s25.76-31.5,74.46-21.48,38.67,60.15,104.56,12.89,61.6-61.59,85.94-53S1433.4,183.3,1443.42,197.63Z"/><path id="Контур_118" data-name="Контур 118" class="cls-1" d="M145.26,292.76s-.87-30-2.65-44.08-4.39-9.69-6.15-18.5,6.15-12.35,18.5-31.73,2.64-24.68-7.05-57.29-5.3-27.33,1.75-49.36,8.81-21.15,15-32.61-3.52-15.88-14.11-20.28-3.52,4.4-20.9,26.45-12.59,9.7-24.92,4.4S110,53.9,119.7,38c1.34-2.2,2.41-3.92,3.27-5.36,5.35-9,2.51-5.66,5.54-19.32C132-2.51,127.64,6.3,110.42-6s-10.1-21.15-3-44.95.87-7.93-7.93-32.62S85.33-88,30.69-99.42s-25.56-3.57-74-.92-15.87,0-63.47-12.35-8.81-7.93-26.44-17.62-18.51,0-38.78-3.53-4.41-4.42-11.44-21-4.42-10.69-8.83-14.21-9.7-2.64-24.69,0-6.16,6.18-23.78,19.4-7.06,4.41-24.69,6.24-21.51,0-21.51,0a44.37,44.37,0,0,0,.34,8.62s3.92,9.1-6.51,33.85-10.42,43-22.13,49.5-25.4,1.45-31,5.27S-357-48.89-359.58-32s-5.2,26.05,3.91,35.16,20.2-6.51,9.44,19.54-19.86,37.78-12,48.19-18.24,5.21,22.13,19.54,14.33-7.81,49.49,16.94,30,19.54,50.81,31.25,18.23-9.12,27.34,15.63,9.12,24.74,10.42,35.17-13,16.93-13,16.93,9.12,9.11,14.32,19.54,2.6,14.32,13,48.18,13,11.73,44.29,30,26,13,46.33,28.26C-79.24,342.75-79.23,347-79.77,360h0C-5.07,441.68,145.26,292.76,145.26,292.76Z"/><path id="Контур_120" data-name="Контур 120" class="cls-1" d="M190.93,802c-9.73-13-10.82-34.65-4.85-58.46s13.51-18.4,18.93-28.15,10.82-33.56,20.3-54.12-5.15-10.83-11.65-24.9-5.4-58.46-21.65-107.27S197.43,382,202.85,384.45c-59.55-38.67-57.59-91.69-57.59-91.69S-5.07,441.68-79.76,360h0a196.56,196.56,0,0,0,.23,24.87c2.6,35.16-5.21,9.11-35.17,19.61s-27.35,10.34-45.59,15.55-14.32,14.33-10.42,26,9.12,19.54,14.34,45.6-6.51,19.53-11.73,31.38c-1.72,3.89-5.22,5.51-9.63,6a1.1,1.1,0,0,0,.15.26s-18,12.08-18,22.34,1.29,20.15,0,31.21,10.25,53.38,28.19,59.79,25.62,1.28,35.88,11.54,17.94,17.94,19.24,25.62-7.7,12.81,0,20.5,6.4,7.7,26.91,6.4,20.49-14.09,28.19.65S-40.5,720.73-49.45,731-70,738.67-68.67,761.75s-9,35.89,10.24,33.32,29.49-9.61,39.74.31S-4.61,811.73.52,823.26,12.06,828.39,21,839.93s11.52,25,12.8,39.44c.48,5.3,3.91,10.37,8.38,15.27,0,0,18.81-12.53,49.12-15.77s0,0,16.24,7.57,6.49-3.25,15.15-20.07,7.58-11.32,28.14-11.32,55-43.1,55-43.1C199.1,809.93,194.24,806.43,190.93,802Z"/><path id="Контур_121" data-name="Контур 121" class="cls-1" d="M-106.82-112.68c47.6,12.34,15,15,63.46,12.34s19.39-10.48,74,.92,59.93-8.86,68.75,15.81,15,8.82,7.93,32.63S93.22-18.37,110.42-6,132-2.51,128.51,13.35c-3,13.66-.2,10.37-5.54,19.32,0,0,23.57-6.84,29-15.51s-3.26-7.58-4.35-20.56,5.42-8.66,23.83-27.08,5.42-10.81,16.23-24.89,5.42-8.65,19.5-19.49,0,0,3.23,1.09,5.42,7.58,23.83,20.56,0,0,8.65-14.06-3.24-17.33-3.24-23.54,3.24-8.94,33.55-16.52,21.66,1.08,46.55,0,8.66-6.5,49.8-20.57,16.24-2.16,53.05,6.5,31.39-5.41,26-8.91-8.66-16-30.31-18.16-18.41,1.09-58.46-13-7.58-4.33-48.72-23.5-9.75,6.17-61.7,20.25-14.07,5.41-48.71,21.65-15.16-2.17-41.14-4.33,0,0-32.48-7.51-7.57-1.15-28.15-30.06-4.33-1.42-13,0-5.42.75-37.89,5.09S25.3-195,25.3-195s35.73-18.39,46.55-27,5.42-16.25,0-17.33-20.57,2.17-41.13,9.74-7.59,4.33-23.82,15.17S-14.75-190.68-31-176.61s-24.9,8.65-48.09,21.73-8.21,4.25-28.78,12.91-25.4,11.66-25.4,11.66C-115.63-120.62-154.42-125-106.82-112.68Z"/><path id="Контур_123" data-name="Контур 123" class="cls-1" d="M889.17,481.2c2.89-18.62,12.89-30.07,14.33-58.72s-5.73-35.81-8.41-62.52-14.51-73.54-20.25-77.84-31.49,7.16-48.67,10.64-4.3,8-12.17,30.9-26.51,27.22-69.48,45.83-38.66,10-80.19,0c-34.71-8.38-63.21-28.85-71.69-35.38C591,332.82,590,332,590,332c-39.9-3.6-80.64-3.52-119.26-1.43,0,.22,1.67,30,7.07,91.43,5.4,61.7,4.32,21.65,8.65,46.54s-3.25,7.58,0,68.21S493,550.85,520,606.07c8.46,17.25,11.53,24.89,11.51,28.75a4.41,4.41,0,0,1-.45,2.08c.89,1.76,4.85,4.5,18.18,8.14,23.82,6.49,41.13,9.74,44.38,11.9s15.16-15.63,26-11.05-6.5,13.22,23.81,17.55-2.16,14.08,39,0,40.05-26,52-19.48,21.66-3.25,17.33,17.32c-3.79,17.94-17.42,17-11.52,31.49,28.76-7.56,49.33-22.51,47.32-32.55-2.85-14.32-10-40.1,4.31-58.72s53-29.27,53-29.27c10-47.88,51.56-43.76,50.32-55.3-.57-5.48-2.58-9.64-4.22-14.48C889.05,497.11,887.66,491,889.17,481.2Z"/><path id="Контур_124" data-name="Контур 124" class="cls-1" d="M-476.76-343.8c49.37,8.58,12.88,6.45,42.95-4.29s8.57,0,64.4-6.45,12.88,2.15,60.11,40.78,0,0,60.09,17.19c42,12,29.54,6.18,22.59-6.45-3-5.46-5-12.2-1.12-19.31,12.89-23.61,10.74-6.45,40.8-12.9,27.74-5.92,15.3,2.78,72.38,34.58,4.73,2.63,9.87,5.42,15.63,8.37,75.12,38.64,10.74,4.29,49.37,2.14s8.58-15,30.06-66.55,19.31-25.75,60.09-42.92,30.06,12.87,85.89,14.18,21.46,7.27,51.5,0,12.89,9.43,36.49,30.89,32.21,25.76,49.39,30.06,4.29,10.72,30.06,42.92,0,0,21.46-17.15,21.46-6.46,36.48-4.31,19.34,30.06,21.46,36.5,2.15,8.58,6.45,66.56,4.3,25.75,21.46,30.05,21.47,2.13,92.31,6.43,19.34,15,62.26,42.93,0,0,21.46-15,21.48-4.29,77.29-12.86,19.32,0,42.93,0,10.74-2.15,62.26-10.75,12.88,6.44,51.51,32.2,12.89,15,36.51,32.2,2.14,8.59,17.16,64.4S858.47-8.92,847.76-2.47s0,0-66.55-12.89-27.91-15-51.53-21.47,0,0,4.3,19.32S744.71,4,753.3,21.14s-10.74,12.87-30.07,58,0,0,0,30.06,0,0-8.59,51.52-6.42,8.59-19.31,8.59,0,15-19.32,38.63,22.39,16.19-45.08,85.88c-83.86,86.64-25.85.52,42.94,10.72,43.79,6.49,30.06-8.58,53.67-42.93s17.17-32.2,47.22-42.93,23.62,0,64.4,0,19.32-10.74,36.5-25.75,17.17-15,66.54-32.21,27.92,2.15,47.23,0c5.46-.6,8.64-1.59,10.68-3.22,5.13-4.14,2.48-12.65,8.64-31.12,4.29-12.9,2.14-17.72-1.09-19.33s-7.49,0-7.49,0-30,2.15-58,0,2.17-15,15-40.78S970.12,55.48,985.14,49s15-17.18,60.11-38.64,12.87-2.16,49.37,2.15,17.18,8.59,51.53,19.31,15-12.87,4.28-42.93c-.36-1-.66-1.79-1-2.68,5.39.53,13.94.53,26.77-1.61,25.76-4.29,10.73-12.88,32.2-27.92s12.89-2.14,36.51-12.86c3-1.4,5.46-2.48,7.43-3.38,13.32-6,5.5-2.88,20.46-15.95,17.16-15,12.89-12.88,27.9-30S1320-127,1337.2-142s34.33-8.58,53.67-12.88,10.73-32.21-8.58-64.41-90.18-12.87-120.23-6.43S1144-180.65,1056-172.06,918.6-242.91,864.92-303,746.86-693.71,746.86-693.71s-10.74-2.15-21.46-16.59-25.77,0-25.77,0-8.59,1.57-47.22-56.39-17.16-12.87-73-32.2-17.18-12.88-32.21-40.78-6.42-10.74-36.49-23.62,0,0-34.34-25.75,6.44-21.47,12.88-58-8.59-12.89-32.21-66.54-12.89-38.65-21.46-66.56-10.74-21.46-32.21-42.93-15-8.58-64.38-12.87-30.07,2.14-55.83,6.44-38.63,8.59-73,25.75-12.88-8.59-36.5-27.9-8.59,4.29-33.07,0-22.74-6.44-121.49-25.77-15-10.72-55.81-30S-53.86-1200.32-64.6-1212s-21.46-12-40.78-29.14-32.78-17-32.78-17l-448.17,452.5,8.08,341.72,35-10.9c15-4.67,21.43-6.9,23.94-7.94,3.09,6.21,27.86,56.11,31.87,70.19,4.31,15,0,0-34.35,42.95-3.26,4.09-5.95,7.23-8.34,9.94,1.54.8,3.41,1.66,5.44,2.55C-515.24-352.88-500.14-347.87-476.76-343.8Z"/><path id="Контур_125" data-name="Контур 125" class="cls-1" d="M895.09,360c2.68,26.71,9.83,33.88,8.41,62.52s-11.45,40.1-14.33,58.72c-1.5,9.76-.12,15.91,1.7,21.24,10.18,2.52,20.82,3.64,29.8,1.32,26.91-7,37.25-2.51,97.39-1.08s51.56,1.42,87.36,0,14.34-12.89,82.63-41.54c49.7-20.84,38.69-9.83,36.16-1.18-.91,3.23-.69,6.13,4.4,6.91.43.07.78.1,1.17.15,16.79,2.27,5.58-6.48,48.94-31.65,44.39-25.78,28.64,1.43,74.47,11.46s37.23,0,61.59-7.17c9-2.64,12.3-4.3,13.49-6.15,2.06-3.15-2.11-6.82,5.11-16.76,11.47-15.74,12.9-10,40.11-18.62s12.89-7.15,23.22-17.19,1.12-14.32-8.88-42.35-12.9-3.47-34.38-8-12.89-19.84-12.89-34.16,15.75-41.54,27.2-60.15-14.31-24.35-24.34-38.67-25.77-27.21-50.11-35.8-20.07,5.72-86,53-55.85-2.86-104.55-12.88-20,7.16-74.46,21.47-71.62,14.32-131.77,15.76c-52.25,1.24-59.09.33-60,.07-.13,0-.13-.07-.13-.07l-61.6,43C880.58,286.42,892.42,333.23,895.09,360Z"/><path id="Контур_126" data-name="Контур 126" class="cls-1" d="M986.56,766.2c27.21-24.37,18.62,30.07,41.53-41.54s-1.43-68.75,22.91-71.61,21.5-5.73,31.51,0,14.32,18.61,27.21,4.3,10-22.92,14.34-48.69-21.5-25.79,4.29-25.79,20.05,11.47,31.5,0-10.89,0,28.21-31.5,14.75-28.64,39.1-31.51,37.26,7.16,31.52-8.59c-4.14-11.38-20.26-33.06-28.89-44.24l-1.18-.15c-5.08-.79-5.31-3.7-4.39-6.92,2.52-8.65,13.53-19.66-36.16,1.19-68.3,28.64-46.84,40.11-82.63,41.53s-27.21,1.43-87.37,0-70.48-5.88-97.38,1.08c-9,2.32-19.63,1.2-29.81-1.32,1.64,4.85,3.65,9,4.22,14.49,1.24,11.54-40.28,7.42-50.32,55.3,0,0-38.64,10.64-53,29.27s-7.16,44.4-4.3,58.72c2,10-18.57,25-47.32,32.55a50.94,50.94,0,0,0,3.94,7.49C758.19,723,730,716.49,758.19,723s29.23-8.66,36.81,9.75,14.06,3.24,7.58,23.81c-5,15.92-2.35,17.57.42,21,0,0,11.71,14.08,26,18.54s30.07,22.42,45.81,17.75-8.19-3.59,28.84-17.75c34.21-13.07,28.35-9.35,46.41-16.53l5-2C979.4,767.63,959.35,790.54,986.56,766.2Z"/><path id="Контур_127" data-name="Контур 127" class="cls-1" d="M520,606.06c-27.06-55.21-30.31-8.65-33.55-69.27s4.33-43.31,0-68.21-3.25,15.16-8.66-46.54c-5.4-61.48-7-91.21-7.06-91.43C358.45,336.74,264.55,360,264.55,360s0,14.44-18.41,18.77-37.88,8.19-43.29,5.72S175.78,480.29,192,529.11s15.17,93.19,21.66,107.27,21.12,4.32,11.64,24.9S210.42,705.67,205,715.4s-13,4.33-18.93,28.15S181.2,789,190.93,802c3.31,4.42,8.17,7.91,15,9.94,13.24,3.94,34,2.22,66.2-9.94,48.71-18.4,36.81-31.4,60.62-22.73s31.39,29.22,57.37-1.09-4.33-2.16,35.73-48.71,17.29-47.64,44.9-48.72,33,36.81,40.62-13c4.66-30.7,17.18-26,19.71-30.87a4.23,4.23,0,0,0,.45-2.07C531.55,631,528.49,623.32,520,606.06Z"/><path id="Контур_128" data-name="Контур 128" class="cls-1" d="M590,332c.77-2.8,1.9-6.54,3.64-11.76,10.83-32.48,9.75-33.57,13-42.23s-8.66-18.4,6.49-22.73S609.88,277,628.28,251s18.4,10.83,18.4-26-1.09-38.27-3.25-51.61,0-6.84,3.25-27.41,4.33-27.07-13-47.64-2.17-35.73-23.81-27.06S595.81,64.8,582.81,88.6s1.08,22.74-17.31,30.32-6.5,20.57-33.57,10.83L504.87,120s-10.44,2.25,4.51-13.49-5.59-4.92,15-15.74S541.68,121.09,544.93,80s14.07,0,2.16-52S518.94-8.82,535.18-32.63s57.37-29.23,14.07-33.56-37.88-6.49-62.79-7.58,11,9.75-34,0-17.95-17.33-45-9.75-26,6.5-35.73,16.25S350.06-35.88,347.9-24,334.91.92,340.33,8.5,355.48,39.89,336,26.91c-3.71-2.48-9.73-40.06-9.73-40.06S296-5.56,293.78-2.32,285.11,3.1,283,19.33s-4.32,20.56,0,39,18.4-9.74,4.33,18.4S265.63,100.52,271,113.52s7.59,9.73,11.91,30.3,6.5,23.81-4.32,36.81-9.75,15.15,2.15,30.32,8.67,1.07,11.91,15.14,5.42,30.31,1.09,47.64-1.09,51.19-5.42,58.6S264.55,360,264.55,360s93.9-23.21,206.2-29.35C509.36,328.52,550.11,328.44,590,332Z"/></g></svg>