<svg id="Layer_1" data-name="Layer 1" xmlns="http://www.w3.org/2000/svg" viewBox="0 0 110.4 68.09"><defs><style>.cls-1{fill:#fff;}</style></defs><path class="cls-1" d="M0,40.79l5.12-1.41V6.14L0,4.74V2.63H33.61l1.17,12.76-1.47.29L26.78,6.14l-12.12-1V21l6.23-.53L23.37,14h1.88v16.1H23.37l-2.48-6-6.23-.47V40.26l14-.88L35.73,28l1.64.29L35.84,42.9H0Z"/><path class="cls-1" d="M41.14,39.41V21.27l-4.54-2.1V17.59l10.36-4h1.71l-.88,7.25.11.06c2.48-4.8,5.89-7.67,9.54-7.67a5.16,5.16,0,0,1,5.41,5.15,4.75,4.75,0,0,1-4.53,5,3.76,3.76,0,0,1-4.12-3.81,3,3,0,0,1,.83-2L55,17.35c-1.89.29-4.06,2.34-5.89,5.44V39.41Z"/><path class="cls-1" d="M63.82,40V21.83L60.07,23l-2.63-9.75H71.77V40Zm-1.12-35a4.95,4.95,0,0,1,9.89,0,4.95,4.95,0,0,1-9.89,0Z"/><path class="cls-1" d="M71.77,37.06c0-7.25,4.91-13,12-13,5.75,0,10.17,3.63,10.42,12.38H79v.05c0,7.35,1.69,9.21,6.45,9.21a17.25,17.25,0,0,0,6.75-1.41l.85,1.61a15.08,15.08,0,0,1-9.63,3.58C75.54,49.44,71.77,43.85,71.77,37.06Zm7.29-3.37h8.29c-.25-5.54-1.09-7-3.67-7S79.46,27.65,79.06,33.69Z"/><path class="cls-1" d="M0,66l5.12-1.4V31.34h9.54V65.57L26.6,64.46,34,52.58l1.59.29L33.72,68.09H0Z"/><path class="cls-1" d="M34.16,61.54c0-5.1,3.83-7.55,11.71-9l4.83-.88V47.55c0-4.45-2.3-5.44-6.77-5.44a8.32,8.32,0,0,0-3.59.64V43a3.66,3.66,0,0,1,2.47,3.57A3.57,3.57,0,0,1,39,50a3.91,3.91,0,0,1-4-4.22c0-5,6.59-7.25,11.94-7.25,7.6,0,11.72,2.92,11.72,13.16v10c0,1.82-.19,3.22,3.17,3.45l1.52,2.36c-1.29.82-4,.57-6.75.57-3.59,0-5.89-2-5.89-5.38-1.82,2.57-5.18,5.38-9.12,5.38C37.28,68.09,34.16,65.52,34.16,61.54ZM50.7,60.25V53.87l-4,1.4c-3.59,1.23-4.53,2.34-4.53,4.8s1.06,3.28,3,3.28C47.4,63.35,49.17,62.18,50.7,60.25Z"/><polygon class="cls-1" points="90.34 65.16 80.73 51.93 86.64 49.08 85.4 46.06 81.23 48.89 74.78 52.17 71.77 52.17 71.77 24.02 63.81 31.75 63.81 65.16 59.8 65.16 59.8 68.09 74.95 68.09 74.95 65.16 71.77 65.16 71.77 55.1 74.36 55.1 81.2 65.16 77.96 65.16 77.96 68.09 93.53 68.09 93.53 65.16 90.34 65.16"/></svg>