<svg id="Layer_1" data-name="Layer 1" xmlns="http://www.w3.org/2000/svg" viewBox="0 0 1972.8 1713.31"><defs><style>.cls-1,.cls-2{fill:#022127;}.cls-1,.cls-14,.cls-2{stroke:#a5bd8d;}.cls-1,.cls-2,.cls-3{stroke-miterlimit:10;}.cls-1,.cls-3{stroke-width:0.25px;}.cls-2{stroke-width:0.1px;}.cls-11,.cls-16,.cls-3,.cls-4,.cls-7{fill:#a5bd8d;}.cls-3{stroke:#022127;}.cls-4{font-size:22.67px;}.cls-11,.cls-16,.cls-4,.cls-8{font-family:MADETOMMY, MADE TOMMY;}.cls-5{letter-spacing:-0.01em;}.cls-6{letter-spacing:0em;}.cls-8{font-size:33.63px;fill:#fff;}.cls-9{letter-spacing:-0.02em;}.cls-10{letter-spacing:-0.11em;}.cls-11{font-size:30.23px;}.cls-12{letter-spacing:-0.02em;}.cls-13{letter-spacing:-0.07em;}.cls-14,.cls-15{fill:none;stroke-linecap:round;stroke-linejoin:round;}.cls-14{stroke-width:0.5px;}.cls-15{stroke:#fff;}.cls-16{font-size:23.3px;}.cls-17{letter-spacing:-0.01em;}.cls-18{letter-spacing:-0.02em;}.cls-19{letter-spacing:0em;}.cls-20{letter-spacing:-0.03em;}</style></defs><path class="cls-1" d="M599.48,421.23c-86.83,0,39.75,32.26-118.37,5.13-143.33-24.59-80.29-51.92-136.54-34.13,2.95-4.77,7.72-11.13,15.21-19.73,49.65-57,13.67-47.59,13.67-47.59L277.8,295.07c-95.68-29.8-52.29,13.59-115.19,42.78s-14.09,23.23-55.68,108.09-17.52,30.95-91.61,64.34C9.48,512.92,4.41,515,0,516.58V728.22c90.05-12.75,194.1-24.28,304.11-30.29,114.59-6.21,235.51-6.44,353.9,4.23,2.27-8.3,5.63-19.38,10.79-34.88,32.13-96.39,28.93-99.62,38.54-125.31s-25.69-54.62,19.28-67.46-9.61,64.25,45-12.85c9.17-13,16.8-20.64,23.16-25C669.56,428.67,681.33,421.26,599.48,421.23Z"/><path class="cls-2" d="M1225,1711.2c17.71-14.88,24.51-16.93,22-29.39-8.51-42.76-29.91-119.72,12.86-175.32s158.14-87.4,158.14-87.4c30-143,154-130.65,150.25-165.1-1.71-16.38-7.7-28.78-12.6-43.26-5.45-15.92-9.57-34.28-5.06-63.42,8.6-55.59,38.48-89.79,42.77-175.32s-17.12-106.9-25.11-186.67S1525,565.75,1507.84,552.93s-94,21.36-145.32,31.74-12.83,23.85-36.32,92.27-79.15,81.28-207.45,136.84-115.44,29.94-239.42,0c-103.65-25-188.73-86.15-214.07-105.64-5-3.84-7.86-6.19-7.86-6.19-119.11-10.73-240.77-10.51-356.06-4.26.07.65,5,89.44,21.08,273,16.15,184.21,12.93,64.65,25.85,139s-9.7,22.63,0,203.65,19.4,42,100.2,206.84c25.26,51.51,34.42,74.32,34.35,85.86a12.84,12.84,0,0,1-1.35,6.19c2.67,5.25,14.47,13.44,54.27,24.3,71.13,19.4,122.82,29.1,132.52,35.55s45.25-46.67,77.58-33-19.4,39.47,71.09,52.4-6.48,42,116.38,0,119.57-77.57,155.11-58.18,64.65-9.69,51.73,51.73c-3.57,16.89-8.07,17.36-14.73,26.23Z"/><path class="cls-3" d="M1692.15,424.85c-.1-.06-.39-.19-.39-.19S1691.76,424.72,1692.15,424.85Z"/><path class="cls-2" d="M1972.8,421.68c-31.54,1.17-58.57,1.95-101.49,3-156,3.7-176.42,1-179.16.19-.39-.13-.39-.19-.39-.19L1507.84,552.93c17.14,12.82,52.5,152.59,60.46,232.39s29.36,101.17,25.11,186.67-34.17,119.73-42.77,175.32c-4.51,29.14-.39,47.5,5.06,63.42,30.39,7.52,62.17,10.86,89,3.94,80.34-20.79,111.22-7.51,290.76-3.23l36.74.89Z"/><text class="cls-4" transform="translate(1242.13 245.19)">O<tspan class="cls-5" x="18.16" y="0">n</tspan><tspan class="cls-6" x="30.9" y="0">tario</tspan></text><path class="cls-1" d="M1972.8,0c-71.14,18.26-72,35.84-72,35.86,9.5,4.74,15.83,18.94,3.21,56.92-18.14,54.36-10.36,79.4-25.45,91.6,39.81,25.11,52.84,29.75,52.84,29.75s-92.72,84.3-139.08,122.27-101.17,88.53-101.17,88.53.28.12.38.18c2.7.77,22.84,3.47,176.64-.18,40.58-1,74.51-1.72,104.65-2.8Z"/><path class="cls-1" d="M700.74,670.42c-34.22,23.42-40.55,36.4,0,0Z"/><path class="cls-1" d="M1904.5,28.09c-9.48-4.73-22.06,0-22.06,0s-88.51,6.33-170.75,0q-4-.3-7.48-.71c-22.51-.36-50.14-.39-83.58.15-285.61,4.64-183.27,76.05-272.71,85s-93.9,67-120.69,40.21,67-111.74-58.11-22.31-62.6,26.81-125.18,89.39a129.48,129.48,0,0,0-10.75,12c-1.78,8.42-3.36,14.72-4.8,19.26,9.87,8.62,46-5.86-47.06,31.39-11.8,4.72-22.8,8.65-33.07,11.91a173.78,173.78,0,0,1-20.51,30.93C870.82,394.79,993.67,372.91,795,578.15c-43.9,45.35-74.59,74.62-94.26,92.27,42.58-29.13,128.34-74.39,220.72-60.7,128.94,19.11,88.5-25.27,158.06-126.43s50.55-94.83,139-126.42,69.55,0,189.66,0,56.9-31.64,107.51-75.86,50.58-44.28,196-94.86,82.24,6.33,139.11,0c16.09-1.78,25.43-4.67,31.44-9.47,15.11-12.21,7.32-37.26,25.47-91.65C1920.33,47,1914,32.83,1904.5,28.09Z"/><path class="cls-2" d="M0,1318l15.41-.37c179.54-4.29,210.42-17.56,290.76,3.22,13.77,3.56,28.85,4.4,44.39,3.37-.25-4.23-.5-8.64-.75-13.28-9.68-180.6,12.92-129,0-203.17s-9.68,45.14-25.79-138.64c-16.07-183.1-21-271.68-21-272.33-109.5,6-213.12,17.42-303,30.09Z"/><circle class="cls-7" cx="636.49" cy="736.42" r="22.42"/><circle class="cls-7" cx="1053.58" cy="867.17" r="22.42"/><text class="cls-8" transform="translate(326.26 820.94)">M<tspan class="cls-9" x="28.86" y="0">A</tspan><tspan x="50.85" y="0">UMEE</tspan></text><text class="cls-8" transform="translate(1163.5 1056.86)">CU<tspan class="cls-10" x="46.28" y="0">Y</tspan><tspan x="64.84" y="0">AHOGA</tspan></text><text class="cls-11" transform="translate(1084.26 862.15)">Cl<tspan class="cls-12" x="27.96" y="0">ev</tspan><tspan x="60.33" y="0">eland</tspan></text><text class="cls-11" transform="translate(517.87 720.87)"><tspan class="cls-13">T</tspan><tspan x="14.02" y="0">oledo</tspan></text><polyline class="cls-14" points="1164.8 877.62 1164.8 886.2 1162.2 887.63 1161.11 892.39 1159.16 896.68 1152.66 898.11 1151.14 902.16 1149.62 911.68 1147.45 914.3 1138.13 917.16 1126.42 919.07 1116.23 916.21 1111.24 912.4 1104.09 904.06 1096.28 898.35 1090.86 898.35 1087.83 900.73 1085.88 908.83 1085.88 916.21 1085.88 923.36 1085.74 926.08 1079.16 927.88 1079.16 931.45 1072.65 931.45 1069.83 927.64 1062.68 927.88 1058.54 930.5 1053.36 928.83 1049.24 928.36 1044.25 934.07 1041.87 940.5 1041.87 950.99 1044.68 950.99 1046.63 958.85 1046.85 969.09 1049.24 976.71 1050.97 981.47 1053.36 986 1051.84 989.81 1051.4 993.62"/><path class="cls-14" d="M1022.84,1008.92l-2-4.82,3.25-2.68.65-4.64-2.76-3.93,2.76-3.93v-2.86l-2.93-1.61-4.23-4.65-2.27-4.46-2.6-4.47-4.23-2.5v-3l-1.63-4.47v-3.39l-3.41-1.61-4.56-2.68-2.76-2,3.42-4.64,4.22-5.9,2.12-3.75.48-5.54.49-10.89-3.41-2.33-.49-2.5v-5.36l3.41-3.39,2-2.86-.17-3.93-1.13-3.93,1.3-3,3.74-.9s2.11,2,1.95,2.68,3.25,1.79,3.25,1.79l3.41-4.47,4.07-2.68h3.58l4.55,2.15,4.55,3.39h3.74l1.47,2.86,2.76,1.25,2.77-3.22,2-1.43,3.42-.35"/><polyline class="cls-14" points="1029.51 1014.58 1031.46 1010.53 1036.23 1010.53 1041.87 1014.58 1046.63 1016.72 1052.7 1016.72 1057.04 1013.63 1063.98 1016.72 1071.57 1019.11 1076.55 1022.2 1082.41 1019.34 1089.56 1016.37 1097.59 1019.82 1103.34 1018.15 1107.13 1020.53 1111.68 1024.82 1115.8 1023.15 1120.78 1021.01"/><polyline class="cls-14" points="1068.53 1038.88 1068.53 1046.73 1071.35 1053.64 1075.14 1057.93 1075.14 1064.36 1079.81 1070.32 1082.63 1074.6 1084.58 1079.13 1085.88 1082.7 1093.68 1092.47 1101.27 1099.61 1103.44 1104.38 1107.13 1107.95 1109.29 1114.14 1113.85 1121.29 1119.27 1128.43 1119.27 1135.34 1120.78 1136.29 1125.34 1139.15 1131.32 1139.15"/><polyline class="cls-14" points="1037.31 1213.7 1039.48 1213.7 1040.78 1208.7 1044.68 1207.27 1049.24 1210.49 1052.05 1212.51 1055.52 1209.41 1056.61 1205.6 1061.59 1200.13 1062.89 1198.46 1065.93 1192.27 1069.83 1188.22 1075.25 1179.4 1080.24 1179.4 1082.63 1181.31 1088.91 1181.55 1095.2 1182.26 1098.89 1184.88 1107.13 1181.55 1109.51 1181.07 1112.55 1177.74 1115.36 1177.74 1120.78 1177.74 1127.07 1177.74"/><polyline class="cls-14" points="1073.52 1107 1073.52 1113.43 1076.77 1116.05 1076.77 1128.43 1075.14 1132.24 1073.52 1137.48 1075.14 1142.48 1073.52 1148.68 1075.14 1152.73 1076.77 1155.35 1082.19 1160.35 1085.23 1163.68 1085.23 1167.26 1085.23 1171.78 1085.23 1176.55 1083.95 1181.36"/><polyline class="cls-14" points="1202.74 1059.36 1201.33 1061.5 1199.27 1064 1200.57 1067.93 1201.44 1074.24 1196.56 1077.7 1195.69 1080.08 1193.53 1082.82 1190.27 1084.13 1187.02 1083.53 1183.66 1080.08 1181.06 1076.87 1181.06 1067.1 1178.78 1063.17 1176.61 1060.31 1175.42 1057.81 1174.99 1052.93 1172.28 1051.02 1171.3 1047.93 1161.65 1047.93 1160.57 1050.19 1159.16 1056.14 1157.86 1059.12 1154.07 1061.26 1152.76 1064.48 1148.43 1064.24 1144.63 1062.1 1143.98 1057.93 1142.25 1055.19 1139.32 1053.88 1134.88 1054.36 1133.6 1054.83"/><polyline class="cls-14" points="1192.6 1097.53 1196.02 1101.82 1196.02 1105.57 1196.83 1112 1196.83 1117.36 1196.83 1125.75 1196.83 1129.86 1195.86 1133.79 1196.18 1136.47 1195.69 1139.15 1194.72 1141.12 1190.33 1145.4 1187.56 1151.12 1184.31 1154.87 1185.12 1160.23 1187.56 1164.34 1187.73 1169.52 1189.68 1172.02 1187.89 1174.7 1182.03 1175.77 1178.94 1175.77 1177.64 1177.74 1173.74 1181.67 1173.74 1186.13 1168.54 1189.17 1164.47 1189.17 1164.47 1190.96 1159.11 1189.35 1157.15 1191.85 1155.2 1194.89 1152.11 1195.72 1150 1198.1 1145.77 1199.89 1143.17 1202.75"/><polyline class="cls-14" points="1257.81 1144.18 1261.28 1136.77 1265.18 1130.58 1265.18 1123.43 1261.5 1114.38 1261.5 1103.42 1253.91 1094.37 1247.4 1084.13 1250.87 1079.13 1251.74 1066.03 1251.31 1057.69 1246.38 1053.53 1243.5 1055.79 1235.26 1047.93 1230.49 1045.78 1230.49 1038.88 1223.99 1035.3 1220.52 1031.61 1214.88 1021.96 1211.85 1015.29 1209.23 1010.53 1206.64 998.14 1196.83 986.71 1196.83 981.95 1191.9 972.42 1185.39 964.32 1179.76 959.08 1171.95 959.08 1161.11 959.08 1158.74 955.46 1155.47 956.7 1148.97 953.84 1143.17 958.61 1143.17 962.89 1133.6 965.75 1125.12 968.61 1117.32 971.95 1112.98 975.28 1105.61 978.91"/><polyline class="cls-14" points="1242.63 978.85 1242.63 985.04 1242.63 988.62 1243.93 991.71 1240.03 998.62 1241.98 1002.19 1245.24 1003.62 1248.7 1008.63 1256.51 1008.63 1256.51 1014.58 1250.44 1019.58 1248.27 1021.73 1246.32 1026.73 1245.24 1037.92 1245.67 1041.49 1243.28 1045.78 1244.8 1049.01 1246.52 1053.94"/><polyline class="cls-14" points="1158.29 1222.04 1159.38 1229.18 1158.29 1240.38 1161.98 1245.38 1172.39 1252.77 1178.46 1252.77 1187.56 1254.67 1187.56 1262.77 1188.65 1273.72 1193.2 1279.92 1198.29 1281.83 1201.44 1283.01 1205.34 1286.35 1213.58 1286.35 1217.48 1290.64 1219 1299.45 1224.2 1302.31 1224.2 1308.74 1222.69 1313.03 1220.3 1315.64 1215.53 1315.64 1212.5 1309.21 1213.36 1305.4 1218.78 1307.9 1221.39 1312.55"/><polyline class="cls-14" points="1263.23 1197.8 1266.48 1207.03 1269.3 1213.7 1269.3 1219.89 1267.78 1227.52 1267.78 1234.9 1266.27 1238.47 1266.27 1248.95 1269.3 1252.29 1271.04 1256.58"/><polyline class="cls-14" points="1198.78 1282.02 1204.15 1278.73 1209.23 1276.7 1214.66 1274.44 1221.6 1275.39 1225.51 1280.75 1230.49 1285.04 1235.91 1286.71 1243.61 1285.4 1246.32 1281.35 1251.41 1280.57 1258.24 1281.23 1263.23 1279.56 1266.27 1271.58 1271.04 1264.91 1274.4 1263.6 1275.49 1263.43 1277.32 1267.53 1276.02 1275.75 1277.32 1280.04 1279.82 1281.11 1279.82 1287.42 1279.82 1292.07 1277.54 1294.21 1274.61 1290.76 1273.2 1285.87 1274.18 1279.8 1272.23 1277.3 1269.41 1277.77 1266.38 1280.39 1263.88 1280.28"/><path class="cls-14" d="M1263,1319.93v6.43l1,6,3,1.67.75-.84,3.47-3.69,1-.86,1.79.09.49,1.51,2.52.72,2-1.7-1.54-2.26-1.39-2.65-1.54-1-1.87,1.6s-1.54,0-1.67-.26l-1-2.24-2.28-4h-3.25v-1l-1-11.7-2.27-.8-1.31-1.61-3.17-2.06v-2.76l-3-1.25-1.39-3-.65-3.13-1.22-2.68-1.62-.71-2.85-.89-1.86-2.23"/><path class="cls-14" d="M1337.82,1271.58l-3.47-2.74-3,1.37s-2.82.78-3.47,0a22,22,0,0,1-1.73-2.92l-3,2.15-1.73-.6-4.56-1.55-3-3.33-1.09-7.38,3.26-6.32,6.28,1.31,5-3.57,4.34-4.76,3.9-6.2,2.39-1.9,1.51-4.76-3.9-5.48-1.08-2.86-1.95-2.62,1.4-5.12,3.8-.48,1.73-4.41-1.19-4.4-3.69-1.91-1.3-1.43-.75-6.78-3.69-2.15-5.42-1.55-2.39-1-3.14,1.79-1.84,1.9-4.77,3.1H1305l-2-1.79v-5l-2.61-3-2.49-5-2.6-2-3-1.67-2.27-1.67-2.82-3.09v-6.16"/><polyline class="cls-14" points="1361.02 899.3 1358.41 903.82 1355.16 906.21 1351.47 910.97 1350.61 916.92 1344.97 918.59 1341.28 916.21 1340.2 923.12 1336.95 930.02 1335.86 935.98 1334.35 939.31 1334.35 953.13 1334.35 962.18 1338.25 963.37 1340.85 970.99 1346.7 973.85 1353.64 974.8 1362.97 974.8 1369.47 978.85 1375.11 984.81 1374.02 990.05 1370.55 993.86"/><path class="cls-14" d="M1410.67,925.62l-5.21-.72-5-.83-1.19,4-3.14,7.38-2.13.84-2.42.95-3.91.71-2.17,2.62-4.77,5-2.49,4.4s-1.08,8.1-1.19,8.58.11,6.78,0,7.14-4.12,4.88-4.12,4.88l-4.12,2.27-2.71,3,6.4,1.2,3.36-1.79,2.49-2.38,4.12-3.22,4.23-6.55.32-5.48,2.5-6.07,2.49-3.81,2.6-8.1-.22-2.14"/><polyline class="cls-14" points="1431.91 743.76 1436.03 747.81 1436.03 749.72 1433.97 756.15 1433.97 762.34 1433.97 769.49 1429.96 769.49 1425.84 772.35 1423.46 775.68 1421.51 778.78 1418.04 782.11 1415.43 783.31 1409.37 783.31 1407.41 788.07 1406.33 789.49 1403.94 796.4 1402.43 803.31 1400.91 806.41 1401.99 814.03 1400.91 819.51 1400.91 822.6 1399.83 826.89 1399.83 832.85 1401.34 837.13 1405.46 840.23 1408.28 842.38 1404.16 845.71 1402.86 851.9 1400.91 855.47 1395.49 860.24 1393.54 863.1 1393.54 871.91 1397.22 875.96 1397.66 879.76 1398.31 882.63 1402.43 881.44 1406.33 882.63 1408.71 888.34 1408.71 893.82 1413.05 897.4"/><polyline class="cls-14" points="1472.02 731.14 1469.2 738.76 1467.04 743.76 1463.35 749.96 1457.93 752.1 1455.55 757.82 1454.46 763.29 1454.46 772.58 1456.41 777.59 1454.46 780.44 1454.46 789.02 1454.46 795.93 1452.51 796.88 1447.09 800.21 1446.01 805.22 1449.04 812.84 1449.47 819.03 1448.61 827.61 1451.64 834.75 1452.73 841.18 1449.91 847.61 1446.01 855 1442.97 860 1442.97 868.57 1436.03 873.1 1430.39 877.86 1426.28 881.67 1423.02 884.29 1419.55 886.2 1418.04 888.82 1414.78 894.53 1413.05 897.39"/><polyline class="cls-14" points="1474.19 773.3 1476.58 778.3 1476.58 785.92 1474.19 789.5 1475.38 796.16 1474.19 798.31 1472.02 804.26 1472.02 812.36 1472.02 817.6 1470.29 824.75 1470.29 833.08 1469.2 844.04 1469.2 849.76 1466.6 855 1462.48 858.81 1455.55 862.14 1449.04 865.95 1442.97 865.95"/><polyline class="cls-14" points="1452.43 839.43 1453.76 837.25 1453.76 830.11 1453.76 823.5 1453.1 819.63 1449.38 817.63"/><path class="cls-15" d="M1041.87,841.18v9.29h5.2l3.9,4.29h7.57l6.74,9.29v10l-6.74,4.29-5,5.71v12.87l5,2.85,6.74,5h2.6v14.29l8.46,3.57,8.45,3.57v6.43l5.86,10.72,3.25,11.44,1,3.39,4.71,3.22,2.93,1.78s.49,5,0,5.54-1.3,5.18-1.3,5.18l4.39,5,4.88,2.68,2.27,3.4v8.93l1.47,4.46,4.39,5.54v5.72l-2.61,2.5,4.77,8.87v7.38l2.61,7.15,6.72,7.15,1.3,7.86,3.9,7.62-2.38,9,2.38,9.29,3.9,9.76,4.34,4.53-3.69,6.19,1.09,6.43,1.3,8.34-1.52,5.6-2,4.28-1.63,5-4.22,8.21-1.78,4.74,1.38,6.44-2.53,2.76-4.23,2.14-1.63,7.86v2.5l4.88,6.08-2,7.86v3.57l3.25,10,4.23,7.15,2,6.79H1144l1.89,4.64,4.88,1.43,2.6,6.07,4.88,7.15h2l4.88-2.86,3.91-2.5h6.17l4.56,3.22L1184,1222l4.55-7.15v-6.07l3.9-9.65,4.55-3.57,3.58-3.22,3.25,2.15,3.26-.36,3.9-1.43,8.13,6.08,3.9,2.14,4.56,4.64,5.85-1.07,3.58-.71,13-2.5h3.9l5.85-1.79,7.16-3.57,2.92-5.36,2-3.57,2.6-5,5.2-7.5,3.25-4.29,2.93-.71,6.72-8.93,2.28-1.18,7.69-1.2,4.47-6.2v-12.38l2.91-5.24,2.6-6.2v-9.52l-2.6-2.86v-11l13.87-9.53,6.07-3.81,7,.13,5.16-9.18,5.21-2.38,6.94-6.67,6.5-3.81,5.64-5.24,8.67-13.34,6.07-8.1,5.21-7.62v-7.62l7.8-3.33,3.9-2.39,4.34-9.05,3.47-11.19V987.9l2.82-8.81V972.9l4.55-7.15v-2.62l-2.82-2.86-.87-10.48.22-11.19-.65-1.67,2.39-3.57.21-2.14-1.3-2.62v-5.48l2.82-6V897.78"/><polyline class="cls-14" points="425.84 590.89 415.36 586.94 409.81 596.43 417.83 621.76 409.81 633.63 409.81 652.62 445.43 663.7 445.43 685.07 451.76 701.69 439.89 723.05 419.31 740.47 409.81 757.09 399.53 767.37 390.82 772.12 390.82 788.74 393.99 798.24 398.74 805.36 402.69 811.69 399.53 820.4 396.36 825.14 390.82 836.22 399.53 847.7 405.86 857.59 408.23 861.35 401.8 876.49 390.82 886.87 390.82 915.07 396.76 929.61 418.72 947.41 425.84 955.72 437.71 968.78 438.6 976.2 438.31 987.77 435.34 999.05 425.84 1008.55 425.84 1016.86 431.18 1041.19 431.18 1047.13 421.29 1059.59 425.84 1074.43 431.18 1080.96 437.12 1095.21 438.9 1112.42 441.27 1126.66 448.99 1137.35 456.7 1133.79 469.76 1122.51 485.19 1111.23 499.44 1096.99 510.12 1089.27 526.74 1089.87 536.83 1092.83 536.83 1107.08"/><polyline class="cls-14" points="409.81 1149.62 399.92 1137.35 399.92 1124.69 409.81 1115.98 412.58 1107.28 399.92 1102.13 385.68 1098.17 370.64 1094.22 350.06 1091.45 332.65 1091.45 319.99 1079.97 301.39 1068.1 285.96 1056.63 271.72 1049.5 253.91 1033.68 237.69 1022.2 230.56 1017.85 219.49 1001.23 211.57 995.29 203.66 988.57 200.89 980.26 195.74 967.99 186.25 959.68 179.52 944.64 190.6 936.34 188.42 925.25 197.33 917.74 208.41 901.51 214.34 894.39 231.75 883.31 241.25 871.04 250.35 866.3 257.87 856.8 270.13 840.97 282.4 827.91 288.73 812.88 296.05 806.94 306.93 799.82 311.68 796.65 309.31 787.95 306.14 778.45 314.45 769.35 321.97 763.81 336.61 751.94 342.94 738.09 347.69 733.74 352.44 725.83 354.27 717.26"/><polyline class="cls-14" points="595.3 1064.05 582.54 1052.77 571.85 1050.1 557.01 1050.1 544.85 1050.1 530.01 1053.96 517.54 1057.07 506.56 1060.48 498.25 1064.05 488.46 1066.42 481.04 1066.42 475.11 1074.14 472.14 1080.37 463.83 1077.99 463.83 1074.14 461.16 1067.31 456.41 1060.78 451.96 1051.58 451.96 1041.19 457.89 1031.1 458.49 1025.46 456.11 1015.08 451.96 1010.92 451.96 1006.17 458.49 999.35 457.6 988.07 458.19 980.65 451.96 976.5 447.21 972.94 440.68 971.45 438.03 971.45"/><polyline class="cls-14" points="352.24 1077.1 358.18 1066.12 364.71 1058.41 371.24 1052.17 381.92 1045.35 389.34 1034.96 398.54 1024.28 402.69 1018.64 407.44 1014.78 407.44 1005.88 413.97 993.71 413.97 974.72 410.41 969.08 404.47 960.18 399.43 949.2 394.68 941.78 396.76 929.61"/><polyline class="cls-14" points="622.3 1096.39 627.94 1082.15 627.94 1064.64 635.07 1058.11 638.92 1047.13 642.48 1039.12 640.11 1031.4 635.07 1017.45 636.55 1001.72 642.48 996.38 641 988.96 641 973.53 638.92 964.63 634.17 959.58 623.79 956.32 613.7 951.87 603.9 948.9 587.88 948.9 578.38 948.9 570.07 952.46 564.14 957.21 556.12 957.21 546.33 957.5 541.58 962.85 536.83 965.22 527.63 964.92 518.43 966.71 508.34 966.71 493.5 967.89 491.72 958.99 484.01 951.27 472.14 948.9 458.78 950.98 442.76 950.38 434.15 951.87 425.84 952.16 422.38 951.69"/><polyline class="cls-14" points="292.69 1021.01 296.05 1013.89 301 1007.56 296.05 1003.36 289.52 999.25 280.42 989.75 273.7 984.61 271.32 981.84 271.32 965.62 277.26 960.08 288.34 952.56 296.05 952.56 304.56 945.44 314.85 937.13 323.55 929.61 336.22 922.49 345.32 922.49 352.24 918.53 355.61 909.03 360.35 906.66 371.04 904.28 390.82 904.28"/><polyline class="cls-14" points="281.21 651.43 289.92 664.89 296.05 674.78 304.56 685.46 313.26 696.15 319.2 708.02 333.84 712.77 348.09 714.75 354.27 717.26 360.75 713.16 368.27 703.27 375.39 693.77 382.51 684.35 390.82 674.78 394.78 663.3 392.4 657.76 384.1 653.81 378.95 651.43 370.25 643.92 367.87 641.15 363.12 637.59"/><polyline class="cls-14" points="319.2 628.09 319.2 636 319.2 644.71 325.53 656.18 329.88 662.91 324.54 671.22 319.2 682.3 319.2 689.82 315.24 693.38 313.26 696.15"/><polyline class="cls-15" points="191.03 936.91 220.9 939.76 269.74 905.27 292.29 905.27 329.69 879.75 349.27 879.75 367.67 861.35 411.6 861.35 424.65 857.79 445.43 857.79 458.49 847.7 472.14 843.54 472.14 831.67 489.94 813.87 513.68 813.87 526.15 808.52 545.14 808.52 575.41 794.87 592.03 778.25 607.47 759.26 628.24 746.8 641.89 728.99 648.3 715.38 657.39 702.12"/><text class="cls-16" transform="translate(863.96 1309.28) scale(0.98 1)">Ohio</text><text class="cls-16" transform="translate(223.12 489.42)">Michi<tspan class="cls-17" x="56.42" y="0">g</tspan><tspan x="70.56" y="0">an</tspan></text><text class="cls-16" transform="translate(1772.86 814.27)"><tspan class="cls-18">P</tspan><tspan class="cls-19" x="13.19" y="0">enn</tspan><tspan class="cls-17" x="53.2" y="0">s</tspan><tspan x="63.52" y="0">yl</tspan><tspan class="cls-20" x="81.19" y="0">v</tspan><tspan x="93.03" y="0">ania</tspan></text><text class="cls-16" transform="translate(1267.54 229.05)">O<tspan class="cls-17" x="18.67" y="0">n</tspan><tspan x="31.76" y="0">tario</tspan></text></svg>