<svg id="Layer_1" data-name="Layer 1" xmlns="http://www.w3.org/2000/svg" viewBox="0 0 3657.71 3176.6"><defs><style>.cls-1,.cls-2{fill:#022127;}.cls-1,.cls-2,.cls-7{stroke:#a5bd8d;}.cls-1,.cls-2,.cls-3{stroke-miterlimit:10;}.cls-1,.cls-3{stroke-width:0.25px;}.cls-2{stroke-width:0.1px;}.cls-3,.cls-4{fill:#a5bd8d;}.cls-3{stroke:#022127;}.cls-4{font-size:42.03px;font-family:MADETOMMY, MADE TOMMY;}.cls-5{letter-spacing:-0.01em;}.cls-6{letter-spacing:0em;}.cls-7,.cls-8{fill:none;stroke-linecap:round;stroke-linejoin:round;}.cls-7{stroke-width:0.5px;}.cls-8{stroke:#fff;}.cls-9{fill:#b2b2b1;}.cls-10{fill:#679a6f;}.cls-11{fill:#4a4f4a;}.cls-12{fill:#684422;}</style></defs><path class="cls-1" d="M1108.25,780.87c-161-.07,73.7,59.82-219.48,9.51C623,744.78,739.9,694.12,635.61,727.1c5.47-8.84,14.31-20.64,28.2-36.58,92.07-105.73,25.35-88.25,25.35-88.25L511.81,546.94c-177.41-55.25-96.95,25.21-213.59,79.32S272.1,669.33,195,826.69,162.51,884.06,25.13,946c-10.84,4.9-20.23,8.77-28.41,11.69v392.41c167-23.64,359.9-45,563.88-56.16,212.45-11.52,436.66-11.94,656.18,7.84,4.21-15.38,10.45-35.93,20-64.68,59.57-178.71,53.63-184.72,71.45-232.35S1260.61,903.47,1344,879.65s-17.82,119.15,83.39-23.81c17-24,31.16-38.28,42.94-46.35C1238.19,794.66,1260,780.93,1108.25,780.87Z"/><path class="cls-2" d="M2268.14,3172.69c32.83-27.6,45.43-31.4,40.82-54.49-15.79-79.3-55.46-222,23.84-325.08S2626,2631.06,2626,2631.06c55.57-265.07,285.45-242.25,278.58-306.13-3.16-30.35-14.28-53.36-23.36-80.19-10.1-29.52-17.75-63.58-9.38-117.6,15.95-103.08,71.35-166.49,79.3-325.08s-31.74-198.21-46.56-346.1-80.31-407.12-112.1-430.91-174.31,39.62-269.44,58.86-23.78,44.22-67.34,171.08S2309,1405.7,2071.07,1508.72s-214.05,55.51-443.94,0C1435,1462.29,1277.2,1349,1230.23,1312.84c-9.26-7.11-14.58-11.48-14.58-11.48-220.86-19.9-446.44-19.47-660.19-7.88.13,1.19,9.21,165.82,39.09,506.13,29.93,341.57,24,119.88,47.92,257.67s-18,41.95,0,377.6,36,77.87,185.78,383.52c46.85,95.49,63.82,137.8,63.7,159.19a23.78,23.78,0,0,1-2.51,11.48c5,9.74,26.83,24.91,100.63,45,131.88,36,227.73,54,245.72,65.91s83.9-86.53,143.84-61.19-36,73.2,131.81,97.16-12,77.93,215.78,0,221.7-143.83,287.61-107.86,119.87-18,95.91,95.91c-6.61,31.32-14.95,32.18-27.3,48.64Z"/><path class="cls-3" d="M3134.25,787.58a7.73,7.73,0,0,0-.72-.36S3133.53,787.34,3134.25,787.58Z"/><path class="cls-2" d="M3654.61,781.7c-58.47,2.18-108.6,3.62-188.17,5.52-289.23,6.88-327.11,1.8-332.19.36-.72-.24-.72-.36-.72-.36l-341,237.83c31.79,23.79,97.34,283,112.1,430.91s54.44,187.57,46.56,346.1-63.35,222-79.3,325.08c-8.37,54-.72,88.08,9.38,117.6,56.35,13.92,115.27,20.14,165,7.29,149-38.54,206.22-13.93,539.12-6l68.12,1.65Z"/><text class="cls-4" transform="translate(2299.83 454.46)">O<tspan class="cls-5" x="33.67" y="0">n</tspan><tspan class="cls-6" x="57.29" y="0">tario</tspan></text><path class="cls-1" d="M3654.61-.16c-131.91,33.85-133.53,66.45-133.53,66.5,17.62,8.78,29.34,35.11,6,105.52-33.64,100.81-19.2,147.23-47.19,169.86,73.82,46.54,98,55.14,98,55.14S3405.9,553.17,3319.94,623.58s-187.6,164.14-187.6,164.14.54.24.72.35c5,1.42,42.36,6.43,327.52-.35,75.24-1.79,138.15-3.18,194-5.19Z"/><path class="cls-1" d="M1296,1242.92c-63.45,43.4-75.18,67.48,0,0Z"/><polyline class="cls-7" points="2146.95 1619.89 2146.95 1635.54 2142.2 1638.14 2140.22 1646.84 2136.66 1654.66 2124.79 1657.27 2122.02 1664.65 2119.25 1682.04 2115.3 1686.82 2098.29 1692.03 2076.92 1695.51 2058.33 1690.3 2049.23 1683.34 2036.18 1668.13 2021.93 1657.7 2012.04 1657.7 2006.51 1662.05 2002.94 1676.82 2002.94 1690.3 2002.94 1703.33 2002.69 1708.31 1990.68 1711.59 1990.68 1718.11 1978.81 1718.11 1973.67 1711.16 1960.62 1711.59 1953.06 1716.37 1943.6 1713.33 1936.09 1712.46 1926.99 1722.89 1922.65 1734.63 1922.65 1753.75 1927.78 1753.75 1931.34 1768.09 1931.74 1786.78 1936.09 1800.68 1939.25 1809.38 1943.6 1817.63 1940.84 1824.59 1940.04 1831.54"/><path class="cls-7" d="M1887.92,1859.46l-3.56-8.8,5.94-4.89,1.18-8.47-5-7.17,5-7.17v-5.22l-5.34-2.93-7.71-8.48-4.16-8.14-4.74-8.15-7.72-4.57v-5.54l-3-8.15v-6.19l-6.23-2.93-8.3-4.89-5-3.59,6.23-8.47,7.72-10.76,3.85-6.84L1858,1718l.89-19.88-6.23-4.24-.89-4.56v-9.78l6.23-6.19,3.57-5.22-.3-7.17-2.08-7.17,2.38-5.54,6.82-1.63s3.86,3.58,3.56,4.89,5.93,3.26,5.93,3.26l6.23-8.15,7.42-4.89H1898l8.31,3.91,8.31,6.19h6.82l2.67,5.22,5,2.28,5-5.87,3.56-2.6,6.24-.66"/><polyline class="cls-7" points="1900.09 1869.79 1903.65 1862.4 1912.35 1862.4 1922.65 1869.79 1931.34 1873.7 1942.42 1873.7 1950.33 1868.05 1962.99 1873.7 1976.84 1878.04 1985.93 1883.69 1996.62 1878.48 2009.67 1873.05 2024.31 1879.35 2034.8 1876.31 2041.71 1880.65 2050.02 1888.47 2057.54 1885.43 2066.64 1881.52"/><polyline class="cls-7" points="1971.3 1914.12 1971.3 1928.46 1976.44 1941.06 1983.36 1948.88 1983.36 1960.62 1991.87 1971.48 1997.01 1979.31 2000.57 1987.56 2002.94 1994.08 2017.19 2011.9 2031.03 2024.94 2034.99 2033.63 2041.71 2040.15 2045.67 2051.45 2053.98 2064.49 2063.87 2077.53 2063.87 2090.13 2066.64 2091.87 2074.95 2097.08 2085.86 2097.08"/><polyline class="cls-7" points="1914.33 2233.11 1918.29 2233.11 1920.66 2223.99 1927.78 2221.38 1936.09 2227.25 1941.23 2230.94 1947.56 2225.29 1949.54 2218.34 1958.64 2208.34 1961.01 2205.3 1966.55 2194 1973.67 2186.61 1983.56 2170.53 1992.66 2170.53 1997.01 2174.01 2008.48 2174.44 2019.96 2175.75 2026.68 2180.53 2041.71 2174.44 2046.07 2173.57 2051.61 2167.49 2056.75 2167.49 2066.64 2167.49 2078.11 2167.49"/><polyline class="cls-7" points="1980.39 2038.41 1980.39 2050.15 1986.33 2054.93 1986.33 2077.53 1983.36 2084.48 1980.39 2094.04 1983.36 2103.17 1980.39 2114.47 1983.36 2121.86 1986.33 2126.64 1996.22 2135.76 2001.76 2141.85 2001.76 2148.37 2001.76 2156.62 2001.76 2165.32 1999.42 2174.1"/><polyline class="cls-7" points="2216.18 1951.49 2213.61 1955.4 2209.85 1959.97 2212.22 1967.14 2213.8 1978.65 2204.9 1984.95 2203.32 1989.3 2199.36 1994.3 2193.43 1996.69 2187.5 1995.6 2181.36 1989.3 2176.62 1983.43 2176.62 1965.62 2172.46 1958.44 2168.51 1953.23 2166.33 1948.67 2165.54 1939.76 2160.59 1936.28 2158.82 1930.63 2141.21 1930.63 2139.23 1934.76 2136.66 1945.62 2134.29 1951.06 2127.36 1954.97 2124.99 1960.84 2117.08 1960.4 2110.16 1956.49 2108.97 1948.88 2105.8 1943.89 2100.46 1941.49 2092.35 1942.37 2090.03 1943.23"/><polyline class="cls-7" points="2197.68 2021.14 2203.91 2028.96 2203.91 2035.8 2205.4 2047.54 2205.4 2057.32 2205.4 2072.64 2205.4 2080.13 2203.62 2087.3 2204.21 2092.19 2203.32 2097.08 2201.54 2100.67 2193.53 2108.49 2188.49 2118.92 2182.55 2125.77 2184.03 2135.55 2188.49 2143.04 2188.78 2152.49 2192.34 2157.06 2189.08 2161.95 2178.4 2163.9 2172.76 2163.9 2170.39 2167.49 2163.26 2174.66 2163.26 2182.81 2153.77 2188.35 2146.35 2188.35 2146.35 2191.61 2136.56 2188.68 2133 2193.24 2129.44 2198.78 2123.8 2200.3 2119.95 2204.65 2112.23 2207.91 2107.49 2213.12"/><polyline class="cls-7" points="2316.66 2106.26 2322.99 2092.74 2330.11 2081.44 2330.11 2068.4 2323.39 2051.88 2323.39 2031.89 2309.54 2015.38 2297.67 1996.69 2304 1987.56 2305.59 1963.66 2304.79 1948.45 2295.8 1940.85 2290.55 1944.97 2275.52 1930.63 2266.82 1926.72 2266.82 1914.12 2254.95 1907.6 2248.62 1900.86 2238.33 1883.26 2232.79 1871.09 2228.03 1862.4 2223.3 1839.8 2205.4 1818.94 2205.4 1810.25 2196.4 1792.86 2184.53 1778.09 2174.24 1768.52 2160 1768.52 2140.22 1768.52 2135.89 1761.91 2129.93 1764.18 2118.07 1758.96 2107.49 1767.65 2107.49 1775.48 2090.03 1780.69 2074.55 1785.91 2060.31 1791.99 2052.4 1798.08 2038.94 1804.7"/><polyline class="cls-7" points="2288.97 1804.6 2288.97 1815.89 2288.97 1822.41 2291.34 1828.06 2284.22 1840.67 2287.78 1847.19 2293.72 1849.79 2300.05 1858.92 2314.29 1858.92 2314.29 1869.79 2303.21 1878.91 2299.26 1882.82 2295.7 1891.95 2293.72 1912.38 2294.51 1918.9 2290.16 1926.72 2292.93 1932.61 2296.06 1941.61"/><polyline class="cls-7" points="2135.08 2248.32 2137.06 2261.36 2135.08 2281.79 2141.8 2290.91 2160.79 2304.39 2171.87 2304.39 2188.49 2307.86 2188.49 2322.64 2190.46 2342.63 2198.77 2353.93 2208.06 2357.42 2213.8 2359.58 2220.93 2365.67 2235.96 2365.67 2243.08 2373.49 2245.85 2389.57 2255.34 2394.78 2255.34 2406.52 2252.57 2414.34 2248.22 2419.12 2239.52 2419.12 2233.98 2407.39 2235.56 2400.43 2245.45 2405 2250.2 2413.47"/><polyline class="cls-7" points="2326.56 2204.09 2332.49 2220.94 2337.63 2233.11 2337.63 2244.41 2334.86 2258.32 2334.86 2271.79 2332.09 2278.31 2332.09 2297.43 2337.63 2303.52 2340.8 2311.34"/><polyline class="cls-7" points="2208.95 2357.76 2218.75 2351.76 2228.03 2348.07 2237.94 2343.94 2250.6 2345.68 2257.72 2355.45 2266.82 2363.28 2276.71 2366.32 2290.75 2363.93 2295.7 2356.54 2304.99 2355.13 2317.45 2356.32 2326.56 2353.28 2332.09 2338.72 2340.8 2326.55 2346.93 2324.16 2348.91 2323.86 2352.27 2331.33 2349.89 2346.33 2352.27 2354.15 2356.82 2356.11 2356.82 2367.62 2356.82 2376.1 2352.66 2380.01 2347.32 2373.71 2344.75 2364.8 2346.53 2353.72 2342.97 2349.15 2337.83 2350.02 2332.29 2354.8 2327.74 2354.58"/><path class="cls-7" d="M2326.16,2427v11.73l1.78,10.86,5.54,3.05,1.38-1.52,6.33-6.74,1.73-1.58,3.26.17.89,2.77,4.6,1.3,3.71-3.1-2.82-4.12-2.52-4.84-2.82-1.79-3.41,2.93s-2.82,0-3-.49l-1.85-4.07-4.16-7.34h-5.93v-1.79l-1.78-21.35-4.16-1.46-2.37-2.94-5.79-3.75v-5.05l-5.49-2.28-2.52-5.54-1.18-5.71-2.23-4.89-3-1.3-5.19-1.63-3.39-4.06"/><path class="cls-7" d="M2462.64,2338.72l-6.33-5-5.54,2.5s-5.14,1.41-6.33,0a41.31,41.31,0,0,1-3.16-5.32l-5.54,3.91-3.16-1.09-8.31-2.82-5.54-6.09-2-13.47,5.94-11.52,11.47,2.39,9.1-6.51,7.91-8.7,7.12-11.3,4.35-3.47,2.77-8.69-7.12-10-2-5.22-3.56-4.78,2.57-9.34,6.93-.87,3.16-8-2.17-8-6.73-3.48-2.37-2.6-1.39-12.39-6.72-3.91-9.89-2.83-4.36-1.74-5.73,3.26-3.36,3.48-8.71,5.65h-11.27l-3.56-3.26v-9.13l-4.75-5.43-4.55-9.12-4.75-3.7-5.54-3-4.15-3-5.14-5.65v-11.24"/><polyline class="cls-7" points="2504.97 1659.44 2500.22 1667.7 2494.29 1672.04 2487.57 1680.73 2485.98 1691.6 2475.7 1694.64 2468.97 1690.3 2466.99 1702.9 2461.06 1715.5 2459.08 1726.37 2456.31 1732.45 2456.31 1757.66 2456.31 1774.17 2463.43 1776.35 2468.18 1790.25 2478.86 1795.47 2491.52 1797.21 2508.53 1797.21 2520.4 1804.6 2530.69 1815.46 2528.71 1825.02 2522.38 1831.98"/><path class="cls-7" d="M2595.57,1707.46l-9.5-1.3-9.1-1.52-2.17,7.39-5.74,13.47-3.88,1.52-4.43,1.74-7.12,1.3-4,4.78L2541,1744l-4.55,8s-2,14.78-2.17,15.64.19,12.39,0,13-7.52,8.91-7.52,8.91l-7.52,4.13-4.94,5.43,11.67,2.18,6.13-3.26,4.55-4.35,7.52-5.87,7.71-11.95.59-10,4.55-11.09,4.55-6.95,4.75-14.78-.39-3.91"/><polyline class="cls-7" points="2634.33 1375.64 2641.85 1383.03 2641.85 1386.5 2638.09 1398.25 2638.09 1409.54 2638.09 1422.58 2630.78 1422.58 2623.26 1427.8 2618.91 1433.88 2615.34 1439.53 2609.02 1445.61 2604.27 1447.79 2593.2 1447.79 2589.63 1456.49 2587.65 1459.08 2583.3 1471.69 2580.53 1484.3 2577.76 1489.95 2579.74 1503.85 2577.76 1513.85 2577.76 1519.5 2575.79 1527.32 2575.79 1538.19 2578.56 1546.01 2586.07 1551.66 2591.21 1555.57 2583.7 1561.66 2581.32 1572.96 2577.76 1579.47 2567.87 1588.16 2564.31 1593.38 2564.31 1609.46 2571.04 1616.85 2571.83 1623.8 2573.01 1629.02 2580.53 1626.85 2587.65 1629.02 2592 1639.44 2592 1649.44 2599.92 1655.97"/><polyline class="cls-7" points="2707.52 1352.61 2702.38 1366.52 2698.42 1375.64 2691.7 1386.94 2681.81 1390.86 2677.46 1401.29 2675.48 1411.28 2675.48 1428.23 2679.04 1437.36 2675.48 1442.57 2675.48 1458.22 2675.48 1470.82 2671.92 1472.56 2662.03 1478.64 2660.05 1487.77 2665.59 1501.68 2666.38 1512.98 2664.8 1528.62 2670.34 1541.66 2672.31 1553.4 2667.17 1565.13 2660.05 1578.6 2654.51 1587.73 2654.51 1603.38 2641.85 1611.63 2631.57 1620.33 2624.05 1627.28 2618.12 1632.06 2611.79 1635.54 2609.02 1640.32 2603.08 1650.75 2599.92 1655.96"/><polyline class="cls-7" points="2711.48 1429.54 2715.83 1438.66 2715.83 1452.57 2711.48 1459.09 2713.66 1471.26 2711.48 1475.17 2707.52 1486.03 2707.52 1500.81 2707.52 1510.37 2704.36 1523.41 2704.36 1538.62 2702.38 1558.61 2702.38 1569.04 2697.63 1578.6 2690.12 1585.56 2677.46 1591.64 2665.59 1598.6 2654.51 1598.6"/><polyline class="cls-7" points="2671.78 1550.21 2674.19 1546.22 2674.19 1533.19 2674.19 1521.13 2672.99 1514.07 2666.2 1510.42"/><path class="cls-8" d="M1922.65,1553.4v16.95h9.48l7.12,7.82h13.81l12.3,16.95v18.25l-12.3,7.82-9,10.43v23.47l9,5.22,12.3,9.12h4.75v26.08l15.43,6.52,15.43,6.52v11.73l10.68,19.56,5.93,20.86,1.78,6.19,8.61,5.87,5.34,3.26s.89,9.13,0,10.11-2.38,9.45-2.38,9.45l8,9.12,8.9,4.89,4.15,6.2v16.29l2.67,8.15,8,10.11v10.43l-4.75,4.56,8.71,16.19V1895l4.75,13,12.26,13,2.37,14.34,7.12,13.91-4.35,16.51,4.35,17,7.12,17.82,7.92,8.26-6.73,11.3,2,11.73,2.37,15.21-2.77,10.22-3.56,7.82-3,9.13-7.72,15-3.23,8.63,2.51,11.77-4.62,5-7.71,3.92-3,14.34v4.56l8.9,11.08-3.56,14.34v6.52l5.93,18.26,7.72,13,3.56,12.38h13.74l3.47,8.48,8.9,2.6,4.75,11.09,8.9,13h3.56l8.9-5.21,7.12-4.56h11.28l8.3,5.86,7.72,3.91,8.31-13V2224.2l7.12-17.6,8.3-6.52,6.53-5.86,5.94,3.91,5.93-.65,7.12-2.61,14.84,11.08,7.12,3.91,8.31,8.48,10.68-2,6.52-1.3,23.74-4.57h7.12l10.68-3.26,13.06-6.51,5.34-9.78,3.56-6.52,4.75-9.13,9.49-13.69,5.94-7.82,5.34-1.31L2380,2136.2l4.17-2.16,14-2.19,8.14-11.3V2098l5.31-9.56,4.75-11.3v-17.38l-4.75-5.22v-20l25.32-17.38,11.07-7,12.73.24,9.43-16.75,9.49-4.35,12.66-12.17,11.87-7,10.29-9.56,15.82-24.34,11.08-14.78,9.49-13.9v-13.91l14.24-6.09,7.13-4.34,7.91-16.52,6.33-20.42v-25.21l5.14-16.08v-11.3l8.31-13v-4.78l-5.15-5.21-1.58-19.13.4-20.42-1.19-3,4.35-6.52.4-3.91-2.38-4.79v-10l5.15-10.87v-35.36"/><polygon class="cls-9" points="1181.13 1327.51 1144.39 1327.51 1149.84 1290.48 1175.2 1290.48 1181.13 1327.51"/><ellipse class="cls-9" cx="1162.76" cy="1327.51" rx="18.37" ry="7.35"/><ellipse class="cls-10" cx="1162.52" cy="1290.55" rx="12.68" ry="4.15"/><path class="cls-11" d="M1174.49,1290.57c-.3,1.92-6.58,3.74-12,3.72s-11.54-1.82-11.89-3.72,5.93-3.86,11.75-3.91S1174.83,1288.5,1174.49,1290.57Z"/><circle class="cls-9" cx="1164.65" cy="1280.81" r="3.91"/><ellipse class="cls-9" cx="1173.14" cy="1277.02" rx="8.49" ry="5.98"/><ellipse class="cls-9" cx="1177.96" cy="1270.51" rx="8.27" ry="6.55" transform="translate(-53.92 52.21) rotate(-2.48)"/><ellipse class="cls-9" cx="1185.77" cy="1274.34" rx="5.62" ry="4.76"/><ellipse class="cls-9" cx="1185.34" cy="1267.32" rx="7.87" ry="6.17"/><polygon class="cls-9" points="2032.11 1579.71 1995.37 1579.71 2000.82 1542.67 2026.19 1542.67 2032.11 1579.71"/><ellipse class="cls-9" cx="2013.74" cy="1579.71" rx="18.37" ry="7.35"/><ellipse class="cls-10" cx="2013.5" cy="1542.75" rx="12.68" ry="4.15"/><path class="cls-11" d="M2025.48,1542.77c-.31,1.92-6.59,3.74-12,3.72s-11.55-1.82-11.9-3.72,5.94-3.86,11.75-3.91S2025.81,1540.7,2025.48,1542.77Z"/><circle class="cls-9" cx="2015.63" cy="1533.01" r="3.91"/><ellipse class="cls-9" cx="2024.12" cy="1529.22" rx="8.49" ry="5.98"/><ellipse class="cls-9" cx="2028.94" cy="1522.71" rx="8.27" ry="6.55" transform="translate(-64.05 89.31) rotate(-2.48)"/><ellipse class="cls-9" cx="2036.75" cy="1526.54" rx="5.62" ry="4.76"/><ellipse class="cls-9" cx="2036.33" cy="1519.52" rx="7.87" ry="6.17"/><polygon class="cls-9" points="1840.47 1628.1 1803.72 1628.1 1809.17 1591.06 1834.54 1591.06 1840.47 1628.1"/><ellipse class="cls-9" cx="1822.1" cy="1628.1" rx="18.37" ry="7.35"/><ellipse class="cls-10" cx="1821.86" cy="1591.13" rx="12.68" ry="4.15"/><path class="cls-11" d="M1833.83,1591.16c-.31,1.92-6.59,3.74-12,3.72s-11.54-1.82-11.89-3.72,5.93-3.86,11.74-3.91S1834.16,1589.08,1833.83,1591.16Z"/><circle class="cls-9" cx="1823.99" cy="1581.4" r="3.91"/><ellipse class="cls-9" cx="1832.47" cy="1577.61" rx="8.49" ry="5.98"/><ellipse class="cls-9" cx="1837.3" cy="1571.1" rx="8.27" ry="6.55" transform="translate(-66.33 81.05) rotate(-2.48)"/><ellipse class="cls-9" cx="1845.11" cy="1574.93" rx="5.62" ry="4.76"/><ellipse class="cls-9" cx="1844.68" cy="1567.91" rx="7.87" ry="6.17"/><polygon class="cls-9" points="2205.4 1818.94 2168.65 1818.94 2174.1 1781.9 2199.47 1781.9 2205.4 1818.94"/><ellipse class="cls-9" cx="2187.02" cy="1818.94" rx="18.37" ry="7.35"/><ellipse class="cls-10" cx="2186.79" cy="1781.97" rx="12.68" ry="4.15"/><path class="cls-11" d="M2198.76,1782c-.31,1.91-6.59,3.73-12.05,3.72s-11.55-1.83-11.9-3.72,5.94-3.86,11.75-3.92S2199.09,1779.92,2198.76,1782Z"/><circle class="cls-9" cx="2188.92" cy="1772.23" r="3.91"/><ellipse class="cls-9" cx="2197.4" cy="1768.45" rx="8.49" ry="5.98"/><ellipse class="cls-9" cx="2202.23" cy="1761.93" rx="8.27" ry="6.55" transform="translate(-74.25 97.04) rotate(-2.48)"/><ellipse class="cls-9" cx="2210.04" cy="1765.76" rx="5.62" ry="4.76"/><ellipse class="cls-9" cx="2209.61" cy="1758.74" rx="7.87" ry="6.17"/><polygon class="cls-9" points="2088.26 2242.63 2051.51 2242.63 2056.96 2205.59 2082.33 2205.59 2088.26 2242.63"/><ellipse class="cls-9" cx="2069.88" cy="2242.63" rx="18.37" ry="7.35"/><ellipse class="cls-10" cx="2069.65" cy="2205.66" rx="12.68" ry="4.15"/><path class="cls-11" d="M2081.62,2205.69c-.31,1.91-6.59,3.73-12,3.72s-11.55-1.83-11.9-3.72,5.94-3.86,11.75-3.92S2082,2203.61,2081.62,2205.69Z"/><circle class="cls-9" cx="2071.77" cy="2195.92" r="3.91"/><ellipse class="cls-9" cx="2080.26" cy="2192.14" rx="8.49" ry="5.98"/><ellipse class="cls-9" cx="2085.09" cy="2185.62" rx="8.27" ry="6.55" transform="translate(-92.71 92.36) rotate(-2.48)"/><ellipse class="cls-9" cx="2092.9" cy="2189.45" rx="5.62" ry="4.76"/><ellipse class="cls-9" cx="2092.47" cy="2182.43" rx="7.87" ry="6.17"/><polygon class="cls-9" points="2147.41 1790.51 2110.66 1790.51 2116.11 1753.47 2141.48 1753.47 2147.41 1790.51"/><ellipse class="cls-9" cx="2129.03" cy="1790.51" rx="18.37" ry="7.35"/><ellipse class="cls-10" cx="2128.8" cy="1753.54" rx="12.68" ry="4.15"/><path class="cls-11" d="M2140.77,1753.57c-.31,1.91-6.59,3.73-12.05,3.72s-11.55-1.83-11.89-3.72,5.93-3.86,11.74-3.92S2141.1,1751.49,2140.77,1753.57Z"/><circle class="cls-9" cx="2130.93" cy="1743.8" r="3.91"/><ellipse class="cls-9" cx="2139.41" cy="1740.02" rx="8.49" ry="5.98"/><ellipse class="cls-9" cx="2144.24" cy="1733.5" rx="8.27" ry="6.55" transform="translate(-73.07 94.5) rotate(-2.48)"/><ellipse class="cls-9" cx="2152.05" cy="1737.33" rx="5.62" ry="4.76"/><ellipse class="cls-9" cx="2151.62" cy="1730.31" rx="7.87" ry="6.17"/><polygon class="cls-9" points="1941.41 1597.41 1904.66 1597.41 1910.12 1560.38 1935.48 1560.38 1941.41 1597.41"/><ellipse class="cls-9" cx="1923.04" cy="1597.41" rx="18.37" ry="7.35"/><ellipse class="cls-10" cx="1922.8" cy="1560.45" rx="12.68" ry="4.15"/><path class="cls-11" d="M1934.77,1560.47c-.31,1.92-6.59,3.74-12,3.72s-11.54-1.82-11.89-3.72,5.93-3.86,11.74-3.91S1935.1,1558.4,1934.77,1560.47Z"/><circle class="cls-9" cx="1924.93" cy="1550.71" r="3.91"/><ellipse class="cls-9" cx="1933.41" cy="1546.92" rx="8.49" ry="5.98"/><ellipse class="cls-9" cx="1938.24" cy="1540.41" rx="8.27" ry="6.55" transform="translate(-64.9 85.4) rotate(-2.48)"/><ellipse class="cls-9" cx="1946.05" cy="1544.24" rx="5.62" ry="4.76"/><ellipse class="cls-9" cx="1945.62" cy="1537.22" rx="7.87" ry="6.17"/><polygon class="cls-9" points="2336 2135.76 2299.26 2135.76 2304.71 2098.72 2330.07 2098.72 2336 2135.76"/><ellipse class="cls-9" cx="2317.63" cy="2135.76" rx="18.37" ry="7.35"/><ellipse class="cls-10" cx="2317.39" cy="2098.79" rx="12.68" ry="4.15"/><path class="cls-11" d="M2329.36,2098.82c-.31,1.92-6.58,3.74-12.05,3.72s-11.54-1.82-11.89-3.72,5.93-3.86,11.74-3.91S2329.7,2096.74,2329.36,2098.82Z"/><circle class="cls-9" cx="2319.52" cy="2089.06" r="3.91"/><ellipse class="cls-9" cx="2328.01" cy="2085.27" rx="8.49" ry="5.98"/><ellipse class="cls-9" cx="2332.83" cy="2078.76" rx="8.27" ry="6.55" transform="translate(-87.85 102.99) rotate(-2.48)"/><ellipse class="cls-9" cx="2340.64" cy="2082.59" rx="5.62" ry="4.76"/><ellipse class="cls-9" cx="2340.21" cy="2075.57" rx="7.87" ry="6.17"/><polygon class="cls-9" points="1257.87 1372.54 1221.12 1372.54 1226.57 1335.5 1251.94 1335.5 1257.87 1372.54"/><ellipse class="cls-9" cx="1239.49" cy="1372.54" rx="18.37" ry="7.35"/><ellipse class="cls-10" cx="1239.25" cy="1335.57" rx="12.68" ry="4.15"/><path class="cls-11" d="M1251.23,1335.6c-.31,1.91-6.59,3.73-12,3.72s-11.55-1.82-11.9-3.72,5.94-3.86,11.75-3.92S1251.56,1333.52,1251.23,1335.6Z"/><circle class="cls-9" cx="1241.38" cy="1325.83" r="3.91"/><ellipse class="cls-9" cx="1249.87" cy="1322.05" rx="8.49" ry="5.98"/><ellipse class="cls-9" cx="1254.69" cy="1315.53" rx="8.27" ry="6.55" transform="translate(-55.8 55.58) rotate(-2.48)"/><ellipse class="cls-9" cx="1262.5" cy="1319.36" rx="5.62" ry="4.76"/><ellipse class="cls-9" cx="1262.08" cy="1312.34" rx="7.87" ry="6.17"/><polygon class="cls-9" points="920.65 1482.99 883.91 1482.99 889.36 1445.95 914.72 1445.95 920.65 1482.99"/><ellipse class="cls-9" cx="902.28" cy="1482.99" rx="18.37" ry="7.35"/><ellipse class="cls-10" cx="902.04" cy="1446.03" rx="12.68" ry="4.15"/><path class="cls-11" d="M914,1446.05c-.3,1.92-6.58,3.74-12,3.72s-11.54-1.82-11.89-3.72,5.93-3.86,11.74-3.91S914.35,1444,914,1446.05Z"/><circle class="cls-9" cx="904.17" cy="1436.29" r="3.91"/><ellipse class="cls-9" cx="912.66" cy="1432.5" rx="8.49" ry="5.98"/><ellipse class="cls-9" cx="917.48" cy="1425.99" rx="8.27" ry="6.55" transform="translate(-60.9 41.08) rotate(-2.48)"/><ellipse class="cls-9" cx="925.29" cy="1429.82" rx="5.62" ry="4.76"/><ellipse class="cls-9" cx="924.86" cy="1422.8" rx="7.87" ry="6.17"/><path class="cls-12" d="M1189.78,1679.8h-45.3c-1.89,0-3.43-2.91-4.75-6.51V1669c1.32-3.6,1.22-5.76,3.11-5.76l3.73-1.16,3.88-1.29,8.14,2.15,6.67-2.15,8.93,2.2,7-2.2h7.82c1.9,0,4.15,4.61,5,8.1v4.3C1193.21,1676.89,1191.67,1679.8,1189.78,1679.8Z"/><ellipse class="cls-12" cx="1167.13" cy="1677.75" rx="25.03" ry="5.94"/><path class="cls-10" d="M1174.58,1660.56v5.64h2.21v-5.64a5.52,5.52,0,0,0,4.42-5.41v-9.83a5.54,5.54,0,0,0-4.42,5.41v-12.26a5.52,5.52,0,0,0,4.42-5.41v-5.41a5.53,5.53,0,0,0-4.42,5.41v-11h-2.21v11a5.53,5.53,0,0,0-4.41-5.41v5.41a5.53,5.53,0,0,0,4.41,5.41v12.26a5.54,5.54,0,0,0-4.41-5.41v9.83a5.53,5.53,0,0,0,4.41,5.41Z"/><path class="cls-10" d="M1175.58,1623.12v-1a5.52,5.52,0,0,0-4.42-5.41v1A5.52,5.52,0,0,0,1175.58,1623.12Z"/><path class="cls-10" d="M1180.22,1617.71v-1a5.52,5.52,0,0,0-4.42,5.41v1A5.53,5.53,0,0,0,1180.22,1617.71Z"/><path class="cls-10" d="M1155.36,1660.56v5.64h2.21v-5.64a5.53,5.53,0,0,0,4.41-5.41v-9.83a5.54,5.54,0,0,0-4.41,5.41v-12.26a5.53,5.53,0,0,0,4.41-5.41v-5.41a5.53,5.53,0,0,0-4.41,5.41v-11h-2.21v11a5.53,5.53,0,0,0-4.42-5.41v5.41a5.52,5.52,0,0,0,4.42,5.41v12.26a5.54,5.54,0,0,0-4.42-5.41v9.83a5.52,5.52,0,0,0,4.42,5.41Z"/><path class="cls-10" d="M1156.35,1623.12v-1a5.53,5.53,0,0,0-4.41-5.41v1A5.53,5.53,0,0,0,1156.35,1623.12Z"/><path class="cls-10" d="M1161,1617.71v-1a5.52,5.52,0,0,0-4.42,5.41v1A5.52,5.52,0,0,0,1161,1617.71Z"/><ellipse class="cls-10" cx="1175.69" cy="1666.15" rx="1.1" ry="0.45"/><ellipse class="cls-10" cx="1156.46" cy="1666.2" rx="1.1" ry="0.45"/><path class="cls-12" d="M1124.27,1591.57H1079c-1.89,0-3.43-2.92-4.75-6.51v-4.3c1.32-3.59,1.22-5.75,3.11-5.75l3.73-1.16,3.88-1.29,8.14,2.15,6.67-2.15,8.93,2.2,7-2.2h7.82c1.9,0,4.15,4.61,5,8.1v4.3C1127.7,1588.65,1126.16,1591.57,1124.27,1591.57Z"/><ellipse class="cls-12" cx="1101.62" cy="1589.52" rx="25.03" ry="5.94"/><path class="cls-10" d="M1109.07,1572.33V1578h2.21v-5.63a5.52,5.52,0,0,0,4.42-5.41v-9.83a5.52,5.52,0,0,0-4.42,5.41v-12.26a5.52,5.52,0,0,0,4.42-5.41v-5.41a5.52,5.52,0,0,0-4.42,5.41v-11h-2.21v11a5.52,5.52,0,0,0-4.42-5.41v5.41a5.53,5.53,0,0,0,4.42,5.41v12.26a5.52,5.52,0,0,0-4.42-5.41v9.83a5.53,5.53,0,0,0,4.42,5.41Z"/><path class="cls-10" d="M1110.07,1534.89v-1a5.52,5.52,0,0,0-4.42-5.41v1A5.52,5.52,0,0,0,1110.07,1534.89Z"/><path class="cls-10" d="M1114.7,1529.48v-1a5.53,5.53,0,0,0-4.41,5.41v1A5.53,5.53,0,0,0,1114.7,1529.48Z"/><path class="cls-10" d="M1089.85,1572.33V1578h2.21v-5.63a5.53,5.53,0,0,0,4.41-5.41v-9.83a5.53,5.53,0,0,0-4.41,5.41v-12.26a5.53,5.53,0,0,0,4.41-5.41v-5.41a5.53,5.53,0,0,0-4.41,5.41v-11h-2.21v11a5.52,5.52,0,0,0-4.42-5.41v5.41a5.52,5.52,0,0,0,4.42,5.41v12.26a5.52,5.52,0,0,0-4.42-5.41v9.83a5.52,5.52,0,0,0,4.42,5.41Z"/><path class="cls-10" d="M1090.84,1534.89v-1a5.52,5.52,0,0,0-4.42-5.41v1A5.53,5.53,0,0,0,1090.84,1534.89Z"/><path class="cls-10" d="M1095.48,1529.48v-1a5.52,5.52,0,0,0-4.42,5.41v1A5.52,5.52,0,0,0,1095.48,1529.48Z"/><ellipse class="cls-10" cx="1110.18" cy="1577.91" rx="1.1" ry="0.45"/><ellipse class="cls-10" cx="1090.95" cy="1577.96" rx="1.1" ry="0.45"/><path class="cls-12" d="M1087,1421.16h-45.3c-1.89,0-3.43-2.91-4.75-6.51v-4.29c1.32-3.6,1.22-5.76,3.11-5.76l3.73-1.16,3.88-1.29,8.14,2.15,6.67-2.15,8.93,2.2,7.05-2.2h7.82c1.9,0,4.15,4.61,5,8.1v4.3C1090.38,1418.25,1088.85,1421.16,1087,1421.16Z"/><ellipse class="cls-12" cx="1064.3" cy="1419.11" rx="25.03" ry="5.94"/><path class="cls-10" d="M1071.76,1401.92v5.64h2.2v-5.64a5.52,5.52,0,0,0,4.42-5.41v-9.83a5.55,5.55,0,0,0-4.42,5.41v-12.26a5.52,5.52,0,0,0,4.42-5.41V1369a5.54,5.54,0,0,0-4.42,5.41v-11h-2.2v11a5.54,5.54,0,0,0-4.42-5.41v5.41a5.52,5.52,0,0,0,4.42,5.41v12.26a5.55,5.55,0,0,0-4.42-5.41v9.83a5.52,5.52,0,0,0,4.42,5.41Z"/><path class="cls-10" d="M1072.75,1364.48v-1a5.52,5.52,0,0,0-4.42-5.41v1A5.52,5.52,0,0,0,1072.75,1364.48Z"/><path class="cls-10" d="M1077.39,1359.07v-1a5.52,5.52,0,0,0-4.42,5.41v1A5.52,5.52,0,0,0,1077.39,1359.07Z"/><path class="cls-10" d="M1052.53,1401.92v5.64h2.21v-5.64a5.52,5.52,0,0,0,4.42-5.41v-9.83a5.54,5.54,0,0,0-4.42,5.41v-12.26a5.52,5.52,0,0,0,4.42-5.41V1369a5.53,5.53,0,0,0-4.42,5.41v-11h-2.21v11a5.53,5.53,0,0,0-4.42-5.41v5.41a5.52,5.52,0,0,0,4.42,5.41v12.26a5.54,5.54,0,0,0-4.42-5.41v9.83a5.52,5.52,0,0,0,4.42,5.41Z"/><path class="cls-10" d="M1053.53,1364.48v-1a5.53,5.53,0,0,0-4.42-5.41v1A5.52,5.52,0,0,0,1053.53,1364.48Z"/><path class="cls-10" d="M1058.16,1359.07v-1a5.52,5.52,0,0,0-4.42,5.41v1A5.52,5.52,0,0,0,1058.16,1359.07Z"/><ellipse class="cls-10" cx="1072.86" cy="1407.51" rx="1.1" ry="0.45"/><ellipse class="cls-10" cx="1053.63" cy="1407.56" rx="1.1" ry="0.45"/><path class="cls-12" d="M923.13,1310.76h-45.3c-1.89,0-3.43-2.92-4.75-6.51V1300c1.32-3.6,1.22-5.76,3.11-5.76l3.73-1.15,3.88-1.29,8.14,2.15,6.67-2.15,8.93,2.2,7.05-2.2h7.82c1.9,0,4.15,4.6,5,8.1v4.29C926.56,1307.84,925,1310.76,923.13,1310.76Z"/><ellipse class="cls-12" cx="900.48" cy="1308.71" rx="25.03" ry="5.94"/><path class="cls-10" d="M907.94,1291.52v5.63h2.2v-5.63a5.52,5.52,0,0,0,4.42-5.41v-9.83a5.53,5.53,0,0,0-4.42,5.41v-12.26a5.53,5.53,0,0,0,4.42-5.41v-5.41a5.53,5.53,0,0,0-4.42,5.41v-11h-2.2v11a5.53,5.53,0,0,0-4.42-5.41V1264a5.52,5.52,0,0,0,4.42,5.41v12.26a5.53,5.53,0,0,0-4.42-5.41v9.83a5.52,5.52,0,0,0,4.42,5.41Z"/><path class="cls-10" d="M908.93,1254.08v-1a5.52,5.52,0,0,0-4.42-5.41v1A5.52,5.52,0,0,0,908.93,1254.08Z"/><path class="cls-10" d="M913.57,1248.67v-1a5.52,5.52,0,0,0-4.42,5.41v1A5.52,5.52,0,0,0,913.57,1248.67Z"/><path class="cls-10" d="M888.71,1291.52v5.63h2.21v-5.63a5.52,5.52,0,0,0,4.42-5.41v-9.83a5.52,5.52,0,0,0-4.42,5.41v-12.26a5.53,5.53,0,0,0,4.42-5.41v-5.41a5.52,5.52,0,0,0-4.42,5.41v-11h-2.21v11a5.52,5.52,0,0,0-4.42-5.41V1264a5.52,5.52,0,0,0,4.42,5.41v12.26a5.52,5.52,0,0,0-4.42-5.41v9.83a5.52,5.52,0,0,0,4.42,5.41Z"/><path class="cls-10" d="M889.71,1254.08v-1a5.53,5.53,0,0,0-4.42-5.41v1A5.52,5.52,0,0,0,889.71,1254.08Z"/><path class="cls-10" d="M894.34,1248.67v-1a5.52,5.52,0,0,0-4.42,5.41v1A5.52,5.52,0,0,0,894.34,1248.67Z"/><ellipse class="cls-10" cx="909.04" cy="1297.1" rx="1.1" ry="0.45"/><ellipse class="cls-10" cx="889.81" cy="1297.15" rx="1.1" ry="0.45"/><path class="cls-12" d="M870.34,1517.26H825c-1.89,0-3.43-2.91-4.75-6.51v-4.29c1.32-3.6,1.22-5.76,3.11-5.76l3.73-1.15,3.88-1.3,8.13,2.15,6.68-2.15,8.93,2.2,7-2.2h7.82c1.89,0,4.15,4.61,5,8.11v4.29C873.77,1514.35,872.23,1517.26,870.34,1517.26Z"/><ellipse class="cls-12" cx="847.69" cy="1515.21" rx="25.03" ry="5.94"/><path class="cls-10" d="M855.14,1498v5.63h2.21V1498a5.54,5.54,0,0,0,4.42-5.42v-9.82a5.52,5.52,0,0,0-4.42,5.41v-12.26a5.54,5.54,0,0,0,4.42-5.42v-5.41a5.54,5.54,0,0,0-4.42,5.41v-11h-2.21v11a5.54,5.54,0,0,0-4.42-5.41v5.41a5.54,5.54,0,0,0,4.42,5.42v12.26a5.52,5.52,0,0,0-4.42-5.41v9.82a5.54,5.54,0,0,0,4.42,5.42Z"/><path class="cls-10" d="M856.14,1460.59v-1a5.53,5.53,0,0,0-4.42-5.41v1A5.54,5.54,0,0,0,856.14,1460.59Z"/><path class="cls-10" d="M860.77,1455.18v-1a5.54,5.54,0,0,0-4.42,5.41v1A5.54,5.54,0,0,0,860.77,1455.18Z"/><path class="cls-10" d="M835.92,1498v5.63h2.2V1498a5.54,5.54,0,0,0,4.42-5.42v-9.82a5.53,5.53,0,0,0-4.42,5.41v-12.26a5.54,5.54,0,0,0,4.42-5.42v-5.41a5.55,5.55,0,0,0-4.42,5.41v-11h-2.2v11a5.55,5.55,0,0,0-4.42-5.41v5.41a5.54,5.54,0,0,0,4.42,5.42v12.26a5.53,5.53,0,0,0-4.42-5.41v9.82a5.54,5.54,0,0,0,4.42,5.42Z"/><path class="cls-10" d="M836.91,1460.59v-1a5.53,5.53,0,0,0-4.42-5.41v1A5.54,5.54,0,0,0,836.91,1460.59Z"/><path class="cls-10" d="M841.55,1455.18v-1a5.53,5.53,0,0,0-4.42,5.41v1A5.54,5.54,0,0,0,841.55,1455.18Z"/><ellipse class="cls-10" cx="856.24" cy="1503.61" rx="1.1" ry="0.45"/><ellipse class="cls-10" cx="837.02" cy="1503.66" rx="1.1" ry="0.45"/><path class="cls-12" d="M1974.36,1811.49h-45.3c-1.89,0-3.43-2.91-4.75-6.51v-4.29c1.32-3.6,1.22-5.76,3.11-5.76l3.73-1.15,3.88-1.3,8.14,2.15,6.67-2.15,8.93,2.2,7-2.2h7.82c1.9,0,4.15,4.61,5,8.11v4.29C1977.79,1808.58,1976.26,1811.49,1974.36,1811.49Z"/><ellipse class="cls-12" cx="1951.71" cy="1809.44" rx="25.03" ry="5.94"/><path class="cls-10" d="M1959.17,1792.26v5.63h2.2v-5.63a5.54,5.54,0,0,0,4.42-5.42V1777a5.52,5.52,0,0,0-4.42,5.41v-12.26a5.54,5.54,0,0,0,4.42-5.42v-5.41a5.54,5.54,0,0,0-4.42,5.41v-11h-2.2v11a5.55,5.55,0,0,0-4.42-5.41v5.41a5.54,5.54,0,0,0,4.42,5.42v12.26a5.53,5.53,0,0,0-4.42-5.41v9.82a5.54,5.54,0,0,0,4.42,5.42Z"/><path class="cls-10" d="M1960.16,1754.82v-1a5.53,5.53,0,0,0-4.42-5.41v1A5.54,5.54,0,0,0,1960.16,1754.82Z"/><path class="cls-10" d="M1964.8,1749.4v-1a5.53,5.53,0,0,0-4.42,5.41v1A5.54,5.54,0,0,0,1964.8,1749.4Z"/><path class="cls-10" d="M1939.94,1792.26v5.63h2.21v-5.63a5.54,5.54,0,0,0,4.42-5.42V1777a5.52,5.52,0,0,0-4.42,5.41v-12.26a5.54,5.54,0,0,0,4.42-5.42v-5.41a5.54,5.54,0,0,0-4.42,5.41v-11h-2.21v11a5.54,5.54,0,0,0-4.42-5.41v5.41a5.54,5.54,0,0,0,4.42,5.42v12.26a5.52,5.52,0,0,0-4.42-5.41v9.82a5.54,5.54,0,0,0,4.42,5.42Z"/><path class="cls-10" d="M1940.93,1754.82v-1a5.53,5.53,0,0,0-4.41-5.41v1A5.55,5.55,0,0,0,1940.93,1754.82Z"/><path class="cls-10" d="M1945.57,1749.4v-1a5.53,5.53,0,0,0-4.42,5.41v1A5.54,5.54,0,0,0,1945.57,1749.4Z"/><ellipse class="cls-10" cx="1960.27" cy="1797.84" rx="1.1" ry="0.45"/><ellipse class="cls-10" cx="1941.04" cy="1797.89" rx="1.1" ry="0.45"/><path class="cls-12" d="M2149,1918.07h-45.3c-1.89,0-3.43-2.92-4.75-6.51v-4.3c1.32-3.6,1.22-5.76,3.11-5.76l3.73-1.15,3.88-1.29,8.14,2.15,6.67-2.15,8.93,2.2,7.05-2.2h7.82c1.9,0,4.15,4.6,5,8.1v4.29C2152.45,1915.15,2150.91,1918.07,2149,1918.07Z"/><ellipse class="cls-12" cx="2126.37" cy="1916.02" rx="25.03" ry="5.94"/><path class="cls-10" d="M2133.82,1898.83v5.63H2136v-5.63a5.52,5.52,0,0,0,4.42-5.41v-9.83A5.52,5.52,0,0,0,2136,1889v-12.26a5.52,5.52,0,0,0,4.42-5.41v-5.41a5.52,5.52,0,0,0-4.42,5.41v-11h-2.21v11a5.53,5.53,0,0,0-4.41-5.41v5.41a5.53,5.53,0,0,0,4.41,5.41V1889a5.53,5.53,0,0,0-4.41-5.41v9.83a5.53,5.53,0,0,0,4.41,5.41Z"/><path class="cls-10" d="M2134.82,1861.39v-1a5.52,5.52,0,0,0-4.42-5.41v1A5.52,5.52,0,0,0,2134.82,1861.39Z"/><path class="cls-10" d="M2139.46,1856v-1a5.52,5.52,0,0,0-4.42,5.41v1A5.53,5.53,0,0,0,2139.46,1856Z"/><path class="cls-10" d="M2114.6,1898.83v5.63h2.21v-5.63a5.53,5.53,0,0,0,4.42-5.41v-9.83a5.52,5.52,0,0,0-4.42,5.41v-12.26a5.53,5.53,0,0,0,4.42-5.41v-5.41a5.52,5.52,0,0,0-4.42,5.41v-11h-2.21v11a5.52,5.52,0,0,0-4.42-5.41v5.41a5.52,5.52,0,0,0,4.42,5.41V1889a5.52,5.52,0,0,0-4.42-5.41v9.83a5.52,5.52,0,0,0,4.42,5.41Z"/><path class="cls-10" d="M2115.59,1861.39v-1a5.53,5.53,0,0,0-4.41-5.41v1A5.53,5.53,0,0,0,2115.59,1861.39Z"/><path class="cls-10" d="M2120.23,1856v-1a5.52,5.52,0,0,0-4.42,5.41v1A5.52,5.52,0,0,0,2120.23,1856Z"/><ellipse class="cls-10" cx="2134.93" cy="1904.41" rx="1.1" ry="0.45"/><ellipse class="cls-10" cx="2115.7" cy="1904.46" rx="1.1" ry="0.45"/><path class="cls-12" d="M2072.22,2005.5h-45.3c-1.89,0-3.43-2.92-4.75-6.52v-4.29c1.32-3.6,1.22-5.76,3.11-5.76l3.73-1.15,3.88-1.29,8.14,2.15,6.67-2.15,8.93,2.2,7-2.2h7.82c1.9,0,4.15,4.6,5,8.1v4.29C2075.65,2002.58,2074.11,2005.5,2072.22,2005.5Z"/><ellipse class="cls-12" cx="2049.57" cy="2003.45" rx="25.03" ry="5.94"/><path class="cls-10" d="M2057,1986.26v5.63h2.21v-5.63a5.54,5.54,0,0,0,4.42-5.41V1971a5.52,5.52,0,0,0-4.42,5.41v-12.26a5.53,5.53,0,0,0,4.42-5.41v-5.41a5.52,5.52,0,0,0-4.42,5.41v-11H2057v11a5.52,5.52,0,0,0-4.42-5.41v5.41a5.54,5.54,0,0,0,4.42,5.41v12.26a5.52,5.52,0,0,0-4.42-5.41v9.83a5.54,5.54,0,0,0,4.42,5.41Z"/><path class="cls-10" d="M2058,1948.82v-1a5.54,5.54,0,0,0-4.42-5.42v1A5.53,5.53,0,0,0,2058,1948.82Z"/><path class="cls-10" d="M2062.65,1943.41v-1a5.55,5.55,0,0,0-4.41,5.42v1A5.53,5.53,0,0,0,2062.65,1943.41Z"/><path class="cls-10" d="M2037.8,1986.26v5.63H2040v-5.63a5.54,5.54,0,0,0,4.41-5.41V1971a5.53,5.53,0,0,0-4.41,5.41v-12.26a5.53,5.53,0,0,0,4.41-5.41v-5.41a5.53,5.53,0,0,0-4.41,5.41v-11h-2.21v11a5.52,5.52,0,0,0-4.42-5.41v5.41a5.53,5.53,0,0,0,4.42,5.41v12.26a5.52,5.52,0,0,0-4.42-5.41v9.83a5.53,5.53,0,0,0,4.42,5.41Z"/><path class="cls-10" d="M2038.79,1948.82v-1a5.54,5.54,0,0,0-4.42-5.42v1A5.54,5.54,0,0,0,2038.79,1948.82Z"/><path class="cls-10" d="M2043.43,1943.41v-1a5.54,5.54,0,0,0-4.42,5.42v1A5.53,5.53,0,0,0,2043.43,1943.41Z"/><ellipse class="cls-10" cx="2058.12" cy="1991.84" rx="1.1" ry="0.45"/><ellipse class="cls-10" cx="2038.9" cy="1991.89" rx="1.1" ry="0.45"/><path class="cls-12" d="M2167.13,2063.85h-45.29c-1.9,0-3.44-2.91-4.76-6.51v-4.29c1.32-3.6,1.22-5.76,3.12-5.76l3.72-1.15,3.89-1.3,8.13,2.15,6.67-2.15,8.93,2.2,7.06-2.2h7.82c1.89,0,4.14,4.61,5,8.11v4.29C2170.56,2060.94,2169,2063.85,2167.13,2063.85Z"/><ellipse class="cls-12" cx="2144.48" cy="2061.8" rx="25.03" ry="5.94"/><path class="cls-10" d="M2151.94,2044.62v5.63h2.21v-5.63a5.54,5.54,0,0,0,4.41-5.41v-9.83a5.53,5.53,0,0,0-4.41,5.41v-12.26a5.54,5.54,0,0,0,4.41-5.41v-5.42a5.55,5.55,0,0,0-4.41,5.42v-11h-2.21v11a5.54,5.54,0,0,0-4.42-5.42v5.42a5.54,5.54,0,0,0,4.42,5.41v12.26a5.52,5.52,0,0,0-4.42-5.41v9.83a5.54,5.54,0,0,0,4.42,5.41Z"/><path class="cls-10" d="M2152.93,2007.18v-1a5.54,5.54,0,0,0-4.41-5.41v1A5.54,5.54,0,0,0,2152.93,2007.18Z"/><path class="cls-10" d="M2157.57,2001.77v-1a5.54,5.54,0,0,0-4.42,5.41v1A5.54,5.54,0,0,0,2157.57,2001.77Z"/><path class="cls-10" d="M2132.71,2044.62v5.63h2.21v-5.63a5.54,5.54,0,0,0,4.42-5.41v-9.83a5.52,5.52,0,0,0-4.42,5.41v-12.26a5.54,5.54,0,0,0,4.42-5.41v-5.42a5.54,5.54,0,0,0-4.42,5.42v-11h-2.21v11a5.54,5.54,0,0,0-4.42-5.42v5.42a5.54,5.54,0,0,0,4.42,5.41v12.26a5.52,5.52,0,0,0-4.42-5.41v9.83a5.54,5.54,0,0,0,4.42,5.41Z"/><path class="cls-10" d="M2133.71,2007.18v-1a5.54,5.54,0,0,0-4.42-5.41v1A5.54,5.54,0,0,0,2133.71,2007.18Z"/><path class="cls-10" d="M2138.34,2001.77v-1a5.55,5.55,0,0,0-4.42,5.41v1A5.54,5.54,0,0,0,2138.34,2001.77Z"/><ellipse class="cls-10" cx="2153.04" cy="2050.2" rx="1.1" ry="0.45"/><ellipse class="cls-10" cx="2133.82" cy="2050.25" rx="1.1" ry="0.45"/><path class="cls-12" d="M2140.89,2158h-45.3c-1.89,0-3.43-2.92-4.75-6.51v-4.3c1.32-3.59,1.22-5.75,3.11-5.75l3.73-1.16,3.88-1.29,8.13,2.15,6.68-2.15,8.93,2.2,7-2.2h7.82c1.9,0,4.15,4.61,5,8.1v4.3C2144.32,2155.09,2142.78,2158,2140.89,2158Z"/><ellipse class="cls-12" cx="2118.24" cy="2155.96" rx="25.03" ry="5.94"/><path class="cls-10" d="M2125.69,2138.77v5.64h2.21v-5.64a5.52,5.52,0,0,0,4.42-5.41v-9.83a5.52,5.52,0,0,0-4.42,5.41v-12.26a5.52,5.52,0,0,0,4.42-5.41v-5.41a5.52,5.52,0,0,0-4.42,5.41v-11h-2.21v11a5.52,5.52,0,0,0-4.42-5.41v5.41a5.53,5.53,0,0,0,4.42,5.41v12.26a5.52,5.52,0,0,0-4.42-5.41v9.83a5.53,5.53,0,0,0,4.42,5.41Z"/><path class="cls-10" d="M2126.69,2101.33v-1a5.52,5.52,0,0,0-4.42-5.41v1A5.52,5.52,0,0,0,2126.69,2101.33Z"/><path class="cls-10" d="M2131.32,2095.92v-1a5.53,5.53,0,0,0-4.41,5.41v1A5.53,5.53,0,0,0,2131.32,2095.92Z"/><path class="cls-10" d="M2106.47,2138.77v5.64h2.21v-5.64a5.53,5.53,0,0,0,4.41-5.41v-9.83a5.53,5.53,0,0,0-4.41,5.41v-12.26a5.53,5.53,0,0,0,4.41-5.41v-5.41a5.53,5.53,0,0,0-4.41,5.41v-11h-2.21v11a5.52,5.52,0,0,0-4.42-5.41v5.41a5.52,5.52,0,0,0,4.42,5.41v12.26a5.52,5.52,0,0,0-4.42-5.41v9.83a5.52,5.52,0,0,0,4.42,5.41Z"/><path class="cls-10" d="M2107.46,2101.33v-1a5.52,5.52,0,0,0-4.42-5.41v1A5.52,5.52,0,0,0,2107.46,2101.33Z"/><path class="cls-10" d="M2112.1,2095.92v-1a5.52,5.52,0,0,0-4.42,5.41v1A5.52,5.52,0,0,0,2112.1,2095.92Z"/><ellipse class="cls-10" cx="2126.79" cy="2144.35" rx="1.1" ry="0.45"/><ellipse class="cls-10" cx="2107.57" cy="2144.41" rx="1.1" ry="0.45"/><path class="cls-12" d="M2064.09,2085.45h-45.3c-1.9,0-3.43-2.91-4.75-6.51v-4.29c1.32-3.6,1.21-5.76,3.11-5.76l3.72-1.15,3.89-1.3,8.13,2.15,6.67-2.15,8.94,2.2,7.05-2.2h7.82c1.89,0,4.15,4.61,5,8.11v4.29C2067.52,2082.54,2066,2085.45,2064.09,2085.45Z"/><ellipse class="cls-12" cx="2041.44" cy="2083.4" rx="25.03" ry="5.94"/><path class="cls-10" d="M2048.89,2066.22v5.63h2.21v-5.63a5.54,5.54,0,0,0,4.42-5.42V2051a5.52,5.52,0,0,0-4.42,5.41v-12.26a5.54,5.54,0,0,0,4.42-5.42v-5.41a5.54,5.54,0,0,0-4.42,5.41v-11h-2.21v11a5.54,5.54,0,0,0-4.42-5.41v5.41a5.54,5.54,0,0,0,4.42,5.42v12.26a5.52,5.52,0,0,0-4.42-5.41v9.82a5.54,5.54,0,0,0,4.42,5.42Z"/><path class="cls-10" d="M2049.89,2028.78v-1a5.53,5.53,0,0,0-4.42-5.41v1A5.54,5.54,0,0,0,2049.89,2028.78Z"/><path class="cls-10" d="M2054.52,2023.36v-1a5.53,5.53,0,0,0-4.42,5.41v1A5.54,5.54,0,0,0,2054.52,2023.36Z"/><path class="cls-10" d="M2029.66,2066.22v5.63h2.21v-5.63a5.54,5.54,0,0,0,4.42-5.42V2051a5.52,5.52,0,0,0-4.42,5.41v-12.26a5.54,5.54,0,0,0,4.42-5.42v-5.41a5.54,5.54,0,0,0-4.42,5.41v-11h-2.21v11a5.54,5.54,0,0,0-4.41-5.41v5.41a5.55,5.55,0,0,0,4.41,5.42v12.26a5.53,5.53,0,0,0-4.41-5.41v9.82a5.55,5.55,0,0,0,4.41,5.42Z"/><path class="cls-10" d="M2030.66,2028.78v-1a5.53,5.53,0,0,0-4.42-5.41v1A5.54,5.54,0,0,0,2030.66,2028.78Z"/><path class="cls-10" d="M2035.3,2023.36v-1a5.53,5.53,0,0,0-4.42,5.41v1A5.55,5.55,0,0,0,2035.3,2023.36Z"/><ellipse class="cls-10" cx="2049.99" cy="2071.8" rx="1.1" ry="0.45"/><ellipse class="cls-10" cx="2030.77" cy="2071.85" rx="1.1" ry="0.45"/><path class="cls-12" d="M2259,2309.79h-45.29c-1.9,0-3.44-2.92-4.76-6.51V2299c1.32-3.59,1.22-5.75,3.12-5.75l3.72-1.16,3.88-1.29,8.14,2.15,6.67-2.15,8.93,2.2,7.06-2.2h7.81c1.9,0,4.15,4.61,5,8.1v4.3C2262.43,2306.87,2260.9,2309.79,2259,2309.79Z"/><ellipse class="cls-12" cx="2236.35" cy="2307.74" rx="25.03" ry="5.94"/><path class="cls-10" d="M2243.81,2290.55v5.64H2246v-5.64a5.53,5.53,0,0,0,4.41-5.41v-9.83a5.54,5.54,0,0,0-4.41,5.41v-12.26a5.53,5.53,0,0,0,4.41-5.41v-5.41a5.53,5.53,0,0,0-4.41,5.41v-11h-2.21v11a5.52,5.52,0,0,0-4.42-5.41v5.41a5.52,5.52,0,0,0,4.42,5.41v12.26a5.53,5.53,0,0,0-4.42-5.41v9.83a5.52,5.52,0,0,0,4.42,5.41Z"/><path class="cls-10" d="M2244.8,2253.11v-1a5.52,5.52,0,0,0-4.42-5.41v1A5.53,5.53,0,0,0,2244.8,2253.11Z"/><path class="cls-10" d="M2249.44,2247.7v-1a5.52,5.52,0,0,0-4.42,5.41v1A5.52,5.52,0,0,0,2249.44,2247.7Z"/><path class="cls-10" d="M2224.58,2290.55v5.64h2.21v-5.64a5.52,5.52,0,0,0,4.42-5.41v-9.83a5.54,5.54,0,0,0-4.42,5.41v-12.26a5.52,5.52,0,0,0,4.42-5.41v-5.41a5.52,5.52,0,0,0-4.42,5.41v-11h-2.21v11a5.52,5.52,0,0,0-4.42-5.41v5.41a5.52,5.52,0,0,0,4.42,5.41v12.26a5.53,5.53,0,0,0-4.42-5.41v9.83a5.52,5.52,0,0,0,4.42,5.41Z"/><path class="cls-10" d="M2225.58,2253.11v-1a5.52,5.52,0,0,0-4.42-5.41v1A5.52,5.52,0,0,0,2225.58,2253.11Z"/><path class="cls-10" d="M2230.21,2247.7v-1a5.52,5.52,0,0,0-4.42,5.41v1A5.52,5.52,0,0,0,2230.21,2247.7Z"/><ellipse class="cls-10" cx="2244.91" cy="2296.14" rx="1.1" ry="0.45"/><ellipse class="cls-10" cx="2225.68" cy="2296.19" rx="1.1" ry="0.45"/><polyline class="cls-7" points="795.89 1099.28 776.76 1092.06 766.65 1109.39 781.27 1155.59 766.65 1177.25 766.65 1211.91 831.63 1232.13 831.63 1271.12 843.18 1301.44 821.52 1340.43 783.98 1372.19 766.65 1402.52 747.88 1421.29 731.99 1429.95 731.99 1460.28 737.77 1477.61 746.43 1490.6 753.65 1502.16 747.88 1518.04 742.1 1526.7 731.99 1546.92 747.88 1567.86 759.43 1585.91 763.76 1592.77 752.03 1620.38 731.99 1639.34 731.99 1690.78 742.82 1717.31 782.89 1749.8 795.89 1764.96 817.55 1788.79 819.17 1802.33 818.63 1823.45 813.22 1844.02 795.89 1861.35 795.89 1876.51 805.64 1920.92 805.64 1931.75 787.59 1954.49 795.89 1981.57 805.64 1993.48 816.47 2019.47 819.72 2050.88 824.05 2076.87 838.13 2096.36 852.21 2089.87 876.03 2069.29 904.19 2048.71 930.18 2022.72 949.68 2008.64 980 2009.72 998.41 2015.14 998.41 2041.13"/><polyline class="cls-7" points="766.65 2118.75 748.6 2096.36 748.6 2073.26 766.65 2057.38 771.7 2041.49 748.6 2032.11 722.61 2024.89 695.17 2017.67 657.63 2012.61 625.86 2012.61 602.75 1991.67 568.82 1970.01 540.66 1949.08 514.67 1936.08 482.18 1907.2 452.58 1886.26 439.58 1878.32 419.37 1847.99 404.93 1837.16 390.49 1824.89 385.43 1809.73 376.05 1787.35 358.72 1772.18 346.44 1744.75 366.66 1729.59 362.69 1709.37 378.93 1695.65 399.15 1666.05 409.98 1653.05 441.75 1632.84 459.08 1610.46 475.68 1601.79 489.4 1584.46 511.78 1555.58 534.16 1531.76 545.72 1504.32 559.07 1493.49 578.93 1480.5 587.59 1474.72 583.26 1458.84 577.48 1441.51 592.65 1424.9 606.36 1414.79 633.08 1393.13 644.63 1367.86 653.29 1359.92 661.96 1345.48 665.31 1329.85"/><polyline class="cls-7" points="1105.09 1962.61 1081.8 1942.04 1062.31 1937.16 1035.23 1937.16 1013.03 1937.16 985.96 1944.2 963.21 1949.89 943.18 1956.12 928.02 1962.61 910.15 1966.94 896.61 1966.94 885.78 1981.02 880.36 1992.4 865.2 1988.06 865.2 1981.02 860.33 1968.57 851.66 1956.66 843.54 1939.87 843.54 1920.92 854.37 1902.51 855.46 1892.22 851.12 1873.27 843.54 1865.68 843.54 1857.02 855.46 1844.57 853.83 1823.99 854.91 1810.45 843.54 1802.87 834.88 1796.37 822.97 1793.66 818.13 1793.66"/><polyline class="cls-7" points="661.6 1986.44 672.43 1966.4 684.34 1952.32 696.25 1940.95 715.75 1928.5 729.28 1909.55 746.07 1890.05 753.65 1879.76 762.32 1872.72 762.32 1856.48 774.23 1834.28 774.23 1799.62 767.73 1789.33 756.9 1773.09 747.7 1753.05 739.03 1739.51 742.82 1717.31"/><polyline class="cls-7" points="1154.36 2021.64 1164.65 1995.64 1164.65 1963.7 1177.65 1951.78 1184.69 1931.75 1191.19 1917.13 1186.85 1903.05 1177.65 1877.6 1180.36 1848.9 1191.19 1839.15 1188.48 1825.61 1188.48 1797.45 1184.69 1781.21 1176.02 1772 1157.07 1766.05 1138.66 1757.92 1120.79 1752.51 1091.55 1752.51 1074.22 1752.51 1059.06 1759.01 1048.23 1767.67 1033.61 1767.67 1015.74 1768.21 1007.08 1777.96 998.41 1782.29 981.63 1781.75 964.84 1785 946.43 1785 919.35 1787.17 916.1 1770.92 902.02 1756.84 880.36 1752.51 856 1756.3 826.76 1755.22 811.05 1757.92 795.89 1758.47 789.58 1757.61"/><polyline class="cls-7" points="552.94 1884.1 559.07 1871.1 568.1 1859.55 559.07 1851.88 547.16 1844.38 530.55 1827.06 518.28 1817.67 513.95 1812.62 513.95 1783.02 524.78 1772.91 544.99 1759.19 559.07 1759.19 574.6 1746.19 593.37 1731.03 609.25 1717.31 632.36 1704.32 648.96 1704.32 661.6 1697.1 667.73 1679.77 676.4 1675.44 695.89 1671.1 731.99 1671.1"/><polyline class="cls-7" points="532 1209.74 547.88 1234.29 559.07 1252.34 574.6 1271.84 590.48 1291.33 601.31 1312.99 628.02 1321.65 654.02 1325.27 665.31 1329.85 677.12 1322.38 690.84 1304.33 703.84 1287 716.83 1269.8 731.99 1252.34 739.21 1231.4 734.88 1221.3 719.72 1214.08 710.33 1209.74 694.45 1196.03 690.12 1190.97 681.45 1184.47"/><polyline class="cls-7" points="601.31 1167.15 601.31 1181.59 601.31 1197.47 612.86 1218.41 620.8 1230.68 611.06 1245.85 601.31 1266.06 601.31 1279.78 594.09 1286.28 590.48 1291.33"/><polyline class="cls-8" points="367.44 1730.64 421.95 1735.83 511.06 1672.91 552.21 1672.91 620.44 1626.34 656.18 1626.34 689.75 1592.77 769.9 1592.77 793.72 1586.27 831.63 1586.27 855.46 1567.86 880.36 1560.28 880.36 1538.62 912.85 1506.13 956.17 1506.13 978.92 1496.38 1013.57 1496.38 1068.81 1471.47 1099.13 1441.15 1127.29 1406.49 1165.19 1383.75 1190.1 1351.26 1201.8 1326.42 1218.39 1302.23"/><path class="cls-12" d="M1194.07,1433.53h-45.29c-1.9,0-3.44-2.91-4.76-6.51v-4.29c1.32-3.6,1.22-5.76,3.12-5.76l3.72-1.15,3.89-1.3,8.13,2.15,6.67-2.15,8.93,2.2,7.06-2.2h7.81c1.9,0,4.15,4.61,5,8.11v4.29C1197.5,1430.62,1196,1433.53,1194.07,1433.53Z"/><ellipse class="cls-12" cx="1171.42" cy="1431.48" rx="25.03" ry="5.94"/><path class="cls-10" d="M1178.88,1414.29v5.64h2.21v-5.64a5.53,5.53,0,0,0,4.41-5.41v-9.83a5.55,5.55,0,0,0-4.41,5.42V1392.2a5.53,5.53,0,0,0,4.41-5.41v-5.41a5.53,5.53,0,0,0-4.41,5.41v-11h-2.21v11a5.53,5.53,0,0,0-4.42-5.41v5.41a5.52,5.52,0,0,0,4.42,5.41v12.27a5.54,5.54,0,0,0-4.42-5.42v9.83a5.52,5.52,0,0,0,4.42,5.41Z"/><path class="cls-10" d="M1179.87,1376.85v-1a5.53,5.53,0,0,0-4.41-5.41v1A5.53,5.53,0,0,0,1179.87,1376.85Z"/><path class="cls-10" d="M1184.51,1371.44v-1a5.53,5.53,0,0,0-4.42,5.41v1A5.52,5.52,0,0,0,1184.51,1371.44Z"/><path class="cls-10" d="M1159.65,1414.29v5.64h2.21v-5.64a5.52,5.52,0,0,0,4.42-5.41v-9.83a5.54,5.54,0,0,0-4.42,5.42V1392.2a5.52,5.52,0,0,0,4.42-5.41v-5.41a5.53,5.53,0,0,0-4.42,5.41v-11h-2.21v11a5.53,5.53,0,0,0-4.42-5.41v5.41a5.52,5.52,0,0,0,4.42,5.41v12.27a5.54,5.54,0,0,0-4.42-5.42v9.83a5.52,5.52,0,0,0,4.42,5.41Z"/><path class="cls-10" d="M1160.65,1376.85v-1a5.52,5.52,0,0,0-4.42-5.41v1A5.52,5.52,0,0,0,1160.65,1376.85Z"/><path class="cls-10" d="M1165.28,1371.44v-1a5.53,5.53,0,0,0-4.42,5.41v1A5.52,5.52,0,0,0,1165.28,1371.44Z"/><ellipse class="cls-10" cx="1179.98" cy="1419.88" rx="1.1" ry="0.45"/><ellipse class="cls-10" cx="1160.76" cy="1419.93" rx="1.1" ry="0.45"/><polygon class="cls-9" points="986.63 1527.24 949.88 1527.24 955.34 1490.2 980.7 1490.2 986.63 1527.24"/><ellipse class="cls-9" cx="968.26" cy="1527.24" rx="18.37" ry="7.35"/><ellipse class="cls-10" cx="968.02" cy="1490.27" rx="12.68" ry="4.15"/><path class="cls-11" d="M980,1490.3c-.31,1.91-6.58,3.73-12,3.72s-11.54-1.82-11.89-3.72,5.93-3.86,11.74-3.92S980.33,1488.22,980,1490.3Z"/><circle class="cls-9" cx="970.15" cy="1480.53" r="3.91"/><ellipse class="cls-9" cx="978.63" cy="1476.75" rx="8.49" ry="5.98"/><ellipse class="cls-9" cx="983.46" cy="1470.23" rx="8.27" ry="6.55" transform="translate(-62.76 43.98) rotate(-2.48)"/><ellipse class="cls-9" cx="991.27" cy="1474.06" rx="5.62" ry="4.76"/><ellipse class="cls-9" cx="990.84" cy="1467.04" rx="7.87" ry="6.17"/><polygon class="cls-9" points="732.97 1575.08 696.22 1575.08 701.67 1538.04 727.04 1538.04 732.97 1575.08"/><ellipse class="cls-9" cx="714.6" cy="1575.08" rx="18.37" ry="7.35"/><ellipse class="cls-10" cx="714.36" cy="1538.11" rx="12.68" ry="4.15"/><path class="cls-11" d="M726.33,1538.14c-.31,1.92-6.59,3.74-12.05,3.72s-11.54-1.82-11.89-3.72,5.93-3.86,11.74-3.91S726.66,1536.06,726.33,1538.14Z"/><circle class="cls-9" cx="716.49" cy="1528.38" r="3.91"/><ellipse class="cls-9" cx="724.97" cy="1524.59" rx="8.49" ry="5.98"/><ellipse class="cls-9" cx="729.8" cy="1518.08" rx="8.27" ry="6.55" transform="translate(-65.07 33.03) rotate(-2.48)"/><ellipse class="cls-9" cx="737.61" cy="1521.91" rx="5.62" ry="4.76"/><ellipse class="cls-9" cx="737.18" cy="1514.89" rx="7.87" ry="6.17"/><path class="cls-1" d="M3528,51.93c-17.56-8.79-40.9,0-40.9,0s-164.11,11.73-316.6,0q-7.42-.57-13.87-1.33c-41.74-.67-92.95-.72-155,.29-529.57,8.6-339.82,141-505.66,157.55S2321.89,332.68,2272.2,283s124.33-207.19-107.74-41.39-116.08,49.73-232.11,165.76a241.53,241.53,0,0,0-19.93,22.15c-3.3,15.61-6.23,27.29-8.9,35.71,18.3,16,85.36-10.86-87.25,58.21-21.88,8.76-42.28,16-61.32,22.09a323.15,323.15,0,0,1-38,57.35c-105.57,129,122.22,88.4-246.16,468.95-81.39,84.09-138.3,138.35-174.77,171.09,79-54,238-138,409.25-112.56,239.09,35.44,164.11-46.86,293.07-234.42s93.73-175.82,257.82-234.41,129,0,351.66,0,105.51-58.65,199.35-140.65,93.78-82.11,363.32-175.88,152.49,11.73,258,0c29.82-3.31,47.15-8.67,58.29-17.57,28-22.63,13.56-69.08,47.21-169.93C3557.32,87.06,3545.6,60.71,3528,51.93Z"/><path class="cls-2" d="M-3.28,2443.68l28.57-.68c332.9-7.95,390.15-32.57,539.12,6,25.53,6.59,53.5,8.15,82.3,6.23-.46-7.84-.93-16-1.39-24.62-17.94-334.86,24-239.17,0-376.71s-17.94,83.7-47.81-257.06c-29.81-339.5-38.87-503.75-39-504.94-203,11.09-395.17,32.29-561.8,55.79Z"/></svg>